<svg width="570" height="404" viewBox="0 0 570 404" fill="none" xmlns="http://www.w3.org/2000/svg">
<path d="M274.761 266.501C274.761 234.005 263.231 202.562 242.223 177.768C221.215 152.975 192.092 136.439 160.036 131.103C127.98 125.768 95.0713 131.979 67.1651 148.631C39.2589 165.283 18.1659 191.295 7.63962 222.04C-2.88667 252.785 -2.16339 286.267 9.68074 316.529C21.5249 346.79 43.7215 371.868 72.3208 387.299C100.92 402.731 134.067 407.515 165.862 400.8C197.658 394.085 226.04 376.307 245.957 350.629L137.5 266.501H274.761Z" fill="#9B27F7"/>
<mask id="path-2-inside-1_77_270" fill="white">
<path d="M274.76 266.74C274.747 274.218 274.123 281.683 272.894 289.06L137.5 266.5L274.76 266.74Z"/>
</mask>
<path d="M274.76 266.74C274.747 274.218 274.123 281.683 272.894 289.06L137.5 266.5L274.76 266.74Z" fill="#B5FF6B" stroke="white" stroke-width="2" mask="url(#path-2-inside-1_77_270)"/>
<path d="M271.19 290.371C270.016 297.286 268.714 302.139 266.462 308.792L155.46 271.004L271.19 290.371Z" stroke="#B5FF6B"/>
<path fill-rule="evenodd" clip-rule="evenodd" d="M272.894 289.06C272.839 289.388 272.783 289.716 272.726 290.044C271.558 296.755 269.891 303.37 267.741 309.834C267.636 310.149 267.53 310.465 267.422 310.78L137.5 266.5L272.894 289.06ZM149.364 269.489L271.742 289.88C270.582 296.537 268.929 303.099 266.796 309.512L149.364 269.489Z" fill="white"/>
<path d="M153.657 273.469L265.142 311.733C262.861 318.374 260.882 323.017 257.585 329.213L153.657 273.469Z" stroke="#9B27F7"/>
<path d="M153.634 276.833L257.113 332.589C253.779 338.77 250.983 343.073 246.717 348.653L153.634 276.833Z" stroke="black"/>
<path d="M46.3429 310.061C45.3349 310.061 44.4649 309.917 43.7329 309.629C43.0129 309.341 42.4549 308.927 42.0589 308.387C41.6749 307.835 41.4829 307.187 41.4829 306.443C41.4829 305.723 41.6689 305.111 42.0409 304.607C42.4249 304.091 42.9769 303.695 43.6969 303.419C44.4289 303.143 45.3109 303.005 46.3429 303.005C47.3629 303.005 48.2389 303.143 48.9709 303.419C49.7029 303.695 50.2609 304.091 50.6449 304.607C51.0409 305.111 51.2389 305.723 51.2389 306.443C51.2389 307.187 51.0409 307.835 50.6449 308.387C50.2489 308.927 49.6849 309.341 48.9529 309.629C48.2209 309.917 47.3509 310.061 46.3429 310.061ZM46.3429 308.963C47.4589 308.963 48.3289 308.735 48.9529 308.279C49.5889 307.823 49.9069 307.205 49.9069 306.425C49.9069 305.645 49.5889 305.033 48.9529 304.589C48.3289 304.133 47.4589 303.905 46.3429 303.905C45.2269 303.905 44.3569 304.133 43.7329 304.589C43.1089 305.033 42.7969 305.645 42.7969 306.425C42.7969 307.205 43.1089 307.823 43.7329 308.279C44.3569 308.735 45.2269 308.963 46.3429 308.963ZM46.3429 303.743C45.4069 303.743 44.6089 303.617 43.9489 303.365C43.3009 303.113 42.8029 302.753 42.4549 302.285C42.1069 301.805 41.9329 301.235 41.9329 300.575C41.9329 299.879 42.1129 299.285 42.4729 298.793C42.8449 298.289 43.3609 297.905 44.0209 297.641C44.6809 297.377 45.4549 297.245 46.3429 297.245C47.2309 297.245 48.0049 297.377 48.6649 297.641C49.3369 297.905 49.8589 298.289 50.2309 298.793C50.6029 299.285 50.7889 299.879 50.7889 300.575C50.7889 301.235 50.6149 301.805 50.2669 302.285C49.9189 302.753 49.4089 303.113 48.7369 303.365C48.0769 303.617 47.2789 303.743 46.3429 303.743ZM46.3429 302.879C47.3269 302.879 48.0949 302.675 48.6469 302.267C49.1989 301.859 49.4749 301.313 49.4749 300.629C49.4749 299.909 49.1869 299.351 48.6109 298.955C48.0469 298.547 47.2909 298.343 46.3429 298.343C45.3949 298.343 44.6389 298.547 44.0749 298.955C43.5109 299.351 43.2289 299.903 43.2289 300.611C43.2289 301.307 43.4989 301.859 44.0389 302.267C44.5909 302.675 45.3589 302.879 46.3429 302.879ZM56.9574 297.245C58.0734 297.245 59.0154 297.497 59.7834 298.001C60.5514 298.493 61.1334 299.207 61.5294 300.143C61.9254 301.079 62.1234 302.213 62.1234 303.545C62.1234 304.961 61.8774 306.155 61.3854 307.127C60.9054 308.099 60.2334 308.831 59.3694 309.323C58.5054 309.815 57.5034 310.061 56.3634 310.061C55.7994 310.061 55.2594 310.007 54.7434 309.899C54.2394 309.791 53.7834 309.617 53.3754 309.377L53.8974 308.333C54.2214 308.549 54.5934 308.705 55.0134 308.801C55.4454 308.885 55.8894 308.927 56.3454 308.927C57.7014 308.927 58.7814 308.495 59.5854 307.631C60.4014 306.767 60.8094 305.477 60.8094 303.761C60.8094 303.485 60.7914 303.155 60.7554 302.771C60.7314 302.387 60.6654 302.003 60.5574 301.619L61.0074 301.961C60.8874 302.585 60.6294 303.119 60.2334 303.563C59.8494 303.995 59.3694 304.325 58.7934 304.553C58.2294 304.781 57.5994 304.895 56.9034 304.895C56.0754 304.895 55.3374 304.739 54.6894 304.427C54.0534 304.115 53.5554 303.677 53.1954 303.113C52.8354 302.549 52.6554 301.883 52.6554 301.115C52.6554 300.323 52.8414 299.639 53.2134 299.063C53.5854 298.487 54.0954 298.043 54.7434 297.731C55.4034 297.407 56.1414 297.245 56.9574 297.245ZM57.0114 298.343C56.4114 298.343 55.8774 298.457 55.4094 298.685C54.9534 298.901 54.5934 299.213 54.3294 299.621C54.0654 300.029 53.9334 300.515 53.9334 301.079C53.9334 301.907 54.2154 302.567 54.7794 303.059C55.3554 303.551 56.1294 303.797 57.1014 303.797C57.7494 303.797 58.3134 303.677 58.7934 303.437C59.2854 303.197 59.6634 302.867 59.9274 302.447C60.2034 302.027 60.3414 301.559 60.3414 301.043C60.3414 300.575 60.2154 300.137 59.9634 299.729C59.7114 299.321 59.3394 298.991 58.8474 298.739C58.3554 298.475 57.7434 298.343 57.0114 298.343ZM63.8808 312.581L64.6728 309.251L64.8168 310.025C64.5408 310.025 64.3068 309.935 64.1148 309.755C63.9348 309.575 63.8448 309.341 63.8448 309.053C63.8448 308.765 63.9348 308.531 64.1148 308.351C64.3068 308.171 64.5348 308.081 64.7988 308.081C65.0748 308.081 65.2968 308.177 65.4648 308.369C65.6448 308.561 65.7348 308.789 65.7348 309.053C65.7348 309.149 65.7288 309.245 65.7168 309.341C65.7048 309.437 65.6808 309.545 65.6448 309.665C65.6088 309.785 65.5608 309.929 65.5008 310.097L64.7448 312.581H63.8808ZM71.6012 310.061C70.7012 310.061 69.8432 309.917 69.0272 309.629C68.2112 309.329 67.5632 308.933 67.0832 308.441L67.7132 307.415C68.1092 307.835 68.6492 308.183 69.3332 308.459C70.0292 308.735 70.7792 308.873 71.5832 308.873C72.6512 308.873 73.4612 308.639 74.0132 308.171C74.5772 307.691 74.8592 307.067 74.8592 306.299C74.8592 305.759 74.7272 305.297 74.4632 304.913C74.2112 304.517 73.7792 304.211 73.1672 303.995C72.5552 303.779 71.7152 303.671 70.6472 303.671H67.9652L68.6132 297.353H75.5072V298.505H69.1352L69.8012 297.875L69.2432 303.167L68.5772 302.519H70.9352C72.2072 302.519 73.2272 302.675 73.9952 302.987C74.7632 303.299 75.3152 303.737 75.6512 304.301C75.9992 304.853 76.1732 305.501 76.1732 306.245C76.1732 306.953 76.0052 307.601 75.6692 308.189C75.3332 308.765 74.8292 309.221 74.1572 309.557C73.4852 309.893 72.6332 310.061 71.6012 310.061ZM79.3348 309.953L87.9388 297.353H89.0008L80.3968 309.953H79.3348ZM80.3068 304.103C79.7428 304.103 79.2448 303.965 78.8128 303.689C78.3808 303.401 78.0448 302.999 77.8048 302.483C77.5768 301.967 77.4628 301.367 77.4628 300.683C77.4628 299.999 77.5768 299.399 77.8048 298.883C78.0448 298.367 78.3808 297.971 78.8128 297.695C79.2448 297.407 79.7428 297.263 80.3068 297.263C80.8708 297.263 81.3628 297.407 81.7828 297.695C82.2148 297.971 82.5508 298.367 82.7908 298.883C83.0308 299.399 83.1508 299.999 83.1508 300.683C83.1508 301.367 83.0308 301.967 82.7908 302.483C82.5508 302.999 82.2148 303.401 81.7828 303.689C81.3628 303.965 80.8708 304.103 80.3068 304.103ZM80.3068 303.293C80.8948 303.293 81.3628 303.065 81.7108 302.609C82.0708 302.141 82.2508 301.499 82.2508 300.683C82.2508 299.867 82.0708 299.231 81.7108 298.775C81.3628 298.307 80.8948 298.073 80.3068 298.073C79.7068 298.073 79.2328 298.307 78.8848 298.775C78.5368 299.231 78.3628 299.867 78.3628 300.683C78.3628 301.499 78.5368 302.141 78.8848 302.609C79.2328 303.065 79.7068 303.293 80.3068 303.293ZM88.0288 310.043C87.4768 310.043 86.9848 309.905 86.5528 309.629C86.1208 309.341 85.7848 308.939 85.5448 308.423C85.3048 307.907 85.1848 307.307 85.1848 306.623C85.1848 305.939 85.3048 305.339 85.5448 304.823C85.7848 304.307 86.1208 303.911 86.5528 303.635C86.9848 303.347 87.4768 303.203 88.0288 303.203C88.6048 303.203 89.1028 303.347 89.5228 303.635C89.9548 303.911 90.2848 304.307 90.5128 304.823C90.7528 305.339 90.8728 305.939 90.8728 306.623C90.8728 307.307 90.7528 307.907 90.5128 308.423C90.2848 308.939 89.9548 309.341 89.5228 309.629C89.1028 309.905 88.6048 310.043 88.0288 310.043ZM88.0288 309.233C88.6168 309.233 89.0848 309.005 89.4328 308.549C89.7928 308.081 89.9728 307.439 89.9728 306.623C89.9728 305.807 89.7928 305.171 89.4328 304.715C89.0848 304.247 88.6168 304.013 88.0288 304.013C87.4408 304.013 86.9668 304.247 86.6068 304.715C86.2588 305.171 86.0848 305.807 86.0848 306.623C86.0848 307.439 86.2588 308.081 86.6068 308.549C86.9668 309.005 87.4408 309.233 88.0288 309.233Z" fill="white"/>
<path d="M332.124 304V291.4H333.438V301.84L341.502 291.4H342.708V304H341.394V293.578L333.33 304H332.124ZM346.654 304V294.55H347.932V298.726H353.89V294.55H355.168V304H353.89V299.824H347.932V304H346.654ZM362.688 304.09C361.776 304.09 360.954 303.886 360.222 303.478C359.502 303.058 358.932 302.488 358.512 301.768C358.092 301.036 357.882 300.202 357.882 299.266C357.882 298.318 358.092 297.484 358.512 296.764C358.932 296.044 359.502 295.48 360.222 295.072C360.942 294.664 361.764 294.46 362.688 294.46C363.624 294.46 364.452 294.664 365.172 295.072C365.904 295.48 366.474 296.044 366.882 296.764C367.302 297.484 367.512 298.318 367.512 299.266C367.512 300.202 367.302 301.036 366.882 301.768C366.474 302.488 365.904 303.058 365.172 303.478C364.44 303.886 363.612 304.09 362.688 304.09ZM362.688 302.956C363.372 302.956 363.978 302.806 364.506 302.506C365.034 302.194 365.448 301.762 365.748 301.21C366.06 300.646 366.216 299.998 366.216 299.266C366.216 298.522 366.06 297.874 365.748 297.322C365.448 296.77 365.034 296.344 364.506 296.044C363.978 295.732 363.378 295.576 362.706 295.576C362.034 295.576 361.434 295.732 360.906 296.044C360.378 296.344 359.958 296.77 359.646 297.322C359.334 297.874 359.178 298.522 359.178 299.266C359.178 299.998 359.334 300.646 359.646 301.21C359.958 301.762 360.378 302.194 360.906 302.506C361.434 302.806 362.028 302.956 362.688 302.956ZM370.244 304V294.55H376.94V295.666H371.198L371.522 295.342V304H370.244ZM384.687 303.388V295.666H380.133L380.025 297.772C380.001 298.408 379.959 299.032 379.899 299.644C379.851 300.256 379.761 300.82 379.629 301.336C379.509 301.84 379.335 302.254 379.107 302.578C378.879 302.89 378.585 303.07 378.225 303.118L376.947 302.884C377.319 302.896 377.625 302.764 377.865 302.488C378.105 302.2 378.291 301.81 378.423 301.318C378.555 300.826 378.651 300.268 378.711 299.644C378.771 299.008 378.819 298.36 378.855 297.7L378.981 294.55H385.965V303.388H384.687ZM376.551 306.286V302.884H387.441V306.286H386.235V304H377.757V306.286H376.551ZM395.799 304V301.912L395.745 301.57V298.078C395.745 297.274 395.517 296.656 395.061 296.224C394.617 295.792 393.951 295.576 393.063 295.576C392.451 295.576 391.869 295.678 391.317 295.882C390.765 296.086 390.297 296.356 389.913 296.692L389.337 295.738C389.817 295.33 390.393 295.018 391.065 294.802C391.737 294.574 392.445 294.46 393.189 294.46C394.413 294.46 395.355 294.766 396.015 295.378C396.687 295.978 397.023 296.896 397.023 298.132V304H395.799ZM392.541 304.09C391.833 304.09 391.215 303.976 390.687 303.748C390.171 303.508 389.775 303.184 389.499 302.776C389.223 302.356 389.085 301.876 389.085 301.336C389.085 300.844 389.199 300.4 389.427 300.004C389.667 299.596 390.051 299.272 390.579 299.032C391.119 298.78 391.839 298.654 392.739 298.654H395.997V299.608H392.775C391.863 299.608 391.227 299.77 390.867 300.094C390.519 300.418 390.345 300.82 390.345 301.3C390.345 301.84 390.555 302.272 390.975 302.596C391.395 302.92 391.983 303.082 392.739 303.082C393.459 303.082 394.077 302.92 394.593 302.596C395.121 302.26 395.505 301.78 395.745 301.156L396.033 302.038C395.793 302.662 395.373 303.16 394.773 303.532C394.185 303.904 393.441 304.09 392.541 304.09ZM411.616 303.388V295.666H407.062L406.954 297.772C406.93 298.408 406.888 299.032 406.828 299.644C406.78 300.256 406.69 300.82 406.558 301.336C406.438 301.84 406.264 302.254 406.036 302.578C405.808 302.89 405.514 303.07 405.154 303.118L403.876 302.884C404.248 302.896 404.554 302.764 404.794 302.488C405.034 302.2 405.22 301.81 405.352 301.318C405.484 300.826 405.58 300.268 405.64 299.644C405.7 299.008 405.748 298.36 405.784 297.7L405.91 294.55H412.894V303.388H411.616ZM403.48 306.286V302.884H414.37V306.286H413.164V304H404.686V306.286H403.48ZM422.729 304V301.912L422.675 301.57V298.078C422.675 297.274 422.447 296.656 421.991 296.224C421.547 295.792 420.881 295.576 419.993 295.576C419.381 295.576 418.799 295.678 418.247 295.882C417.695 296.086 417.227 296.356 416.843 296.692L416.267 295.738C416.747 295.33 417.323 295.018 417.995 294.802C418.667 294.574 419.375 294.46 420.119 294.46C421.343 294.46 422.285 294.766 422.945 295.378C423.617 295.978 423.953 296.896 423.953 298.132V304H422.729ZM419.471 304.09C418.763 304.09 418.145 303.976 417.617 303.748C417.101 303.508 416.705 303.184 416.429 302.776C416.153 302.356 416.015 301.876 416.015 301.336C416.015 300.844 416.129 300.4 416.357 300.004C416.597 299.596 416.981 299.272 417.509 299.032C418.049 298.78 418.769 298.654 419.669 298.654H422.927V299.608H419.705C418.793 299.608 418.157 299.77 417.797 300.094C417.449 300.418 417.275 300.82 417.275 301.3C417.275 301.84 417.485 302.272 417.905 302.596C418.325 302.92 418.913 303.082 419.669 303.082C420.389 303.082 421.007 302.92 421.523 302.596C422.051 302.26 422.435 301.78 422.675 301.156L422.963 302.038C422.723 302.662 422.303 303.16 421.703 303.532C421.115 303.904 420.371 304.09 419.471 304.09ZM426.545 306.628L427.337 303.298L427.481 304.072C427.205 304.072 426.971 303.982 426.779 303.802C426.599 303.622 426.509 303.388 426.509 303.1C426.509 302.812 426.599 302.578 426.779 302.398C426.971 302.218 427.199 302.128 427.463 302.128C427.739 302.128 427.961 302.224 428.129 302.416C428.309 302.608 428.399 302.836 428.399 303.1C428.399 303.196 428.393 303.292 428.381 303.388C428.369 303.484 428.345 303.592 428.309 303.712C428.273 303.832 428.225 303.976 428.165 304.144L427.409 306.628H426.545ZM435.881 304V294.55H437.159V302.056L443.477 294.55H444.611V304H443.333V296.476L437.033 304H435.881ZM448.273 304V294.55H449.551V298.726H455.509V294.55H456.787V304H455.509V299.824H449.551V304H448.273ZM464.308 304.09C463.396 304.09 462.574 303.886 461.842 303.478C461.122 303.058 460.552 302.488 460.132 301.768C459.712 301.036 459.502 300.202 459.502 299.266C459.502 298.318 459.712 297.484 460.132 296.764C460.552 296.044 461.122 295.48 461.842 295.072C462.562 294.664 463.384 294.46 464.308 294.46C465.244 294.46 466.072 294.664 466.792 295.072C467.524 295.48 468.094 296.044 468.502 296.764C468.922 297.484 469.132 298.318 469.132 299.266C469.132 300.202 468.922 301.036 468.502 301.768C468.094 302.488 467.524 303.058 466.792 303.478C466.06 303.886 465.232 304.09 464.308 304.09ZM464.308 302.956C464.992 302.956 465.598 302.806 466.126 302.506C466.654 302.194 467.068 301.762 467.368 301.21C467.68 300.646 467.836 299.998 467.836 299.266C467.836 298.522 467.68 297.874 467.368 297.322C467.068 296.77 466.654 296.344 466.126 296.044C465.598 295.732 464.998 295.576 464.326 295.576C463.654 295.576 463.054 295.732 462.526 296.044C461.998 296.344 461.578 296.77 461.266 297.322C460.954 297.874 460.798 298.522 460.798 299.266C460.798 299.998 460.954 300.646 461.266 301.21C461.578 301.762 461.998 302.194 462.526 302.506C463.054 302.806 463.648 302.956 464.308 302.956ZM471.863 304V294.55H478.559V295.666H472.817L473.141 295.342V304H471.863ZM486.306 303.388V295.666H481.752L481.644 297.772C481.62 298.408 481.578 299.032 481.518 299.644C481.47 300.256 481.38 300.82 481.248 301.336C481.128 301.84 480.954 302.254 480.726 302.578C480.498 302.89 480.204 303.07 479.844 303.118L478.566 302.884C478.938 302.896 479.244 302.764 479.484 302.488C479.724 302.2 479.91 301.81 480.042 301.318C480.174 300.826 480.27 300.268 480.33 299.644C480.39 299.008 480.438 298.36 480.474 297.7L480.6 294.55H487.584V303.388H486.306ZM478.17 306.286V302.884H489.06V306.286H487.854V304H479.376V306.286H478.17ZM497.418 304V301.912L497.364 301.57V298.078C497.364 297.274 497.136 296.656 496.68 296.224C496.236 295.792 495.57 295.576 494.682 295.576C494.07 295.576 493.488 295.678 492.936 295.882C492.384 296.086 491.916 296.356 491.532 296.692L490.956 295.738C491.436 295.33 492.012 295.018 492.684 294.802C493.356 294.574 494.064 294.46 494.808 294.46C496.032 294.46 496.974 294.766 497.634 295.378C498.306 295.978 498.642 296.896 498.642 298.132V304H497.418ZM494.16 304.09C493.452 304.09 492.834 303.976 492.306 303.748C491.79 303.508 491.394 303.184 491.118 302.776C490.842 302.356 490.704 301.876 490.704 301.336C490.704 300.844 490.818 300.4 491.046 300.004C491.286 299.596 491.67 299.272 492.198 299.032C492.738 298.78 493.458 298.654 494.358 298.654H497.616V299.608H494.394C493.482 299.608 492.846 299.77 492.486 300.094C492.138 300.418 491.964 300.82 491.964 301.3C491.964 301.84 492.174 302.272 492.594 302.596C493.014 302.92 493.602 303.082 494.358 303.082C495.078 303.082 495.696 302.92 496.212 302.596C496.74 302.26 497.124 301.78 497.364 301.156L497.652 302.038C497.412 302.662 496.992 303.16 496.392 303.532C495.804 303.904 495.06 304.09 494.16 304.09ZM506.756 304V294.55H508.034V298.726H513.992V294.55H515.27V304H513.992V299.824H508.034V304H506.756ZM522.952 304.09C521.968 304.09 521.104 303.886 520.36 303.478C519.616 303.058 519.034 302.488 518.614 301.768C518.194 301.036 517.984 300.202 517.984 299.266C517.984 298.33 518.182 297.502 518.578 296.782C518.986 296.062 519.538 295.498 520.234 295.09C520.942 294.67 521.734 294.46 522.61 294.46C523.498 294.46 524.284 294.664 524.968 295.072C525.664 295.468 526.21 296.032 526.606 296.764C527.002 297.484 527.2 298.318 527.2 299.266C527.2 299.326 527.194 299.392 527.182 299.464C527.182 299.524 527.182 299.59 527.182 299.662H518.956V298.708H526.498L525.994 299.086C525.994 298.402 525.844 297.796 525.544 297.268C525.256 296.728 524.86 296.308 524.356 296.008C523.852 295.708 523.27 295.558 522.61 295.558C521.962 295.558 521.38 295.708 520.864 296.008C520.348 296.308 519.946 296.728 519.658 297.268C519.37 297.808 519.226 298.426 519.226 299.122V299.32C519.226 300.04 519.382 300.676 519.694 301.228C520.018 301.768 520.462 302.194 521.026 302.506C521.602 302.806 522.256 302.956 522.988 302.956C523.564 302.956 524.098 302.854 524.59 302.65C525.094 302.446 525.526 302.134 525.886 301.714L526.606 302.542C526.186 303.046 525.658 303.43 525.022 303.694C524.398 303.958 523.708 304.09 522.952 304.09ZM531.407 304V295.324L531.731 295.666H527.825V294.55H536.267V295.666H532.361L532.685 295.324V304H531.407Z" fill="black"/>
<circle cx="305" cy="298" r="9.5" fill="white" stroke="#9B27F7"/>
<path d="M340.746 262L335.904 255.718L336.984 255.07L342.276 262H340.746ZM332.124 262V249.4H333.42V262H332.124ZM333.024 256.222V255.052H336.966V256.222H333.024ZM337.092 255.844L335.868 255.628L340.566 249.4H342.006L337.092 255.844ZM347.8 262.09C346.888 262.09 346.066 261.886 345.334 261.478C344.614 261.058 344.044 260.488 343.624 259.768C343.204 259.036 342.994 258.202 342.994 257.266C342.994 256.318 343.204 255.484 343.624 254.764C344.044 254.044 344.614 253.48 345.334 253.072C346.054 252.664 346.876 252.46 347.8 252.46C348.736 252.46 349.564 252.664 350.284 253.072C351.016 253.48 351.586 254.044 351.994 254.764C352.414 255.484 352.624 256.318 352.624 257.266C352.624 258.202 352.414 259.036 351.994 259.768C351.586 260.488 351.016 261.058 350.284 261.478C349.552 261.886 348.724 262.09 347.8 262.09ZM347.8 260.956C348.484 260.956 349.09 260.806 349.618 260.506C350.146 260.194 350.56 259.762 350.86 259.21C351.172 258.646 351.328 257.998 351.328 257.266C351.328 256.522 351.172 255.874 350.86 255.322C350.56 254.77 350.146 254.344 349.618 254.044C349.09 253.732 348.49 253.576 347.818 253.576C347.146 253.576 346.546 253.732 346.018 254.044C345.49 254.344 345.07 254.77 344.758 255.322C344.446 255.874 344.29 256.522 344.29 257.266C344.29 257.998 344.446 258.646 344.758 259.21C345.07 259.762 345.49 260.194 346.018 260.506C346.546 260.806 347.14 260.956 347.8 260.956ZM355.355 262V252.55H362.051V253.666H356.309L356.633 253.342V262H355.355ZM369.798 261.388V253.666H365.244L365.136 255.772C365.112 256.408 365.07 257.032 365.01 257.644C364.962 258.256 364.872 258.82 364.74 259.336C364.62 259.84 364.446 260.254 364.218 260.578C363.99 260.89 363.696 261.07 363.336 261.118L362.058 260.884C362.43 260.896 362.736 260.764 362.976 260.488C363.216 260.2 363.402 259.81 363.534 259.318C363.666 258.826 363.762 258.268 363.822 257.644C363.882 257.008 363.93 256.36 363.966 255.7L364.092 252.55H371.076V261.388H369.798ZM361.662 264.286V260.884H372.552V264.286H371.346V262H362.868V264.286H361.662ZM380.911 262V259.912L380.857 259.57V256.078C380.857 255.274 380.629 254.656 380.173 254.224C379.729 253.792 379.063 253.576 378.175 253.576C377.563 253.576 376.981 253.678 376.429 253.882C375.877 254.086 375.409 254.356 375.025 254.692L374.449 253.738C374.929 253.33 375.505 253.018 376.177 252.802C376.849 252.574 377.557 252.46 378.301 252.46C379.525 252.46 380.467 252.766 381.127 253.378C381.799 253.978 382.135 254.896 382.135 256.132V262H380.911ZM377.653 262.09C376.945 262.09 376.327 261.976 375.799 261.748C375.283 261.508 374.887 261.184 374.611 260.776C374.335 260.356 374.197 259.876 374.197 259.336C374.197 258.844 374.311 258.4 374.539 258.004C374.779 257.596 375.163 257.272 375.691 257.032C376.231 256.78 376.951 256.654 377.851 256.654H381.109V257.608H377.887C376.975 257.608 376.339 257.77 375.979 258.094C375.631 258.418 375.457 258.82 375.457 259.3C375.457 259.84 375.667 260.272 376.087 260.596C376.507 260.92 377.095 261.082 377.851 261.082C378.571 261.082 379.189 260.92 379.705 260.596C380.233 260.26 380.617 259.78 380.857 259.156L381.145 260.038C380.905 260.662 380.485 261.16 379.885 261.532C379.297 261.904 378.553 262.09 377.653 262.09ZM397.178 262L393.29 257.32L394.352 256.69L398.69 262H397.178ZM390.248 262V252.55H391.526V262H390.248ZM391.13 257.788V256.69H394.172V257.788H391.13ZM394.46 257.41L393.272 257.23L397.034 252.55H398.42L394.46 257.41ZM406.399 262V259.912L406.345 259.57V256.078C406.345 255.274 406.117 254.656 405.661 254.224C405.217 253.792 404.551 253.576 403.663 253.576C403.051 253.576 402.469 253.678 401.917 253.882C401.365 254.086 400.897 254.356 400.513 254.692L399.937 253.738C400.417 253.33 400.993 253.018 401.665 252.802C402.337 252.574 403.045 252.46 403.789 252.46C405.013 252.46 405.955 252.766 406.615 253.378C407.287 253.978 407.623 254.896 407.623 256.132V262H406.399ZM403.141 262.09C402.433 262.09 401.815 261.976 401.287 261.748C400.771 261.508 400.375 261.184 400.099 260.776C399.823 260.356 399.685 259.876 399.685 259.336C399.685 258.844 399.799 258.4 400.027 258.004C400.267 257.596 400.651 257.272 401.179 257.032C401.719 256.78 402.439 256.654 403.339 256.654H406.597V257.608H403.375C402.463 257.608 401.827 257.77 401.467 258.094C401.119 258.418 400.945 258.82 400.945 259.3C400.945 259.84 401.155 260.272 401.575 260.596C401.995 260.92 402.583 261.082 403.339 261.082C404.059 261.082 404.677 260.92 405.193 260.596C405.721 260.26 406.105 259.78 406.345 259.156L406.633 260.038C406.393 260.662 405.973 261.16 405.373 261.532C404.785 261.904 404.041 262.09 403.141 262.09ZM417.955 262L414.067 257.32L415.129 256.69L419.467 262H417.955ZM411.025 262V252.55H412.303V262H411.025ZM411.907 257.788V256.69H414.949V257.788H411.907ZM415.237 257.41L414.049 257.23L417.811 252.55H419.197L415.237 257.41Z" fill="black"/>
<circle cx="305" cy="256" r="9.5" fill="white" stroke="#B5FF6B"/>
<path d="M337.65 346.108C336.702 346.108 335.82 345.952 335.004 345.64C334.2 345.316 333.498 344.866 332.898 344.29C332.31 343.702 331.848 343.024 331.512 342.256C331.188 341.476 331.026 340.624 331.026 339.7C331.026 338.776 331.188 337.93 331.512 337.162C331.848 336.382 332.31 335.704 332.898 335.128C333.498 334.54 334.2 334.09 335.004 333.778C335.808 333.454 336.69 333.292 337.65 333.292C338.598 333.292 339.474 333.454 340.278 333.778C341.082 334.09 341.778 334.534 342.366 335.11C342.966 335.686 343.428 336.364 343.752 337.144C344.088 337.924 344.256 338.776 344.256 339.7C344.256 340.624 344.088 341.476 343.752 342.256C343.428 343.036 342.966 343.714 342.366 344.29C341.778 344.866 341.082 345.316 340.278 345.64C339.474 345.952 338.598 346.108 337.65 346.108ZM337.65 344.92C338.406 344.92 339.102 344.794 339.738 344.542C340.386 344.278 340.944 343.912 341.412 343.444C341.892 342.964 342.264 342.412 342.528 341.788C342.792 341.152 342.924 340.456 342.924 339.7C342.924 338.944 342.792 338.254 342.528 337.63C342.264 336.994 341.892 336.442 341.412 335.974C340.944 335.494 340.386 335.128 339.738 334.876C339.102 334.612 338.406 334.48 337.65 334.48C336.894 334.48 336.192 334.612 335.544 334.876C334.896 335.128 334.332 335.494 333.852 335.974C333.384 336.442 333.012 336.994 332.736 337.63C332.472 338.254 332.34 338.944 332.34 339.7C332.34 340.444 332.472 341.134 332.736 341.77C333.012 342.406 333.384 342.964 333.852 343.444C334.332 343.912 334.896 344.278 335.544 344.542C336.192 344.794 336.894 344.92 337.65 344.92ZM347.129 346V336.55H348.407V340.726H354.365V336.55H355.643V346H354.365V341.824H348.407V346H347.129ZM357.547 345.982L357.637 344.884C357.721 344.896 357.799 344.914 357.871 344.938C357.955 344.95 358.027 344.956 358.087 344.956C358.471 344.956 358.777 344.812 359.005 344.524C359.245 344.236 359.425 343.852 359.545 343.372C359.665 342.892 359.749 342.352 359.797 341.752C359.845 341.14 359.887 340.528 359.923 339.916L360.085 336.55H367.015V346H365.737V337.288L366.061 337.666H360.913L361.219 337.27L361.075 340.006C361.039 340.822 360.973 341.602 360.877 342.346C360.793 343.09 360.655 343.744 360.463 344.308C360.283 344.872 360.031 345.316 359.707 345.64C359.383 345.952 358.969 346.108 358.465 346.108C358.321 346.108 358.171 346.096 358.015 346.072C357.871 346.048 357.715 346.018 357.547 345.982ZM376.516 346V343.912L376.462 343.57V340.078C376.462 339.274 376.234 338.656 375.778 338.224C375.334 337.792 374.668 337.576 373.78 337.576C373.168 337.576 372.586 337.678 372.034 337.882C371.482 338.086 371.014 338.356 370.63 338.692L370.054 337.738C370.534 337.33 371.11 337.018 371.782 336.802C372.454 336.574 373.162 336.46 373.906 336.46C375.13 336.46 376.072 336.766 376.732 337.378C377.404 337.978 377.74 338.896 377.74 340.132V346H376.516ZM373.258 346.09C372.55 346.09 371.932 345.976 371.404 345.748C370.888 345.508 370.492 345.184 370.216 344.776C369.94 344.356 369.802 343.876 369.802 343.336C369.802 342.844 369.916 342.4 370.144 342.004C370.384 341.596 370.768 341.272 371.296 341.032C371.836 340.78 372.556 340.654 373.456 340.654H376.714V341.608H373.492C372.58 341.608 371.944 341.77 371.584 342.094C371.236 342.418 371.062 342.82 371.062 343.3C371.062 343.84 371.272 344.272 371.692 344.596C372.112 344.92 372.7 345.082 373.456 345.082C374.176 345.082 374.794 344.92 375.31 344.596C375.838 344.26 376.222 343.78 376.462 343.156L376.75 344.038C376.51 344.662 376.09 345.16 375.49 345.532C374.902 345.904 374.158 346.09 373.258 346.09ZM381.142 346V336.55H382.42V344.056L388.738 336.55H389.872V346H388.594V338.476L382.294 346H381.142ZM385.426 335.182C384.634 335.182 383.992 334.984 383.5 334.588C383.02 334.18 382.768 333.598 382.744 332.842H383.662C383.674 333.322 383.842 333.7 384.166 333.976C384.49 334.252 384.91 334.39 385.426 334.39C385.942 334.39 386.362 334.252 386.686 333.976C387.022 333.7 387.196 333.322 387.208 332.842H388.126C388.114 333.598 387.862 334.18 387.37 334.588C386.878 334.984 386.23 335.182 385.426 335.182ZM393.535 346V336.55H394.813V340.726H400.771V336.55H402.049V346H400.771V341.824H394.813V346H393.535ZM415.702 346.108C415.702 346.108 415.678 346.108 415.63 346.108C415.582 346.108 415.534 346.108 415.486 346.108C415.45 346.108 415.42 346.108 415.396 346.108C413.524 346.096 412.066 345.67 411.022 344.83C409.978 343.99 409.456 342.796 409.456 341.248C409.456 339.724 409.978 338.548 411.022 337.72C412.078 336.88 413.56 336.454 415.468 336.442C415.48 336.442 415.504 336.442 415.54 336.442C415.588 336.442 415.63 336.442 415.666 336.442C415.702 336.442 415.726 336.442 415.738 336.442C417.658 336.454 419.152 336.88 420.22 337.72C421.288 338.548 421.822 339.724 421.822 341.248C421.822 342.808 421.282 344.008 420.202 344.848C419.134 345.688 417.634 346.108 415.702 346.108ZM415.684 344.992C416.752 344.992 417.646 344.848 418.366 344.56C419.086 344.26 419.632 343.834 420.004 343.282C420.376 342.73 420.562 342.052 420.562 341.248C420.562 340.468 420.376 339.808 420.004 339.268C419.632 338.716 419.086 338.296 418.366 338.008C417.646 337.72 416.752 337.576 415.684 337.576C415.672 337.576 415.636 337.576 415.576 337.576C415.528 337.576 415.498 337.576 415.486 337.576C414.442 337.576 413.566 337.726 412.858 338.026C412.15 338.314 411.616 338.728 411.256 339.268C410.896 339.808 410.716 340.468 410.716 341.248C410.716 342.04 410.896 342.712 411.256 343.264C411.628 343.816 412.168 344.242 412.876 344.542C413.584 344.83 414.454 344.98 415.486 344.992C415.51 344.992 415.546 344.992 415.594 344.992C415.642 344.992 415.672 344.992 415.684 344.992ZM415 349.492V332.644H416.242V349.492H415ZM428.413 346.09C427.501 346.09 426.679 345.886 425.947 345.478C425.227 345.058 424.657 344.488 424.237 343.768C423.817 343.036 423.607 342.202 423.607 341.266C423.607 340.318 423.817 339.484 424.237 338.764C424.657 338.044 425.227 337.48 425.947 337.072C426.667 336.664 427.489 336.46 428.413 336.46C429.349 336.46 430.177 336.664 430.897 337.072C431.629 337.48 432.199 338.044 432.607 338.764C433.027 339.484 433.237 340.318 433.237 341.266C433.237 342.202 433.027 343.036 432.607 343.768C432.199 344.488 431.629 345.058 430.897 345.478C430.165 345.886 429.337 346.09 428.413 346.09ZM428.413 344.956C429.097 344.956 429.703 344.806 430.231 344.506C430.759 344.194 431.173 343.762 431.473 343.21C431.785 342.646 431.941 341.998 431.941 341.266C431.941 340.522 431.785 339.874 431.473 339.322C431.173 338.77 430.759 338.344 430.231 338.044C429.703 337.732 429.103 337.576 428.431 337.576C427.759 337.576 427.159 337.732 426.631 338.044C426.103 338.344 425.683 338.77 425.371 339.322C425.059 339.874 424.903 340.522 424.903 341.266C424.903 341.998 425.059 342.646 425.371 343.21C425.683 343.762 426.103 344.194 426.631 344.506C427.159 344.806 427.753 344.956 428.413 344.956ZM440.846 346.09C440.03 346.09 439.292 345.904 438.632 345.532C437.972 345.148 437.444 344.602 437.048 343.894C436.664 343.174 436.472 342.298 436.472 341.266C436.472 340.234 436.664 339.364 437.048 338.656C437.432 337.936 437.954 337.39 438.614 337.018C439.274 336.646 440.018 336.46 440.846 336.46C441.746 336.46 442.55 336.664 443.258 337.072C443.978 337.468 444.542 338.032 444.95 338.764C445.358 339.484 445.562 340.318 445.562 341.266C445.562 342.226 445.358 343.066 444.95 343.786C444.542 344.506 443.978 345.07 443.258 345.478C442.55 345.886 441.746 346.09 440.846 346.09ZM435.968 349.492V336.55H437.192V339.394L437.066 341.284L437.246 343.192V349.492H435.968ZM440.756 344.956C441.428 344.956 442.028 344.806 442.556 344.506C443.084 344.194 443.504 343.762 443.816 343.21C444.128 342.646 444.284 341.998 444.284 341.266C444.284 340.534 444.128 339.892 443.816 339.34C443.504 338.788 443.084 338.356 442.556 338.044C442.028 337.732 441.428 337.576 440.756 337.576C440.084 337.576 439.478 337.732 438.938 338.044C438.41 338.356 437.99 338.788 437.678 339.34C437.378 339.892 437.228 340.534 437.228 341.266C437.228 341.998 437.378 342.646 437.678 343.21C437.99 343.762 438.41 344.194 438.938 344.506C439.478 344.806 440.084 344.956 440.756 344.956ZM448.308 346V336.55H449.604L453.888 343.804H453.348L457.704 336.55H458.892V346H457.722V338.008L457.956 338.116L453.888 344.848H453.312L449.208 338.044L449.478 337.99V346H448.308ZM468.397 346V343.912L468.343 343.57V340.078C468.343 339.274 468.115 338.656 467.659 338.224C467.215 337.792 466.549 337.576 465.661 337.576C465.049 337.576 464.467 337.678 463.915 337.882C463.363 338.086 462.895 338.356 462.511 338.692L461.935 337.738C462.415 337.33 462.991 337.018 463.663 336.802C464.335 336.574 465.043 336.46 465.787 336.46C467.011 336.46 467.953 336.766 468.613 337.378C469.285 337.978 469.621 338.896 469.621 340.132V346H468.397ZM465.139 346.09C464.431 346.09 463.813 345.976 463.285 345.748C462.769 345.508 462.373 345.184 462.097 344.776C461.821 344.356 461.683 343.876 461.683 343.336C461.683 342.844 461.797 342.4 462.025 342.004C462.265 341.596 462.649 341.272 463.177 341.032C463.717 340.78 464.437 340.654 465.337 340.654H468.595V341.608H465.373C464.461 341.608 463.825 341.77 463.465 342.094C463.117 342.418 462.943 342.82 462.943 343.3C462.943 343.84 463.153 344.272 463.573 344.596C463.993 344.92 464.581 345.082 465.337 345.082C466.057 345.082 466.675 344.92 467.191 344.596C467.719 344.26 468.103 343.78 468.343 343.156L468.631 344.038C468.391 344.662 467.971 345.16 467.371 345.532C466.783 345.904 466.039 346.09 465.139 346.09ZM474.823 346V337.324L475.147 337.666H471.241V336.55H479.683V337.666H475.777L476.101 337.324V346H474.823ZM335.706 368.09C334.794 368.09 333.972 367.886 333.24 367.478C332.52 367.058 331.95 366.488 331.53 365.768C331.11 365.036 330.9 364.202 330.9 363.266C330.9 362.318 331.11 361.484 331.53 360.764C331.95 360.044 332.52 359.48 333.24 359.072C333.96 358.664 334.782 358.46 335.706 358.46C336.642 358.46 337.47 358.664 338.19 359.072C338.922 359.48 339.492 360.044 339.9 360.764C340.32 361.484 340.53 362.318 340.53 363.266C340.53 364.202 340.32 365.036 339.9 365.768C339.492 366.488 338.922 367.058 338.19 367.478C337.458 367.886 336.63 368.09 335.706 368.09ZM335.706 366.956C336.39 366.956 336.996 366.806 337.524 366.506C338.052 366.194 338.466 365.762 338.766 365.21C339.078 364.646 339.234 363.998 339.234 363.266C339.234 362.522 339.078 361.874 338.766 361.322C338.466 360.77 338.052 360.344 337.524 360.044C336.996 359.732 336.396 359.576 335.724 359.576C335.052 359.576 334.452 359.732 333.924 360.044C333.396 360.344 332.976 360.77 332.664 361.322C332.352 361.874 332.196 362.522 332.196 363.266C332.196 363.998 332.352 364.646 332.664 365.21C332.976 365.762 333.396 366.194 333.924 366.506C334.452 366.806 335.046 366.956 335.706 366.956ZM347.509 368.108C346.741 368.108 346.057 367.982 345.457 367.73C344.869 367.478 344.365 367.094 343.945 366.578C343.525 366.062 343.207 365.426 342.991 364.67C342.775 363.902 342.667 363.014 342.667 362.006C342.667 361.106 342.751 360.32 342.919 359.648C343.087 358.964 343.321 358.376 343.621 357.884C343.921 357.392 344.269 356.978 344.665 356.642C345.073 356.294 345.511 356.018 345.979 355.814C346.459 355.598 346.951 355.436 347.455 355.328L351.703 354.338L351.919 355.526L347.923 356.426C347.671 356.486 347.365 356.57 347.005 356.678C346.657 356.786 346.297 356.948 345.925 357.164C345.565 357.38 345.229 357.68 344.917 358.064C344.605 358.448 344.353 358.946 344.161 359.558C343.981 360.158 343.891 360.908 343.891 361.808C343.891 362 343.897 362.156 343.909 362.276C343.921 362.384 343.933 362.504 343.945 362.636C343.969 362.756 343.987 362.936 343.999 363.176L343.441 362.708C343.573 361.976 343.843 361.34 344.251 360.8C344.659 360.248 345.169 359.822 345.781 359.522C346.405 359.21 347.095 359.054 347.851 359.054C348.727 359.054 349.507 359.246 350.191 359.63C350.875 360.002 351.409 360.524 351.793 361.196C352.189 361.868 352.387 362.648 352.387 363.536C352.387 364.412 352.183 365.198 351.775 365.894C351.379 366.59 350.815 367.136 350.083 367.532C349.351 367.916 348.493 368.108 347.509 368.108ZM347.653 367.046C348.325 367.046 348.919 366.896 349.435 366.596C349.951 366.284 350.353 365.864 350.641 365.336C350.941 364.808 351.091 364.214 351.091 363.554C351.091 362.906 350.941 362.33 350.641 361.826C350.353 361.322 349.951 360.926 349.435 360.638C348.919 360.338 348.319 360.188 347.635 360.188C346.963 360.188 346.369 360.332 345.853 360.62C345.337 360.896 344.929 361.286 344.629 361.79C344.341 362.294 344.197 362.876 344.197 363.536C344.197 364.196 344.341 364.79 344.629 365.318C344.929 365.846 345.337 366.266 345.853 366.578C346.381 366.89 346.981 367.046 347.653 367.046ZM361.337 366.884L361.049 367.226V358.55H362.327V367.226L361.985 366.884H367.259L366.917 367.226V358.55H368.195V368H355.127V358.55H356.405V367.226L356.081 366.884H361.337ZM368.447 370.07V367.658L368.771 368H366.845V366.884H369.653V370.07H368.447ZM375.876 368.09C374.892 368.09 374.028 367.886 373.284 367.478C372.54 367.058 371.958 366.488 371.538 365.768C371.118 365.036 370.908 364.202 370.908 363.266C370.908 362.33 371.106 361.502 371.502 360.782C371.91 360.062 372.462 359.498 373.158 359.09C373.866 358.67 374.658 358.46 375.534 358.46C376.422 358.46 377.208 358.664 377.892 359.072C378.588 359.468 379.134 360.032 379.53 360.764C379.926 361.484 380.124 362.318 380.124 363.266C380.124 363.326 380.118 363.392 380.106 363.464C380.106 363.524 380.106 363.59 380.106 363.662H371.88V362.708H379.422L378.918 363.086C378.918 362.402 378.768 361.796 378.468 361.268C378.18 360.728 377.784 360.308 377.28 360.008C376.776 359.708 376.194 359.558 375.534 359.558C374.886 359.558 374.304 359.708 373.788 360.008C373.272 360.308 372.87 360.728 372.582 361.268C372.294 361.808 372.15 362.426 372.15 363.122V363.32C372.15 364.04 372.306 364.676 372.618 365.228C372.942 365.768 373.386 366.194 373.95 366.506C374.526 366.806 375.18 366.956 375.912 366.956C376.488 366.956 377.022 366.854 377.514 366.65C378.018 366.446 378.45 366.134 378.81 365.714L379.53 366.542C379.11 367.046 378.582 367.43 377.946 367.694C377.322 367.958 376.632 368.09 375.876 368.09ZM382.953 368V358.55H384.231V362.726H390.189V358.55H391.467V368H390.189V363.824H384.231V368H382.953ZM395.099 368V358.55H396.377V366.056L402.695 358.55H403.829V368H402.551V360.476L396.251 368H395.099ZM413.594 368V364.598L413.828 364.868H410.624C409.412 364.868 408.464 364.604 407.78 364.076C407.096 363.548 406.754 362.78 406.754 361.772C406.754 360.692 407.12 359.888 407.852 359.36C408.584 358.82 409.562 358.55 410.786 358.55H414.764V368H413.594ZM406.682 368L409.274 364.364H410.606L408.068 368H406.682ZM413.594 364.22V359.288L413.828 359.666H410.822C409.946 359.666 409.262 359.834 408.77 360.17C408.29 360.506 408.05 361.052 408.05 361.808C408.05 363.212 408.944 363.914 410.732 363.914H413.828L413.594 364.22Z" fill="black"/>
<circle cx="305" cy="351" r="9.5" fill="white" stroke="black"/>
<path d="M341.34 207.4H342.654V220H341.34V207.4ZM333.456 220H332.124V207.4H333.456V220ZM341.466 214.186H333.312V213.016H341.466V214.186ZM350.651 220.09C349.667 220.09 348.803 219.886 348.059 219.478C347.315 219.058 346.733 218.488 346.313 217.768C345.893 217.036 345.683 216.202 345.683 215.266C345.683 214.33 345.881 213.502 346.277 212.782C346.685 212.062 347.237 211.498 347.933 211.09C348.641 210.67 349.433 210.46 350.309 210.46C351.197 210.46 351.983 210.664 352.667 211.072C353.363 211.468 353.909 212.032 354.305 212.764C354.701 213.484 354.899 214.318 354.899 215.266C354.899 215.326 354.893 215.392 354.881 215.464C354.881 215.524 354.881 215.59 354.881 215.662H346.655V214.708H354.197L353.693 215.086C353.693 214.402 353.543 213.796 353.243 213.268C352.955 212.728 352.559 212.308 352.055 212.008C351.551 211.708 350.969 211.558 350.309 211.558C349.661 211.558 349.079 211.708 348.563 212.008C348.047 212.308 347.645 212.728 347.357 213.268C347.069 213.808 346.925 214.426 346.925 215.122V215.32C346.925 216.04 347.081 216.676 347.393 217.228C347.717 217.768 348.161 218.194 348.725 218.506C349.301 218.806 349.955 218.956 350.687 218.956C351.263 218.956 351.797 218.854 352.289 218.65C352.793 218.446 353.225 218.134 353.585 217.714L354.305 218.542C353.885 219.046 353.357 219.43 352.721 219.694C352.097 219.958 351.407 220.09 350.651 220.09ZM359.106 220V211.324L359.43 211.666H355.524V210.55H363.966V211.666H360.06L360.384 211.324V220H359.106Z" fill="black"/>
<circle cx="305" cy="214" r="10" fill="#B5FF6B"/>
<path d="M340.494 177.37V166.552H334.464L334.356 169.612C334.32 170.56 334.26 171.472 334.176 172.348C334.104 173.212 333.984 173.992 333.816 174.688C333.66 175.372 333.444 175.93 333.168 176.362C332.904 176.794 332.556 177.046 332.124 177.118L330.666 176.848C331.146 176.872 331.542 176.698 331.854 176.326C332.178 175.954 332.424 175.432 332.592 174.76C332.772 174.088 332.904 173.302 332.988 172.402C333.072 171.502 333.132 170.53 333.168 169.486L333.312 165.4H341.808V177.37H340.494ZM330.198 180.826L330.216 176.848H343.698V180.826H342.456V178H331.458L331.44 180.826H330.198ZM351.977 178V175.912L351.923 175.57V172.078C351.923 171.274 351.695 170.656 351.239 170.224C350.795 169.792 350.129 169.576 349.241 169.576C348.629 169.576 348.047 169.678 347.495 169.882C346.943 170.086 346.475 170.356 346.091 170.692L345.515 169.738C345.995 169.33 346.571 169.018 347.243 168.802C347.915 168.574 348.623 168.46 349.367 168.46C350.591 168.46 351.533 168.766 352.193 169.378C352.865 169.978 353.201 170.896 353.201 172.132V178H351.977ZM348.719 178.09C348.011 178.09 347.393 177.976 346.865 177.748C346.349 177.508 345.953 177.184 345.677 176.776C345.401 176.356 345.263 175.876 345.263 175.336C345.263 174.844 345.377 174.4 345.605 174.004C345.845 173.596 346.229 173.272 346.757 173.032C347.297 172.78 348.017 172.654 348.917 172.654H352.175V173.608H348.953C348.041 173.608 347.405 173.77 347.045 174.094C346.697 174.418 346.523 174.82 346.523 175.3C346.523 175.84 346.733 176.272 347.153 176.596C347.573 176.92 348.161 177.082 348.917 177.082C349.637 177.082 350.255 176.92 350.771 176.596C351.299 176.26 351.683 175.78 351.923 175.156L352.211 176.038C351.971 176.662 351.551 177.16 350.951 177.532C350.363 177.904 349.619 178.09 348.719 178.09Z" fill="black"/>
<circle cx="305" cy="172" r="10" fill="#9B27F7"/>
<path d="M10.176 23.144C8.912 23.144 7.744 22.936 6.672 22.52C5.6 22.088 4.672 21.488 3.888 20.72C3.104 19.952 2.488 19.048 2.04 18.008C1.608 16.968 1.392 15.832 1.392 14.6C1.392 13.368 1.608 12.232 2.04 11.192C2.488 10.152 3.104 9.248 3.888 8.48C4.688 7.712 5.624 7.12 6.696 6.704C7.768 6.272 8.936 6.056 10.2 6.056C11.416 6.056 12.56 6.264 13.632 6.68C14.704 7.08 15.608 7.688 16.344 8.504L15.216 9.632C14.528 8.928 13.768 8.424 12.936 8.12C12.104 7.8 11.208 7.64 10.248 7.64C9.24 7.64 8.304 7.816 7.44 8.168C6.576 8.504 5.824 8.992 5.184 9.632C4.544 10.256 4.04 10.992 3.672 11.84C3.32 12.672 3.144 13.592 3.144 14.6C3.144 15.608 3.32 16.536 3.672 17.384C4.04 18.216 4.544 18.952 5.184 19.592C5.824 20.216 6.576 20.704 7.44 21.056C8.304 21.392 9.24 21.56 10.248 21.56C11.208 21.56 12.104 21.4 12.936 21.08C13.768 20.76 14.528 20.248 15.216 19.544L16.344 20.672C15.608 21.488 14.704 22.104 13.632 22.52C12.56 22.936 11.408 23.144 10.176 23.144ZM27.1498 17.672C26.4138 17.992 25.6698 18.248 24.9178 18.44C24.1818 18.616 23.4458 18.704 22.7098 18.704C21.2218 18.704 20.0458 18.368 19.1818 17.696C18.3178 17.008 17.8858 15.952 17.8858 14.528V10.4H19.5658V14.432C19.5658 15.392 19.8778 16.112 20.5018 16.592C21.1258 17.072 21.9658 17.312 23.0218 17.312C23.6618 17.312 24.3338 17.232 25.0378 17.072C25.7418 16.896 26.4538 16.648 27.1738 16.328L27.1498 17.672ZM27.0058 23V10.4H28.7098V23H27.0058ZM33.549 23V10.4H35.253V20.408L43.677 10.4H45.189V23H43.485V12.968L35.085 23H33.549ZM52.4724 23V11.432L52.9044 11.888H47.6964V10.4H58.9524V11.888H53.7444L54.1764 11.432V23H52.4724ZM69.2402 23V20.216L69.1682 19.76V15.104C69.1682 14.032 68.8642 13.208 68.2562 12.632C67.6642 12.056 66.7762 11.768 65.5922 11.768C64.7762 11.768 64.0002 11.904 63.2642 12.176C62.5282 12.448 61.9042 12.808 61.3922 13.256L60.6242 11.984C61.2642 11.44 62.0322 11.024 62.9282 10.736C63.8242 10.432 64.7682 10.28 65.7602 10.28C67.3922 10.28 68.6482 10.688 69.5282 11.504C70.4242 12.304 70.8722 13.528 70.8722 15.176V23H69.2402ZM64.8962 23.12C63.9522 23.12 63.1282 22.968 62.4242 22.664C61.7362 22.344 61.2082 21.912 60.8402 21.368C60.4722 20.808 60.2882 20.168 60.2882 19.448C60.2882 18.792 60.4402 18.2 60.7442 17.672C61.0642 17.128 61.5762 16.696 62.2802 16.376C63.0002 16.04 63.9602 15.872 65.1602 15.872H69.5042V17.144H65.2082C63.9922 17.144 63.1442 17.36 62.6642 17.792C62.2002 18.224 61.9682 18.76 61.9682 19.4C61.9682 20.12 62.2482 20.696 62.8082 21.128C63.3682 21.56 64.1522 21.776 65.1602 21.776C66.1202 21.776 66.9442 21.56 67.6322 21.128C68.3362 20.68 68.8482 20.04 69.1682 19.208L69.5522 20.384C69.2322 21.216 68.6722 21.88 67.8722 22.376C67.0882 22.872 66.0962 23.12 64.8962 23.12ZM80.8084 23.12C79.4964 23.12 78.3444 22.848 77.3524 22.304C76.3604 21.744 75.5844 20.984 75.0244 20.024C74.4644 19.048 74.1844 17.936 74.1844 16.688C74.1844 15.44 74.4484 14.336 74.9764 13.376C75.5204 12.416 76.2564 11.664 77.1844 11.12C78.1284 10.56 79.1844 10.28 80.3524 10.28C81.5364 10.28 82.5844 10.552 83.4964 11.096C84.4244 11.624 85.1524 12.376 85.6804 13.352C86.2084 14.312 86.4724 15.424 86.4724 16.688C86.4724 16.768 86.4644 16.856 86.4484 16.952C86.4484 17.032 86.4484 17.12 86.4484 17.216H75.4804V15.944H85.5364L84.8644 16.448C84.8644 15.536 84.6644 14.728 84.2644 14.024C83.8804 13.304 83.3524 12.744 82.6804 12.344C82.0084 11.944 81.2324 11.744 80.3524 11.744C79.4884 11.744 78.7124 11.944 78.0244 12.344C77.3364 12.744 76.8004 13.304 76.4164 14.024C76.0324 14.744 75.8404 15.568 75.8404 16.496V16.76C75.8404 17.72 76.0484 18.568 76.4644 19.304C76.8964 20.024 77.4884 20.592 78.2404 21.008C79.0084 21.408 79.8804 21.608 80.8564 21.608C81.6244 21.608 82.3364 21.472 82.9924 21.2C83.6644 20.928 84.2404 20.512 84.7204 19.952L85.6804 21.056C85.1204 21.728 84.4164 22.24 83.5684 22.592C82.7364 22.944 81.8164 23.12 80.8084 23.12ZM92.0818 23V11.432L92.5138 11.888H87.3058V10.4H98.5618V11.888H93.3538L93.7858 11.432V23H92.0818ZM105.84 23.12C104.528 23.12 103.376 22.848 102.384 22.304C101.392 21.744 100.616 20.984 100.056 20.024C99.4956 19.048 99.2156 17.936 99.2156 16.688C99.2156 15.44 99.4796 14.336 100.008 13.376C100.552 12.416 101.288 11.664 102.216 11.12C103.16 10.56 104.216 10.28 105.384 10.28C106.568 10.28 107.616 10.552 108.528 11.096C109.456 11.624 110.184 12.376 110.712 13.352C111.24 14.312 111.504 15.424 111.504 16.688C111.504 16.768 111.496 16.856 111.48 16.952C111.48 17.032 111.48 17.12 111.48 17.216H100.512V15.944H110.568L109.896 16.448C109.896 15.536 109.696 14.728 109.296 14.024C108.912 13.304 108.384 12.744 107.712 12.344C107.04 11.944 106.264 11.744 105.384 11.744C104.52 11.744 103.744 11.944 103.056 12.344C102.368 12.744 101.832 13.304 101.448 14.024C101.064 14.744 100.872 15.568 100.872 16.496V16.76C100.872 17.72 101.08 18.568 101.496 19.304C101.928 20.024 102.52 20.592 103.272 21.008C104.04 21.408 104.912 21.608 105.888 21.608C106.656 21.608 107.368 21.472 108.024 21.2C108.696 20.928 109.272 20.512 109.752 19.952L110.712 21.056C110.152 21.728 109.448 22.24 108.6 22.592C107.768 22.944 106.848 23.12 105.84 23.12ZM119.253 22.976L119.373 21.512C119.485 21.528 119.589 21.552 119.685 21.584C119.797 21.6 119.893 21.608 119.973 21.608C120.485 21.608 120.893 21.416 121.197 21.032C121.517 20.648 121.757 20.136 121.917 19.496C122.077 18.856 122.189 18.136 122.253 17.336C122.317 16.52 122.373 15.704 122.421 14.888L122.637 10.4H131.877V23H130.173V11.384L130.605 11.888H123.741L124.149 11.36L123.957 15.008C123.909 16.096 123.821 17.136 123.693 18.128C123.581 19.12 123.397 19.992 123.141 20.744C122.901 21.496 122.565 22.088 122.133 22.52C121.701 22.936 121.149 23.144 120.477 23.144C120.285 23.144 120.085 23.128 119.877 23.096C119.685 23.064 119.477 23.024 119.253 22.976ZM136.721 23V10.4H138.425V20.408L146.849 10.4H148.361V23H146.657V12.968L138.257 23H136.721ZM159.526 23V10.4H165.094C166.518 10.4 167.638 10.672 168.454 11.216C169.286 11.76 169.702 12.56 169.702 13.616C169.702 14.64 169.31 15.432 168.526 15.992C167.742 16.536 166.71 16.808 165.43 16.808L165.766 16.304C167.27 16.304 168.374 16.584 169.078 17.144C169.782 17.704 170.134 18.512 170.134 19.568C170.134 20.656 169.734 21.504 168.934 22.112C168.15 22.704 166.926 23 165.262 23H159.526ZM161.182 21.656H165.19C166.262 21.656 167.07 21.488 167.614 21.152C168.174 20.8 168.454 20.24 168.454 19.472C168.454 18.704 168.206 18.144 167.71 17.792C167.214 17.44 166.43 17.264 165.358 17.264H161.182V21.656ZM161.182 15.992H164.974C165.95 15.992 166.694 15.808 167.206 15.44C167.734 15.072 167.998 14.536 167.998 13.832C167.998 13.128 167.734 12.6 167.206 12.248C166.694 11.896 165.95 11.72 164.974 11.72H161.182V15.992ZM186.415 23V10.4H188.119V23H186.415ZM179.431 14.84C181.015 14.856 182.223 15.208 183.055 15.896C183.887 16.584 184.303 17.576 184.303 18.872C184.303 20.216 183.855 21.248 182.959 21.968C182.063 22.688 180.783 23.04 179.119 23.024L174.127 23V10.4H175.831V14.792L179.431 14.84ZM178.999 21.728C180.183 21.744 181.071 21.512 181.663 21.032C182.271 20.536 182.575 19.816 182.575 18.872C182.575 17.928 182.279 17.24 181.687 16.808C181.095 16.36 180.199 16.128 178.999 16.112L175.831 16.064V21.68L178.999 21.728ZM191.891 26.504L192.947 22.064L193.139 23.096C192.771 23.096 192.459 22.976 192.203 22.736C191.963 22.496 191.843 22.184 191.843 21.8C191.843 21.416 191.963 21.104 192.203 20.864C192.459 20.624 192.763 20.504 193.115 20.504C193.483 20.504 193.779 20.632 194.003 20.888C194.243 21.144 194.363 21.448 194.363 21.8C194.363 21.928 194.355 22.056 194.339 22.184C194.323 22.312 194.291 22.456 194.243 22.616C194.195 22.776 194.131 22.968 194.051 23.192L193.043 26.504H191.891ZM212.306 17.672C211.57 17.992 210.826 18.248 210.074 18.44C209.338 18.616 208.602 18.704 207.866 18.704C206.378 18.704 205.202 18.368 204.338 17.696C203.474 17.008 203.042 15.952 203.042 14.528V10.4H204.722V14.432C204.722 15.392 205.034 16.112 205.658 16.592C206.282 17.072 207.122 17.312 208.178 17.312C208.818 17.312 209.49 17.232 210.194 17.072C210.898 16.896 211.61 16.648 212.33 16.328L212.306 17.672ZM212.162 23V10.4H213.866V23H212.162ZM221.105 23V11.432L221.537 11.888H216.329V10.4H227.585V11.888H222.377L222.809 11.432V23H221.105ZM234.647 23.12C233.431 23.12 232.335 22.848 231.359 22.304C230.399 21.744 229.639 20.984 229.079 20.024C228.519 19.048 228.239 17.936 228.239 16.688C228.239 15.424 228.519 14.312 229.079 13.352C229.639 12.392 230.399 11.64 231.359 11.096C232.319 10.552 233.415 10.28 234.647 10.28C235.895 10.28 236.999 10.552 237.959 11.096C238.935 11.64 239.695 12.392 240.239 13.352C240.799 14.312 241.079 15.424 241.079 16.688C241.079 17.936 240.799 19.048 240.239 20.024C239.695 20.984 238.935 21.744 237.959 22.304C236.983 22.848 235.879 23.12 234.647 23.12ZM234.647 21.608C235.559 21.608 236.367 21.408 237.071 21.008C237.775 20.592 238.327 20.016 238.727 19.28C239.143 18.528 239.351 17.664 239.351 16.688C239.351 15.696 239.143 14.832 238.727 14.096C238.327 13.36 237.775 12.792 237.071 12.392C236.367 11.976 235.567 11.768 234.671 11.768C233.775 11.768 232.975 11.976 232.271 12.392C231.567 12.792 231.007 13.36 230.591 14.096C230.175 14.832 229.967 15.696 229.967 16.688C229.967 17.664 230.175 18.528 230.591 19.28C231.007 20.016 231.567 20.592 232.271 21.008C232.975 21.408 233.767 21.608 234.647 21.608ZM256.186 23.12C254.97 23.12 253.874 22.848 252.898 22.304C251.938 21.744 251.178 20.984 250.618 20.024C250.058 19.048 249.778 17.936 249.778 16.688C249.778 15.424 250.058 14.312 250.618 13.352C251.178 12.392 251.938 11.64 252.898 11.096C253.858 10.552 254.954 10.28 256.186 10.28C257.434 10.28 258.538 10.552 259.498 11.096C260.474 11.64 261.234 12.392 261.778 13.352C262.338 14.312 262.618 15.424 262.618 16.688C262.618 17.936 262.338 19.048 261.778 20.024C261.234 20.984 260.474 21.744 259.498 22.304C258.522 22.848 257.418 23.12 256.186 23.12ZM256.186 21.608C257.098 21.608 257.906 21.408 258.61 21.008C259.314 20.592 259.866 20.016 260.266 19.28C260.682 18.528 260.89 17.664 260.89 16.688C260.89 15.696 260.682 14.832 260.266 14.096C259.866 13.36 259.314 12.792 258.61 12.392C257.906 11.976 257.106 11.768 256.21 11.768C255.314 11.768 254.514 11.976 253.81 12.392C253.106 12.792 252.546 13.36 252.13 14.096C251.714 14.832 251.506 15.696 251.506 16.688C251.506 17.664 251.714 18.528 252.13 19.28C252.546 20.016 253.106 20.592 253.81 21.008C254.514 21.408 255.306 21.608 256.186 21.608ZM271.924 23.144C270.9 23.144 269.988 22.976 269.188 22.64C268.404 22.304 267.732 21.792 267.172 21.104C266.612 20.416 266.188 19.568 265.9 18.56C265.612 17.536 265.468 16.352 265.468 15.008C265.468 13.808 265.58 12.76 265.804 11.864C266.028 10.952 266.34 10.168 266.74 9.512C267.14 8.856 267.604 8.304 268.132 7.856C268.676 7.392 269.26 7.024 269.884 6.752C270.524 6.464 271.18 6.248 271.852 6.104L277.516 4.784L277.804 6.368L272.476 7.568C272.14 7.648 271.732 7.76 271.252 7.904C270.788 8.048 270.308 8.264 269.812 8.552C269.332 8.84 268.884 9.24 268.468 9.752C268.052 10.264 267.716 10.928 267.46 11.744C267.22 12.544 267.1 13.544 267.1 14.744C267.1 15 267.108 15.208 267.124 15.368C267.14 15.512 267.156 15.672 267.172 15.848C267.204 16.008 267.228 16.248 267.244 16.568L266.5 15.944C266.676 14.968 267.036 14.12 267.58 13.4C268.124 12.664 268.804 12.096 269.62 11.696C270.452 11.28 271.372 11.072 272.38 11.072C273.548 11.072 274.588 11.328 275.5 11.84C276.412 12.336 277.124 13.032 277.636 13.928C278.164 14.824 278.428 15.864 278.428 17.048C278.428 18.216 278.156 19.264 277.612 20.192C277.084 21.12 276.332 21.848 275.356 22.376C274.38 22.888 273.236 23.144 271.924 23.144ZM272.116 21.728C273.012 21.728 273.804 21.528 274.492 21.128C275.18 20.712 275.716 20.152 276.1 19.448C276.5 18.744 276.7 17.952 276.7 17.072C276.7 16.208 276.5 15.44 276.1 14.768C275.716 14.096 275.18 13.568 274.492 13.184C273.804 12.784 273.004 12.584 272.092 12.584C271.196 12.584 270.404 12.776 269.716 13.16C269.028 13.528 268.484 14.048 268.084 14.72C267.7 15.392 267.508 16.168 267.508 17.048C267.508 17.928 267.7 18.72 268.084 19.424C268.484 20.128 269.028 20.688 269.716 21.104C270.42 21.52 271.22 21.728 272.116 21.728ZM290.36 21.512L289.976 21.968V10.4H291.68V21.968L291.224 21.512H298.256L297.8 21.968V10.4H299.504V23H282.08V10.4H283.784V21.968L283.352 21.512H290.36ZM299.84 25.76V22.544L300.272 23H297.704V21.512H301.448V25.76H299.84ZM309.746 23.12C308.434 23.12 307.282 22.848 306.29 22.304C305.298 21.744 304.522 20.984 303.962 20.024C303.402 19.048 303.122 17.936 303.122 16.688C303.122 15.44 303.386 14.336 303.914 13.376C304.458 12.416 305.194 11.664 306.122 11.12C307.066 10.56 308.122 10.28 309.29 10.28C310.474 10.28 311.522 10.552 312.434 11.096C313.362 11.624 314.09 12.376 314.618 13.352C315.146 14.312 315.41 15.424 315.41 16.688C315.41 16.768 315.402 16.856 315.386 16.952C315.386 17.032 315.386 17.12 315.386 17.216H304.418V15.944H314.474L313.802 16.448C313.802 15.536 313.602 14.728 313.202 14.024C312.818 13.304 312.29 12.744 311.618 12.344C310.946 11.944 310.17 11.744 309.29 11.744C308.426 11.744 307.65 11.944 306.962 12.344C306.274 12.744 305.738 13.304 305.354 14.024C304.97 14.744 304.778 15.568 304.778 16.496V16.76C304.778 17.72 304.986 18.568 305.402 19.304C305.834 20.024 306.426 20.592 307.178 21.008C307.946 21.408 308.818 21.608 309.794 21.608C310.562 21.608 311.274 21.472 311.93 21.2C312.602 20.928 313.178 20.512 313.658 19.952L314.618 21.056C314.058 21.728 313.354 22.24 312.506 22.592C311.674 22.944 310.754 23.12 309.746 23.12ZM319.182 23V10.4H320.886V15.968H328.83V10.4H330.534V23H328.83V17.432H320.886V23H319.182ZM335.377 23V10.4H337.081V20.408L345.505 10.4H347.017V23H345.313V12.968L336.913 23H335.377ZM357.301 23.12C355.989 23.12 354.837 22.848 353.845 22.304C352.853 21.744 352.077 20.984 351.517 20.024C350.957 19.048 350.677 17.936 350.677 16.688C350.677 15.44 350.941 14.336 351.469 13.376C352.013 12.416 352.749 11.664 353.677 11.12C354.621 10.56 355.677 10.28 356.845 10.28C358.029 10.28 359.077 10.552 359.989 11.096C360.917 11.624 361.645 12.376 362.173 13.352C362.701 14.312 362.965 15.424 362.965 16.688C362.965 16.768 362.957 16.856 362.941 16.952C362.941 17.032 362.941 17.12 362.941 17.216H351.973V15.944H362.029L361.357 16.448C361.357 15.536 361.157 14.728 360.757 14.024C360.373 13.304 359.845 12.744 359.173 12.344C358.501 11.944 357.725 11.744 356.845 11.744C355.981 11.744 355.205 11.944 354.517 12.344C353.829 12.744 353.293 13.304 352.909 14.024C352.525 14.744 352.333 15.568 352.333 16.496V16.76C352.333 17.72 352.541 18.568 352.957 19.304C353.389 20.024 353.981 20.592 354.733 21.008C355.501 21.408 356.373 21.608 357.349 21.608C358.117 21.608 358.829 21.472 359.485 21.2C360.157 20.928 360.733 20.512 361.213 19.952L362.173 21.056C361.613 21.728 360.909 22.24 360.061 22.592C359.229 22.944 358.309 23.12 357.301 23.12ZM378.298 23.12C377.05 23.12 375.93 22.848 374.938 22.304C373.962 21.744 373.194 20.984 372.634 20.024C372.074 19.048 371.794 17.936 371.794 16.688C371.794 15.424 372.074 14.312 372.634 13.352C373.194 12.392 373.962 11.64 374.938 11.096C375.93 10.552 377.05 10.28 378.298 10.28C379.37 10.28 380.338 10.488 381.202 10.904C382.066 11.32 382.746 11.944 383.242 12.776L381.97 13.64C381.538 13 381.002 12.528 380.362 12.224C379.722 11.92 379.026 11.768 378.274 11.768C377.378 11.768 376.57 11.976 375.85 12.392C375.13 12.792 374.562 13.36 374.146 14.096C373.73 14.832 373.522 15.696 373.522 16.688C373.522 17.68 373.73 18.544 374.146 19.28C374.562 20.016 375.13 20.592 375.85 21.008C376.57 21.408 377.378 21.608 378.274 21.608C379.026 21.608 379.722 21.456 380.362 21.152C381.002 20.848 381.538 20.384 381.97 19.76L383.242 20.624C382.746 21.44 382.066 22.064 381.202 22.496C380.338 22.912 379.37 23.12 378.298 23.12ZM11.664 52L6.48 45.76L7.896 44.92L13.68 52H11.664ZM2.424 52V39.4H4.128V52H2.424ZM3.6 46.384V44.92H7.656V46.384H3.6ZM8.04 45.88L6.456 45.64L11.472 39.4H13.32L8.04 45.88ZM21.108 52.12C19.892 52.12 18.796 51.848 17.82 51.304C16.86 50.744 16.1 49.984 15.54 49.024C14.98 48.048 14.7 46.936 14.7 45.688C14.7 44.424 14.98 43.312 15.54 42.352C16.1 41.392 16.86 40.64 17.82 40.096C18.78 39.552 19.876 39.28 21.108 39.28C22.356 39.28 23.46 39.552 24.42 40.096C25.396 40.64 26.156 41.392 26.7 42.352C27.26 43.312 27.54 44.424 27.54 45.688C27.54 46.936 27.26 48.048 26.7 49.024C26.156 49.984 25.396 50.744 24.42 51.304C23.444 51.848 22.34 52.12 21.108 52.12ZM21.108 50.608C22.02 50.608 22.828 50.408 23.532 50.008C24.236 49.592 24.788 49.016 25.188 48.28C25.604 47.528 25.812 46.664 25.812 45.688C25.812 44.696 25.604 43.832 25.188 43.096C24.788 42.36 24.236 41.792 23.532 41.392C22.828 40.976 22.028 40.768 21.132 40.768C20.236 40.768 19.436 40.976 18.732 41.392C18.028 41.792 17.468 42.36 17.052 43.096C16.636 43.832 16.428 44.696 16.428 45.688C16.428 46.664 16.636 47.528 17.052 48.28C17.468 49.016 18.028 49.592 18.732 50.008C19.436 50.408 20.228 50.608 21.108 50.608ZM28.8075 51.976L28.9275 50.512C29.0395 50.528 29.1435 50.552 29.2395 50.584C29.3515 50.6 29.4475 50.608 29.5275 50.608C30.0395 50.608 30.4475 50.416 30.7515 50.032C31.0715 49.648 31.3115 49.136 31.4715 48.496C31.6315 47.856 31.7435 47.136 31.8075 46.336C31.8715 45.52 31.9275 44.704 31.9755 43.888L32.1915 39.4H41.4315V52H39.7275V40.384L40.1595 40.888H33.2955L33.7035 40.36L33.5115 44.008C33.4635 45.096 33.3755 46.136 33.2475 47.128C33.1355 48.12 32.9515 48.992 32.6955 49.744C32.4555 50.496 32.1195 51.088 31.6875 51.52C31.2555 51.936 30.7035 52.144 30.0315 52.144C29.8395 52.144 29.6395 52.128 29.4315 52.096C29.2395 52.064 29.0315 52.024 28.8075 51.976ZM43.9716 51.976L44.0916 50.512C44.2036 50.528 44.3076 50.552 44.4036 50.584C44.5156 50.6 44.6116 50.608 44.6916 50.608C45.2036 50.608 45.6116 50.416 45.9156 50.032C46.2356 49.648 46.4756 49.136 46.6356 48.496C46.7956 47.856 46.9076 47.136 46.9716 46.336C47.0356 45.52 47.0916 44.704 47.1396 43.888L47.3556 39.4H56.5956V52H54.8916V40.384L55.3236 40.888H48.4596L48.8676 40.36L48.6756 44.008C48.6276 45.096 48.5396 46.136 48.4116 47.128C48.2996 48.12 48.1156 48.992 47.8596 49.744C47.6196 50.496 47.2836 51.088 46.8516 51.52C46.4196 51.936 45.8676 52.144 45.1956 52.144C45.0036 52.144 44.8036 52.128 44.5956 52.096C44.4036 52.064 44.1956 52.024 43.9716 51.976ZM66.8396 52.12C65.5276 52.12 64.3756 51.848 63.3836 51.304C62.3916 50.744 61.6156 49.984 61.0556 49.024C60.4956 48.048 60.2156 46.936 60.2156 45.688C60.2156 44.44 60.4796 43.336 61.0076 42.376C61.5516 41.416 62.2876 40.664 63.2156 40.12C64.1596 39.56 65.2156 39.28 66.3836 39.28C67.5676 39.28 68.6156 39.552 69.5276 40.096C70.4556 40.624 71.1836 41.376 71.7116 42.352C72.2396 43.312 72.5036 44.424 72.5036 45.688C72.5036 45.768 72.4956 45.856 72.4796 45.952C72.4796 46.032 72.4796 46.12 72.4796 46.216H61.5116V44.944H71.5676L70.8956 45.448C70.8956 44.536 70.6956 43.728 70.2956 43.024C69.9116 42.304 69.3836 41.744 68.7116 41.344C68.0396 40.944 67.2636 40.744 66.3836 40.744C65.5196 40.744 64.7436 40.944 64.0556 41.344C63.3676 41.744 62.8316 42.304 62.4476 43.024C62.0636 43.744 61.8716 44.568 61.8716 45.496V45.76C61.8716 46.72 62.0796 47.568 62.4956 48.304C62.9276 49.024 63.5196 49.592 64.2716 50.008C65.0396 50.408 65.9116 50.608 66.8876 50.608C67.6556 50.608 68.3676 50.472 69.0236 50.2C69.6956 49.928 70.2716 49.512 70.7516 48.952L71.7116 50.056C71.1516 50.728 70.4476 51.24 69.5996 51.592C68.7676 51.944 67.8476 52.12 66.8396 52.12ZM76.2756 52V39.4H85.2036V40.888H77.5476L77.9796 40.456V52H76.2756ZM95.4902 52V49.216L95.4182 48.76V44.104C95.4182 43.032 95.1142 42.208 94.5062 41.632C93.9142 41.056 93.0262 40.768 91.8422 40.768C91.0262 40.768 90.2502 40.904 89.5142 41.176C88.7782 41.448 88.1542 41.808 87.6422 42.256L86.8742 40.984C87.5142 40.44 88.2822 40.024 89.1782 39.736C90.0742 39.432 91.0182 39.28 92.0102 39.28C93.6422 39.28 94.8982 39.688 95.7782 40.504C96.6742 41.304 97.1222 42.528 97.1222 44.176V52H95.4902ZM91.1462 52.12C90.2022 52.12 89.3782 51.968 88.6742 51.664C87.9862 51.344 87.4582 50.912 87.0902 50.368C86.7222 49.808 86.5382 49.168 86.5382 48.448C86.5382 47.792 86.6902 47.2 86.9942 46.672C87.3142 46.128 87.8262 45.696 88.5302 45.376C89.2502 45.04 90.2102 44.872 91.4102 44.872H95.7542V46.144H91.4582C90.2422 46.144 89.3942 46.36 88.9142 46.792C88.4502 47.224 88.2182 47.76 88.2182 48.4C88.2182 49.12 88.4982 49.696 89.0582 50.128C89.6182 50.56 90.4022 50.776 91.4102 50.776C92.3702 50.776 93.1942 50.56 93.8822 50.128C94.5862 49.68 95.0982 49.04 95.4182 48.208L95.8022 49.384C95.4822 50.216 94.9222 50.88 94.1222 51.376C93.3382 51.872 92.3462 52.12 91.1462 52.12ZM101.658 52V39.4H103.386L109.098 49.072H108.378L114.186 39.4H115.77V52H114.21V41.344L114.522 41.488L109.098 50.464H108.33L102.858 41.392L103.218 41.32V52H101.658ZM120.619 52V39.4H122.323V49.408L130.747 39.4H132.259V52H130.555V41.968L122.155 52H120.619ZM148.704 52.12C147.456 52.12 146.336 51.848 145.344 51.304C144.368 50.744 143.6 49.984 143.04 49.024C142.48 48.048 142.2 46.936 142.2 45.688C142.2 44.424 142.48 43.312 143.04 42.352C143.6 41.392 144.368 40.64 145.344 40.096C146.336 39.552 147.456 39.28 148.704 39.28C149.776 39.28 150.744 39.488 151.608 39.904C152.472 40.32 153.152 40.944 153.648 41.776L152.376 42.64C151.944 42 151.408 41.528 150.768 41.224C150.128 40.92 149.432 40.768 148.68 40.768C147.784 40.768 146.976 40.976 146.256 41.392C145.536 41.792 144.968 42.36 144.552 43.096C144.136 43.832 143.928 44.696 143.928 45.688C143.928 46.68 144.136 47.544 144.552 48.28C144.968 49.016 145.536 49.592 146.256 50.008C146.976 50.408 147.784 50.608 148.68 50.608C149.432 50.608 150.128 50.456 150.768 50.152C151.408 49.848 151.944 49.384 152.376 48.76L153.648 49.624C153.152 50.44 152.472 51.064 151.608 51.496C150.744 51.912 149.776 52.12 148.704 52.12ZM156.947 52V39.4H168.275V52H166.571V40.432L167.003 40.888H158.219L158.651 40.432V52H156.947ZM178.303 52.12C177.087 52.12 175.991 51.848 175.015 51.304C174.055 50.744 173.295 49.984 172.735 49.024C172.175 48.048 171.895 46.936 171.895 45.688C171.895 44.424 172.175 43.312 172.735 42.352C173.295 41.392 174.055 40.64 175.015 40.096C175.975 39.552 177.071 39.28 178.303 39.28C179.551 39.28 180.655 39.552 181.615 40.096C182.591 40.64 183.351 41.392 183.895 42.352C184.455 43.312 184.735 44.424 184.735 45.688C184.735 46.936 184.455 48.048 183.895 49.024C183.351 49.984 182.591 50.744 181.615 51.304C180.639 51.848 179.535 52.12 178.303 52.12ZM178.303 50.608C179.215 50.608 180.023 50.408 180.727 50.008C181.431 49.592 181.983 49.016 182.383 48.28C182.799 47.528 183.007 46.664 183.007 45.688C183.007 44.696 182.799 43.832 182.383 43.096C181.983 42.36 181.431 41.792 180.727 41.392C180.023 40.976 179.223 40.768 178.327 40.768C177.431 40.768 176.631 40.976 175.927 41.392C175.223 41.792 174.663 42.36 174.247 43.096C173.831 43.832 173.623 44.696 173.623 45.688C173.623 46.664 173.831 47.528 174.247 48.28C174.663 49.016 175.223 49.592 175.927 50.008C176.631 50.408 177.423 50.608 178.303 50.608ZM193.657 52.12C192.409 52.12 191.289 51.848 190.297 51.304C189.321 50.744 188.553 49.984 187.993 49.024C187.433 48.048 187.153 46.936 187.153 45.688C187.153 44.424 187.433 43.312 187.993 42.352C188.553 41.392 189.321 40.64 190.297 40.096C191.289 39.552 192.409 39.28 193.657 39.28C194.729 39.28 195.697 39.488 196.561 39.904C197.425 40.32 198.105 40.944 198.601 41.776L197.329 42.64C196.897 42 196.361 41.528 195.721 41.224C195.081 40.92 194.385 40.768 193.633 40.768C192.737 40.768 191.929 40.976 191.209 41.392C190.489 41.792 189.921 42.36 189.505 43.096C189.089 43.832 188.881 44.696 188.881 45.688C188.881 46.68 189.089 47.544 189.505 48.28C189.921 49.016 190.489 49.592 191.209 50.008C191.929 50.408 192.737 50.608 193.633 50.608C194.385 50.608 195.081 50.456 195.721 50.152C196.361 49.848 196.897 49.384 197.329 48.76L198.601 49.624C198.105 50.44 197.425 51.064 196.561 51.496C195.697 51.912 194.729 52.12 193.657 52.12ZM206.874 52.12C205.658 52.12 204.562 51.848 203.586 51.304C202.626 50.744 201.866 49.984 201.306 49.024C200.746 48.048 200.466 46.936 200.466 45.688C200.466 44.424 200.746 43.312 201.306 42.352C201.866 41.392 202.626 40.64 203.586 40.096C204.546 39.552 205.642 39.28 206.874 39.28C208.122 39.28 209.226 39.552 210.186 40.096C211.162 40.64 211.922 41.392 212.466 42.352C213.026 43.312 213.306 44.424 213.306 45.688C213.306 46.936 213.026 48.048 212.466 49.024C211.922 49.984 211.162 50.744 210.186 51.304C209.21 51.848 208.106 52.12 206.874 52.12ZM206.874 50.608C207.786 50.608 208.594 50.408 209.298 50.008C210.002 49.592 210.554 49.016 210.954 48.28C211.37 47.528 211.578 46.664 211.578 45.688C211.578 44.696 211.37 43.832 210.954 43.096C210.554 42.36 210.002 41.792 209.298 41.392C208.594 40.976 207.794 40.768 206.898 40.768C206.002 40.768 205.202 40.976 204.498 41.392C203.794 41.792 203.234 42.36 202.818 43.096C202.402 43.832 202.194 44.696 202.194 45.688C202.194 46.664 202.402 47.528 202.818 48.28C203.234 49.016 203.794 49.592 204.498 50.008C205.202 50.408 205.994 50.608 206.874 50.608ZM222.611 52.144C221.587 52.144 220.675 51.976 219.875 51.64C219.091 51.304 218.419 50.792 217.859 50.104C217.299 49.416 216.875 48.568 216.587 47.56C216.299 46.536 216.155 45.352 216.155 44.008C216.155 42.808 216.267 41.76 216.491 40.864C216.715 39.952 217.027 39.168 217.427 38.512C217.827 37.856 218.291 37.304 218.819 36.856C219.363 36.392 219.947 36.024 220.571 35.752C221.211 35.464 221.867 35.248 222.539 35.104L228.203 33.784L228.491 35.368L223.163 36.568C222.827 36.648 222.419 36.76 221.939 36.904C221.475 37.048 220.995 37.264 220.499 37.552C220.019 37.84 219.571 38.24 219.155 38.752C218.739 39.264 218.403 39.928 218.147 40.744C217.907 41.544 217.787 42.544 217.787 43.744C217.787 44 217.795 44.208 217.811 44.368C217.827 44.512 217.843 44.672 217.859 44.848C217.891 45.008 217.915 45.248 217.931 45.568L217.187 44.944C217.363 43.968 217.723 43.12 218.267 42.4C218.811 41.664 219.491 41.096 220.307 40.696C221.139 40.28 222.059 40.072 223.067 40.072C224.235 40.072 225.275 40.328 226.187 40.84C227.099 41.336 227.811 42.032 228.323 42.928C228.851 43.824 229.115 44.864 229.115 46.048C229.115 47.216 228.843 48.264 228.299 49.192C227.771 50.12 227.019 50.848 226.043 51.376C225.067 51.888 223.923 52.144 222.611 52.144ZM222.803 50.728C223.699 50.728 224.491 50.528 225.179 50.128C225.867 49.712 226.403 49.152 226.787 48.448C227.187 47.744 227.387 46.952 227.387 46.072C227.387 45.208 227.187 44.44 226.787 43.768C226.403 43.096 225.867 42.568 225.179 42.184C224.491 41.784 223.691 41.584 222.779 41.584C221.883 41.584 221.091 41.776 220.403 42.16C219.715 42.528 219.171 43.048 218.771 43.72C218.387 44.392 218.195 45.168 218.195 46.048C218.195 46.928 218.387 47.72 218.771 48.424C219.171 49.128 219.715 49.688 220.403 50.104C221.107 50.52 221.907 50.728 222.803 50.728ZM238.048 52.12C236.8 52.12 235.68 51.848 234.688 51.304C233.712 50.744 232.944 49.984 232.384 49.024C231.824 48.048 231.544 46.936 231.544 45.688C231.544 44.424 231.824 43.312 232.384 42.352C232.944 41.392 233.712 40.64 234.688 40.096C235.68 39.552 236.8 39.28 238.048 39.28C239.12 39.28 240.088 39.488 240.952 39.904C241.816 40.32 242.496 40.944 242.992 41.776L241.72 42.64C241.288 42 240.752 41.528 240.112 41.224C239.472 40.92 238.776 40.768 238.024 40.768C237.128 40.768 236.32 40.976 235.6 41.392C234.88 41.792 234.312 42.36 233.896 43.096C233.48 43.832 233.272 44.696 233.272 45.688C233.272 46.68 233.48 47.544 233.896 48.28C234.312 49.016 234.88 49.592 235.6 50.008C236.32 50.408 237.128 50.608 238.024 50.608C238.776 50.608 239.472 50.456 240.112 50.152C240.752 49.848 241.288 49.384 241.72 48.76L242.992 49.624C242.496 50.44 241.816 51.064 240.952 51.496C240.088 51.912 239.12 52.12 238.048 52.12ZM248.457 52V40.432L248.889 40.888H243.681V39.4H254.937V40.888H249.729L250.161 40.432V52H248.457ZM257.401 52V39.4H262.969C264.393 39.4 265.513 39.672 266.329 40.216C267.161 40.76 267.577 41.56 267.577 42.616C267.577 43.64 267.185 44.432 266.401 44.992C265.617 45.536 264.585 45.808 263.305 45.808L263.641 45.304C265.145 45.304 266.249 45.584 266.953 46.144C267.657 46.704 268.009 47.512 268.009 48.568C268.009 49.656 267.609 50.504 266.809 51.112C266.025 51.704 264.801 52 263.137 52H257.401ZM259.057 50.656H263.065C264.137 50.656 264.945 50.488 265.489 50.152C266.049 49.8 266.329 49.24 266.329 48.472C266.329 47.704 266.081 47.144 265.585 46.792C265.089 46.44 264.305 46.264 263.233 46.264H259.057V50.656ZM259.057 44.992H262.849C263.825 44.992 264.569 44.808 265.081 44.44C265.609 44.072 265.873 43.536 265.873 42.832C265.873 42.128 265.609 41.6 265.081 41.248C264.569 40.896 263.825 40.72 262.849 40.72H259.057V44.992ZM272.218 56.776C271.626 56.776 271.058 56.68 270.514 56.488C269.986 56.296 269.53 56.008 269.146 55.624L269.938 54.352C270.258 54.656 270.602 54.888 270.97 55.048C271.354 55.224 271.778 55.312 272.242 55.312C272.802 55.312 273.282 55.152 273.682 54.832C274.098 54.528 274.49 53.984 274.858 53.2L275.674 51.352L275.866 51.088L281.05 39.4H282.73L276.418 53.512C276.066 54.328 275.674 54.976 275.242 55.456C274.826 55.936 274.37 56.272 273.874 56.464C273.378 56.672 272.826 56.776 272.218 56.776ZM275.578 52.36L269.77 39.4H271.546L276.682 50.968L275.578 52.36ZM290.433 52.12C289.121 52.12 287.969 51.848 286.977 51.304C285.985 50.744 285.209 49.984 284.649 49.024C284.089 48.048 283.809 46.936 283.809 45.688C283.809 44.44 284.073 43.336 284.601 42.376C285.145 41.416 285.881 40.664 286.809 40.12C287.753 39.56 288.809 39.28 289.977 39.28C291.161 39.28 292.209 39.552 293.121 40.096C294.049 40.624 294.777 41.376 295.305 42.352C295.833 43.312 296.097 44.424 296.097 45.688C296.097 45.768 296.089 45.856 296.073 45.952C296.073 46.032 296.073 46.12 296.073 46.216H285.105V44.944H295.161L294.489 45.448C294.489 44.536 294.289 43.728 293.889 43.024C293.505 42.304 292.977 41.744 292.305 41.344C291.633 40.944 290.857 40.744 289.977 40.744C289.113 40.744 288.337 40.944 287.649 41.344C286.961 41.744 286.425 42.304 286.041 43.024C285.657 43.744 285.465 44.568 285.465 45.496V45.76C285.465 46.72 285.673 47.568 286.089 48.304C286.521 49.024 287.113 49.592 287.865 50.008C288.633 50.408 289.505 50.608 290.481 50.608C291.249 50.608 291.961 50.472 292.617 50.2C293.289 49.928 293.865 49.512 294.345 48.952L295.305 50.056C294.745 50.728 294.041 51.24 293.193 51.592C292.361 51.944 291.441 52.12 290.433 52.12ZM301.707 52V40.432L302.139 40.888H296.931V39.4H308.187V40.888H302.979L303.411 40.432V52H301.707ZM2.424 81V68.4H13.752V81H12.048V69.432L12.48 69.888H3.696L4.128 69.432V81H2.424ZM25.0999 81.12C24.0119 81.12 23.0279 80.872 22.1479 80.376C21.2679 79.864 20.5639 79.136 20.0359 78.192C19.5239 77.232 19.2679 76.064 19.2679 74.688C19.2679 73.312 19.5239 72.152 20.0359 71.208C20.5479 70.248 21.2439 69.52 22.1239 69.024C23.0039 68.528 23.9959 68.28 25.0999 68.28C26.2999 68.28 27.3719 68.552 28.3159 69.096C29.2759 69.624 30.0279 70.376 30.5719 71.352C31.1159 72.312 31.3879 73.424 31.3879 74.688C31.3879 75.968 31.1159 77.088 30.5719 78.048C30.0279 79.008 29.2759 79.76 28.3159 80.304C27.3719 80.848 26.2999 81.12 25.0999 81.12ZM18.5959 85.656V68.4H20.2279V72.192L20.0599 74.712L20.2999 77.256V85.656H18.5959ZM24.9799 79.608C25.8759 79.608 26.6759 79.408 27.3799 79.008C28.0839 78.592 28.6439 78.016 29.0599 77.28C29.4759 76.528 29.6839 75.664 29.6839 74.688C29.6839 73.712 29.4759 72.856 29.0599 72.12C28.6439 71.384 28.0839 70.808 27.3799 70.392C26.6759 69.976 25.8759 69.768 24.9799 69.768C24.0839 69.768 23.2759 69.976 22.5559 70.392C21.8519 70.808 21.2919 71.384 20.8759 72.12C20.4759 72.856 20.2759 73.712 20.2759 74.688C20.2759 75.664 20.4759 76.528 20.8759 77.28C21.2919 78.016 21.8519 78.592 22.5559 79.008C23.2759 79.408 24.0839 79.608 24.9799 79.608ZM40.233 81.12C39.017 81.12 37.921 80.848 36.945 80.304C35.985 79.744 35.225 78.984 34.665 78.024C34.105 77.048 33.825 75.936 33.825 74.688C33.825 73.424 34.105 72.312 34.665 71.352C35.225 70.392 35.985 69.64 36.945 69.096C37.905 68.552 39.001 68.28 40.233 68.28C41.481 68.28 42.585 68.552 43.545 69.096C44.521 69.64 45.281 70.392 45.825 71.352C46.385 72.312 46.665 73.424 46.665 74.688C46.665 75.936 46.385 77.048 45.825 78.024C45.281 78.984 44.521 79.744 43.545 80.304C42.569 80.848 41.465 81.12 40.233 81.12ZM40.233 79.608C41.145 79.608 41.953 79.408 42.657 79.008C43.361 78.592 43.913 78.016 44.313 77.28C44.729 76.528 44.937 75.664 44.937 74.688C44.937 73.696 44.729 72.832 44.313 72.096C43.913 71.36 43.361 70.792 42.657 70.392C41.953 69.976 41.153 69.768 40.257 69.768C39.361 69.768 38.561 69.976 37.857 70.392C37.153 70.792 36.593 71.36 36.177 72.096C35.761 72.832 35.553 73.696 35.553 74.688C35.553 75.664 35.761 76.528 36.177 77.28C36.593 78.016 37.153 78.592 37.857 79.008C38.561 79.408 39.353 79.608 40.233 79.608ZM58.8765 80.184V69.888H52.8045L52.6605 72.696C52.6285 73.544 52.5725 74.376 52.4925 75.192C52.4285 76.008 52.3085 76.76 52.1325 77.448C51.9725 78.12 51.7405 78.672 51.4365 79.104C51.1325 79.52 50.7405 79.76 50.2605 79.824L48.5565 79.512C49.0525 79.528 49.4605 79.352 49.7805 78.984C50.1005 78.6 50.3485 78.08 50.5245 77.424C50.7005 76.768 50.8285 76.024 50.9085 75.192C50.9885 74.344 51.0525 73.48 51.1005 72.6L51.2685 68.4H60.5805V80.184H58.8765ZM48.0285 84.048V79.512H62.5485V84.048H60.9405V81H49.6365V84.048H48.0285ZM65.8693 81V68.4H71.4373C72.8613 68.4 73.9813 68.672 74.7973 69.216C75.6293 69.76 76.0453 70.56 76.0453 71.616C76.0453 72.64 75.6533 73.432 74.8693 73.992C74.0853 74.536 73.0533 74.808 71.7733 74.808L72.1093 74.304C73.6133 74.304 74.7173 74.584 75.4213 75.144C76.1253 75.704 76.4773 76.512 76.4773 77.568C76.4773 78.656 76.0773 79.504 75.2773 80.112C74.4933 80.704 73.2693 81 71.6053 81H65.8693ZM67.5253 79.656H71.5333C72.6053 79.656 73.4133 79.488 73.9573 79.152C74.5173 78.8 74.7973 78.24 74.7973 77.472C74.7973 76.704 74.5493 76.144 74.0533 75.792C73.5573 75.44 72.7733 75.264 71.7013 75.264H67.5253V79.656ZM67.5253 73.992H71.3173C72.2933 73.992 73.0373 73.808 73.5493 73.44C74.0773 73.072 74.3413 72.536 74.3413 71.832C74.3413 71.128 74.0773 70.6 73.5493 70.248C73.0373 69.896 72.2933 69.72 71.3173 69.72H67.5253V73.992ZM80.4709 81V68.4H82.1749V78.408L90.5989 68.4H92.1109V81H90.4069V70.968L82.0069 81H80.4709ZM111.946 81L107.626 74.76L109.042 73.92L113.986 81H111.946ZM104.794 75.384V73.92H108.778V75.384H104.794ZM109.21 74.88L107.578 74.64L111.778 68.4H113.626L109.21 74.88ZM97.0183 81H94.9783L99.9223 73.92L101.314 74.76L97.0183 81ZM105.322 81H103.618V68.4H105.322V81ZM104.146 75.384H100.186V73.92H104.146V75.384ZM99.7783 74.88L95.3383 68.4H97.1863L101.362 74.64L99.7783 74.88ZM121.777 81.12C120.465 81.12 119.313 80.848 118.321 80.304C117.329 79.744 116.553 78.984 115.993 78.024C115.433 77.048 115.153 75.936 115.153 74.688C115.153 73.44 115.417 72.336 115.945 71.376C116.489 70.416 117.225 69.664 118.153 69.12C119.097 68.56 120.153 68.28 121.321 68.28C122.505 68.28 123.553 68.552 124.465 69.096C125.393 69.624 126.121 70.376 126.649 71.352C127.177 72.312 127.441 73.424 127.441 74.688C127.441 74.768 127.433 74.856 127.417 74.952C127.417 75.032 127.417 75.12 127.417 75.216H116.449V73.944H126.505L125.833 74.448C125.833 73.536 125.633 72.728 125.233 72.024C124.849 71.304 124.321 70.744 123.649 70.344C122.977 69.944 122.201 69.744 121.321 69.744C120.457 69.744 119.681 69.944 118.993 70.344C118.305 70.744 117.769 71.304 117.385 72.024C117.001 72.744 116.809 73.568 116.809 74.496V74.76C116.809 75.72 117.017 76.568 117.433 77.304C117.865 78.024 118.457 78.592 119.209 79.008C119.977 79.408 120.849 79.608 121.825 79.608C122.593 79.608 123.305 79.472 123.961 79.2C124.633 78.928 125.209 78.512 125.689 77.952L126.649 79.056C126.089 79.728 125.385 80.24 124.537 80.592C123.705 80.944 122.785 81.12 121.777 81.12ZM131.213 81V68.4H132.917V73.968H140.861V68.4H142.565V81H140.861V75.432H132.917V81H131.213ZM147.408 81V68.4H149.112V78.408L157.536 68.4H159.048V81H157.344V70.968L148.944 81H147.408ZM163.932 81V68.4H165.636V73.824H169.476V75.384H165.636V81H163.932ZM174.78 81.12C173.58 81.12 172.5 80.848 171.54 80.304C170.596 79.744 169.852 78.984 169.308 78.024C168.764 77.048 168.492 75.936 168.492 74.688C168.492 73.424 168.764 72.312 169.308 71.352C169.852 70.392 170.596 69.64 171.54 69.096C172.5 68.552 173.58 68.28 174.78 68.28C175.98 68.28 177.052 68.552 177.996 69.096C178.94 69.64 179.684 70.392 180.228 71.352C180.772 72.312 181.044 73.424 181.044 74.688C181.044 75.936 180.772 77.048 180.228 78.024C179.684 78.984 178.94 79.744 177.996 80.304C177.052 80.848 175.98 81.12 174.78 81.12ZM174.78 79.632C175.66 79.632 176.444 79.424 177.132 79.008C177.82 78.592 178.364 78.016 178.764 77.28C179.164 76.528 179.364 75.664 179.364 74.688C179.364 73.696 179.164 72.832 178.764 72.096C178.364 71.36 177.82 70.792 177.132 70.392C176.444 69.976 175.66 69.768 174.78 69.768C173.916 69.768 173.132 69.976 172.428 70.392C171.74 70.792 171.196 71.36 170.796 72.096C170.396 72.832 170.196 73.696 170.196 74.688C170.196 75.664 170.396 76.528 170.796 77.28C171.196 78.016 171.74 78.592 172.428 79.008C173.132 79.424 173.916 79.632 174.78 79.632ZM190.979 81V68.4H196.547C197.971 68.4 199.091 68.672 199.907 69.216C200.739 69.76 201.155 70.56 201.155 71.616C201.155 72.64 200.763 73.432 199.979 73.992C199.195 74.536 198.163 74.808 196.883 74.808L197.219 74.304C198.723 74.304 199.827 74.584 200.531 75.144C201.235 75.704 201.587 76.512 201.587 77.568C201.587 78.656 201.187 79.504 200.387 80.112C199.603 80.704 198.379 81 196.715 81H190.979ZM192.635 79.656H196.643C197.715 79.656 198.523 79.488 199.067 79.152C199.627 78.8 199.907 78.24 199.907 77.472C199.907 76.704 199.659 76.144 199.163 75.792C198.667 75.44 197.883 75.264 196.811 75.264H192.635V79.656ZM192.635 73.992H196.427C197.403 73.992 198.147 73.808 198.659 73.44C199.187 73.072 199.451 72.536 199.451 71.832C199.451 71.128 199.187 70.6 198.659 70.248C198.147 69.896 197.403 69.72 196.427 69.72H192.635V73.992ZM212.078 85.776C211.486 85.776 210.918 85.68 210.374 85.488C209.846 85.296 209.389 85.008 209.005 84.624L209.798 83.352C210.118 83.656 210.462 83.888 210.83 84.048C211.214 84.224 211.638 84.312 212.102 84.312C212.662 84.312 213.142 84.152 213.542 83.832C213.958 83.528 214.35 82.984 214.718 82.2L215.534 80.352L215.726 80.088L220.91 68.4H222.59L216.278 82.512C215.926 83.328 215.534 83.976 215.102 84.456C214.686 84.936 214.23 85.272 213.734 85.464C213.238 85.672 212.686 85.776 212.078 85.776ZM215.438 81.36L209.63 68.4H211.406L216.542 79.968L215.438 81.36ZM233.212 75.672C232.476 75.992 231.732 76.248 230.98 76.44C230.244 76.616 229.508 76.704 228.772 76.704C227.284 76.704 226.108 76.368 225.244 75.696C224.38 75.008 223.948 73.952 223.948 72.528V68.4H225.628V72.432C225.628 73.392 225.94 74.112 226.564 74.592C227.188 75.072 228.028 75.312 229.084 75.312C229.724 75.312 230.396 75.232 231.1 75.072C231.804 74.896 232.516 74.648 233.236 74.328L233.212 75.672ZM233.068 81V68.4H234.772V81H233.068ZM245.012 81.12C243.7 81.12 242.548 80.848 241.556 80.304C240.564 79.744 239.788 78.984 239.228 78.024C238.668 77.048 238.388 75.936 238.388 74.688C238.388 73.44 238.652 72.336 239.18 71.376C239.724 70.416 240.46 69.664 241.388 69.12C242.332 68.56 243.388 68.28 244.556 68.28C245.74 68.28 246.788 68.552 247.7 69.096C248.628 69.624 249.356 70.376 249.884 71.352C250.412 72.312 250.676 73.424 250.676 74.688C250.676 74.768 250.668 74.856 250.652 74.952C250.652 75.032 250.652 75.12 250.652 75.216H239.684V73.944H249.74L249.068 74.448C249.068 73.536 248.868 72.728 248.468 72.024C248.084 71.304 247.556 70.744 246.884 70.344C246.212 69.944 245.436 69.744 244.556 69.744C243.692 69.744 242.916 69.944 242.228 70.344C241.54 70.744 241.004 71.304 240.62 72.024C240.236 72.744 240.044 73.568 240.044 74.496V74.76C240.044 75.72 240.252 76.568 240.668 77.304C241.1 78.024 241.692 78.592 242.444 79.008C243.212 79.408 244.084 79.608 245.06 79.608C245.828 79.608 246.54 79.472 247.196 79.2C247.868 78.928 248.444 78.512 248.924 77.952L249.884 79.056C249.324 79.728 248.62 80.24 247.772 80.592C246.94 80.944 246.02 81.12 245.012 81.12ZM246.692 65.88C246.42 65.88 246.18 65.784 245.972 65.592C245.764 65.4 245.66 65.152 245.66 64.848C245.66 64.544 245.764 64.296 245.972 64.104C246.18 63.912 246.42 63.816 246.692 63.816C246.98 63.816 247.22 63.912 247.412 64.104C247.62 64.296 247.724 64.544 247.724 64.848C247.724 65.152 247.62 65.4 247.412 65.592C247.22 65.784 246.98 65.88 246.692 65.88ZM242.42 65.88C242.132 65.88 241.884 65.784 241.676 65.592C241.484 65.4 241.388 65.152 241.388 64.848C241.388 64.544 241.484 64.296 241.676 64.104C241.884 63.912 242.132 63.816 242.42 63.816C242.692 63.816 242.932 63.912 243.14 64.104C243.348 64.296 243.452 64.544 243.452 64.848C243.452 65.152 243.348 65.4 243.14 65.592C242.932 65.784 242.692 65.88 242.42 65.88ZM260.111 81.144C259.087 81.144 258.175 80.976 257.375 80.64C256.591 80.304 255.919 79.792 255.359 79.104C254.799 78.416 254.375 77.568 254.087 76.56C253.799 75.536 253.655 74.352 253.655 73.008C253.655 71.808 253.767 70.76 253.991 69.864C254.215 68.952 254.527 68.168 254.927 67.512C255.327 66.856 255.791 66.304 256.319 65.856C256.863 65.392 257.447 65.024 258.071 64.752C258.711 64.464 259.367 64.248 260.039 64.104L265.703 62.784L265.991 64.368L260.663 65.568C260.327 65.648 259.919 65.76 259.439 65.904C258.975 66.048 258.495 66.264 257.999 66.552C257.519 66.84 257.071 67.24 256.655 67.752C256.239 68.264 255.903 68.928 255.647 69.744C255.407 70.544 255.287 71.544 255.287 72.744C255.287 73 255.295 73.208 255.311 73.368C255.327 73.512 255.343 73.672 255.359 73.848C255.391 74.008 255.415 74.248 255.431 74.568L254.687 73.944C254.863 72.968 255.223 72.12 255.767 71.4C256.311 70.664 256.991 70.096 257.807 69.696C258.639 69.28 259.559 69.072 260.567 69.072C261.735 69.072 262.775 69.328 263.687 69.84C264.599 70.336 265.311 71.032 265.823 71.928C266.351 72.824 266.615 73.864 266.615 75.048C266.615 76.216 266.343 77.264 265.799 78.192C265.271 79.12 264.519 79.848 263.543 80.376C262.567 80.888 261.423 81.144 260.111 81.144ZM260.303 79.728C261.199 79.728 261.991 79.528 262.679 79.128C263.367 78.712 263.903 78.152 264.287 77.448C264.687 76.744 264.887 75.952 264.887 75.072C264.887 74.208 264.687 73.44 264.287 72.768C263.903 72.096 263.367 71.568 262.679 71.184C261.991 70.784 261.191 70.584 260.279 70.584C259.383 70.584 258.591 70.776 257.903 71.16C257.215 71.528 256.671 72.048 256.271 72.72C255.887 73.392 255.695 74.168 255.695 75.048C255.695 75.928 255.887 76.72 256.271 77.424C256.671 78.128 257.215 78.688 257.903 79.104C258.607 79.52 259.407 79.728 260.303 79.728ZM275.668 81.12C274.356 81.12 273.204 80.848 272.212 80.304C271.22 79.744 270.444 78.984 269.884 78.024C269.324 77.048 269.044 75.936 269.044 74.688C269.044 73.44 269.308 72.336 269.836 71.376C270.38 70.416 271.116 69.664 272.044 69.12C272.988 68.56 274.044 68.28 275.212 68.28C276.396 68.28 277.444 68.552 278.356 69.096C279.284 69.624 280.012 70.376 280.54 71.352C281.068 72.312 281.332 73.424 281.332 74.688C281.332 74.768 281.324 74.856 281.308 74.952C281.308 75.032 281.308 75.12 281.308 75.216H270.34V73.944H280.396L279.724 74.448C279.724 73.536 279.524 72.728 279.124 72.024C278.74 71.304 278.212 70.744 277.54 70.344C276.868 69.944 276.092 69.744 275.212 69.744C274.348 69.744 273.572 69.944 272.884 70.344C272.196 70.744 271.66 71.304 271.276 72.024C270.892 72.744 270.7 73.568 270.7 74.496V74.76C270.7 75.72 270.908 76.568 271.324 77.304C271.756 78.024 272.348 78.592 273.1 79.008C273.868 79.408 274.74 79.608 275.716 79.608C276.484 79.608 277.196 79.472 277.852 79.2C278.524 78.928 279.1 78.512 279.58 77.952L280.54 79.056C279.98 79.728 279.276 80.24 278.428 80.592C277.596 80.944 276.676 81.12 275.668 81.12ZM282.08 83.4L290 60.792H291.56L283.64 83.4H282.08ZM298.006 81.12C296.918 81.12 295.934 80.872 295.054 80.376C294.174 79.864 293.47 79.136 292.942 78.192C292.43 77.232 292.174 76.064 292.174 74.688C292.174 73.312 292.43 72.152 292.942 71.208C293.454 70.248 294.15 69.52 295.03 69.024C295.91 68.528 296.902 68.28 298.006 68.28C299.206 68.28 300.278 68.552 301.222 69.096C302.182 69.624 302.934 70.376 303.478 71.352C304.022 72.312 304.294 73.424 304.294 74.688C304.294 75.968 304.022 77.088 303.478 78.048C302.934 79.008 302.182 79.76 301.222 80.304C300.278 80.848 299.206 81.12 298.006 81.12ZM291.502 85.656V68.4H293.134V72.192L292.966 74.712L293.206 77.256V85.656H291.502ZM297.886 79.608C298.782 79.608 299.582 79.408 300.286 79.008C300.99 78.592 301.55 78.016 301.966 77.28C302.382 76.528 302.59 75.664 302.59 74.688C302.59 73.712 302.382 72.856 301.966 72.12C301.55 71.384 300.99 70.808 300.286 70.392C299.582 69.976 298.782 69.768 297.886 69.768C296.99 69.768 296.182 69.976 295.462 70.392C294.758 70.808 294.198 71.384 293.782 72.12C293.382 72.856 293.182 73.712 293.182 74.688C293.182 75.664 293.382 76.528 293.782 77.28C294.198 78.016 294.758 78.592 295.462 79.008C296.182 79.408 296.99 79.608 297.886 79.608ZM315.709 81V78.216L315.637 77.76V73.104C315.637 72.032 315.333 71.208 314.725 70.632C314.133 70.056 313.245 69.768 312.061 69.768C311.245 69.768 310.469 69.904 309.733 70.176C308.997 70.448 308.373 70.808 307.861 71.256L307.093 69.984C307.733 69.44 308.501 69.024 309.397 68.736C310.293 68.432 311.237 68.28 312.229 68.28C313.861 68.28 315.117 68.688 315.997 69.504C316.893 70.304 317.341 71.528 317.341 73.176V81H315.709ZM311.365 81.12C310.421 81.12 309.597 80.968 308.893 80.664C308.205 80.344 307.677 79.912 307.309 79.368C306.941 78.808 306.757 78.168 306.757 77.448C306.757 76.792 306.909 76.2 307.213 75.672C307.533 75.128 308.045 74.696 308.749 74.376C309.469 74.04 310.429 73.872 311.629 73.872H315.973V75.144H311.677C310.461 75.144 309.613 75.36 309.133 75.792C308.669 76.224 308.437 76.76 308.437 77.4C308.437 78.12 308.717 78.696 309.277 79.128C309.837 79.56 310.621 79.776 311.629 79.776C312.589 79.776 313.413 79.56 314.101 79.128C314.805 78.68 315.317 78.04 315.637 77.208L316.021 78.384C315.701 79.216 315.141 79.88 314.341 80.376C313.557 80.872 312.565 81.12 311.365 81.12ZM327.541 81.144C326.517 81.144 325.605 80.976 324.805 80.64C324.021 80.304 323.349 79.792 322.789 79.104C322.229 78.416 321.805 77.568 321.517 76.56C321.229 75.536 321.085 74.352 321.085 73.008C321.085 71.808 321.197 70.76 321.421 69.864C321.645 68.952 321.957 68.168 322.357 67.512C322.757 66.856 323.221 66.304 323.749 65.856C324.293 65.392 324.877 65.024 325.501 64.752C326.141 64.464 326.797 64.248 327.469 64.104L333.133 62.784L333.421 64.368L328.093 65.568C327.757 65.648 327.349 65.76 326.869 65.904C326.405 66.048 325.925 66.264 325.429 66.552C324.949 66.84 324.501 67.24 324.085 67.752C323.669 68.264 323.333 68.928 323.077 69.744C322.837 70.544 322.717 71.544 322.717 72.744C322.717 73 322.725 73.208 322.741 73.368C322.757 73.512 322.773 73.672 322.789 73.848C322.821 74.008 322.845 74.248 322.861 74.568L322.117 73.944C322.293 72.968 322.653 72.12 323.197 71.4C323.741 70.664 324.421 70.096 325.237 69.696C326.069 69.28 326.989 69.072 327.997 69.072C329.165 69.072 330.205 69.328 331.117 69.84C332.029 70.336 332.741 71.032 333.253 71.928C333.781 72.824 334.045 73.864 334.045 75.048C334.045 76.216 333.773 77.264 333.229 78.192C332.701 79.12 331.949 79.848 330.973 80.376C329.997 80.888 328.853 81.144 327.541 81.144ZM327.733 79.728C328.629 79.728 329.421 79.528 330.109 79.128C330.797 78.712 331.333 78.152 331.717 77.448C332.117 76.744 332.317 75.952 332.317 75.072C332.317 74.208 332.117 73.44 331.717 72.768C331.333 72.096 330.797 71.568 330.109 71.184C329.421 70.784 328.621 70.584 327.709 70.584C326.813 70.584 326.021 70.776 325.333 71.16C324.645 71.528 324.101 72.048 323.701 72.72C323.317 73.392 323.125 74.168 323.125 75.048C323.125 75.928 323.317 76.72 323.701 77.424C324.101 78.128 324.645 78.688 325.333 79.104C326.037 79.52 326.837 79.728 327.733 79.728ZM342.881 81.12C341.665 81.12 340.569 80.848 339.593 80.304C338.633 79.744 337.873 78.984 337.313 78.024C336.753 77.048 336.473 75.936 336.473 74.688C336.473 73.424 336.753 72.312 337.313 71.352C337.873 70.392 338.633 69.64 339.593 69.096C340.553 68.552 341.649 68.28 342.881 68.28C344.129 68.28 345.233 68.552 346.193 69.096C347.169 69.64 347.929 70.392 348.473 71.352C349.033 72.312 349.313 73.424 349.313 74.688C349.313 75.936 349.033 77.048 348.473 78.024C347.929 78.984 347.169 79.744 346.193 80.304C345.217 80.848 344.113 81.12 342.881 81.12ZM342.881 79.608C343.793 79.608 344.601 79.408 345.305 79.008C346.009 78.592 346.561 78.016 346.961 77.28C347.377 76.528 347.585 75.664 347.585 74.688C347.585 73.696 347.377 72.832 346.961 72.096C346.561 71.36 346.009 70.792 345.305 70.392C344.601 69.976 343.801 69.768 342.905 69.768C342.009 69.768 341.209 69.976 340.505 70.392C339.801 70.792 339.241 71.36 338.825 72.096C338.409 72.832 338.201 73.696 338.201 74.688C338.201 75.664 338.409 76.528 338.825 77.28C339.241 78.016 339.801 78.592 340.505 79.008C341.209 79.408 342.001 79.608 342.881 79.608ZM354.887 81V69.432L355.319 69.888H350.111V68.4H361.367V69.888H356.159L356.591 69.432V81H354.887ZM368.644 81.12C367.332 81.12 366.18 80.848 365.188 80.304C364.196 79.744 363.42 78.984 362.86 78.024C362.3 77.048 362.02 75.936 362.02 74.688C362.02 73.44 362.284 72.336 362.812 71.376C363.356 70.416 364.092 69.664 365.02 69.12C365.964 68.56 367.02 68.28 368.188 68.28C369.372 68.28 370.42 68.552 371.332 69.096C372.26 69.624 372.988 70.376 373.516 71.352C374.044 72.312 374.308 73.424 374.308 74.688C374.308 74.768 374.3 74.856 374.284 74.952C374.284 75.032 374.284 75.12 374.284 75.216H363.316V73.944H373.372L372.7 74.448C372.7 73.536 372.5 72.728 372.1 72.024C371.716 71.304 371.188 70.744 370.516 70.344C369.844 69.944 369.068 69.744 368.188 69.744C367.324 69.744 366.548 69.944 365.86 70.344C365.172 70.744 364.636 71.304 364.252 72.024C363.868 72.744 363.676 73.568 363.676 74.496V74.76C363.676 75.72 363.884 76.568 364.3 77.304C364.732 78.024 365.324 78.592 366.076 79.008C366.844 79.408 367.716 79.608 368.692 79.608C369.46 79.608 370.172 79.472 370.828 79.2C371.5 78.928 372.076 78.512 372.556 77.952L373.516 79.056C372.956 79.728 372.252 80.24 371.404 80.592C370.572 80.944 369.652 81.12 368.644 81.12ZM380.148 75.96C380.148 75.288 380.252 74.712 380.46 74.232C380.684 73.752 380.956 73.328 381.276 72.96C381.612 72.592 381.964 72.248 382.332 71.928C382.716 71.608 383.076 71.288 383.412 70.968C383.748 70.632 384.02 70.272 384.228 69.888C384.436 69.488 384.54 69.024 384.54 68.496C384.54 67.632 384.204 66.928 383.532 66.384C382.86 65.84 381.908 65.568 380.676 65.568C379.652 65.568 378.764 65.736 378.012 66.072C377.26 66.392 376.62 66.872 376.092 67.512L374.82 66.552C375.46 65.752 376.284 65.136 377.292 64.704C378.3 64.272 379.468 64.056 380.796 64.056C381.916 64.056 382.884 64.224 383.7 64.56C384.532 64.896 385.172 65.376 385.62 66C386.084 66.624 386.316 67.368 386.316 68.232C386.316 68.92 386.204 69.512 385.98 70.008C385.772 70.488 385.5 70.92 385.164 71.304C384.844 71.672 384.492 72.024 384.108 72.36C383.74 72.68 383.388 73.008 383.052 73.344C382.716 73.68 382.444 74.056 382.236 74.472C382.028 74.888 381.924 75.384 381.924 75.96H380.148ZM381.036 81.12C380.7 81.12 380.404 81 380.148 80.76C379.908 80.504 379.788 80.208 379.788 79.872C379.788 79.52 379.908 79.232 380.148 79.008C380.404 78.768 380.7 78.648 381.036 78.648C381.404 78.648 381.708 78.768 381.948 79.008C382.188 79.232 382.308 79.52 382.308 79.872C382.308 80.208 382.188 80.504 381.948 80.76C381.708 81 381.404 81.12 381.036 81.12Z" fill="black"/>
</svg>
