<svg width="473" height="484" viewBox="0 0 473 484" fill="none" xmlns="http://www.w3.org/2000/svg">
<path d="M10.2 23.144C8.936 23.144 7.76 22.936 6.672 22.52C5.6 22.088 4.664 21.488 3.864 20.72C3.08 19.936 2.464 19.032 2.016 18.008C1.584 16.968 1.368 15.832 1.368 14.6C1.368 13.368 1.584 12.24 2.016 11.216C2.464 10.176 3.08 9.272 3.864 8.504C4.664 7.72 5.6 7.12 6.672 6.704C7.744 6.272 8.92 6.056 10.2 6.056C11.464 6.056 12.632 6.272 13.704 6.704C14.776 7.12 15.704 7.712 16.488 8.48C17.288 9.248 17.904 10.152 18.336 11.192C18.784 12.232 19.008 13.368 19.008 14.6C19.008 15.832 18.784 16.968 18.336 18.008C17.904 19.048 17.288 19.952 16.488 20.72C15.704 21.488 14.776 22.088 13.704 22.52C12.632 22.936 11.464 23.144 10.2 23.144ZM10.2 21.56C11.208 21.56 12.136 21.392 12.984 21.056C13.848 20.704 14.592 20.216 15.216 19.592C15.856 18.952 16.352 18.216 16.704 17.384C17.056 16.536 17.232 15.608 17.232 14.6C17.232 13.592 17.056 12.672 16.704 11.84C16.352 10.992 15.856 10.256 15.216 9.632C14.592 8.992 13.848 8.504 12.984 8.168C12.136 7.816 11.208 7.64 10.2 7.64C9.192 7.64 8.256 7.816 7.392 8.168C6.528 8.504 5.776 8.992 5.136 9.632C4.512 10.256 4.016 10.992 3.648 11.84C3.296 12.672 3.12 13.592 3.12 14.6C3.12 15.592 3.296 16.512 3.648 17.36C4.016 18.208 4.512 18.952 5.136 19.592C5.776 20.216 6.528 20.704 7.392 21.056C8.256 21.392 9.192 21.56 10.2 21.56ZM22.8381 23V10.4H24.5421V21.512H32.2461V10.4H33.9501V23H22.8381ZM34.3821 26.048V22.856L34.8141 23H32.2461V21.512H35.9901V26.048H34.3821ZM44.6443 23.12C43.3323 23.12 42.1803 22.848 41.1883 22.304C40.1963 21.744 39.4203 20.984 38.8603 20.024C38.3003 19.048 38.0203 17.936 38.0203 16.688C38.0203 15.44 38.2843 14.336 38.8123 13.376C39.3563 12.416 40.0923 11.664 41.0203 11.12C41.9643 10.56 43.0203 10.28 44.1883 10.28C45.3723 10.28 46.4203 10.552 47.3323 11.096C48.2603 11.624 48.9883 12.376 49.5163 13.352C50.0443 14.312 50.3083 15.424 50.3083 16.688C50.3083 16.768 50.3003 16.856 50.2843 16.952C50.2843 17.032 50.2843 17.12 50.2843 17.216H39.3163V15.944H49.3723L48.7003 16.448C48.7003 15.536 48.5003 14.728 48.1003 14.024C47.7163 13.304 47.1883 12.744 46.5163 12.344C45.8443 11.944 45.0683 11.744 44.1883 11.744C43.3243 11.744 42.5483 11.944 41.8603 12.344C41.1723 12.744 40.6363 13.304 40.2523 14.024C39.8683 14.744 39.6763 15.568 39.6763 16.496V16.76C39.6763 17.72 39.8843 18.568 40.3003 19.304C40.7323 20.024 41.3243 20.592 42.0763 21.008C42.8443 21.408 43.7163 21.608 44.6923 21.608C45.4603 21.608 46.1723 21.472 46.8283 21.2C47.5003 20.928 48.0763 20.512 48.5563 19.952L49.5163 21.056C48.9563 21.728 48.2523 22.24 47.4043 22.592C46.5723 22.944 45.6523 23.12 44.6443 23.12ZM54.0803 23V10.4H55.7843V15.968H63.7283V10.4H65.4323V23H63.7283V17.432H55.7843V23H54.0803ZM70.2756 23V10.4H71.9796V20.408L80.4036 10.4H81.9156V23H80.2116V12.968L71.8116 23H70.2756ZM89.199 23V11.432L89.631 11.888H84.423V10.4H95.679V11.888H90.471L90.903 11.432V23H89.199ZM102.957 23.12C101.645 23.12 100.493 22.848 99.5008 22.304C98.5088 21.744 97.7328 20.984 97.1728 20.024C96.6128 19.048 96.3328 17.936 96.3328 16.688C96.3328 15.44 96.5968 14.336 97.1248 13.376C97.6688 12.416 98.4048 11.664 99.3328 11.12C100.277 10.56 101.333 10.28 102.501 10.28C103.685 10.28 104.733 10.552 105.645 11.096C106.573 11.624 107.301 12.376 107.829 13.352C108.357 14.312 108.621 15.424 108.621 16.688C108.621 16.768 108.613 16.856 108.597 16.952C108.597 17.032 108.597 17.12 108.597 17.216H97.6288V15.944H107.685L107.013 16.448C107.013 15.536 106.813 14.728 106.413 14.024C106.029 13.304 105.501 12.744 104.829 12.344C104.157 11.944 103.381 11.744 102.501 11.744C101.637 11.744 100.861 11.944 100.173 12.344C99.4848 12.744 98.9488 13.304 98.5648 14.024C98.1808 14.744 97.9888 15.568 97.9888 16.496V16.76C97.9888 17.72 98.1968 18.568 98.6128 19.304C99.0448 20.024 99.6368 20.592 100.389 21.008C101.157 21.408 102.029 21.608 103.005 21.608C103.773 21.608 104.485 21.472 105.141 21.2C105.813 20.928 106.389 20.512 106.869 19.952L107.829 21.056C107.269 21.728 106.565 22.24 105.717 22.592C104.885 22.944 103.965 23.12 102.957 23.12ZM119.082 23V6.2H126.066C127.842 6.2 129.234 6.568 130.242 7.304C131.266 8.024 131.778 9.088 131.778 10.496C131.778 11.888 131.29 12.944 130.314 13.664C129.338 14.368 128.058 14.72 126.474 14.72L126.882 14.12C128.754 14.12 130.178 14.488 131.154 15.224C132.13 15.96 132.618 17.04 132.618 18.464C132.618 19.904 132.106 21.024 131.082 21.824C130.074 22.608 128.554 23 126.522 23H119.082ZM120.834 21.584H126.522C127.946 21.584 129.026 21.32 129.762 20.792C130.498 20.264 130.866 19.448 130.866 18.344C130.866 17.256 130.498 16.456 129.762 15.944C129.026 15.432 127.946 15.176 126.522 15.176H120.834V21.584ZM120.834 13.808H125.97C127.266 13.808 128.258 13.552 128.946 13.04C129.65 12.512 130.002 11.736 130.002 10.712C130.002 9.688 129.65 8.92 128.946 8.408C128.258 7.88 127.266 7.616 125.97 7.616H120.834V13.808ZM144.475 23V20.216L144.403 19.76V15.104C144.403 14.032 144.099 13.208 143.491 12.632C142.899 12.056 142.011 11.768 140.827 11.768C140.011 11.768 139.235 11.904 138.499 12.176C137.763 12.448 137.139 12.808 136.627 13.256L135.859 11.984C136.499 11.44 137.267 11.024 138.163 10.736C139.059 10.432 140.003 10.28 140.995 10.28C142.627 10.28 143.883 10.688 144.763 11.504C145.659 12.304 146.107 13.528 146.107 15.176V23H144.475ZM140.131 23.12C139.187 23.12 138.363 22.968 137.659 22.664C136.971 22.344 136.443 21.912 136.075 21.368C135.707 20.808 135.523 20.168 135.523 19.448C135.523 18.792 135.675 18.2 135.979 17.672C136.299 17.128 136.811 16.696 137.515 16.376C138.235 16.04 139.195 15.872 140.395 15.872H144.739V17.144H140.443C139.227 17.144 138.379 17.36 137.899 17.792C137.435 18.224 137.203 18.76 137.203 19.4C137.203 20.12 137.483 20.696 138.043 21.128C138.603 21.56 139.387 21.776 140.395 21.776C141.355 21.776 142.179 21.56 142.867 21.128C143.571 20.68 144.083 20.04 144.403 19.208L144.787 20.384C144.467 21.216 143.907 21.88 143.107 22.376C142.323 22.872 141.331 23.12 140.131 23.12ZM158.923 21.512L158.539 21.968V10.4H160.243V21.968L159.787 21.512H166.819L166.363 21.968V10.4H168.067V23H150.643V10.4H152.347V21.968L151.915 21.512H158.923ZM173.124 27.776C172.532 27.776 171.964 27.68 171.42 27.488C170.892 27.296 170.436 27.008 170.052 26.624L170.844 25.352C171.164 25.656 171.508 25.888 171.876 26.048C172.26 26.224 172.684 26.312 173.148 26.312C173.708 26.312 174.188 26.152 174.588 25.832C175.004 25.528 175.396 24.984 175.764 24.2L176.58 22.352L176.772 22.088L181.956 10.4H183.636L177.324 24.512C176.972 25.328 176.58 25.976 176.148 26.456C175.732 26.936 175.276 27.272 174.78 27.464C174.284 27.672 173.732 27.776 173.124 27.776ZM176.484 23.36L170.676 10.4H172.452L177.588 21.968L176.484 23.36ZM197.852 23.12C196.604 23.12 195.484 22.848 194.492 22.304C193.516 21.744 192.748 20.984 192.188 20.024C191.628 19.048 191.348 17.936 191.348 16.688C191.348 15.424 191.628 14.312 192.188 13.352C192.748 12.392 193.516 11.64 194.492 11.096C195.484 10.552 196.604 10.28 197.852 10.28C198.924 10.28 199.892 10.488 200.756 10.904C201.62 11.32 202.3 11.944 202.796 12.776L201.524 13.64C201.092 13 200.556 12.528 199.916 12.224C199.276 11.92 198.58 11.768 197.828 11.768C196.932 11.768 196.124 11.976 195.404 12.392C194.684 12.792 194.116 13.36 193.7 14.096C193.284 14.832 193.076 15.696 193.076 16.688C193.076 17.68 193.284 18.544 193.7 19.28C194.116 20.016 194.684 20.592 195.404 21.008C196.124 21.408 196.932 21.608 197.828 21.608C198.58 21.608 199.276 21.456 199.916 21.152C200.556 20.848 201.092 20.384 201.524 19.76L202.796 20.624C202.3 21.44 201.62 22.064 200.756 22.496C199.892 22.912 198.924 23.12 197.852 23.12ZM206.096 23V10.4H217.424V23H215.72V11.432L216.152 11.888H207.368L207.8 11.432V23H206.096ZM227.452 23.12C226.236 23.12 225.14 22.848 224.164 22.304C223.204 21.744 222.444 20.984 221.884 20.024C221.324 19.048 221.044 17.936 221.044 16.688C221.044 15.424 221.324 14.312 221.884 13.352C222.444 12.392 223.204 11.64 224.164 11.096C225.124 10.552 226.22 10.28 227.452 10.28C228.7 10.28 229.804 10.552 230.764 11.096C231.74 11.64 232.5 12.392 233.044 13.352C233.604 14.312 233.884 15.424 233.884 16.688C233.884 17.936 233.604 19.048 233.044 20.024C232.5 20.984 231.74 21.744 230.764 22.304C229.788 22.848 228.684 23.12 227.452 23.12ZM227.452 21.608C228.364 21.608 229.172 21.408 229.876 21.008C230.58 20.592 231.132 20.016 231.532 19.28C231.948 18.528 232.156 17.664 232.156 16.688C232.156 15.696 231.948 14.832 231.532 14.096C231.132 13.36 230.58 12.792 229.876 12.392C229.172 11.976 228.372 11.768 227.476 11.768C226.58 11.768 225.78 11.976 225.076 12.392C224.372 12.792 223.812 13.36 223.396 14.096C222.98 14.832 222.772 15.696 222.772 16.688C222.772 17.664 222.98 18.528 223.396 19.28C223.812 20.016 224.372 20.592 225.076 21.008C225.78 21.408 226.572 21.608 227.452 21.608ZM242.806 23.12C241.558 23.12 240.438 22.848 239.446 22.304C238.47 21.744 237.702 20.984 237.142 20.024C236.582 19.048 236.302 17.936 236.302 16.688C236.302 15.424 236.582 14.312 237.142 13.352C237.702 12.392 238.47 11.64 239.446 11.096C240.438 10.552 241.558 10.28 242.806 10.28C243.878 10.28 244.846 10.488 245.71 10.904C246.574 11.32 247.254 11.944 247.75 12.776L246.478 13.64C246.046 13 245.51 12.528 244.87 12.224C244.23 11.92 243.534 11.768 242.782 11.768C241.886 11.768 241.078 11.976 240.358 12.392C239.638 12.792 239.07 13.36 238.654 14.096C238.238 14.832 238.03 15.696 238.03 16.688C238.03 17.68 238.238 18.544 238.654 19.28C239.07 20.016 239.638 20.592 240.358 21.008C241.078 21.408 241.886 21.608 242.782 21.608C243.534 21.608 244.23 21.456 244.87 21.152C245.51 20.848 246.046 20.384 246.478 19.76L247.75 20.624C247.254 21.44 246.574 22.064 245.71 22.496C244.846 22.912 243.878 23.12 242.806 23.12ZM256.022 23.12C254.806 23.12 253.71 22.848 252.734 22.304C251.774 21.744 251.014 20.984 250.454 20.024C249.894 19.048 249.614 17.936 249.614 16.688C249.614 15.424 249.894 14.312 250.454 13.352C251.014 12.392 251.774 11.64 252.734 11.096C253.694 10.552 254.79 10.28 256.022 10.28C257.27 10.28 258.374 10.552 259.334 11.096C260.31 11.64 261.07 12.392 261.614 13.352C262.174 14.312 262.454 15.424 262.454 16.688C262.454 17.936 262.174 19.048 261.614 20.024C261.07 20.984 260.31 21.744 259.334 22.304C258.358 22.848 257.254 23.12 256.022 23.12ZM256.022 21.608C256.934 21.608 257.742 21.408 258.446 21.008C259.15 20.592 259.702 20.016 260.102 19.28C260.518 18.528 260.726 17.664 260.726 16.688C260.726 15.696 260.518 14.832 260.102 14.096C259.702 13.36 259.15 12.792 258.446 12.392C257.742 11.976 256.942 11.768 256.046 11.768C255.15 11.768 254.35 11.976 253.646 12.392C252.942 12.792 252.382 13.36 251.966 14.096C251.55 14.832 251.342 15.696 251.342 16.688C251.342 17.664 251.55 18.528 251.966 19.28C252.382 20.016 252.942 20.592 253.646 21.008C254.35 21.408 255.142 21.608 256.022 21.608ZM271.76 23.144C270.736 23.144 269.824 22.976 269.024 22.64C268.24 22.304 267.568 21.792 267.008 21.104C266.448 20.416 266.024 19.568 265.736 18.56C265.448 17.536 265.304 16.352 265.304 15.008C265.304 13.808 265.416 12.76 265.64 11.864C265.864 10.952 266.176 10.168 266.576 9.512C266.976 8.856 267.44 8.304 267.968 7.856C268.512 7.392 269.096 7.024 269.72 6.752C270.36 6.464 271.016 6.248 271.688 6.104L277.352 4.784L277.64 6.368L272.312 7.568C271.976 7.648 271.568 7.76 271.088 7.904C270.624 8.048 270.144 8.264 269.648 8.552C269.168 8.84 268.72 9.24 268.304 9.752C267.888 10.264 267.552 10.928 267.296 11.744C267.056 12.544 266.936 13.544 266.936 14.744C266.936 15 266.944 15.208 266.96 15.368C266.976 15.512 266.992 15.672 267.008 15.848C267.04 16.008 267.064 16.248 267.08 16.568L266.336 15.944C266.512 14.968 266.872 14.12 267.416 13.4C267.96 12.664 268.64 12.096 269.456 11.696C270.288 11.28 271.208 11.072 272.216 11.072C273.384 11.072 274.424 11.328 275.336 11.84C276.248 12.336 276.96 13.032 277.472 13.928C278 14.824 278.264 15.864 278.264 17.048C278.264 18.216 277.992 19.264 277.448 20.192C276.92 21.12 276.168 21.848 275.192 22.376C274.216 22.888 273.072 23.144 271.76 23.144ZM271.952 21.728C272.848 21.728 273.64 21.528 274.328 21.128C275.016 20.712 275.552 20.152 275.936 19.448C276.336 18.744 276.536 17.952 276.536 17.072C276.536 16.208 276.336 15.44 275.936 14.768C275.552 14.096 275.016 13.568 274.328 13.184C273.64 12.784 272.84 12.584 271.928 12.584C271.032 12.584 270.24 12.776 269.552 13.16C268.864 13.528 268.32 14.048 267.92 14.72C267.536 15.392 267.344 16.168 267.344 17.048C267.344 17.928 267.536 18.72 267.92 19.424C268.32 20.128 268.864 20.688 269.552 21.104C270.256 21.52 271.056 21.728 271.952 21.728ZM281.916 23V10.4H283.62V15.968H291.564V10.4H293.268V23H291.564V17.432H283.62V23H281.916ZM303.296 23.12C302.08 23.12 300.984 22.848 300.008 22.304C299.048 21.744 298.288 20.984 297.728 20.024C297.168 19.048 296.888 17.936 296.888 16.688C296.888 15.424 297.168 14.312 297.728 13.352C298.288 12.392 299.048 11.64 300.008 11.096C300.968 10.552 302.064 10.28 303.296 10.28C304.544 10.28 305.648 10.552 306.608 11.096C307.584 11.64 308.344 12.392 308.888 13.352C309.448 14.312 309.728 15.424 309.728 16.688C309.728 17.936 309.448 19.048 308.888 20.024C308.344 20.984 307.584 21.744 306.608 22.304C305.632 22.848 304.528 23.12 303.296 23.12ZM303.296 21.608C304.208 21.608 305.016 21.408 305.72 21.008C306.424 20.592 306.976 20.016 307.376 19.28C307.792 18.528 308 17.664 308 16.688C308 15.696 307.792 14.832 307.376 14.096C306.976 13.36 306.424 12.792 305.72 12.392C305.016 11.976 304.216 11.768 303.32 11.768C302.424 11.768 301.624 11.976 300.92 12.392C300.216 12.792 299.656 13.36 299.24 14.096C298.824 14.832 298.616 15.696 298.616 16.688C298.616 17.664 298.824 18.528 299.24 19.28C299.656 20.016 300.216 20.592 300.92 21.008C301.624 21.408 302.416 21.608 303.296 21.608ZM318.649 23.12C317.401 23.12 316.281 22.848 315.289 22.304C314.313 21.744 313.545 20.984 312.985 20.024C312.425 19.048 312.145 17.936 312.145 16.688C312.145 15.424 312.425 14.312 312.985 13.352C313.545 12.392 314.313 11.64 315.289 11.096C316.281 10.552 317.401 10.28 318.649 10.28C319.721 10.28 320.689 10.488 321.553 10.904C322.417 11.32 323.097 11.944 323.593 12.776L322.321 13.64C321.889 13 321.353 12.528 320.713 12.224C320.073 11.92 319.377 11.768 318.625 11.768C317.729 11.768 316.921 11.976 316.201 12.392C315.481 12.792 314.913 13.36 314.497 14.096C314.081 14.832 313.873 15.696 313.873 16.688C313.873 17.68 314.081 18.544 314.497 19.28C314.913 20.016 315.481 20.592 316.201 21.008C316.921 21.408 317.729 21.608 318.625 21.608C319.377 21.608 320.073 21.456 320.713 21.152C321.353 20.848 321.889 20.384 322.321 19.76L323.593 20.624C323.097 21.44 322.417 22.064 321.553 22.496C320.689 22.912 319.721 23.12 318.649 23.12ZM329.058 23V11.432L329.49 11.888H324.282V10.4H335.538V11.888H330.33L330.762 11.432V23H329.058ZM343.426 14.84C345.01 14.856 346.21 15.208 347.026 15.896C347.858 16.584 348.274 17.576 348.274 18.872C348.274 20.216 347.826 21.248 346.93 21.968C346.05 22.688 344.77 23.04 343.09 23.024L338.002 23V10.4H339.706V14.792L343.426 14.84ZM342.994 21.728C344.162 21.744 345.042 21.512 345.634 21.032C346.242 20.536 346.546 19.816 346.546 18.872C346.546 17.928 346.25 17.24 345.658 16.808C345.066 16.36 344.178 16.128 342.994 16.112L339.706 16.064V21.68L342.994 21.728ZM8.928 52.12C7.84 52.12 6.856 51.872 5.976 51.376C5.096 50.864 4.392 50.136 3.864 49.192C3.352 48.232 3.096 47.064 3.096 45.688C3.096 44.312 3.352 43.152 3.864 42.208C4.376 41.248 5.072 40.52 5.952 40.024C6.832 39.528 7.824 39.28 8.928 39.28C10.128 39.28 11.2 39.552 12.144 40.096C13.104 40.624 13.856 41.376 14.4 42.352C14.944 43.312 15.216 44.424 15.216 45.688C15.216 46.968 14.944 48.088 14.4 49.048C13.856 50.008 13.104 50.76 12.144 51.304C11.2 51.848 10.128 52.12 8.928 52.12ZM2.424 56.656V39.4H4.056V43.192L3.888 45.712L4.128 48.256V56.656H2.424ZM8.808 50.608C9.704 50.608 10.504 50.408 11.208 50.008C11.912 49.592 12.472 49.016 12.888 48.28C13.304 47.528 13.512 46.664 13.512 45.688C13.512 44.712 13.304 43.856 12.888 43.12C12.472 42.384 11.912 41.808 11.208 41.392C10.504 40.976 9.704 40.768 8.808 40.768C7.912 40.768 7.104 40.976 6.384 41.392C5.68 41.808 5.12 42.384 4.704 43.12C4.304 43.856 4.104 44.712 4.104 45.688C4.104 46.664 4.304 47.528 4.704 48.28C5.12 49.016 5.68 49.592 6.384 50.008C7.104 50.408 7.912 50.608 8.808 50.608ZM26.6308 52V49.216L26.5588 48.76V44.104C26.5588 43.032 26.2548 42.208 25.6468 41.632C25.0548 41.056 24.1668 40.768 22.9828 40.768C22.1668 40.768 21.3908 40.904 20.6548 41.176C19.9188 41.448 19.2948 41.808 18.7828 42.256L18.0148 40.984C18.6548 40.44 19.4228 40.024 20.3188 39.736C21.2148 39.432 22.1588 39.28 23.1508 39.28C24.7828 39.28 26.0388 39.688 26.9188 40.504C27.8148 41.304 28.2628 42.528 28.2628 44.176V52H26.6308ZM22.2868 52.12C21.3428 52.12 20.5188 51.968 19.8148 51.664C19.1268 51.344 18.5988 50.912 18.2308 50.368C17.8628 49.808 17.6788 49.168 17.6788 48.448C17.6788 47.792 17.8308 47.2 18.1348 46.672C18.4548 46.128 18.9668 45.696 19.6708 45.376C20.3908 45.04 21.3508 44.872 22.5508 44.872H26.8948V46.144H22.5988C21.3828 46.144 20.5348 46.36 20.0548 46.792C19.5908 47.224 19.3588 47.76 19.3588 48.4C19.3588 49.12 19.6388 49.696 20.1988 50.128C20.7588 50.56 21.5428 50.776 22.5508 50.776C23.5108 50.776 24.3348 50.56 25.0228 50.128C25.7268 49.68 26.2388 49.04 26.5588 48.208L26.9428 49.384C26.6228 50.216 26.0628 50.88 25.2628 51.376C24.4788 51.872 23.4868 52.12 22.2868 52.12ZM38.079 52.12C36.831 52.12 35.711 51.848 34.719 51.304C33.743 50.744 32.975 49.984 32.415 49.024C31.855 48.048 31.575 46.936 31.575 45.688C31.575 44.424 31.855 43.312 32.415 42.352C32.975 41.392 33.743 40.64 34.719 40.096C35.711 39.552 36.831 39.28 38.079 39.28C39.151 39.28 40.119 39.488 40.983 39.904C41.847 40.32 42.527 40.944 43.023 41.776L41.751 42.64C41.319 42 40.783 41.528 40.143 41.224C39.503 40.92 38.807 40.768 38.055 40.768C37.159 40.768 36.351 40.976 35.631 41.392C34.911 41.792 34.343 42.36 33.927 43.096C33.511 43.832 33.303 44.696 33.303 45.688C33.303 46.68 33.511 47.544 33.927 48.28C34.343 49.016 34.911 49.592 35.631 50.008C36.351 50.408 37.159 50.608 38.055 50.608C38.807 50.608 39.503 50.456 40.143 50.152C40.783 49.848 41.319 49.384 41.751 48.76L43.023 49.624C42.527 50.44 41.847 51.064 40.983 51.496C40.119 51.912 39.151 52.12 38.079 52.12ZM46.3224 52V39.4H57.6504V52H55.9464V40.432L56.3784 40.888H47.5944L48.0264 40.432V52H46.3224ZM68.9983 52.12C67.9103 52.12 66.9263 51.872 66.0463 51.376C65.1663 50.864 64.4623 50.136 63.9343 49.192C63.4223 48.232 63.1663 47.064 63.1663 45.688C63.1663 44.312 63.4223 43.152 63.9343 42.208C64.4463 41.248 65.1423 40.52 66.0223 40.024C66.9023 39.528 67.8943 39.28 68.9983 39.28C70.1983 39.28 71.2703 39.552 72.2143 40.096C73.1743 40.624 73.9263 41.376 74.4703 42.352C75.0143 43.312 75.2863 44.424 75.2863 45.688C75.2863 46.968 75.0143 48.088 74.4703 49.048C73.9263 50.008 73.1743 50.76 72.2143 51.304C71.2703 51.848 70.1983 52.12 68.9983 52.12ZM62.4943 56.656V39.4H64.1263V43.192L63.9583 45.712L64.1983 48.256V56.656H62.4943ZM68.8783 50.608C69.7743 50.608 70.5743 50.408 71.2783 50.008C71.9823 49.592 72.5423 49.016 72.9583 48.28C73.3743 47.528 73.5823 46.664 73.5823 45.688C73.5823 44.712 73.3743 43.856 72.9583 43.12C72.5423 42.384 71.9823 41.808 71.2783 41.392C70.5743 40.976 69.7743 40.768 68.8783 40.768C67.9823 40.768 67.1743 40.976 66.4543 41.392C65.7503 41.808 65.1903 42.384 64.7743 43.12C64.3743 43.856 64.1743 44.712 64.1743 45.688C64.1743 46.664 64.3743 47.528 64.7743 48.28C65.1903 49.016 65.7503 49.592 66.4543 50.008C67.1743 50.408 67.9823 50.608 68.8783 50.608ZM84.3474 52.12C83.0354 52.12 81.8834 51.848 80.8914 51.304C79.8994 50.744 79.1234 49.984 78.5634 49.024C78.0034 48.048 77.7234 46.936 77.7234 45.688C77.7234 44.44 77.9874 43.336 78.5154 42.376C79.0594 41.416 79.7954 40.664 80.7234 40.12C81.6674 39.56 82.7234 39.28 83.8914 39.28C85.0754 39.28 86.1234 39.552 87.0354 40.096C87.9634 40.624 88.6914 41.376 89.2194 42.352C89.7474 43.312 90.0114 44.424 90.0114 45.688C90.0114 45.768 90.0034 45.856 89.9874 45.952C89.9874 46.032 89.9874 46.12 89.9874 46.216H79.0194V44.944H89.0754L88.4034 45.448C88.4034 44.536 88.2034 43.728 87.8034 43.024C87.4194 42.304 86.8914 41.744 86.2194 41.344C85.5474 40.944 84.7714 40.744 83.8914 40.744C83.0274 40.744 82.2514 40.944 81.5634 41.344C80.8754 41.744 80.3394 42.304 79.9554 43.024C79.5714 43.744 79.3794 44.568 79.3794 45.496V45.76C79.3794 46.72 79.5874 47.568 80.0034 48.304C80.4354 49.024 81.0274 49.592 81.7794 50.008C82.5474 50.408 83.4194 50.608 84.3954 50.608C85.1634 50.608 85.8754 50.472 86.5314 50.2C87.2034 49.928 87.7794 49.512 88.2594 48.952L89.2194 50.056C88.6594 50.728 87.9554 51.24 87.1074 51.592C86.2754 51.944 85.3554 52.12 84.3474 52.12ZM102.166 51.184V40.888H96.0936L95.9496 43.696C95.9176 44.544 95.8616 45.376 95.7816 46.192C95.7176 47.008 95.5976 47.76 95.4216 48.448C95.2616 49.12 95.0296 49.672 94.7256 50.104C94.4216 50.52 94.0296 50.76 93.5496 50.824L91.8456 50.512C92.3416 50.528 92.7496 50.352 93.0696 49.984C93.3896 49.6 93.6376 49.08 93.8136 48.424C93.9896 47.768 94.1176 47.024 94.1976 46.192C94.2776 45.344 94.3416 44.48 94.3896 43.6L94.5576 39.4H103.87V51.184H102.166ZM91.3176 55.048V50.512H105.838V55.048H104.23V52H92.9256V55.048H91.3176ZM114.558 52.12C113.246 52.12 112.094 51.848 111.102 51.304C110.11 50.744 109.334 49.984 108.774 49.024C108.214 48.048 107.934 46.936 107.934 45.688C107.934 44.44 108.198 43.336 108.726 42.376C109.27 41.416 110.006 40.664 110.934 40.12C111.878 39.56 112.934 39.28 114.102 39.28C115.286 39.28 116.334 39.552 117.246 40.096C118.174 40.624 118.902 41.376 119.43 42.352C119.958 43.312 120.222 44.424 120.222 45.688C120.222 45.768 120.214 45.856 120.198 45.952C120.198 46.032 120.198 46.12 120.198 46.216H109.23V44.944H119.286L118.614 45.448C118.614 44.536 118.414 43.728 118.014 43.024C117.63 42.304 117.102 41.744 116.43 41.344C115.758 40.944 114.982 40.744 114.102 40.744C113.238 40.744 112.462 40.944 111.774 41.344C111.086 41.744 110.55 42.304 110.166 43.024C109.782 43.744 109.59 44.568 109.59 45.496V45.76C109.59 46.72 109.798 47.568 110.214 48.304C110.646 49.024 111.238 49.592 111.99 50.008C112.758 50.408 113.63 50.608 114.606 50.608C115.374 50.608 116.086 50.472 116.742 50.2C117.414 49.928 117.99 49.512 118.47 48.952L119.43 50.056C118.87 50.728 118.166 51.24 117.318 51.592C116.486 51.944 115.566 52.12 114.558 52.12ZM121.433 51.976L121.553 50.512C121.665 50.528 121.769 50.552 121.865 50.584C121.977 50.6 122.073 50.608 122.153 50.608C122.665 50.608 123.073 50.416 123.377 50.032C123.697 49.648 123.937 49.136 124.097 48.496C124.257 47.856 124.369 47.136 124.433 46.336C124.497 45.52 124.553 44.704 124.601 43.888L124.817 39.4H134.057V52H132.353V40.384L132.785 40.888H125.921L126.329 40.36L126.137 44.008C126.089 45.096 126.001 46.136 125.873 47.128C125.761 48.12 125.577 48.992 125.321 49.744C125.081 50.496 124.745 51.088 124.312 51.52C123.881 51.936 123.329 52.144 122.657 52.144C122.465 52.144 122.265 52.128 122.057 52.096C121.865 52.064 121.657 52.024 121.433 51.976ZM147.037 52V47.464L147.349 47.824H143.077C141.461 47.824 140.197 47.472 139.285 46.768C138.373 46.064 137.917 45.04 137.917 43.696C137.917 42.256 138.405 41.184 139.381 40.48C140.357 39.76 141.661 39.4 143.293 39.4H148.597V52H147.037ZM137.821 52L141.277 47.152H143.053L139.669 52H137.821ZM147.037 46.96V40.384L147.349 40.888H143.341C142.173 40.888 141.261 41.112 140.605 41.56C139.965 42.008 139.645 42.736 139.645 43.744C139.645 45.616 140.837 46.552 143.221 46.552H147.349L147.037 46.96ZM155.855 52V40.432L156.287 40.888H151.079V39.4H162.335V40.888H157.127L157.559 40.432V52H155.855ZM170.223 43.84C171.807 43.856 173.007 44.208 173.823 44.896C174.655 45.584 175.071 46.576 175.071 47.872C175.071 49.216 174.623 50.248 173.727 50.968C172.847 51.688 171.567 52.04 169.887 52.024L164.799 52V39.4H166.503V43.792L170.223 43.84ZM169.791 50.728C170.959 50.744 171.839 50.512 172.431 50.032C173.039 49.536 173.343 48.816 173.343 47.872C173.343 46.928 173.047 46.24 172.455 45.808C171.863 45.36 170.975 45.128 169.791 45.112L166.503 45.064V50.68L169.791 50.728ZM184.604 52V39.4H190.172C191.596 39.4 192.716 39.672 193.532 40.216C194.364 40.76 194.78 41.56 194.78 42.616C194.78 43.64 194.388 44.432 193.604 44.992C192.82 45.536 191.788 45.808 190.508 45.808L190.844 45.304C192.348 45.304 193.452 45.584 194.156 46.144C194.86 46.704 195.212 47.512 195.212 48.568C195.212 49.656 194.812 50.504 194.012 51.112C193.228 51.704 192.004 52 190.34 52H184.604ZM186.26 50.656H190.268C191.34 50.656 192.148 50.488 192.692 50.152C193.252 49.8 193.532 49.24 193.532 48.472C193.532 47.704 193.284 47.144 192.788 46.792C192.292 46.44 191.508 46.264 190.436 46.264H186.26V50.656ZM186.26 44.992H190.052C191.028 44.992 191.772 44.808 192.284 44.44C192.812 44.072 193.076 43.536 193.076 42.832C193.076 42.128 192.812 41.6 192.284 41.248C191.772 40.896 191.028 40.72 190.052 40.72H186.26V44.992ZM205.709 52.12C204.621 52.12 203.637 51.872 202.757 51.376C201.877 50.864 201.173 50.136 200.645 49.192C200.133 48.232 199.877 47.064 199.877 45.688C199.877 44.312 200.133 43.152 200.645 42.208C201.157 41.248 201.853 40.52 202.733 40.024C203.613 39.528 204.605 39.28 205.709 39.28C206.909 39.28 207.981 39.552 208.925 40.096C209.885 40.624 210.637 41.376 211.181 42.352C211.725 43.312 211.997 44.424 211.997 45.688C211.997 46.968 211.725 48.088 211.181 49.048C210.637 50.008 209.885 50.76 208.925 51.304C207.981 51.848 206.909 52.12 205.709 52.12ZM199.205 56.656V39.4H200.837V43.192L200.669 45.712L200.909 48.256V56.656H199.205ZM205.589 50.608C206.485 50.608 207.285 50.408 207.989 50.008C208.693 49.592 209.253 49.016 209.669 48.28C210.085 47.528 210.293 46.664 210.293 45.688C210.293 44.712 210.085 43.856 209.669 43.12C209.253 42.384 208.693 41.808 207.989 41.392C207.285 40.976 206.485 40.768 205.589 40.768C204.693 40.768 203.885 40.976 203.165 41.392C202.461 41.808 201.901 42.384 201.485 43.12C201.085 43.856 200.885 44.712 200.885 45.688C200.885 46.664 201.085 47.528 201.485 48.28C201.901 49.016 202.461 49.592 203.165 50.008C203.885 50.408 204.693 50.608 205.589 50.608ZM221.058 52.12C219.746 52.12 218.594 51.848 217.602 51.304C216.61 50.744 215.834 49.984 215.274 49.024C214.714 48.048 214.434 46.936 214.434 45.688C214.434 44.44 214.698 43.336 215.226 42.376C215.77 41.416 216.506 40.664 217.434 40.12C218.378 39.56 219.434 39.28 220.602 39.28C221.786 39.28 222.834 39.552 223.746 40.096C224.674 40.624 225.402 41.376 225.93 42.352C226.458 43.312 226.722 44.424 226.722 45.688C226.722 45.768 226.714 45.856 226.698 45.952C226.698 46.032 226.698 46.12 226.698 46.216H215.73V44.944H225.786L225.114 45.448C225.114 44.536 224.914 43.728 224.514 43.024C224.13 42.304 223.602 41.744 222.93 41.344C222.258 40.944 221.482 40.744 220.602 40.744C219.738 40.744 218.962 40.944 218.274 41.344C217.586 41.744 217.05 42.304 216.666 43.024C216.282 43.744 216.09 44.568 216.09 45.496V45.76C216.09 46.72 216.298 47.568 216.714 48.304C217.146 49.024 217.738 49.592 218.49 50.008C219.258 50.408 220.13 50.608 221.106 50.608C221.874 50.608 222.586 50.472 223.242 50.2C223.914 49.928 224.49 49.512 224.97 48.952L225.93 50.056C225.37 50.728 224.666 51.24 223.818 51.592C222.986 51.944 222.066 52.12 221.058 52.12ZM230.494 52V39.4H232.222L237.934 49.072H237.214L243.022 39.4H244.606V52H243.046V41.344L243.358 41.488L237.934 50.464H237.166L231.694 41.392L232.054 41.32V52H230.494ZM257.591 52V47.464L257.903 47.824H253.631C252.015 47.824 250.751 47.472 249.839 46.768C248.927 46.064 248.471 45.04 248.471 43.696C248.471 42.256 248.959 41.184 249.935 40.48C250.911 39.76 252.215 39.4 253.847 39.4H259.151V52H257.591ZM248.375 52L251.831 47.152H253.607L250.223 52H248.375ZM257.591 46.96V40.384L257.903 40.888H253.895C252.727 40.888 251.815 41.112 251.159 41.56C250.519 42.008 250.199 42.736 250.199 43.744C250.199 45.616 251.391 46.552 253.775 46.552H257.903L257.591 46.96ZM267.46 46.96C267.46 46.288 267.564 45.712 267.772 45.232C267.996 44.752 268.268 44.328 268.588 43.96C268.924 43.592 269.276 43.248 269.644 42.928C270.028 42.608 270.388 42.288 270.724 41.968C271.06 41.632 271.332 41.272 271.54 40.888C271.748 40.488 271.852 40.024 271.852 39.496C271.852 38.632 271.516 37.928 270.844 37.384C270.172 36.84 269.22 36.568 267.988 36.568C266.964 36.568 266.076 36.736 265.324 37.072C264.572 37.392 263.932 37.872 263.404 38.512L262.132 37.552C262.772 36.752 263.596 36.136 264.604 35.704C265.612 35.272 266.78 35.056 268.108 35.056C269.228 35.056 270.196 35.224 271.012 35.56C271.844 35.896 272.484 36.376 272.932 37C273.396 37.624 273.628 38.368 273.628 39.232C273.628 39.92 273.516 40.512 273.292 41.008C273.084 41.488 272.812 41.92 272.476 42.304C272.156 42.672 271.804 43.024 271.42 43.36C271.052 43.68 270.7 44.008 270.364 44.344C270.028 44.68 269.756 45.056 269.548 45.472C269.34 45.888 269.236 46.384 269.236 46.96H267.46ZM268.348 52.12C268.012 52.12 267.716 52 267.46 51.76C267.22 51.504 267.1 51.208 267.1 50.872C267.1 50.52 267.22 50.232 267.46 50.008C267.716 49.768 268.012 49.648 268.348 49.648C268.716 49.648 269.02 49.768 269.26 50.008C269.5 50.232 269.62 50.52 269.62 50.872C269.62 51.208 269.5 51.504 269.26 51.76C269.02 52 268.716 52.12 268.348 52.12Z" fill="black"/>
<rect x="395" y="415" width="78" height="26.5" fill="#B5FF6B"/>
<path d="M39.38 479V466.94L39.956 467.552H36.41V466.4H40.676V479H39.38Z" fill="black"/>
<path d="M133.087 479V478.082L138.325 472.952C138.805 472.484 139.165 472.076 139.405 471.728C139.645 471.368 139.807 471.032 139.891 470.72C139.975 470.408 140.017 470.114 140.017 469.838C140.017 469.106 139.765 468.53 139.261 468.11C138.769 467.69 138.037 467.48 137.065 467.48C136.321 467.48 135.661 467.594 135.085 467.822C134.521 468.05 134.035 468.404 133.627 468.884L132.709 468.092C133.201 467.516 133.831 467.072 134.599 466.76C135.367 466.448 136.225 466.292 137.173 466.292C138.025 466.292 138.763 466.43 139.387 466.706C140.011 466.97 140.491 467.36 140.827 467.876C141.175 468.392 141.349 468.998 141.349 469.694C141.349 470.102 141.289 470.504 141.169 470.9C141.061 471.296 140.857 471.716 140.557 472.16C140.269 472.592 139.843 473.084 139.279 473.636L134.473 478.352L134.113 477.848H141.925V479H133.087Z" fill="black"/>
<path d="M235.118 479.108C234.206 479.108 233.342 478.964 232.526 478.676C231.722 478.376 231.074 477.98 230.582 477.488L231.212 476.462C231.62 476.882 232.166 477.23 232.85 477.506C233.546 477.782 234.302 477.92 235.118 477.92C236.162 477.92 236.96 477.692 237.512 477.236C238.076 476.78 238.358 476.168 238.358 475.4C238.358 474.632 238.082 474.02 237.53 473.564C236.99 473.108 236.132 472.88 234.956 472.88H234.056V471.926L237.944 467.048L238.124 467.552H231.104V466.4H239.204V467.318L235.316 472.196L234.686 471.782H235.172C236.684 471.782 237.812 472.118 238.556 472.79C239.312 473.462 239.69 474.326 239.69 475.382C239.69 476.09 239.522 476.726 239.186 477.29C238.85 477.854 238.34 478.298 237.656 478.622C236.984 478.946 236.138 479.108 235.118 479.108Z" fill="black"/>
<path d="M327.77 475.688V474.752L334.448 466.4H335.888L329.264 474.752L328.562 474.536H338.696V475.688H327.77ZM334.88 479V475.688L334.916 474.536V471.62H336.176V479H334.88Z" fill="black"/>
<path d="M431.316 479.108C430.416 479.108 429.558 478.964 428.742 478.676C427.926 478.376 427.278 477.98 426.798 477.488L427.428 476.462C427.824 476.882 428.364 477.23 429.048 477.506C429.744 477.782 430.494 477.92 431.298 477.92C432.366 477.92 433.176 477.686 433.728 477.218C434.292 476.738 434.574 476.114 434.574 475.346C434.574 474.806 434.442 474.344 434.178 473.96C433.926 473.564 433.494 473.258 432.882 473.042C432.27 472.826 431.43 472.718 430.362 472.718H427.68L428.328 466.4H435.222V467.552H428.85L429.516 466.922L428.958 472.214L428.292 471.566H430.65C431.922 471.566 432.942 471.722 433.71 472.034C434.478 472.346 435.03 472.784 435.366 473.348C435.714 473.9 435.888 474.548 435.888 475.292C435.888 476 435.72 476.648 435.384 477.236C435.048 477.812 434.544 478.268 433.872 478.604C433.2 478.94 432.348 479.108 431.316 479.108Z" fill="black"/>
<rect x="2" y="389" width="78" height="52.5" fill="#B5FF6B"/>
<rect x="99" y="350" width="78" height="92" fill="#B5FF6B"/>
<rect x="197" y="271" width="78" height="171" fill="#B5FF6B"/>
<rect x="296" y="284" width="78" height="158" fill="#B5FF6B"/>
<path d="M20.1388 397V384.94L20.7148 385.552H17.1688V384.4H21.4348V397H20.1388ZM29.4687 397.108C28.4967 397.108 27.6327 396.856 26.8767 396.352C26.1207 395.836 25.5267 395.104 25.0947 394.156C24.6627 393.196 24.4467 392.044 24.4467 390.7C24.4467 389.356 24.6627 388.21 25.0947 387.262C25.5267 386.302 26.1207 385.57 26.8767 385.066C27.6327 384.55 28.4967 384.292 29.4687 384.292C30.4407 384.292 31.3047 384.55 32.0607 385.066C32.8167 385.57 33.4107 386.302 33.8427 387.262C34.2867 388.21 34.5087 389.356 34.5087 390.7C34.5087 392.044 34.2867 393.196 33.8427 394.156C33.4107 395.104 32.8167 395.836 32.0607 396.352C31.3047 396.856 30.4407 397.108 29.4687 397.108ZM29.4687 395.92C30.2127 395.92 30.8607 395.722 31.4127 395.326C31.9647 394.918 32.3967 394.33 32.7087 393.562C33.0207 392.782 33.1767 391.828 33.1767 390.7C33.1767 389.572 33.0207 388.624 32.7087 387.856C32.3967 387.076 31.9647 386.488 31.4127 386.092C30.8607 385.684 30.2127 385.48 29.4687 385.48C28.7487 385.48 28.1067 385.684 27.5427 386.092C26.9787 386.488 26.5407 387.076 26.2287 387.856C25.9167 388.624 25.7607 389.572 25.7607 390.7C25.7607 391.828 25.9167 392.782 26.2287 393.562C26.5407 394.33 26.9787 394.918 27.5427 395.326C28.1067 395.722 28.7487 395.92 29.4687 395.92ZM36.2434 399.628L37.0354 396.298L37.1794 397.072C36.9034 397.072 36.6694 396.982 36.4774 396.802C36.2974 396.622 36.2074 396.388 36.2074 396.1C36.2074 395.812 36.2974 395.578 36.4774 395.398C36.6694 395.218 36.8974 395.128 37.1614 395.128C37.4374 395.128 37.6594 395.224 37.8274 395.416C38.0074 395.608 38.0974 395.836 38.0974 396.1C38.0974 396.196 38.0914 396.292 38.0794 396.388C38.0674 396.484 38.0434 396.592 38.0074 396.712C37.9714 396.832 37.9234 396.976 37.8634 397.144L37.1074 399.628H36.2434ZM43.9638 397.108C43.0638 397.108 42.2058 396.964 41.3898 396.676C40.5738 396.376 39.9258 395.98 39.4458 395.488L40.0758 394.462C40.4718 394.882 41.0118 395.23 41.6958 395.506C42.3918 395.782 43.1418 395.92 43.9458 395.92C45.0138 395.92 45.8238 395.686 46.3758 395.218C46.9398 394.738 47.2218 394.114 47.2218 393.346C47.2218 392.806 47.0898 392.344 46.8258 391.96C46.5738 391.564 46.1418 391.258 45.5298 391.042C44.9178 390.826 44.0778 390.718 43.0098 390.718H40.3278L40.9758 384.4H47.8698V385.552H41.4978L42.1638 384.922L41.6058 390.214L40.9398 389.566H43.2978C44.5698 389.566 45.5898 389.722 46.3578 390.034C47.1258 390.346 47.6778 390.784 48.0138 391.348C48.3618 391.9 48.5358 392.548 48.5358 393.292C48.5358 394 48.3678 394.648 48.0318 395.236C47.6958 395.812 47.1918 396.268 46.5198 396.604C45.8478 396.94 44.9958 397.108 43.9638 397.108ZM51.6973 397L60.3013 384.4H61.3633L52.7593 397H51.6973ZM52.6693 391.15C52.1053 391.15 51.6073 391.012 51.1753 390.736C50.7433 390.448 50.4073 390.046 50.1673 389.53C49.9393 389.014 49.8253 388.414 49.8253 387.73C49.8253 387.046 49.9393 386.446 50.1673 385.93C50.4073 385.414 50.7433 385.018 51.1753 384.742C51.6073 384.454 52.1053 384.31 52.6693 384.31C53.2333 384.31 53.7253 384.454 54.1453 384.742C54.5773 385.018 54.9133 385.414 55.1533 385.93C55.3933 386.446 55.5133 387.046 55.5133 387.73C55.5133 388.414 55.3933 389.014 55.1533 389.53C54.9133 390.046 54.5773 390.448 54.1453 390.736C53.7253 391.012 53.2333 391.15 52.6693 391.15ZM52.6693 390.34C53.2573 390.34 53.7253 390.112 54.0733 389.656C54.4333 389.188 54.6133 388.546 54.6133 387.73C54.6133 386.914 54.4333 386.278 54.0733 385.822C53.7253 385.354 53.2573 385.12 52.6693 385.12C52.0693 385.12 51.5953 385.354 51.2473 385.822C50.8993 386.278 50.7253 386.914 50.7253 387.73C50.7253 388.546 50.8993 389.188 51.2473 389.656C51.5953 390.112 52.0693 390.34 52.6693 390.34ZM60.3913 397.09C59.8393 397.09 59.3473 396.952 58.9153 396.676C58.4833 396.388 58.1473 395.986 57.9073 395.47C57.6673 394.954 57.5473 394.354 57.5473 393.67C57.5473 392.986 57.6673 392.386 57.9073 391.87C58.1473 391.354 58.4833 390.958 58.9153 390.682C59.3473 390.394 59.8393 390.25 60.3913 390.25C60.9673 390.25 61.4653 390.394 61.8853 390.682C62.3173 390.958 62.6473 391.354 62.8753 391.87C63.1153 392.386 63.2353 392.986 63.2353 393.67C63.2353 394.354 63.1153 394.954 62.8753 395.47C62.6473 395.986 62.3173 396.388 61.8853 396.676C61.4653 396.952 60.9673 397.09 60.3913 397.09ZM60.3913 396.28C60.9793 396.28 61.4473 396.052 61.7953 395.596C62.1553 395.128 62.3353 394.486 62.3353 393.67C62.3353 392.854 62.1553 392.218 61.7953 391.762C61.4473 391.294 60.9793 391.06 60.3913 391.06C59.8033 391.06 59.3293 391.294 58.9693 391.762C58.6213 392.218 58.4473 392.854 58.4473 393.67C58.4473 394.486 58.6213 395.128 58.9693 395.596C59.3293 396.052 59.8033 396.28 60.3913 396.28Z" fill="black"/>
<path d="M116.611 397V384.94L117.187 385.552H113.641V384.4H117.907V397H116.611ZM125.707 397.108C124.699 397.108 123.829 396.964 123.097 396.676C122.377 396.388 121.819 395.974 121.423 395.434C121.039 394.882 120.847 394.234 120.847 393.49C120.847 392.77 121.033 392.158 121.405 391.654C121.789 391.138 122.341 390.742 123.061 390.466C123.793 390.19 124.675 390.052 125.707 390.052C126.727 390.052 127.603 390.19 128.335 390.466C129.067 390.742 129.625 391.138 130.009 391.654C130.405 392.158 130.603 392.77 130.603 393.49C130.603 394.234 130.405 394.882 130.009 395.434C129.613 395.974 129.049 396.388 128.317 396.676C127.585 396.964 126.715 397.108 125.707 397.108ZM125.707 396.01C126.823 396.01 127.693 395.782 128.317 395.326C128.953 394.87 129.271 394.252 129.271 393.472C129.271 392.692 128.953 392.08 128.317 391.636C127.693 391.18 126.823 390.952 125.707 390.952C124.591 390.952 123.721 391.18 123.097 391.636C122.473 392.08 122.161 392.692 122.161 393.472C122.161 394.252 122.473 394.87 123.097 395.326C123.721 395.782 124.591 396.01 125.707 396.01ZM125.707 390.79C124.771 390.79 123.973 390.664 123.313 390.412C122.665 390.16 122.167 389.8 121.819 389.332C121.471 388.852 121.297 388.282 121.297 387.622C121.297 386.926 121.477 386.332 121.837 385.84C122.209 385.336 122.725 384.952 123.385 384.688C124.045 384.424 124.819 384.292 125.707 384.292C126.595 384.292 127.369 384.424 128.029 384.688C128.701 384.952 129.223 385.336 129.595 385.84C129.967 386.332 130.153 386.926 130.153 387.622C130.153 388.282 129.979 388.852 129.631 389.332C129.283 389.8 128.773 390.16 128.101 390.412C127.441 390.664 126.643 390.79 125.707 390.79ZM125.707 389.926C126.691 389.926 127.459 389.722 128.011 389.314C128.563 388.906 128.839 388.36 128.839 387.676C128.839 386.956 128.551 386.398 127.975 386.002C127.411 385.594 126.655 385.39 125.707 385.39C124.759 385.39 124.003 385.594 123.439 386.002C122.875 386.398 122.593 386.95 122.593 387.658C122.593 388.354 122.863 388.906 123.403 389.314C123.955 389.722 124.723 389.926 125.707 389.926ZM132.646 399.628L133.438 396.298L133.582 397.072C133.306 397.072 133.072 396.982 132.88 396.802C132.7 396.622 132.61 396.388 132.61 396.1C132.61 395.812 132.7 395.578 132.88 395.398C133.072 395.218 133.3 395.128 133.564 395.128C133.84 395.128 134.062 395.224 134.23 395.416C134.41 395.608 134.5 395.836 134.5 396.1C134.5 396.196 134.494 396.292 134.482 396.388C134.47 396.484 134.446 396.592 134.41 396.712C134.374 396.832 134.326 396.976 134.266 397.144L133.51 399.628H132.646ZM135.961 393.688V392.752L142.639 384.4H144.079L137.455 392.752L136.753 392.536H146.887V393.688H135.961ZM143.071 397V393.688L143.107 392.536V389.62H144.367V397H143.071ZM149.225 397L157.829 384.4H158.891L150.287 397H149.225ZM150.197 391.15C149.633 391.15 149.135 391.012 148.703 390.736C148.271 390.448 147.935 390.046 147.695 389.53C147.467 389.014 147.353 388.414 147.353 387.73C147.353 387.046 147.467 386.446 147.695 385.93C147.935 385.414 148.271 385.018 148.703 384.742C149.135 384.454 149.633 384.31 150.197 384.31C150.761 384.31 151.253 384.454 151.673 384.742C152.105 385.018 152.441 385.414 152.681 385.93C152.921 386.446 153.041 387.046 153.041 387.73C153.041 388.414 152.921 389.014 152.681 389.53C152.441 390.046 152.105 390.448 151.673 390.736C151.253 391.012 150.761 391.15 150.197 391.15ZM150.197 390.34C150.785 390.34 151.253 390.112 151.601 389.656C151.961 389.188 152.141 388.546 152.141 387.73C152.141 386.914 151.961 386.278 151.601 385.822C151.253 385.354 150.785 385.12 150.197 385.12C149.597 385.12 149.123 385.354 148.775 385.822C148.427 386.278 148.253 386.914 148.253 387.73C148.253 388.546 148.427 389.188 148.775 389.656C149.123 390.112 149.597 390.34 150.197 390.34ZM157.919 397.09C157.367 397.09 156.875 396.952 156.443 396.676C156.011 396.388 155.675 395.986 155.435 395.47C155.195 394.954 155.075 394.354 155.075 393.67C155.075 392.986 155.195 392.386 155.435 391.87C155.675 391.354 156.011 390.958 156.443 390.682C156.875 390.394 157.367 390.25 157.919 390.25C158.495 390.25 158.993 390.394 159.413 390.682C159.845 390.958 160.175 391.354 160.403 391.87C160.643 392.386 160.763 392.986 160.763 393.67C160.763 394.354 160.643 394.954 160.403 395.47C160.175 395.986 159.845 396.388 159.413 396.676C158.993 396.952 158.495 397.09 157.919 397.09ZM157.919 396.28C158.507 396.28 158.975 396.052 159.323 395.596C159.683 395.128 159.863 394.486 159.863 393.67C159.863 392.854 159.683 392.218 159.323 391.762C158.975 391.294 158.507 391.06 157.919 391.06C157.331 391.06 156.857 391.294 156.497 391.762C156.149 392.218 155.975 392.854 155.975 393.67C155.975 394.486 156.149 395.128 156.497 395.596C156.857 396.052 157.331 396.28 157.919 396.28Z" fill="black"/>
<path d="M214.832 397.108C213.92 397.108 213.056 396.964 212.24 396.676C211.436 396.376 210.788 395.98 210.296 395.488L210.926 394.462C211.334 394.882 211.88 395.23 212.564 395.506C213.26 395.782 214.016 395.92 214.832 395.92C215.876 395.92 216.674 395.692 217.226 395.236C217.79 394.78 218.072 394.168 218.072 393.4C218.072 392.632 217.796 392.02 217.244 391.564C216.704 391.108 215.846 390.88 214.67 390.88H213.77V389.926L217.658 385.048L217.838 385.552H210.818V384.4H218.918V385.318L215.03 390.196L214.4 389.782H214.886C216.398 389.782 217.526 390.118 218.27 390.79C219.026 391.462 219.404 392.326 219.404 393.382C219.404 394.09 219.236 394.726 218.9 395.29C218.564 395.854 218.054 396.298 217.37 396.622C216.698 396.946 215.852 397.108 214.832 397.108ZM221.014 393.688V392.752L227.692 384.4H229.132L222.508 392.752L221.806 392.536H231.94V393.688H221.014ZM228.124 397V393.688L228.16 392.536V389.62H229.42V397H228.124ZM233.554 399.628L234.346 396.298L234.49 397.072C234.214 397.072 233.98 396.982 233.788 396.802C233.608 396.622 233.518 396.388 233.518 396.1C233.518 395.812 233.608 395.578 233.788 395.398C233.98 395.218 234.208 395.128 234.472 395.128C234.748 395.128 234.97 395.224 235.138 395.416C235.318 395.608 235.408 395.836 235.408 396.1C235.408 396.196 235.402 396.292 235.39 396.388C235.378 396.484 235.354 396.592 235.318 396.712C235.282 396.832 235.234 396.976 235.174 397.144L234.418 399.628H233.554ZM237.238 397V396.082L242.476 390.952C242.956 390.484 243.316 390.076 243.556 389.728C243.796 389.368 243.958 389.032 244.042 388.72C244.126 388.408 244.168 388.114 244.168 387.838C244.168 387.106 243.916 386.53 243.412 386.11C242.92 385.69 242.188 385.48 241.216 385.48C240.472 385.48 239.812 385.594 239.236 385.822C238.672 386.05 238.186 386.404 237.778 386.884L236.86 386.092C237.352 385.516 237.982 385.072 238.75 384.76C239.518 384.448 240.376 384.292 241.324 384.292C242.176 384.292 242.914 384.43 243.538 384.706C244.162 384.97 244.642 385.36 244.978 385.876C245.326 386.392 245.5 386.998 245.5 387.694C245.5 388.102 245.44 388.504 245.32 388.9C245.212 389.296 245.008 389.716 244.708 390.16C244.42 390.592 243.994 391.084 243.43 391.636L238.624 396.352L238.264 395.848H246.076V397H237.238ZM249.57 397L258.174 384.4H259.236L250.632 397H249.57ZM250.542 391.15C249.978 391.15 249.48 391.012 249.048 390.736C248.616 390.448 248.28 390.046 248.04 389.53C247.812 389.014 247.698 388.414 247.698 387.73C247.698 387.046 247.812 386.446 248.04 385.93C248.28 385.414 248.616 385.018 249.048 384.742C249.48 384.454 249.978 384.31 250.542 384.31C251.106 384.31 251.598 384.454 252.018 384.742C252.45 385.018 252.786 385.414 253.026 385.93C253.266 386.446 253.386 387.046 253.386 387.73C253.386 388.414 253.266 389.014 253.026 389.53C252.786 390.046 252.45 390.448 252.018 390.736C251.598 391.012 251.106 391.15 250.542 391.15ZM250.542 390.34C251.13 390.34 251.598 390.112 251.946 389.656C252.306 389.188 252.486 388.546 252.486 387.73C252.486 386.914 252.306 386.278 251.946 385.822C251.598 385.354 251.13 385.12 250.542 385.12C249.942 385.12 249.468 385.354 249.12 385.822C248.772 386.278 248.598 386.914 248.598 387.73C248.598 388.546 248.772 389.188 249.12 389.656C249.468 390.112 249.942 390.34 250.542 390.34ZM258.264 397.09C257.712 397.09 257.22 396.952 256.788 396.676C256.356 396.388 256.02 395.986 255.78 395.47C255.54 394.954 255.42 394.354 255.42 393.67C255.42 392.986 255.54 392.386 255.78 391.87C256.02 391.354 256.356 390.958 256.788 390.682C257.22 390.394 257.712 390.25 258.264 390.25C258.84 390.25 259.338 390.394 259.758 390.682C260.19 390.958 260.52 391.354 260.748 391.87C260.988 392.386 261.108 392.986 261.108 393.67C261.108 394.354 260.988 394.954 260.748 395.47C260.52 395.986 260.19 396.388 259.758 396.676C259.338 396.952 258.84 397.09 258.264 397.09ZM258.264 396.28C258.852 396.28 259.32 396.052 259.668 395.596C260.028 395.128 260.208 394.486 260.208 393.67C260.208 392.854 260.028 392.218 259.668 391.762C259.32 391.294 258.852 391.06 258.264 391.06C257.676 391.06 257.202 391.294 256.842 391.762C256.494 392.218 256.32 392.854 256.32 393.67C256.32 394.486 256.494 395.128 256.842 395.596C257.202 396.052 257.676 396.28 258.264 396.28Z" fill="black"/>
<path d="M316.785 397.108C315.873 397.108 315.009 396.964 314.193 396.676C313.389 396.376 312.741 395.98 312.249 395.488L312.879 394.462C313.287 394.882 313.833 395.23 314.517 395.506C315.213 395.782 315.969 395.92 316.785 395.92C317.829 395.92 318.627 395.692 319.179 395.236C319.743 394.78 320.025 394.168 320.025 393.4C320.025 392.632 319.749 392.02 319.197 391.564C318.657 391.108 317.799 390.88 316.623 390.88H315.723V389.926L319.611 385.048L319.791 385.552H312.771V384.4H320.871V385.318L316.983 390.196L316.353 389.782H316.839C318.351 389.782 319.479 390.118 320.223 390.79C320.979 391.462 321.357 392.326 321.357 393.382C321.357 394.09 321.189 394.726 320.853 395.29C320.517 395.854 320.007 396.298 319.323 396.622C318.651 396.946 317.805 397.108 316.785 397.108ZM325.379 397V384.94L325.955 385.552H322.409V384.4H326.675V397H325.379ZM329.759 399.628L330.551 396.298L330.695 397.072C330.419 397.072 330.185 396.982 329.993 396.802C329.813 396.622 329.723 396.388 329.723 396.1C329.723 395.812 329.813 395.578 329.993 395.398C330.185 395.218 330.413 395.128 330.677 395.128C330.953 395.128 331.175 395.224 331.343 395.416C331.523 395.608 331.613 395.836 331.613 396.1C331.613 396.196 331.607 396.292 331.595 396.388C331.583 396.484 331.559 396.592 331.523 396.712C331.487 396.832 331.439 396.976 331.379 397.144L330.623 399.628H329.759ZM338.474 397.108C337.358 397.108 336.416 396.862 335.648 396.37C334.88 395.866 334.298 395.146 333.902 394.21C333.506 393.262 333.308 392.128 333.308 390.808C333.308 389.38 333.548 388.186 334.028 387.226C334.52 386.254 335.198 385.522 336.062 385.03C336.926 384.538 337.928 384.292 339.068 384.292C339.632 384.292 340.172 384.346 340.688 384.454C341.204 384.562 341.66 384.736 342.056 384.976L341.534 386.02C341.21 385.804 340.838 385.654 340.418 385.57C339.998 385.474 339.554 385.426 339.086 385.426C337.73 385.426 336.644 385.858 335.828 386.722C335.024 387.586 334.622 388.876 334.622 390.592C334.622 390.856 334.634 391.186 334.658 391.582C334.694 391.966 334.766 392.35 334.874 392.734L334.424 392.392C334.556 391.768 334.814 391.24 335.198 390.808C335.582 390.364 336.062 390.028 336.638 389.8C337.214 389.572 337.844 389.458 338.528 389.458C339.368 389.458 340.106 389.614 340.742 389.926C341.378 390.238 341.876 390.676 342.236 391.24C342.596 391.804 342.776 392.47 342.776 393.238C342.776 394.018 342.59 394.702 342.218 395.29C341.846 395.866 341.33 396.316 340.67 396.64C340.022 396.952 339.29 397.108 338.474 397.108ZM338.42 396.01C339.02 396.01 339.548 395.902 340.004 395.686C340.472 395.458 340.838 395.14 341.102 394.732C341.366 394.312 341.498 393.826 341.498 393.274C341.498 392.446 341.21 391.786 340.634 391.294C340.07 390.802 339.302 390.556 338.33 390.556C337.682 390.556 337.118 390.676 336.638 390.916C336.158 391.156 335.78 391.486 335.504 391.906C335.228 392.314 335.09 392.782 335.09 393.31C335.09 393.766 335.216 394.204 335.468 394.624C335.72 395.032 336.092 395.368 336.584 395.632C337.088 395.884 337.7 396.01 338.42 396.01ZM345.617 397L354.221 384.4H355.283L346.679 397H345.617ZM346.589 391.15C346.025 391.15 345.527 391.012 345.095 390.736C344.663 390.448 344.327 390.046 344.087 389.53C343.859 389.014 343.745 388.414 343.745 387.73C343.745 387.046 343.859 386.446 344.087 385.93C344.327 385.414 344.663 385.018 345.095 384.742C345.527 384.454 346.025 384.31 346.589 384.31C347.153 384.31 347.645 384.454 348.065 384.742C348.497 385.018 348.833 385.414 349.073 385.93C349.313 386.446 349.433 387.046 349.433 387.73C349.433 388.414 349.313 389.014 349.073 389.53C348.833 390.046 348.497 390.448 348.065 390.736C347.645 391.012 347.153 391.15 346.589 391.15ZM346.589 390.34C347.177 390.34 347.645 390.112 347.993 389.656C348.353 389.188 348.533 388.546 348.533 387.73C348.533 386.914 348.353 386.278 347.993 385.822C347.645 385.354 347.177 385.12 346.589 385.12C345.989 385.12 345.515 385.354 345.167 385.822C344.819 386.278 344.645 386.914 344.645 387.73C344.645 388.546 344.819 389.188 345.167 389.656C345.515 390.112 345.989 390.34 346.589 390.34ZM354.311 397.09C353.759 397.09 353.267 396.952 352.835 396.676C352.403 396.388 352.067 395.986 351.827 395.47C351.587 394.954 351.467 394.354 351.467 393.67C351.467 392.986 351.587 392.386 351.827 391.87C352.067 391.354 352.403 390.958 352.835 390.682C353.267 390.394 353.759 390.25 354.311 390.25C354.887 390.25 355.385 390.394 355.805 390.682C356.237 390.958 356.567 391.354 356.795 391.87C357.035 392.386 357.155 392.986 357.155 393.67C357.155 394.354 357.035 394.954 356.795 395.47C356.567 395.986 356.237 396.388 355.805 396.676C355.385 396.952 354.887 397.09 354.311 397.09ZM354.311 396.28C354.899 396.28 355.367 396.052 355.715 395.596C356.075 395.128 356.255 394.486 356.255 393.67C356.255 392.854 356.075 392.218 355.715 391.762C355.367 391.294 354.899 391.06 354.311 391.06C353.723 391.06 353.249 391.294 352.889 391.762C352.541 392.218 352.367 392.854 352.367 393.67C352.367 394.486 352.541 395.128 352.889 395.596C353.249 396.052 353.723 396.28 354.311 396.28Z" fill="black"/>
</svg>
