<svg width="85" height="82" viewBox="0 0 85 82" fill="none" xmlns="http://www.w3.org/2000/svg">
<path d="M64.8333 38.0984C66.6779 39.5328 68.5696 40.9044 70.5084 42.2079L71.7146 43.0193C73.0857 44.1763 73.2531 46.2284 72.0914 47.5921L65.1315 55.8033L69.6057 59.1747C71.6126 61.0253 71.2934 64.2841 68.9647 65.7107L67.2587 66.4096C59.3125 69.6684 51.9837 74.2674 45.5916 80.0076C43.9851 80.9892 41.9338 80.8505 40.4738 79.6569L31.1225 73.6078C22.857 68.2628 15.2038 62.0226 8.30411 55.0024L1.99053 48.579C0.679671 47.5189 0.478206 45.6107 1.50387 44.3019L6.37052 37.1953C12.7731 27.6282 20.3111 18.8726 28.8226 11.1221C29.966 9.72696 32.0304 9.5385 33.4067 10.7007L41.1358 18.5428C44.2572 21.71 47.5828 24.6678 51.0915 27.3979L64.8333 38.0984Z" fill="white"/>
<path d="M43.2812 81.2379C42.1614 81.2379 41.0467 80.8636 40.1336 80.128L30.8058 74.0973C22.5194 68.7392 14.8086 62.4519 7.89063 55.4107L1.60062 49.0109C0.0804407 47.7597 -0.168151 45.4955 1.05113 43.9486L5.89425 36.8708C12.3046 27.2906 19.8794 18.4905 28.4039 10.7242C29.0554 9.94946 29.9659 9.47307 30.9759 9.37884C31.9989 9.28461 32.9958 9.59871 33.7834 10.2609L41.5517 18.1397C44.6418 21.2755 47.9726 24.2386 51.4499 26.9425L65.1917 37.6377C67.018 39.059 68.9149 40.4332 70.8328 41.7237L72.039 42.5351C72.0547 42.5456 72.073 42.5586 72.0887 42.5717C72.871 43.2313 73.3472 44.1553 73.431 45.1762C73.5147 46.197 73.1955 47.1864 72.5309 47.9638L65.9687 55.7065L69.9537 58.7088C71.0892 59.7532 71.6335 61.1771 71.4869 62.656C71.3404 64.1349 70.5319 65.4254 69.2655 66.2002C69.2394 66.2159 69.2106 66.229 69.1818 66.2421L67.4758 66.9409C59.5688 70.1841 52.3369 74.7228 45.9762 80.4343C45.95 80.4578 45.9212 80.4788 45.8925 80.4971C45.0892 80.9971 44.1813 81.2379 43.2812 81.2379ZM31.3317 10.5227C31.248 10.5227 31.1643 10.5253 31.0805 10.5332C30.3689 10.5986 29.7252 10.9389 29.2725 11.4938C29.2542 11.5147 29.2359 11.5357 29.215 11.554C20.748 19.2652 13.223 27.9999 6.85451 37.5199L1.98523 44.6317C1.12703 45.7232 1.30493 47.2807 2.35675 48.1287C2.37507 48.1418 2.39079 48.1575 2.40648 48.1732L8.71745 54.5967C15.5753 61.575 23.2206 67.8073 31.4364 73.1209L40.7903 79.17C40.8086 79.1805 40.827 79.1936 40.8427 79.2093C42.096 80.2327 43.8595 80.3636 45.2462 79.5391C51.6958 73.757 59.0272 69.158 67.0389 65.873L68.7004 65.1924C69.6318 64.6061 70.2284 63.6455 70.3357 62.5461C70.4456 61.4336 70.0348 60.3605 69.2132 59.6014L64.7809 56.2666C64.6527 56.1698 64.5716 56.0258 64.5532 55.8688C64.5349 55.7091 64.5846 55.5521 64.6867 55.429L71.6465 47.2178C72.1097 46.6734 72.3321 45.985 72.2745 45.2756C72.2169 44.5768 71.8925 43.9407 71.3614 43.4826L70.1839 42.6895C68.2451 41.3834 66.3246 39.9935 64.4774 38.5564L50.7356 27.8612C47.219 25.1233 43.8516 22.1288 40.7249 18.9564L32.9958 11.1143C32.5484 10.7373 31.9545 10.5227 31.3317 10.5227Z" fill="black"/>
<path d="M65.1315 56.3838C65.0111 56.3838 64.8881 56.3471 64.7835 56.266L59.7964 52.5073C52.8209 47.254 46.455 41.184 40.8714 34.4702L37.2973 30.1723C36.3004 29.2692 35.1884 29.141 33.2103 29.6933L28.9821 31.07C22.3702 33.2216 16.0959 36.2841 10.3344 40.1763L1.37035 46.7148C1.11132 46.9032 0.750219 46.8456 0.561832 46.5891C0.373446 46.33 0.431003 45.9688 0.687419 45.7803L9.66983 39.2314C15.5386 35.2685 21.9097 32.1563 28.6236 29.9733L32.8754 28.5913C34.6442 28.0966 36.4836 27.8532 38.111 29.353C38.1293 29.3713 38.1477 29.3896 38.1634 29.4079L41.7636 33.7373C47.2897 40.3831 53.5928 46.3876 60.4951 51.5885L65.4821 55.3472C65.7385 55.5409 65.7882 55.9021 65.5972 56.1587C65.4795 56.3026 65.3068 56.3838 65.1315 56.3838Z" fill="black"/>
<path d="M74.3572 7.89995L67.994 2.42941C66.4476 1.10234 64.1503 1.15469 62.6694 2.55504L59.4616 5.58609C54.6943 10.0934 50.6597 15.3179 47.5095 21.0738L43.5717 28.264C43.1635 29.01 43.3074 29.9366 43.9249 30.5203C46.8004 33.232 54.4719 42.1026 61.3611 46.1545C62.5333 46.8429 64.0431 46.4241 64.7233 45.2463L69.2865 37.3284C71.9605 32.6849 75.2181 28.4027 78.9806 24.5864L83.2114 20.2938C84.9226 18.5584 84.674 15.7053 82.6933 14.2866L80.6054 12.7947C78.4468 11.2582 76.3641 9.62487 74.3572 7.89995Z" fill="white"/>
<path d="M62.5778 47.0706C62.0493 47.0706 61.5312 46.9319 61.0655 46.6571C55.6807 43.4899 49.9506 37.5456 46.1567 33.6141C45.0918 32.5096 44.1708 31.5542 43.5246 30.9443C42.7161 30.18 42.5251 28.9655 43.0588 27.9865L46.9967 20.7963C50.1809 14.9803 54.2391 9.72172 59.0613 5.1673L62.2691 2.13625C63.9724 0.526493 66.5941 0.466293 68.3681 1.99229L74.734 7.46283C76.7199 9.16943 78.8053 10.8054 80.9351 12.3287L83.023 13.8207C84.1063 14.5955 84.7918 15.7995 84.9069 17.124C85.022 18.451 84.5511 19.7545 83.617 20.7047L79.3861 24.9974C75.6628 28.777 72.4315 33.0252 69.7836 37.6215L65.2205 45.5394C64.8097 46.2514 64.1477 46.7592 63.3523 46.9686C63.0985 47.0366 62.8368 47.0706 62.5778 47.0706ZM65.3984 2.04725C64.5585 2.04725 63.7186 2.35873 63.0645 2.97908L59.8567 6.01013C55.126 10.4834 51.1411 15.6451 48.0144 21.3538L44.0766 28.5441C43.7941 29.0597 43.8935 29.701 44.32 30.1015C44.9872 30.7297 45.916 31.6929 46.9914 32.8106C50.7382 36.6975 56.4029 42.5712 61.6516 45.6598C62.078 45.9111 62.5752 45.9765 63.0592 45.8509C63.5511 45.72 63.9646 45.4059 64.2183 44.9636L68.7815 37.0457C71.4791 32.363 74.7706 28.0363 78.5645 24.186L82.7954 19.8933C83.4914 19.1866 83.842 18.2155 83.7557 17.2261C83.6693 16.2393 83.1591 15.3415 82.3532 14.7656L80.2652 13.2737C78.1066 11.732 75.9925 10.0725 73.9831 8.34493L67.6172 2.87438C66.9735 2.31947 66.1859 2.04725 65.3984 2.04725Z" fill="black"/>
<path d="M78.9754 25.1675C78.855 25.1675 78.732 25.1309 78.6274 25.0523L73.6901 21.3486C72.7324 20.6288 72.1228 19.5792 71.9737 18.3908C71.8245 17.2025 72.1594 16.0351 72.9104 15.1007L76.5447 10.5986C76.7461 10.3499 77.1098 10.3107 77.3584 10.5122C77.607 10.7137 77.6462 11.0776 77.4448 11.3262L73.8105 15.8283C73.2584 16.5141 73.0124 17.3726 73.1223 18.2469C73.2322 19.1211 73.6796 19.8933 74.3835 20.422L79.3208 24.1257C79.5772 24.3168 79.6295 24.6807 79.4359 24.9372C79.326 25.089 79.1507 25.1675 78.9754 25.1675Z" fill="black"/>
<path d="M71.7564 25.4502C71.6465 25.4502 71.534 25.4188 71.4346 25.3534C66.356 21.9506 59.1999 13.381 58.8964 13.0198C58.6923 12.7737 58.7237 12.4099 58.9723 12.2031C59.2182 11.9989 59.5819 12.033 59.7886 12.279C59.8619 12.3654 67.141 21.0816 72.0809 24.3927C72.3478 24.5707 72.4184 24.9319 72.2405 25.1963C72.1254 25.3612 71.9422 25.4502 71.7564 25.4502Z" fill="black"/>
<path d="M67.2012 30.3609C67.0782 30.3609 66.9552 30.3216 66.848 30.2405C58.6113 23.914 55.0031 18.912 54.854 18.7026C54.6682 18.4435 54.7284 18.0796 54.99 17.8938C55.2491 17.708 55.6128 17.7682 55.7985 18.0273C55.8352 18.077 59.4695 23.1078 67.5544 29.3191C67.8082 29.5128 67.8553 29.8767 67.6617 30.1305C67.5492 30.2824 67.3765 30.3609 67.2012 30.3609Z" fill="black"/>
</svg>
