<svg width="119" height="93" viewBox="0 0 119 93" fill="none" xmlns="http://www.w3.org/2000/svg">
<path d="M93.8576 92.5878L45.832 84.8739L70.2936 20.0586L118.319 27.7725L93.8576 92.5878Z" fill="black"/>
<path d="M39.3379 82.8324L0.79187 67.4099L23.5605 6.98159L61.8737 23.0715L39.3379 82.8324Z" fill="black"/>
<path d="M45.9236 84.8948C43.6813 85.9183 40.5179 84.9969 39.3379 82.8322L62.0176 22.2364C63.1191 24.4535 66.2615 25.4691 68.5457 24.5163L45.9236 84.8948Z" fill="black"/>
<path d="M47.0933 81.6596C44.8509 82.683 41.6876 81.7617 40.5076 79.597L62.9518 19.6713C64.0533 21.8883 67.1957 22.9039 69.4799 21.9511L47.0933 81.6596Z" fill="black"/>
<path d="M45.0994 82.6543C43.0429 82.6543 40.9392 81.602 39.9999 79.8744C39.9188 79.7279 39.9083 79.5525 39.9659 79.3928L62.4101 19.4671C62.4912 19.2498 62.6927 19.1033 62.9229 19.0928C63.1663 19.0797 63.3677 19.208 63.4724 19.4148C64.4091 21.2968 67.2218 22.2705 69.2574 21.4172C69.472 21.3282 69.7153 21.3753 69.8828 21.5349C70.0502 21.6946 70.1052 21.938 70.0241 22.1553L47.6374 81.8638C47.5825 82.0077 47.4752 82.1229 47.3365 82.1883C46.6379 82.5051 45.8713 82.6543 45.0994 82.6543ZM47.0932 81.6596H47.0984H47.0932ZM41.1486 79.5394C42.2108 81.1701 44.7436 81.9475 46.6379 81.2225L68.5379 22.8149C66.5651 23.1316 64.383 22.3699 63.1035 20.9198L41.1486 79.5394Z" fill="black"/>
<path d="M4.0756 65.3342L40.4709 79.9558L43.0141 77.7989L63.5326 23.0271L59.2207 21.3309L25.6459 3.10509L2.97144 57.0288L4.0756 65.3342Z" fill="white"/>
<path d="M40.4709 80.5332C40.3976 80.5332 40.3244 80.5202 40.2537 80.4914L3.85838 65.87C3.66476 65.7915 3.52871 65.6161 3.49993 65.4094L2.39578 57.104C2.38269 57.002 2.39577 56.8973 2.43501 56.803L25.1121 2.87999C25.1749 2.72818 25.3005 2.61301 25.4549 2.55804C25.6092 2.50307 25.7793 2.51616 25.9232 2.59468L59.4666 20.8046L63.7445 22.4877C64.0376 22.6028 64.1867 22.9326 64.0742 23.231L43.5557 78.0021C43.5217 78.0937 43.4641 78.1775 43.3883 78.2403L40.845 80.3945C40.7404 80.4861 40.6069 80.5332 40.4709 80.5332ZM4.60669 64.9225L40.3662 79.2873L42.5274 77.4551L62.7921 23.3593L59.0113 21.8725C58.9904 21.8647 58.9668 21.8542 58.9485 21.8437L25.9337 3.91914L3.56796 57.1067L4.60669 64.9225Z" fill="black"/>
<path d="M3.0185 56.8038C2.94262 57.0053 3.04466 57.2304 3.24613 57.3011C6.41731 58.424 29.2828 66.6483 37.3677 73.2104L43.0167 77.7963L64.4431 20.6033L59.9244 16.7922C52.7579 10.7457 32.7418 3.07896 26.3183 0.710095C25.2063 0.299143 23.9739 0.867147 23.5579 1.97698L3.0185 56.8038Z" fill="white"/>
<path d="M43.0141 78.3791C42.8832 78.3791 42.7524 78.3346 42.6504 78.2508L37.0014 73.6649C28.9452 67.1212 5.67942 58.7793 3.05247 57.8474C2.80652 57.761 2.6129 57.5831 2.50301 57.3475C2.39312 57.1119 2.38265 56.8449 2.47423 56.5989L23.0136 1.77542C23.5396 0.369821 25.1121 -0.349991 26.5171 0.168273C32.6031 2.41409 53.0247 10.2168 60.2959 16.3523L64.8146 20.1633C65.003 20.3204 65.0684 20.5795 64.9847 20.8098L43.5557 78.0021C43.4903 78.1775 43.3437 78.3084 43.1658 78.3581C43.1161 78.3712 43.0664 78.3791 43.0141 78.3791ZM3.6281 56.824C7.04261 58.0385 29.6935 66.2365 37.7314 72.7645L42.755 76.8426L63.7549 20.7863L59.5503 17.237C52.4229 11.2246 32.1583 3.48464 26.1168 1.25715C25.3083 0.958757 24.403 1.37494 24.0995 2.18375L3.6281 56.824Z" fill="black"/>
<path d="M43.014 77.7987L47.4254 81.5837L91.5106 88.8237L113.29 29.6885L110.116 24.21C110.033 24.0634 109.87 23.9823 109.703 24.0006C107.903 24.2153 97.7012 25.3565 93.4677 24.2493C86.9736 22.5505 80.1446 22.5976 73.5772 23.9823L65.1469 25.7596L43.014 77.7987Z" fill="white"/>
<path d="M91.5106 89.4022C91.4792 89.4022 91.4478 89.3996 91.4164 89.3944L47.3312 82.1543C47.2266 82.136 47.1298 82.0915 47.0487 82.0234L42.6373 78.2385C42.4463 78.0736 42.3835 77.804 42.4829 77.571L64.6131 25.5293C64.6864 25.3539 64.8408 25.2283 65.0265 25.189L73.4568 23.4117C80.3775 21.9537 87.3478 22.048 93.6143 23.6865C97.8085 24.7833 108.437 23.5661 109.635 23.4222C110.035 23.375 110.417 23.5687 110.619 23.9143L113.793 29.3927C113.879 29.5419 113.895 29.7225 113.834 29.8848L92.0574 89.0201C91.9685 89.253 91.7487 89.4022 91.5106 89.4022ZM47.6792 81.0392L91.1312 88.1746L112.649 29.7435L109.664 24.5896C107.448 24.8513 97.5573 25.9193 93.3186 24.8121C87.2248 23.218 80.4403 23.129 73.6923 24.5503L65.5577 26.2648L43.7126 77.6364L47.6792 81.0392Z" fill="black"/>
<path d="M62.9936 75.1551C65.8613 75.2859 68.7185 75.6838 71.5286 76.3487C80.7753 78.5395 88.6718 80.9372 88.6718 80.9372L109.886 24.3069C110.001 24.0033 109.837 23.6656 109.523 23.5714C107.542 22.9825 100.676 20.9774 92.8503 19.119C86.2097 17.5432 79.2996 17.47 72.6197 18.8782L64.4353 20.6031L43.0089 77.7962L51.5936 76.045C55.3509 75.2781 59.1814 74.9797 62.9936 75.1551Z" fill="white"/>
<path d="M88.6691 81.5157C88.6142 81.5157 88.5566 81.5078 88.5017 81.4895C88.4991 81.4895 87.1908 81.0916 85.0191 80.4739C76.7484 78.1207 68.169 76.9245 59.5241 76.9167L52.6663 76.9114C52.3471 76.9114 52.088 76.6523 52.088 76.3303C52.088 76.011 52.3471 75.7519 52.6663 75.7519L59.5267 75.7571C68.2789 75.7649 76.963 76.9742 85.3383 79.3588C86.7146 79.7514 87.7455 80.0525 88.3211 80.2252L109.345 24.1028C107.437 23.5557 100.553 21.5428 92.7299 19.687C86.2253 18.1453 79.3152 18.0615 72.74 19.4462L64.867 21.1057L43.5531 78.0003C43.4406 78.3013 43.1056 78.4505 42.8074 78.3406C42.5065 78.228 42.3573 77.8956 42.4672 77.5946L63.8936 20.4016C63.9643 20.2157 64.1239 20.0796 64.3175 20.0377L72.5018 18.3128C79.2419 16.8915 86.33 16.9779 92.9968 18.5588C100.851 20.4225 107.762 22.4406 109.693 23.0165C109.993 23.1055 110.245 23.3175 110.386 23.5976C110.527 23.8803 110.543 24.2127 110.433 24.5085L89.2186 81.1387C89.1244 81.3691 88.9046 81.5157 88.6691 81.5157Z" fill="black"/>
<path d="M99.3314 30.6045C99.2791 30.6045 99.2268 30.5967 99.1718 30.581L97.8583 30.2041C95.4407 29.5078 93.6929 29.0052 88.957 27.8823C82.4603 26.3406 75.5528 26.2595 68.9802 27.6441C68.6688 27.7096 68.3601 27.5107 68.2947 27.1966C68.2293 26.8825 68.4281 26.5762 68.7421 26.5108C75.4795 25.0895 82.565 25.1759 89.2266 26.7542C93.9886 27.885 95.7468 28.3901 98.1802 29.0916L99.491 29.4685C99.7998 29.5575 99.9777 29.8769 99.8887 30.1857C99.8155 30.4396 99.5826 30.6045 99.3314 30.6045Z" fill="black"/>
<path d="M97.5443 37.7869C97.492 37.7869 97.437 37.7791 97.3847 37.7634C94.2946 36.8813 92.0941 36.2976 86.4608 34.9626C79.9641 33.4209 73.0566 33.3398 66.484 34.7244C66.1726 34.7899 65.8639 34.591 65.7985 34.2769C65.733 33.9628 65.9319 33.6565 66.2459 33.5911C72.9833 32.1698 80.0688 32.2562 86.7277 33.8345C92.3819 35.1747 94.5929 35.7636 97.7013 36.6483C98.01 36.7373 98.1879 37.0566 98.099 37.3655C98.0283 37.6194 97.7955 37.7869 97.5443 37.7869Z" fill="black"/>
<path d="M93.9545 44.4144C93.9021 44.4144 93.8472 44.4065 93.7949 44.3908C91.3511 43.6946 89.9512 43.3648 86.8873 42.645C85.9794 42.4329 84.9276 42.1843 83.6586 41.8833C80.2258 41.0692 76.6935 40.6557 73.1534 40.6557C72.8185 40.6583 72.5647 40.3992 72.5647 40.0772C72.5647 39.7526 72.8368 39.4987 73.1534 39.4987C76.7825 39.4987 80.4063 39.9228 83.9255 40.7578C85.1919 41.0588 86.2437 41.3048 87.1516 41.5168C90.2338 42.2393 91.6415 42.5717 94.1115 43.2758C94.4202 43.3648 94.5981 43.6841 94.5092 43.993C94.4385 44.2495 94.2057 44.4144 93.9545 44.4144Z" fill="black"/>
<path d="M92.1963 51.8664C92.144 51.8664 92.089 51.8586 92.0367 51.8429C91.3198 51.6387 90.6447 51.4398 89.9644 51.2409C87.6357 50.5577 85.2286 49.851 80.9245 48.8302C74.4277 47.2885 67.5202 47.2073 60.9476 48.592C60.6362 48.6574 60.3275 48.4585 60.2621 48.1444C60.1967 47.8303 60.3955 47.524 60.7095 47.4586C67.4496 46.0373 74.5324 46.1237 81.194 47.702C85.5269 48.7307 87.9497 49.44 90.2915 50.1284C90.9691 50.3274 91.6442 50.5263 92.3559 50.7278C92.6646 50.8168 92.8426 51.1362 92.7536 51.445C92.6803 51.6989 92.4475 51.8664 92.1963 51.8664Z" fill="black"/>
<path d="M86.1522 56.8633C86.1025 56.8633 86.0527 56.858 86.003 56.8449C83.3394 56.1382 80.7387 55.4838 78.2687 54.8975C71.772 53.3558 64.8645 53.2747 58.2918 54.6593C57.9805 54.7248 57.6717 54.5258 57.6063 54.2117C57.5409 53.8976 57.7398 53.5914 58.0537 53.526C64.7912 52.1047 71.8766 52.191 78.5356 53.7694C81.016 54.3583 83.6273 55.0153 86.3013 55.7246C86.6101 55.8058 86.7958 56.1251 86.7121 56.434C86.6441 56.6931 86.4086 56.8633 86.1522 56.8633Z" fill="black"/>
<path d="M75.3042 61.2345C75.2649 61.2345 75.2231 61.2292 75.1838 61.2214C68.9095 59.8812 62.5253 59.8786 56.2091 61.2083C55.8977 61.2737 55.589 61.0748 55.5236 60.7607C55.4581 60.4466 55.657 60.1404 55.971 60.0749C62.4468 58.7112 68.9906 58.7138 75.4272 60.088C75.7411 60.1561 75.94 60.4623 75.8719 60.7764C75.8118 61.046 75.5711 61.2345 75.3042 61.2345Z" fill="black"/>
<path d="M82.981 70.9977C82.9286 70.9977 82.8737 70.9899 82.8214 70.9742C79.8804 70.134 78.4911 69.8042 73.8861 68.7127L72.7505 68.4431C66.2538 66.9014 59.3463 66.8202 52.7736 68.2049C52.4623 68.2703 52.1535 68.0714 52.0881 67.7573C52.0227 67.4432 52.2216 67.1369 52.5356 67.0715C59.273 65.6502 66.3584 65.7366 73.02 67.3149L74.1556 67.5845C78.7789 68.6813 80.1761 69.0111 83.1432 69.8591C83.4519 69.9481 83.6299 70.2675 83.5409 70.5763C83.4624 70.8302 83.2322 70.9977 82.981 70.9977Z" fill="black"/>
<path d="M43.0429 18.2737C42.9435 18.2737 42.8441 18.2475 42.7525 18.1952C37.0224 14.8736 31.1118 12.2404 27.7914 10.9945C27.4932 10.8819 27.3414 10.5469 27.4513 10.2485C27.5638 9.95009 27.8961 9.79828 28.197 9.90821C31.5592 11.1698 37.5405 13.8318 43.3307 17.1901C43.6081 17.3497 43.7023 17.7057 43.5427 17.9832C43.4354 18.169 43.2418 18.2737 43.0429 18.2737Z" fill="black"/>
<path d="M51.1304 36.5565C50.9604 36.5565 50.7903 36.4806 50.6778 36.3366C46.5359 31.1304 39.6467 27.4659 33.511 24.4401C33.2232 24.2988 33.1055 23.9507 33.2468 23.6653C33.388 23.3774 33.736 23.2596 34.0212 23.401C40.2694 26.4818 47.2921 30.2221 51.5831 35.6142C51.7819 35.8654 51.7401 36.2293 51.4915 36.4282C51.3842 36.5146 51.256 36.5565 51.1304 36.5565Z" fill="black"/>
<path d="M47.729 46.3016C47.5851 46.3016 47.4386 46.2466 47.3261 46.1393C41.9571 40.9567 37.0145 38.3183 31.1091 35.405C27.1399 33.4471 24.8348 32.4577 22.6029 31.4997C21.9514 31.2197 21.3051 30.9422 20.6249 30.6438C20.3318 30.5156 20.1984 30.1727 20.3266 29.8795C20.4548 29.5863 20.7975 29.4529 21.0906 29.5811C21.7682 29.8795 22.4119 30.1543 23.0608 30.4318C25.3057 31.395 27.6266 32.3923 31.6219 34.3633C37.6189 37.321 42.64 40.0066 48.1293 45.3044C48.3596 45.5268 48.3674 45.8933 48.145 46.1236C48.0325 46.244 47.8808 46.3016 47.729 46.3016Z" fill="black"/>
<path d="M45.6541 53.2851C45.5076 53.2851 45.3611 53.2301 45.2486 53.1202C40.6279 48.5788 36.5854 46.621 31.4649 44.1448C30.7218 43.7862 29.9605 43.4172 29.1755 43.0298C26.8965 41.9043 24.4737 40.7499 21.9749 39.5983C21.6845 39.4648 21.5563 39.1192 21.6924 38.8287C21.8258 38.5382 22.1712 38.4099 22.4616 38.546C24.9682 39.7003 27.4015 40.8599 29.6909 41.9906C30.4733 42.3754 31.2321 42.7445 31.9725 43.1031C36.9805 45.5269 41.3055 47.6208 46.0623 52.2957C46.2899 52.5208 46.2926 52.8872 46.0702 53.115C45.9524 53.2275 45.8033 53.2851 45.6541 53.2851Z" fill="black"/>
<path d="M43.1056 59.8917C42.9565 59.8917 42.81 59.8341 42.6949 59.7215C38.6707 55.6958 34.2358 53.4762 29.5418 51.1283C28.503 50.6074 27.4564 50.0839 26.4098 49.5395C26.1273 49.3903 26.0174 49.0422 26.1639 48.7569C26.313 48.4742 26.6636 48.3643 26.9462 48.5108C27.9876 49.0527 29.0263 49.5735 30.0598 50.0918C34.8402 52.4842 39.3562 54.7431 43.5138 58.9023C43.7388 59.1274 43.7388 59.4964 43.5138 59.7215C43.4013 59.8367 43.2548 59.8917 43.1056 59.8917Z" fill="black"/>
<path d="M40.9079 67.2887C40.7378 67.2887 40.5677 67.2128 40.4552 67.0688C36.1406 61.6454 20.8159 55.1357 13.9502 53.0129C13.6441 52.9187 13.474 52.5941 13.5682 52.2879C13.6624 51.9816 13.9868 51.8115 14.293 51.9057C21.2737 54.0652 36.8889 60.7267 41.3605 66.3464C41.5594 66.5977 41.5175 66.9615 41.2689 67.1604C41.1616 67.2468 41.0335 67.2887 40.9079 67.2887Z" fill="black"/>
<path d="M91.5107 89.4013C91.2752 89.4013 91.0554 89.2574 90.9691 89.0244L88.0857 81.3316C87.9732 81.0332 88.1249 80.6982 88.4258 80.5856C88.7215 80.4731 89.059 80.6249 89.1716 80.9259L92.0549 88.6187C92.1674 88.9171 92.0157 89.2521 91.7148 89.3647C91.6467 89.3883 91.5787 89.4013 91.5107 89.4013Z" fill="black"/>
</svg>
