<svg width="89" height="86" viewBox="0 0 89 86" fill="none" xmlns="http://www.w3.org/2000/svg">
<path d="M55.2645 75.7854C73.5021 70.9012 84.306 52.0665 79.3957 33.7169C74.4855 15.3672 55.7204 4.45135 37.4828 9.33554C19.2452 14.2197 8.44125 33.0545 13.3515 51.4041C18.2618 69.7537 37.0269 80.6696 55.2645 75.7854Z" fill="black"/>
<path d="M50.8217 76.6137C69.0593 71.7295 79.8633 52.8948 74.953 34.5452C70.0427 16.1955 51.2777 5.27964 33.0401 10.1638C14.8024 15.048 3.9985 33.8827 8.90877 52.2324C13.819 70.582 32.5841 81.4979 50.8217 76.6137Z" fill="white"/>
<path d="M42.0518 78.3703C38.1846 78.3703 34.3043 77.7133 30.5445 76.3941C21.7321 73.3028 14.6519 66.9422 10.6016 58.4875C2.27333 41.0993 9.54978 20.1826 26.8238 11.8589C35.1599 7.84096 44.5688 7.32008 53.3131 10.3904C62.1228 13.4844 69.2057 19.845 73.256 28.2996C81.5842 45.6878 74.3078 66.6045 57.0338 74.9283C52.2796 77.216 47.1775 78.3703 42.0518 78.3703ZM41.8058 9.57377C36.8502 9.57377 31.9207 10.6888 27.3262 12.9033C10.6278 20.9496 3.59204 41.1752 11.6456 57.9876C15.5598 66.1621 22.4098 72.3133 30.9265 75.3026C39.3803 78.2708 48.47 77.7657 56.5288 73.8839C73.2272 65.8376 80.2629 45.6119 72.2094 28.7995C68.2951 20.625 61.4452 14.4738 52.9285 11.4846C49.2968 10.2072 45.5448 9.57377 41.8058 9.57377Z" fill="black"/>
<path d="M59.5875 55.707C59.4777 55.707 59.3651 55.6756 59.2683 55.6102L41.6097 43.8734C41.4867 43.7922 41.4004 43.6666 41.3663 43.5226L37.6483 27.7261C37.575 27.4146 37.7687 27.1031 38.08 27.0299C38.3888 26.9566 38.7027 27.1503 38.776 27.4617L42.4417 43.0358L59.9094 54.6443C60.1762 54.8223 60.2495 55.1809 60.0716 55.4479C59.9591 55.6154 59.7759 55.707 59.5875 55.707Z" fill="black"/>
<path d="M31.9234 17.8741C32.4467 18.9682 31.9915 20.2795 30.9056 20.803C29.8198 21.3265 28.5142 20.8632 27.9909 19.7717C27.4676 18.6776 27.9228 17.3663 29.0087 16.8428C30.0945 16.3193 31.3975 16.78 31.9234 17.8741Z" fill="black"/>
<path d="M20.5861 26.2865C21.583 26.9723 21.8394 28.3386 21.1618 29.3385C20.4841 30.3384 19.1235 30.5949 18.1267 29.9091C17.1298 29.2233 16.8734 27.857 17.551 26.8571C18.2313 25.8546 19.5893 25.6007 20.5861 26.2865Z" fill="black"/>
<path d="M15.6115 43.3546C16.7757 43.0428 17.4653 41.8403 17.1518 40.6686C16.8382 39.497 15.6403 38.8 14.4761 39.1118C13.3119 39.4235 12.6223 40.6261 12.9358 41.7977C13.2494 42.9693 14.4473 43.6663 15.6115 43.3546Z" fill="black"/>
<path d="M16.5751 53.3776C17.661 52.8541 18.9666 53.3174 19.4899 54.4089C20.0132 55.503 19.5579 56.8143 18.4721 57.3378C17.3862 57.8613 16.0806 57.398 15.5573 56.3065C15.0314 55.2124 15.4893 53.9011 16.5751 53.3776Z" fill="black"/>
<path d="M25.2095 64.5621C25.8871 63.5623 27.2477 63.3057 28.2446 63.9915C29.2415 64.6773 29.4979 66.0436 28.8202 67.0435C28.1425 68.0434 26.782 68.2999 25.7851 67.6141C24.7882 66.931 24.5318 65.5646 25.2095 64.5621Z" fill="black"/>
<path d="M38.1533 70.2473C38.2422 69.038 39.2914 68.135 40.4924 68.2266C41.6934 68.3182 42.5987 69.3757 42.5071 70.585C42.4181 71.7943 41.3689 72.6973 40.168 72.6057C38.967 72.5141 38.0643 71.4566 38.1533 70.2473Z" fill="black"/>
<path d="M52.1697 68.6742C51.6464 67.5801 52.1017 66.2687 53.1875 65.7452C54.2734 65.2217 55.579 65.685 56.1023 66.7765C56.6256 67.8706 56.1703 69.182 55.0845 69.7055C53.9986 70.229 52.693 69.7683 52.1697 68.6742Z" fill="black"/>
<path d="M65.3062 60.5789C66.4704 60.2671 67.16 59.0646 66.8465 57.893C66.5329 56.7214 65.335 56.0243 64.1708 56.3361C63.0066 56.6479 62.317 57.8504 62.6306 59.022C62.9441 60.1936 64.142 60.8907 65.3062 60.5789Z" fill="black"/>
<path d="M69.6256 47.4336C70.7898 47.1217 71.4793 45.919 71.1656 44.7474C70.852 43.5758 69.654 42.8789 68.4898 43.1908C67.3256 43.5026 66.6361 44.7053 66.9497 45.8769C67.2634 47.0485 68.4614 47.7455 69.6256 47.4336Z" fill="black"/>
<path d="M66.9024 33.5429C68.0666 33.2311 68.7562 32.0286 68.4427 30.857C68.1291 29.6854 66.9312 28.9883 65.767 29.3001C64.6028 29.6119 63.9132 30.8144 64.2267 31.986C64.5403 33.1576 65.7382 33.8547 66.9024 33.5429Z" fill="black"/>
<path d="M57.6416 22.8611C58.8056 22.5491 59.4949 21.3464 59.1812 20.1749C58.8674 19.0034 57.6694 18.3067 56.5053 18.6187C55.3413 18.9307 54.6519 20.1334 54.9657 21.3049C55.2795 22.4764 56.4775 23.1731 57.6416 22.8611Z" fill="black"/>
<path d="M45.9399 16.2981C45.851 17.5073 44.8018 18.4104 43.6008 18.3188C42.3972 18.2245 41.4945 17.1697 41.5861 15.9604C41.6751 14.7511 42.7243 13.8481 43.9252 13.9397C45.1262 14.0339 46.0289 15.0888 45.9399 16.2981Z" fill="black"/>
</svg>
