<svg width="79" height="87" viewBox="0 0 79 87" fill="none" xmlns="http://www.w3.org/2000/svg">
<path d="M27.7452 86.5033C21.3584 86.5033 15.5315 84.6475 10.8584 81.0406C0.418646 72.9866 -2.7787 57.7554 2.51707 41.2913C2.61649 40.9877 2.94094 40.8202 3.24707 40.917C3.55058 41.0139 3.71803 41.341 3.62122 41.6447C-1.52017 57.6297 1.52542 72.3741 11.5675 80.1219C17.8471 84.9668 26.3323 86.5086 35.4534 84.4591C44.5431 82.4174 53.6641 76.9756 61.1394 69.1362C62.6125 67.5919 70.5326 70.3769 75.2789 72.2432C72.4845 67.9636 68.0836 60.7681 68.9444 59.1217C68.9496 59.1086 68.9758 59.0667 68.981 59.0563C81.1817 39.6397 80.4648 17.3517 67.3143 7.20627C60.7286 2.12571 51.8169 0.688709 42.2196 3.15963C32.6145 5.63316 23.1899 11.7764 15.6832 20.4587C15.4739 20.7021 15.1076 20.7283 14.8669 20.5189C14.6262 20.3095 14.5974 19.943 14.8067 19.7022C22.4652 10.842 32.0964 4.57046 41.9292 2.03934C51.8797 -0.523192 61.1447 0.987101 68.0208 6.29015C81.6474 16.802 82.4821 39.7496 69.9622 59.6714C69.6064 60.7158 73.4709 67.4872 77.2648 73.1515C77.4061 73.3635 77.393 73.6436 77.2334 73.8399C77.0712 74.0362 76.8017 74.1069 76.5662 74.01C69.3814 71.0679 62.6989 69.2017 61.9767 69.9372C54.347 77.9415 45.0166 83.4984 35.7072 85.5898C32.986 86.2023 30.3198 86.5033 27.7452 86.5033Z" fill="black"/>
<path d="M28.8807 54.2295L24.7729 57.2919C24.1999 57.7186 23.3861 57.6139 22.9335 57.0511L0.829402 29.6015C0.353201 29.01 0.457861 28.1436 1.06227 27.6908L7.29735 23.0421C7.90176 22.5919 8.7652 22.7385 9.19692 23.3667L29.1738 52.3998C29.582 52.994 29.4538 53.8028 28.8807 54.2295Z" fill="black"/>
<path d="M34.8039 68.8155C36.7329 67.6292 37.2538 64.9703 35.9673 62.8767C34.6808 60.7832 32.0741 60.0477 30.145 61.234C28.216 62.4203 27.6951 65.0792 28.9816 67.1728C30.2682 69.2663 32.8749 70.0018 34.8039 68.8155Z" fill="black"/>
<path d="M45.901 46.6675L45.1527 44.8928C43.4703 41.2467 43.342 36.7027 45.4221 31.3578C47.3165 26.6175 48.1459 23.3143 47.0941 20.1628C45.8983 16.5899 42.8371 15.5377 38.4204 16.904C35.9112 17.7259 33.6689 20.0424 32.3737 21.9453L28.9958 16.9171C30.7332 14.4829 34.3335 12.0617 38.028 10.8498C46.0449 8.22445 51.3328 12.012 53.112 17.3359C54.7054 22.0997 53.2036 26.4003 51.1915 31.4887C49.3416 36.1347 49.2579 39.5846 50.6603 43.0867L51.338 44.885L45.901 46.6675ZM47.6488 56.9777C46.7827 54.3864 47.9157 51.9941 50.3542 51.1957C52.7928 50.3974 55.077 51.6695 55.943 54.2634C56.762 56.716 55.7913 59.1319 53.214 59.9774C50.7729 60.7731 48.4677 59.4303 47.6488 56.9777Z" fill="black"/>
</svg>
