<svg width="426" height="429" viewBox="0 0 426 429" fill="none" xmlns="http://www.w3.org/2000/svg">
<path d="M290.249 417.999C290.105 417.999 289.961 417.946 289.849 417.839C289.618 417.617 289.611 417.25 289.83 417.02L292.565 414.162C292.784 413.931 293.151 413.923 293.383 414.143C293.614 414.366 293.622 414.732 293.402 414.962L290.668 417.821C290.555 417.939 290.403 417.999 290.249 417.999Z" fill="black"/>
<path d="M280.68 428.003C280.537 428.003 280.393 427.95 280.28 427.843C280.05 427.621 280.042 427.254 280.262 427.024L282.996 424.166C283.218 423.935 283.585 423.927 283.815 424.147C284.045 424.37 284.053 424.736 283.833 424.967L281.099 427.825C280.987 427.945 280.832 428.003 280.68 428.003Z" fill="black"/>
<path d="M283.362 418.153C283.216 418.153 283.069 418.098 282.957 417.986L280.181 415.25C279.953 415.025 279.95 414.659 280.175 414.431C280.4 414.203 280.767 414.201 280.994 414.426L283.77 417.161C283.998 417.386 284.001 417.753 283.776 417.98C283.663 418.096 283.514 418.153 283.362 418.153Z" fill="black"/>
<path d="M293.077 427.728C292.931 427.728 292.784 427.673 292.672 427.56L289.896 424.825C289.668 424.6 289.665 424.234 289.89 424.006C290.115 423.778 290.482 423.776 290.709 424.001L293.485 426.736C293.713 426.961 293.716 427.327 293.491 427.555C293.376 427.67 293.226 427.728 293.077 427.728Z" fill="black"/>
<path d="M10.0286 6.06247C9.71461 6.06247 9.45558 5.81119 9.45034 5.49709L9.36138 1.54207C9.35353 1.22274 9.60733 0.958372 9.92655 0.95052C10.2353 0.945285 10.5126 1.19656 10.5179 1.5159L10.6042 5.47092C10.6121 5.79025 10.3583 6.05462 10.0391 6.06247C10.0364 6.06247 10.0338 6.06247 10.0286 6.06247Z" fill="black"/>
<path d="M10.3347 19.9037C10.0207 19.9037 9.76168 19.6525 9.75644 19.3384L9.6701 15.3833C9.66225 15.064 9.91605 14.7996 10.2353 14.7918C10.5571 14.7866 10.8187 15.0378 10.8266 15.3572L10.9155 19.3122C10.9234 19.6315 10.6696 19.8959 10.3504 19.9037C10.3425 19.9037 10.3373 19.9037 10.3347 19.9037Z" fill="black"/>
<path d="M1.37062 11.0697C1.05403 11.0697 0.794995 10.8132 0.792378 10.4939C0.789762 10.1745 1.04618 9.91279 1.368 9.91018L5.26395 9.88138C5.57531 9.87353 5.84481 10.1353 5.84743 10.4572C5.85004 10.7766 5.59363 11.0383 5.2718 11.0409L1.37585 11.0697C1.37324 11.0697 1.37324 11.0697 1.37062 11.0697Z" fill="black"/>
<path d="M15.0077 10.9703C14.6911 10.9703 14.4321 10.7137 14.4295 10.3944C14.4268 10.0751 14.6833 9.81333 15.0051 9.81071L18.901 9.78192C18.9037 9.78192 18.9037 9.78192 18.9063 9.78192C19.2229 9.78192 19.4819 10.0384 19.4845 10.3578C19.4871 10.6771 19.2307 10.9389 18.9089 10.9415L15.0129 10.9703C15.0103 10.9703 15.0103 10.9703 15.0077 10.9703Z" fill="black"/>
<path d="M330.961 409.29C328.146 409.29 325.854 406.997 325.854 404.181C325.854 401.365 328.146 399.072 330.961 399.072C333.777 399.072 336.069 401.365 336.069 404.181C336.069 406.997 333.777 409.29 330.961 409.29ZM330.961 400.231C328.784 400.231 327.013 402.003 327.013 404.181C327.013 406.359 328.784 408.131 330.961 408.131C333.138 408.131 334.91 406.359 334.91 404.181C334.91 402.003 333.138 400.231 330.961 400.231Z" fill="black"/>
<path d="M420.772 81.2422C417.957 81.2422 415.665 78.9493 415.665 76.1328C415.665 73.3164 417.957 71.0235 420.772 71.0235C423.588 71.0235 425.88 73.3164 425.88 76.1328C425.88 78.9519 423.588 81.2422 420.772 81.2422ZM420.772 72.1831C418.595 72.1831 416.824 73.9551 416.824 76.1328C416.824 78.3106 418.595 80.0826 420.772 80.0826C422.949 80.0826 424.721 78.3106 424.721 76.1328C424.721 73.9551 422.949 72.1831 420.772 72.1831Z" fill="black"/>
<path d="M422.722 46.7601C424.218 45.2636 424.218 42.8373 422.722 41.3409C421.226 39.8444 418.801 39.8444 417.305 41.3409C415.809 42.8373 415.809 45.2636 417.305 46.7601C418.801 48.2565 421.226 48.2566 422.722 46.7601Z" fill="black"/>
</svg>
