<svg width="479" height="486" viewBox="0 0 479 486" fill="none" xmlns="http://www.w3.org/2000/svg">
<path d="M288.949 274.575L220.604 264.359C220.162 264.359 220.015 264.77 220.015 265.165V323.336C220.015 328.906 181.184 343.376 180.804 342.64L180.757 348.797C180.755 349.943 181.762 350.959 183.047 350.959H183.9C183.905 350.959 183.91 350.959 183.918 350.959L241.222 361.604C243.88 361.604 246.507 361.01 248.914 359.999L280.419 346.729C286.092 344.339 289.669 339.209 289.669 333.613V275.384C289.669 274.989 289.391 274.575 288.949 274.575Z" fill="black"/>
<path d="M213.094 260.972V319.154C213.094 324.888 209.405 330.116 203.607 332.592L182.353 341.667C180.964 342.258 181.438 344.122 182.976 344.122L241.371 354.767C243.998 354.767 246.591 354.249 248.964 353.249L272.512 343.331C278.352 340.871 282.078 335.625 282.078 329.859V271.617C282.078 271.379 281.861 271.186 281.594 271.186L213.573 260.54C213.309 260.54 213.094 260.734 213.094 260.972Z" fill="white"/>
<path d="M241.373 355.346C241.339 355.346 241.303 355.343 241.269 355.335L182.921 344.7C181.958 344.677 181.168 344.056 180.988 343.177C180.812 342.321 181.27 341.502 182.126 341.135L203.379 332.06C208.929 329.692 212.516 324.627 212.516 319.156V260.972C212.516 260.415 212.992 259.962 213.579 259.962C213.607 259.962 213.639 259.964 213.668 259.97L281.652 270.607C282.212 270.633 282.662 271.076 282.662 271.617V329.859C282.662 335.827 278.768 341.326 272.74 343.863L249.192 353.78C246.761 354.804 244.058 355.346 241.373 355.346ZM213.673 261.142V319.154C213.673 325.087 209.811 330.571 203.835 333.123L182.581 342.198C182.23 342.347 182.058 342.627 182.123 342.941C182.181 343.219 182.437 343.541 182.979 343.541C183.013 343.541 183.049 343.543 183.083 343.551L241.428 354.186C243.943 354.178 246.473 353.67 248.747 352.712L272.295 342.795C277.892 340.436 281.508 335.358 281.508 329.859V271.759L213.673 261.142Z" fill="black"/>
<path d="M395.194 321.2L387.569 328.32L104.861 279.378L107.891 96.3008L117.038 91.3878C118.718 90.4926 120.649 90.189 122.522 90.5266L390.853 138.955C394.88 139.683 397.808 143.19 397.808 147.284L397.865 315.023C397.868 317.366 396.9 319.601 395.194 321.2Z" fill="black"/>
<path d="M381.02 329.33L110.405 280.449C107.04 279.842 104.594 276.913 104.594 273.492V103.289C104.594 98.8816 108.582 95.5496 112.917 96.3322L383.532 145.214C386.897 145.821 389.344 148.75 389.344 152.171V322.37C389.341 326.778 385.356 330.113 381.02 329.33Z" fill="white"/>
<path d="M382.282 330.021C381.826 330.021 381.371 329.982 380.916 329.898L110.303 281.017C106.661 280.36 104.016 277.193 104.016 273.489V103.289C104.016 101.017 105.015 98.8764 106.758 97.4211C108.5 95.9631 110.782 95.3585 113.019 95.7642L383.634 144.646C387.276 145.303 389.922 148.47 389.922 152.174V322.376C389.922 324.648 388.922 326.789 387.18 328.244C385.79 329.401 384.058 330.021 382.282 330.021ZM381.122 328.76C383.019 329.103 384.956 328.59 386.434 327.354C387.912 326.119 388.763 324.302 388.763 322.373V152.171C388.763 149.03 386.52 146.342 383.428 145.784L112.812 96.9028C110.915 96.5599 108.979 97.0729 107.501 98.3084C106.023 99.5439 105.172 101.36 105.172 103.289V273.492C105.172 276.633 107.415 279.321 110.507 279.878L381.122 328.76Z" fill="black"/>
<path d="M337.956 290.675L151.089 256.923C149.969 256.721 149.155 255.745 149.155 254.606V135.218C149.155 133.752 150.482 132.642 151.926 132.901L338.793 166.656C339.913 166.858 340.727 167.834 340.727 168.973V288.361C340.727 289.827 339.4 290.937 337.956 290.675Z" fill="white"/>
<path d="M338.377 291.293C338.202 291.293 338.026 291.277 337.854 291.246L150.987 257.493C149.59 257.242 148.577 256.028 148.577 254.606V135.218C148.577 134.346 148.962 133.527 149.629 132.967C150.296 132.409 151.17 132.176 152.028 132.33L338.895 166.086C340.292 166.337 341.305 167.551 341.305 168.973V288.361C341.305 289.233 340.92 290.052 340.253 290.613C339.722 291.055 339.057 291.293 338.377 291.293ZM338.06 290.107C338.581 290.202 339.11 290.06 339.513 289.723C339.918 289.385 340.148 288.888 340.148 288.361V168.97C340.148 168.112 339.536 167.376 338.691 167.224L151.824 133.472C151.306 133.377 150.778 133.519 150.372 133.856C149.967 134.194 149.736 134.691 149.736 135.218V254.606C149.736 255.465 150.349 256.2 151.194 256.352L338.06 290.107Z" fill="black"/>
<path d="M325.077 193.692C325.043 193.692 325.009 193.69 324.973 193.682L164.344 164.67C164.03 164.612 163.821 164.311 163.878 163.997C163.936 163.683 164.234 163.473 164.551 163.531L325.179 192.546C325.493 192.603 325.703 192.904 325.648 193.218C325.595 193.496 325.352 193.692 325.077 193.692Z" fill="black"/>
<path d="M304.766 201.571C304.732 201.571 304.698 201.568 304.661 201.56L164.344 176.215C164.03 176.158 163.821 175.857 163.878 175.543C163.936 175.228 164.234 175.019 164.551 175.077L304.868 200.422C305.182 200.479 305.391 200.78 305.336 201.094C305.284 201.375 305.04 201.571 304.766 201.571Z" fill="black"/>
<path d="M325.077 216.789C325.043 216.789 325.009 216.786 324.973 216.778L164.81 187.908C164.496 187.85 164.286 187.549 164.341 187.235C164.399 186.921 164.697 186.711 165.014 186.766L325.177 215.637C325.491 215.695 325.7 215.996 325.645 216.31C325.595 216.593 325.352 216.789 325.077 216.789Z" fill="black"/>
<path d="M325.077 228.337C325.043 228.337 325.009 228.335 324.973 228.327L279.618 220.134C279.304 220.076 279.095 219.775 279.15 219.461C279.208 219.147 279.503 218.938 279.823 218.995L325.177 227.188C325.491 227.246 325.7 227.547 325.645 227.861C325.595 228.141 325.352 228.337 325.077 228.337Z" fill="black"/>
<path d="M229.696 211.109C229.662 211.109 229.628 211.106 229.591 211.099L164.344 199.312C164.03 199.254 163.821 198.953 163.878 198.639C163.936 198.325 164.234 198.116 164.551 198.173L229.798 209.96C230.112 210.017 230.321 210.318 230.264 210.633C230.214 210.913 229.971 211.109 229.696 211.109Z" fill="black"/>
<path d="M325.077 239.886C325.043 239.886 325.009 239.883 324.973 239.875L293.054 234.109C292.74 234.051 292.531 233.75 292.586 233.436C292.643 233.122 292.939 232.913 293.258 232.97L325.177 238.737C325.491 238.794 325.7 239.095 325.645 239.409C325.595 239.689 325.352 239.886 325.077 239.886Z" fill="black"/>
<path d="M263.862 228.827C263.828 228.827 263.794 228.824 263.757 228.816L164.344 210.86C164.03 210.803 163.821 210.502 163.878 210.188C163.936 209.874 164.234 209.664 164.551 209.722L263.964 227.678C264.278 227.735 264.487 228.036 264.432 228.35C264.38 228.63 264.137 228.827 263.862 228.827Z" fill="black"/>
<path d="M325.077 251.431C325.043 251.431 325.009 251.429 324.973 251.421L163.774 222.165C163.46 222.108 163.25 221.807 163.308 221.493C163.365 221.178 163.664 220.969 163.98 221.027L325.179 250.285C325.493 250.342 325.703 250.643 325.645 250.958C325.595 251.238 325.352 251.431 325.077 251.431Z" fill="black"/>
<path d="M291.173 256.857C291.139 256.857 291.105 256.855 291.068 256.847L164.341 233.957C164.027 233.899 163.818 233.598 163.876 233.284C163.933 232.97 164.231 232.761 164.548 232.818L291.275 255.708C291.589 255.766 291.798 256.067 291.743 256.381C291.694 256.661 291.45 256.857 291.173 256.857Z" fill="black"/>
<path d="M328.885 389.099C341.83 385.643 350.689 376.709 348.671 369.146C346.653 361.582 334.522 358.253 321.577 361.71C308.631 365.167 299.773 374.101 301.791 381.664C303.809 389.227 315.939 392.556 328.885 389.099Z" fill="white"/>
<path d="M318.895 391.001C309.944 391.001 302.78 387.567 301.236 381.782C300.205 377.916 301.778 373.629 305.666 369.708C309.473 365.868 315.072 362.816 321.43 361.12C334.662 357.586 347.134 361.104 349.233 368.964C351.329 376.825 342.27 386.093 329.039 389.627C325.546 390.561 322.105 391.001 318.895 391.001ZM331.674 360.889C328.539 360.889 325.164 361.324 321.728 362.24C315.567 363.886 310.153 366.828 306.487 370.527C302.903 374.144 301.435 378.037 302.356 381.486C304.289 388.729 316.126 391.878 328.741 388.509C341.357 385.14 350.047 376.508 348.116 369.265C346.708 363.994 340.054 360.889 331.674 360.889Z" fill="black"/>
<path d="M307.17 383.808C308.649 382.651 310.415 381.908 312.283 381.664C318.034 380.918 318.95 380.306 330.481 374.581C339.11 370.297 349.092 375.482 354.178 368.197C357.135 363.965 343.66 347.501 322.615 352.265C310.637 354.976 312.333 361.044 296.61 370.357C296.61 370.357 231.8 410.847 218.244 397.584C203.202 382.866 189.941 359.798 189.941 359.798L150.775 407.208C150.775 407.208 200.287 441.118 229.916 439.859C247.253 439.121 307.17 383.808 307.17 383.808Z" fill="white"/>
<path d="M228.304 440.469C198.667 440.469 150.935 408.017 150.448 407.685C150.315 407.593 150.226 407.449 150.202 407.287C150.179 407.125 150.226 406.962 150.33 406.837L189.496 359.426C189.617 359.28 189.803 359.201 189.991 359.217C190.179 359.233 190.349 359.34 190.444 359.505C190.577 359.735 203.84 382.672 218.649 397.165C231.724 409.959 295.66 370.265 296.304 369.862C303.403 365.658 306.932 362.112 309.768 359.264C313.267 355.751 315.794 353.212 322.49 351.697C338.929 347.975 349.884 356.832 353.38 362.033C355.164 364.687 355.641 367.114 354.654 368.527C351.588 372.919 346.875 373.027 341.886 373.139C338.173 373.223 334.335 373.312 330.737 375.097L328.518 376.199C319.031 380.921 317.812 381.528 312.356 382.235C310.606 382.463 308.942 383.156 307.544 384.245C304.847 386.734 247.25 439.697 229.937 440.432C229.401 440.458 228.854 440.469 228.304 440.469ZM151.628 407.083C156.924 410.624 200.69 439.309 228.286 439.312C228.827 439.312 229.359 439.301 229.89 439.278C246.821 438.558 306.179 383.934 306.778 383.381C306.788 383.371 306.801 383.36 306.814 383.35C308.379 382.125 310.245 381.345 312.21 381.089C317.471 380.405 318.468 379.911 328.005 375.165L330.224 374.061C334.052 372.16 338.021 372.069 341.86 371.982C346.75 371.87 350.973 371.776 353.704 367.865C354.385 366.891 353.88 364.857 352.417 362.682C349.076 357.707 338.571 349.244 322.744 352.828C316.378 354.27 313.95 356.707 310.587 360.083C307.704 362.978 304.117 366.582 296.903 370.854C294.643 372.268 248.663 400.806 226.692 400.809C222.914 400.809 219.85 399.966 217.836 397.995C204.395 384.845 192.241 364.826 189.858 360.8L151.628 407.083Z" fill="black"/>
<path d="M125.126 287.542C102.797 280.31 66.2391 274.9 51.5998 276.706C35.3436 278.711 16.968 296.855 29.0405 369.564C31.4058 383.811 33.1641 396.673 35.6681 408.075C50.7704 430.017 70.8048 448.772 97.3779 462.403C109.126 468.429 157.217 482.356 214.398 485.997C188.913 459.275 180.959 437.616 178.939 430.774C178.654 429.805 179.572 428.921 180.53 429.237L183.353 430.174C185.708 430.957 188.295 430.051 189.643 427.965C196.595 417.205 215.96 384.046 206.739 361.384C203.864 354.322 163.708 300.038 125.126 287.542Z" fill="black"/>
<path d="M126.157 205.746C126.157 205.746 131.507 213.768 131.834 220.398C131.921 222.152 132.651 227.756 136.965 233.884C137.381 234.475 137.29 235.279 136.743 235.766L132.619 239.443C132.334 239.697 132.172 240.051 132.169 240.427C132.156 242.767 132.083 251.416 131.803 253.028C131.476 254.897 129.977 256.546 129.231 256.949C127.263 258.012 118.736 256.925 118.736 256.925C118.736 256.925 116.449 257.143 111.965 269.285C107.122 282.399 117.166 287.354 117.166 287.354C120.939 289.325 121.01 291.23 116.928 292.531C102.854 297.017 73.7563 300.297 59.0647 283.799C58.2274 282.857 58.6461 281.349 59.8732 280.988C97.2052 269.974 79.4131 238.231 80.2033 238.022C82.2206 237.488 93.8169 225.264 100.612 221.788C105.243 219.417 110.861 222.848 114.628 219.26L126.157 205.746Z" fill="white"/>
<path d="M92.6839 296.748C80.3576 296.748 67.16 293.767 58.6303 284.187C58.1018 283.592 57.916 282.784 58.1358 282.017C58.353 281.25 58.9417 280.658 59.7083 280.433C70.2135 277.334 77.2858 272.272 80.7291 265.388C85.8444 255.161 81.5193 243.532 80.1012 239.708C79.6041 238.373 79.502 238.095 79.6695 237.771C79.7453 237.627 79.8945 237.504 80.0541 237.462C80.7501 237.279 83.5026 234.81 86.1636 232.423C90.6692 228.382 96.2789 223.354 100.348 221.27C102.587 220.124 104.979 220.247 107.289 220.364C109.882 220.498 112.331 220.624 114.207 218.857L125.72 205.366C125.837 205.227 126.007 205.152 126.193 205.165C126.374 205.175 126.539 205.269 126.641 205.421C126.863 205.754 132.083 213.653 132.415 220.367C132.47 221.453 132.962 227.188 137.441 233.549C138.028 234.378 137.894 235.52 137.13 236.198L133.007 239.875C132.842 240.022 132.75 240.218 132.75 240.43C132.734 242.993 132.661 251.481 132.373 253.125C132.028 255.104 130.458 256.941 129.506 257.454C127.515 258.53 120.162 257.682 118.799 257.514C118.414 257.713 116.292 259.231 112.506 269.482C107.909 281.928 117.03 286.637 117.423 286.83C119.644 287.99 120.667 289.128 120.565 290.314C120.466 291.463 119.333 292.369 117.104 293.081C111.175 294.973 102.19 296.748 92.6839 296.748ZM80.8443 238.367C80.928 238.616 81.0588 238.964 81.1844 239.307C82.6496 243.246 87.1029 255.232 81.7627 265.909C78.1702 273.091 70.8598 278.352 60.0327 281.546C59.6429 281.661 59.3577 281.949 59.2478 282.336C59.1379 282.718 59.2321 283.121 59.4937 283.417C74.2089 299.939 103.38 296.243 116.75 291.981C119.076 291.241 119.385 290.503 119.409 290.22C119.435 289.921 119.241 289.094 116.897 287.869C116.803 287.822 106.454 282.532 111.421 269.086C115.698 257.501 118.059 256.41 118.681 256.35C118.723 256.344 118.768 256.347 118.809 256.352C122.036 256.763 127.643 257.151 128.956 256.439C129.597 256.093 130.945 254.58 131.233 252.929C131.45 251.693 131.56 245.66 131.591 240.425C131.594 239.891 131.829 239.375 132.235 239.014L136.358 235.336C136.685 235.043 136.743 234.575 136.492 234.219C131.829 227.597 131.314 221.568 131.256 220.427C130.992 215.106 127.334 208.745 126.086 206.719L115.063 219.637C115.05 219.652 115.037 219.666 115.021 219.681C112.781 221.812 109.955 221.665 107.224 221.527C105.065 221.417 102.831 221.301 100.868 222.307C96.933 224.319 91.3887 229.293 86.9302 233.29C83.8035 236.096 81.9118 237.773 80.8443 238.367Z" fill="black"/>
<path d="M136.607 233.491C136.306 233.491 136.052 233.258 136.029 232.955C136.005 232.635 136.246 232.358 136.565 232.334C137.839 232.243 138.815 231.73 139.548 230.764C141.704 227.921 140.992 222.144 140.704 220.349L111.483 224.937C111.169 224.987 110.871 224.772 110.821 224.456C110.772 224.139 110.989 223.843 111.303 223.793L141.086 219.116C141.395 219.066 141.683 219.27 141.743 219.574C141.811 219.904 143.347 227.672 140.471 231.465C139.54 232.693 138.253 233.376 136.649 233.491C136.633 233.488 136.62 233.491 136.607 233.491Z" fill="black"/>
<path d="M111.285 236.985C108.825 236.985 104.963 236.08 102.87 230.931C101.583 227.772 102.004 224.966 103.995 223.432C106.065 221.835 109.249 222.029 111.742 223.901C112.677 224.602 113.904 226.56 114.042 226.782C114.21 227.055 114.126 227.411 113.854 227.581C113.582 227.751 113.226 227.665 113.056 227.395C112.716 226.845 111.69 225.314 111.046 224.83C108.969 223.27 106.36 223.073 104.704 224.353C103.126 225.571 102.849 227.811 103.943 230.499C106.758 237.417 112.954 235.687 113.216 235.611C113.524 235.522 113.843 235.698 113.935 236.004C114.027 236.31 113.851 236.632 113.545 236.724C113.519 236.726 112.603 236.985 111.285 236.985Z" fill="black"/>
<path d="M137.141 185.879C134.404 181.288 131.46 177.346 122.465 175.574C116.306 174.359 106.261 178.909 101.318 184.157C100.905 184.594 100.248 184.61 99.9054 184.175C98.8431 182.835 96.3208 179.804 94.0864 179.537C87.6184 178.767 80.9935 187.151 78.6386 191.462C76.9196 194.611 74.0205 201.731 72.5579 210.004C72.4663 210.523 71.9954 210.905 71.4851 210.858C69.5359 210.672 65.6295 210.68 62.16 213.247C55.9746 217.825 56.6444 224.534 56.7177 225.353C57.5576 234.91 67.2674 241.969 74.6276 245.799C79.6224 248.398 81.4984 248.769 84.4368 249.45C84.6068 249.489 84.7847 249.476 84.9522 249.421C87.553 249.803 91.9696 250 96.8886 248.293C104.707 245.579 104.115 232.604 104.115 232.604L103.132 230.156C102.535 228.675 102.451 227.002 103.056 225.523C104.9 221.011 111.708 224.401 111.962 224.348C124.772 221.686 129.296 217.935 131.622 215.381C139.959 206.225 143.766 196.995 137.141 185.879Z" fill="black"/>
<path d="M138.747 383.413C138.716 383.408 138.684 383.405 138.653 383.4L110.761 381.201C85.1955 379.186 60.5351 370.81 39.0538 356.809C38.8863 356.701 38.7215 356.591 38.5514 356.484C35.184 354.312 31.0657 353.631 27.1776 354.607L23.3889 355.56C21 356.16 18.7917 357.345 16.9994 359.034C16.5834 359.424 16.3165 359.722 16.3165 359.824L19.9142 380.565C35.8931 414.325 60.2552 443.364 97.3779 462.409C105.042 466.34 128.182 473.635 159.224 479.244C159.171 471.745 159.098 461.406 159.098 461.393V408.271C159.098 396.194 150.582 385.797 138.747 383.413Z" fill="black"/>
<path d="M159.224 479.82C159.19 479.82 159.156 479.817 159.122 479.81C129.65 474.486 105.62 467.282 97.1136 462.919C79.3006 453.781 63.5493 441.827 50.2916 427.392C38.172 414.194 27.7767 398.521 19.3909 380.808C19.3673 380.761 19.3516 380.712 19.3438 380.659L15.7461 359.918C15.7409 359.887 15.7383 359.853 15.7383 359.821C15.7383 359.547 15.8613 359.306 16.6043 358.607C18.4463 356.872 20.7462 355.623 23.2502 354.992L27.0389 354.039C31.0657 353.029 35.375 353.738 38.8654 355.992L39.3678 356.319C60.6817 370.213 85.3839 378.615 110.803 380.62L138.823 382.837C138.836 382.84 138.847 382.84 138.86 382.842C150.922 385.274 159.676 395.964 159.676 408.263V461.388L159.802 479.234C159.802 479.407 159.729 479.571 159.595 479.681C159.491 479.773 159.357 479.82 159.224 479.82ZM20.4715 380.384C37.879 417.126 63.845 444.549 97.6421 461.888C104.411 465.361 126.206 472.638 158.64 478.543L158.543 464.78C158.528 462.725 158.52 461.39 158.52 461.388V408.263C158.52 396.519 150.165 386.31 138.65 383.981L138.574 383.97L110.717 381.774C85.1065 379.754 60.2159 371.289 38.7398 357.288L38.2401 356.963C35.0192 354.885 31.0395 354.228 27.3215 355.16L23.5328 356.112C21.2172 356.694 19.0978 357.848 17.3971 359.447C17.1381 359.691 16.9968 359.842 16.9235 359.926L20.4715 380.384Z" fill="white"/>
<path d="M100.376 478.538C58.0076 470.091 39.9904 459.935 27.0127 452.318C18.7315 447.458 13.6503 438.571 13.6503 428.973V365.805C13.6503 359.138 20.8456 354.953 26.6437 358.246C28.7814 359.46 30.8223 360.724 32.7977 362.018C54.1665 375.984 78.7327 384.295 104.186 386.303L132.297 388.52C144.158 390.886 152.696 401.293 152.696 413.383C152.696 413.383 152.476 482.89 151.625 483.458C147.756 486.039 100.376 478.538 100.376 478.538Z" fill="white"/>
<path d="M132.823 474.261C132.779 474.261 132.732 474.255 132.687 474.245C124.519 472.261 116.797 470.112 110.361 468.026C104.502 466.128 99.9236 464.364 97.1135 462.922C92.5373 460.574 88.0474 458.016 83.7721 455.318C56.3042 437.99 34.6868 413.014 19.519 381.086C19.383 380.798 19.5033 380.452 19.7937 380.314C20.0842 380.178 20.4269 380.298 20.5656 380.589C35.6366 412.315 57.1101 437.129 84.3922 454.336C88.6387 457.014 93.0972 459.556 97.6447 461.888C100.361 463.28 105.002 465.068 110.719 466.921C117.13 468.997 124.819 471.141 132.962 473.117C133.273 473.193 133.464 473.504 133.388 473.816C133.32 474.083 133.082 474.261 132.823 474.261Z" fill="black"/>
<path d="M408.441 348.53C440.299 348.53 466.124 322.518 466.124 290.432C466.124 258.345 440.299 232.334 408.441 232.334C376.584 232.334 350.758 258.345 350.758 290.432C350.758 322.518 376.584 348.53 408.441 348.53Z" fill="white"/>
<path d="M393.187 237.012C392.949 237.362 393.655 238.54 395.055 238.54C396.458 238.54 397.156 238.305 397.74 239.833C398.323 241.362 397.507 246.537 398.323 248.419C399.14 250.301 400.542 251.476 401.594 250.418C402.646 249.361 402.528 246.537 403.813 245.833C405.097 245.126 409.768 242.304 410.001 239.954C410.234 237.601 408.598 235.836 404.514 235.368C400.427 234.894 394.938 234.423 393.187 237.012Z" fill="black"/>
<path d="M378.098 289.702C377.551 290.008 377.224 290.597 377.253 291.225C377.337 293.199 376.593 298.112 375.034 299.682C373.048 301.682 373.781 305.283 373.749 306.739C373.687 309.691 373.969 311.005 377.122 312.419C380.275 313.83 381.51 313.911 381.743 316.732C381.976 319.554 382.339 330.458 383.273 333.28C384.207 336.102 386.193 340.69 387.243 341.748C388.294 342.805 390.746 343.394 389.228 339.395C387.711 335.395 386.777 333.516 388.527 331.28C390.278 329.045 393.198 323.87 393.431 321.873C393.663 319.873 394.715 318.698 395.649 318.463C396.583 318.227 398.569 317.523 399.153 316.816C399.736 316.109 398.569 314.112 398.219 312.348C397.868 310.584 397.868 309.526 400.788 308.116C403.708 306.705 402.306 302.705 398.336 301.648C394.367 300.59 391.916 298.355 392.381 296.12C392.85 293.884 389.697 294.12 387.829 293.062C385.96 292.005 386.015 290.343 383.938 289.55C381.125 288.477 379.152 289.11 378.098 289.702Z" fill="black"/>
<path d="M450.441 287.236C449.457 285.749 449.58 283.396 452.04 280.174C453.971 277.643 451.2 275.114 449.92 274.146C449.685 273.968 449.792 273.599 450.083 273.565C451.668 273.384 455.342 273.921 456.959 282.155C459.049 292.809 459.91 289.092 461.017 287.854C462.124 286.616 460.054 284.302 462.124 281.907C463.429 280.399 464.091 278.198 464.429 276.402C460.269 259.504 448.769 245.526 433.531 238.1C433.554 239.956 433.109 246.416 425.595 243.752C425.595 243.752 420.922 241.522 422.029 250.565C423.135 259.608 426.948 249.945 427.686 249.573C428.423 249.201 430.391 248.707 429.53 254.776C429.53 254.776 429.407 256.884 425.595 256.512C421.783 256.14 421.045 257.999 421.045 258.991C421.045 259.983 421.414 262.582 419.323 264.44C417.233 266.299 417.848 271.131 420.676 269.518C423.504 267.908 425.472 262.828 428.054 262.333C430.637 261.838 432.973 265.184 435.433 264.315C437.892 263.448 436.786 259.237 438.015 259.237C439.245 259.237 441.828 261.715 441.459 263.571C441.09 265.43 437.278 266.296 438.261 268.526C439.245 270.756 441.336 270.013 441.951 271.5C442.565 272.986 438.876 274.719 435.925 272.863C432.973 271.005 432.482 273.73 431.006 272.492C429.53 271.254 429.407 268.652 427.317 269.518C425.226 270.385 423.996 272.12 421.291 273.358C418.585 274.596 416.372 276.208 416.372 277.941C416.372 279.677 417.356 281.532 416.864 284.26C416.372 286.985 415.511 294.418 424.365 292.932C433.222 291.445 432.113 296.028 432.113 296.523C432.113 297.017 431.99 303.459 432.85 304.574C433.711 305.689 435.679 308.909 432.85 313.12C430.022 317.332 431.129 326.747 433.711 325.509C436.294 324.271 438.876 319.439 442.074 316.963C445.271 314.484 449.701 303.708 447.853 300.363C446.009 297.017 450.436 294.293 451.051 292.063C451.671 289.838 451.425 288.723 450.441 287.236Z" fill="black"/>
<path d="M366.795 250.235C366.842 252.298 366.478 254.544 365.28 256.648C361.661 262.998 361.776 266.173 361.426 272.523C361.075 278.873 369.042 290.068 371.028 291.243C373.014 292.419 373.32 289.623 373.32 287.388C373.32 285.152 372.472 282.472 371.306 279.886C370.139 277.3 370.139 275.651 370.489 274.593C370.84 273.536 372.24 273.183 373.174 274.24C374.108 275.298 376.353 276.237 377.431 275.575C378.757 274.761 378.242 271.578 378.708 270.521C379.176 269.463 381.743 268.756 382.794 266.521C383.846 264.286 385.597 263.346 387.698 262.289C389.799 261.231 391.667 260.76 392.018 260.053C392.368 259.347 391.9 257.7 392.483 255.818C393.067 253.936 394.469 251.701 393.886 250.761C393.302 249.822 391.549 248.293 388.281 250.643C385.011 252.997 384.194 252.997 383.26 251.232C382.326 249.468 384.312 244.882 388.399 244.882C392.486 244.882 393.302 243.472 393.42 242.414C393.538 241.357 392.253 240.179 390.851 239.943C389.448 239.708 389.215 240.532 383.378 242.883C379.482 244.453 376.054 244.084 374.207 243.665C371.554 245.647 369.074 247.843 366.795 250.235Z" fill="black"/>
<path d="M455.951 316.892C455.855 319.525 453.434 322.062 451.982 322.938C450.53 323.815 448.303 325.182 448.303 327.425C448.303 328.87 448.264 330.715 448.599 332.136C456.286 324.627 457.806 323.174 462.207 311.848C461.98 310.409 456.048 314.259 455.951 316.892Z" fill="black"/>
<path d="M408.441 349.108C376.316 349.108 350.177 322.787 350.177 290.432C350.177 258.077 376.313 231.756 408.441 231.756C440.569 231.756 466.705 258.077 466.705 290.432C466.705 322.787 440.569 349.108 408.441 349.108ZM408.441 232.915C376.954 232.915 351.336 258.718 351.336 290.432C351.336 322.145 376.954 347.949 408.441 347.949C439.928 347.949 465.546 322.145 465.546 290.432C465.546 258.718 439.931 232.915 408.441 232.915Z" fill="black"/>
<path d="M370.78 345.611C369.487 347.511 370.052 350.108 372.015 351.304C382.648 357.772 395.113 361.494 408.441 361.494C447.409 361.494 479 329.678 479 290.432C479 267.542 468.254 247.178 451.566 234.182C449.748 232.766 447.113 233.174 445.802 235.072C444.593 236.823 444.965 239.208 446.645 240.514C461.47 252.039 471.017 270.112 471.017 290.432C471.017 325.239 443.002 353.456 408.441 353.456C396.636 353.456 385.597 350.163 376.175 344.441C374.351 343.331 371.981 343.844 370.78 345.611Z" fill="black"/>
<path d="M412.479 357.183H404.553V383.824H412.479V357.183Z" fill="black"/>
<path d="M408.488 388.978C421.943 388.978 432.851 385.722 432.851 381.706C432.851 377.69 421.943 374.435 408.488 374.435C395.034 374.435 384.126 377.69 384.126 381.706C384.126 385.722 395.034 388.978 408.488 388.978Z" fill="black"/>
<path d="M298.858 99.5857L250.832 91.872L275.294 27.0578L323.319 34.7715L298.858 99.5857Z" fill="black"/>
<path d="M244.338 89.8304L205.792 74.4081L228.561 13.9808L266.874 30.0705L244.338 89.8304Z" fill="black"/>
<path d="M250.924 91.8929C248.681 92.9164 245.518 91.995 244.338 89.8304L267.018 29.2355C268.119 31.4526 271.262 32.4681 273.546 31.5154L250.924 91.8929Z" fill="black"/>
<path d="M252.093 88.6577C249.851 89.6812 246.688 88.7598 245.508 86.5951L267.952 26.6704C269.053 28.8874 272.196 29.903 274.48 28.9502L252.093 88.6577Z" fill="black"/>
<path d="M250.099 89.6524C248.043 89.6524 245.939 88.6001 245 86.8726C244.919 86.726 244.908 86.5506 244.966 86.391L267.41 26.4662C267.491 26.249 267.693 26.1024 267.923 26.0919C268.166 26.0789 268.368 26.2071 268.472 26.4139C269.409 28.2959 272.222 29.2696 274.257 28.4163C274.472 28.3273 274.715 28.3744 274.883 28.5341C275.05 28.6937 275.105 28.9372 275.024 29.1544L252.637 88.8619C252.582 89.0059 252.475 89.121 252.337 89.1865C251.638 89.5032 250.871 89.6524 250.099 89.6524ZM252.093 88.6577H252.098H252.093ZM246.149 86.5376C247.211 88.1683 249.744 88.9456 251.638 88.2206L273.538 29.814C271.565 30.1307 269.383 29.369 268.103 27.919L246.149 86.5376Z" fill="black"/>
<path d="M209.076 72.3325L245.471 86.9537L248.014 84.7969L268.533 30.026L264.221 28.3299L230.646 10.1043L207.971 64.0272L209.076 72.3325Z" fill="white"/>
<path d="M245.471 87.5322C245.398 87.5322 245.324 87.5191 245.254 87.4903L208.858 72.8691C208.665 72.7905 208.529 72.6152 208.5 72.4084L207.396 64.1031C207.383 64.001 207.396 63.8963 207.435 63.8021L230.112 9.87924C230.175 9.72743 230.3 9.61226 230.455 9.55729C230.609 9.50232 230.779 9.51541 230.923 9.59394L264.467 27.8038L268.745 29.4868C269.038 29.602 269.187 29.9318 269.074 30.2302L248.556 85.0011C248.522 85.0927 248.464 85.1765 248.388 85.2393L245.845 87.3935C245.74 87.4851 245.607 87.5322 245.471 87.5322ZM209.607 71.9215L245.366 86.2863L247.527 84.454L267.792 30.3585L264.011 28.8717C263.99 28.8639 263.967 28.8534 263.948 28.8429L230.934 10.9184L208.568 64.1057L209.607 71.9215Z" fill="black"/>
<path d="M208.018 63.8021C207.943 64.0036 208.045 64.2287 208.246 64.2994C211.417 65.4223 234.283 73.6464 242.368 80.2085L248.017 84.7943L269.443 27.6022L264.924 23.7912C257.758 17.7448 237.742 10.0782 231.318 7.70935C230.206 7.2984 228.974 7.86639 228.558 8.97621L208.018 63.8021Z" fill="white"/>
<path d="M248.014 85.378C247.883 85.378 247.752 85.3335 247.65 85.2498L242.001 80.6639C233.945 74.1202 210.679 65.7783 208.052 64.8465C207.807 64.7601 207.613 64.5821 207.503 64.3465C207.393 64.1109 207.383 63.844 207.474 63.5979L228.014 8.77466C228.54 7.36907 230.112 6.64926 231.517 7.16753C237.603 9.41333 258.025 17.2161 265.296 23.3514L269.815 27.1625C270.003 27.3196 270.068 27.5787 269.985 27.809L248.556 85.0011C248.49 85.1765 248.344 85.3073 248.166 85.3571C248.116 85.3702 248.066 85.378 248.014 85.378ZM208.628 63.823C212.043 65.0375 234.694 73.2355 242.731 79.7635L247.755 83.8416L268.755 27.7855L264.55 24.2362C257.423 18.2238 237.158 10.4839 231.117 8.2564C230.308 7.95801 229.403 8.37419 229.099 9.18299L208.628 63.823Z" fill="black"/>
<path d="M248.014 84.7969L252.425 88.5818L296.511 95.8218L318.29 36.6875L315.116 31.2091C315.033 31.0626 314.87 30.9814 314.703 30.9997C312.903 31.2144 302.701 32.3556 298.468 31.2484C291.974 29.5497 285.145 29.5968 278.577 30.9814L270.147 32.7587L248.014 84.7969Z" fill="white"/>
<path d="M296.511 96.4003C296.479 96.4003 296.448 96.3976 296.416 96.3924L252.331 89.1524C252.227 89.1341 252.13 89.0896 252.049 89.0216L247.637 85.2367C247.446 85.0718 247.383 84.8022 247.483 84.5692L269.613 32.5284C269.686 32.353 269.841 32.2273 270.027 32.1881L278.457 30.4108C285.377 28.9529 292.348 29.0471 298.614 30.6856C302.808 31.7824 313.437 30.5652 314.635 30.4213C315.035 30.3742 315.417 30.5679 315.619 30.9134L318.793 36.3918C318.879 36.541 318.895 36.7216 318.834 36.8839L297.057 96.0181C296.968 96.2511 296.749 96.4003 296.511 96.4003ZM252.679 88.0374L296.131 95.1727L317.649 36.7425L314.664 31.5887C312.448 31.8504 302.557 32.9184 298.319 31.8112C292.225 30.2171 285.44 30.1281 278.692 31.5494L270.558 33.2639L248.713 84.6347L252.679 88.0374Z" fill="black"/>
<path d="M267.994 82.1533C270.861 82.2842 273.718 82.682 276.529 83.3469C285.775 85.5377 293.672 87.9353 293.672 87.9353L314.886 31.306C315.001 31.0024 314.837 30.6647 314.523 30.5705C312.542 29.9815 305.676 27.9765 297.85 26.1181C291.21 24.5424 284.3 24.4691 277.62 25.8773L269.435 27.6022L248.009 84.7943L256.594 83.0432C260.351 82.2763 264.181 81.9779 267.994 82.1533Z" fill="white"/>
<path d="M293.669 88.5138C293.614 88.5138 293.557 88.5059 293.502 88.4876C293.499 88.4876 292.191 88.0897 290.019 87.472C281.748 85.1189 273.169 83.9227 264.524 83.9148L257.666 83.9096C257.347 83.9096 257.088 83.6505 257.088 83.3285C257.088 83.0092 257.347 82.7501 257.666 82.7501L264.527 82.7553C273.279 82.7631 281.963 83.9724 290.338 86.3569C291.715 86.7496 292.746 87.0506 293.321 87.2233L314.345 31.1018C312.437 30.5548 305.553 28.5419 297.73 26.6861C291.225 25.1444 284.315 25.0607 277.74 26.4453L269.867 28.1048L248.553 84.9985C248.441 85.2995 248.106 85.4487 247.807 85.3387C247.506 85.2262 247.357 84.8938 247.467 84.5928L268.894 27.4007C268.964 27.2149 269.124 27.0787 269.318 27.0369L277.502 25.3119C284.242 23.8906 291.33 23.977 297.997 25.558C305.851 27.4216 312.762 29.4397 314.693 30.0156C314.993 30.1046 315.245 30.3166 315.386 30.5966C315.527 30.8793 315.543 31.2118 315.433 31.5075L294.219 88.1368C294.124 88.3672 293.905 88.5138 293.669 88.5138Z" fill="black"/>
<path d="M304.331 37.6037C304.279 37.6037 304.227 37.5958 304.172 37.5801L302.858 37.2032C300.441 36.5069 298.693 36.0044 293.957 34.8815C287.46 33.3398 280.553 33.2586 273.98 34.6433C273.669 34.7087 273.36 34.5098 273.295 34.1957C273.229 33.8816 273.428 33.5753 273.742 33.5099C280.48 32.0886 287.565 32.175 294.227 33.7533C298.989 34.8841 300.747 35.3893 303.18 36.0907L304.491 36.4677C304.8 36.5567 304.978 36.876 304.889 37.1849C304.815 37.4388 304.583 37.6037 304.331 37.6037Z" fill="black"/>
<path d="M302.544 44.786C302.492 44.786 302.437 44.7782 302.385 44.7625C299.295 43.8804 297.094 43.2967 291.461 41.9618C284.964 40.4201 278.057 40.3389 271.484 41.7236C271.173 41.789 270.864 41.5901 270.798 41.276C270.733 40.9619 270.932 40.6556 271.246 40.5902C277.983 39.1689 285.069 39.2553 291.728 40.8336C297.382 42.1738 299.593 42.7627 302.701 43.6474C303.01 43.7364 303.188 44.0558 303.099 44.3646C303.028 44.6185 302.795 44.786 302.544 44.786Z" fill="black"/>
<path d="M298.954 51.4135C298.902 51.4135 298.847 51.4057 298.795 51.39C296.351 50.6937 294.951 50.3639 291.887 49.6441C290.979 49.4321 289.928 49.1834 288.659 48.8824C285.226 48.0684 281.694 47.6548 278.153 47.6548C277.818 47.6574 277.565 47.3983 277.565 47.0763C277.565 46.7518 277.837 46.4979 278.153 46.4979C281.782 46.4979 285.406 46.9219 288.925 47.7569C290.192 48.0579 291.244 48.3039 292.152 48.516C295.234 49.2384 296.642 49.5708 299.111 50.2749C299.42 50.3639 299.598 50.6832 299.509 50.9921C299.439 51.2486 299.206 51.4135 298.954 51.4135Z" fill="black"/>
<path d="M297.196 58.8655C297.144 58.8655 297.089 58.8576 297.037 58.8419C296.32 58.6378 295.645 58.4388 294.964 58.2399C292.636 57.5567 290.229 56.85 285.924 55.8292C279.428 54.2875 272.52 54.2064 265.948 55.591C265.636 55.6565 265.327 55.4575 265.262 55.1434C265.197 54.8293 265.396 54.5231 265.71 54.4576C272.45 53.0364 279.532 53.1227 286.194 54.7011C290.527 55.7297 292.95 56.4391 295.291 57.1275C295.969 57.3264 296.644 57.5253 297.356 57.7269C297.665 57.8159 297.843 58.1352 297.754 58.4441C297.68 58.698 297.447 58.8655 297.196 58.8655Z" fill="black"/>
<path d="M291.152 63.8623C291.102 63.8623 291.053 63.857 291.003 63.844C288.339 63.1372 285.739 62.4829 283.269 61.8965C276.772 60.3548 269.864 60.2737 263.292 61.6584C262.98 61.7238 262.672 61.5249 262.606 61.2108C262.541 60.8967 262.74 60.5904 263.054 60.525C269.791 59.1037 276.877 59.1901 283.536 60.7684C286.016 61.3573 288.627 62.0143 291.301 62.7237C291.61 62.8048 291.796 63.1241 291.712 63.433C291.644 63.6921 291.409 63.8623 291.152 63.8623Z" fill="black"/>
<path d="M280.304 68.2335C280.265 68.2335 280.223 68.2282 280.184 68.2204C273.909 66.8802 267.525 66.8776 261.209 68.2073C260.898 68.2727 260.589 68.0738 260.524 67.7597C260.458 67.4456 260.657 67.1394 260.971 67.0739C267.447 65.7102 273.991 65.7128 280.427 67.087C280.741 67.1551 280.94 67.4613 280.872 67.7754C280.812 68.045 280.571 68.2335 280.304 68.2335Z" fill="black"/>
<path d="M287.981 77.9967C287.929 77.9967 287.874 77.9889 287.821 77.9731C284.88 77.1329 283.491 76.8031 278.886 75.7116L277.751 75.442C271.254 73.9003 264.346 73.8192 257.774 75.2039C257.462 75.2693 257.154 75.0704 257.088 74.7563C257.023 74.4422 257.222 74.1359 257.536 74.0705C264.273 72.6492 271.358 72.7356 278.02 74.3139L279.156 74.5835C283.779 75.6802 285.176 76.01 288.143 76.8581C288.452 76.9471 288.63 77.2664 288.541 77.5753C288.462 77.8292 288.232 77.9967 287.981 77.9967Z" fill="black"/>
<path d="M248.043 25.2727C247.944 25.2727 247.844 25.2465 247.753 25.1942C242.022 21.8726 236.112 19.2394 232.791 17.9934C232.493 17.8809 232.341 17.5459 232.451 17.2475C232.564 16.9491 232.896 16.7973 233.197 16.9072C236.559 18.1688 242.54 20.8308 248.331 24.189C248.608 24.3487 248.702 24.7047 248.543 24.9821C248.435 25.168 248.242 25.2727 248.043 25.2727Z" fill="black"/>
<path d="M256.13 43.5558C255.96 43.5558 255.79 43.4799 255.678 43.336C251.536 38.1298 244.647 34.4653 238.511 31.4395C238.223 31.2981 238.105 30.95 238.247 30.6647C238.388 30.3768 238.736 30.259 239.021 30.4003C245.269 33.4811 252.292 37.2215 256.583 42.6135C256.782 42.8648 256.74 43.2286 256.492 43.4276C256.384 43.5139 256.256 43.5558 256.13 43.5558Z" fill="black"/>
<path d="M252.729 53.3007C252.585 53.3007 252.439 53.2458 252.326 53.1384C246.957 47.9558 242.015 45.3174 236.109 42.4041C232.14 40.4462 229.835 39.4568 227.603 38.4988C226.951 38.2188 226.305 37.9413 225.625 37.6429C225.332 37.5147 225.198 37.1718 225.327 36.8786C225.455 36.5855 225.798 36.452 226.091 36.5802C226.768 36.8786 227.412 37.1534 228.061 37.4309C230.306 38.3941 232.627 39.3914 236.622 41.3624C242.619 44.3201 247.64 47.0057 253.129 52.3035C253.36 52.5259 253.367 52.8924 253.145 53.1227C253.033 53.2431 252.881 53.3007 252.729 53.3007Z" fill="black"/>
<path d="M250.654 60.2842C250.508 60.2842 250.361 60.2292 250.249 60.1193C245.628 55.5779 241.585 53.62 236.465 51.1439C235.722 50.7853 234.96 50.4162 234.176 50.0289C231.897 48.9033 229.474 47.749 226.975 46.5973C226.685 46.4638 226.556 46.1183 226.692 45.8278C226.826 45.5373 227.171 45.409 227.462 45.5451C229.968 46.6994 232.402 47.859 234.691 48.9897C235.473 49.3745 236.232 49.7436 236.973 50.1021C241.98 52.5259 246.306 54.6199 251.062 59.2948C251.29 59.5199 251.293 59.8863 251.07 60.114C250.952 60.2266 250.803 60.2842 250.654 60.2842Z" fill="black"/>
<path d="M248.106 66.8907C247.957 66.8907 247.81 66.8331 247.695 66.7206C243.671 62.6949 239.236 60.4752 234.542 58.1274C233.503 57.6065 232.456 57.083 231.41 56.5385C231.127 56.3894 231.017 56.0412 231.164 55.7559C231.313 55.4732 231.664 55.3633 231.946 55.5099C232.988 56.0517 234.026 56.5726 235.06 57.0908C239.84 59.4832 244.356 61.7421 248.514 65.9013C248.739 66.1264 248.739 66.4955 248.514 66.7206C248.401 66.8357 248.255 66.8907 248.106 66.8907Z" fill="black"/>
<path d="M245.908 74.2877C245.738 74.2877 245.568 74.2118 245.455 74.0679C241.141 68.6444 225.816 62.1347 218.95 60.012C218.644 59.9177 218.474 59.5932 218.568 59.2869C218.662 58.9807 218.987 58.8105 219.293 58.9048C226.274 61.0642 241.889 67.7257 246.361 73.3454C246.559 73.5967 246.517 73.9605 246.269 74.1595C246.162 74.2458 246.033 74.2877 245.908 74.2877Z" fill="black"/>
<path d="M296.511 96.4003C296.275 96.4003 296.055 96.2563 295.969 96.0233L293.086 88.3305C292.973 88.0322 293.125 87.6971 293.426 87.5846C293.721 87.472 294.059 87.6238 294.172 87.9248L297.055 95.6176C297.167 95.916 297.016 96.2511 296.715 96.3636C296.647 96.3872 296.579 96.4003 296.511 96.4003Z" fill="black"/>
<path d="M380.228 160.4C380.945 165.324 386.764 196.731 420.2 211.376C420.32 211.428 420.454 211.441 420.582 211.405C423.4 210.643 455.923 200.992 475.999 156.812C476.156 156.469 475.954 156.066 475.588 155.995C470.975 155.1 445.407 149.643 434.857 136.864C434.609 136.563 434.148 136.579 433.931 136.903C431.417 140.67 417.298 159.037 380.795 159.736C380.445 159.741 380.178 160.052 380.228 160.4Z" fill="white"/>
<path d="M420.435 212.004C420.276 212.004 420.116 211.97 419.967 211.907C386.591 197.289 380.529 166.507 379.655 160.487C379.608 160.157 379.702 159.825 379.916 159.571C380.134 159.317 380.45 159.165 380.785 159.16C417.021 158.466 431.011 140.233 433.45 136.584C433.654 136.278 433.981 136.092 434.347 136.073C434.716 136.058 435.067 136.21 435.305 136.498C445.684 149.069 470.776 154.474 475.701 155.43C476.049 155.498 476.342 155.718 476.504 156.034C476.669 156.356 476.679 156.728 476.527 157.058C456.477 201.183 424.331 210.996 420.734 211.97C420.634 211.991 420.535 212.004 420.435 212.004ZM434.41 137.23C431.919 140.955 417.617 159.61 380.806 160.314L380.801 160.317C381.164 162.822 382.794 171.784 388.449 181.961C395.702 195.009 406.461 204.725 420.433 210.845C423.975 209.887 455.64 200.212 475.473 156.571C470.486 155.592 445.041 150.106 434.41 137.23Z" fill="black"/>
<path d="M463.851 161.319C463.809 161.319 463.767 161.314 463.725 161.306C447.851 157.796 433.225 146.795 433.078 146.682C432.824 146.488 432.772 146.125 432.966 145.871C433.159 145.617 433.52 145.565 433.777 145.758C433.921 145.868 448.351 156.72 463.974 160.173C464.285 160.241 464.484 160.552 464.413 160.864C464.356 161.136 464.115 161.319 463.851 161.319Z" fill="black"/>
<path d="M459.855 170.035C459.806 170.035 459.758 170.03 459.709 170.017C452.338 168.098 445.02 164.499 437.955 159.319C437.696 159.131 437.641 158.767 437.83 158.511C438.018 158.251 438.382 158.196 438.638 158.385C445.585 163.479 452.772 167.015 459.999 168.897C460.308 168.978 460.494 169.295 460.413 169.603C460.347 169.863 460.112 170.035 459.855 170.035Z" fill="black"/>
<path d="M433.546 155.655C433.413 155.655 433.28 155.608 433.17 155.514C429.951 152.744 428.164 150.747 428.088 150.663C427.876 150.425 427.897 150.059 428.136 149.847C428.374 149.635 428.74 149.653 428.955 149.894C428.973 149.915 430.77 151.92 433.926 154.637C434.169 154.846 434.195 155.21 433.986 155.453C433.871 155.587 433.709 155.655 433.546 155.655Z" fill="black"/>
<path d="M452.867 178.173C452.791 178.173 452.712 178.157 452.636 178.126C432.673 169.507 422.68 154.977 422.581 154.83C422.4 154.566 422.471 154.205 422.735 154.027C423.002 153.846 423.36 153.917 423.538 154.181C423.635 154.325 433.455 168.585 453.094 177.063C453.387 177.189 453.523 177.532 453.395 177.825C453.304 178.042 453.089 178.173 452.867 178.173Z" fill="black"/>
<path d="M446.464 185.481C446.372 185.481 446.278 185.46 446.192 185.413C425.477 174.386 416.469 157.945 416.38 157.78C416.228 157.498 416.333 157.147 416.615 156.995C416.895 156.843 417.248 156.948 417.4 157.231C417.487 157.393 426.346 173.535 446.736 184.39C447.019 184.539 447.126 184.89 446.974 185.172C446.872 185.369 446.671 185.481 446.464 185.481Z" fill="black"/>
<path d="M438.233 192.226C438.141 192.226 438.049 192.205 437.966 192.161C434.258 190.224 430.671 187.756 427.301 184.822C427.06 184.612 427.034 184.246 427.243 184.005C427.453 183.764 427.819 183.738 428.06 183.947C431.362 186.821 434.873 189.24 438.499 191.132C438.782 191.282 438.892 191.63 438.745 191.915C438.643 192.114 438.442 192.226 438.233 192.226Z" fill="black"/>
<path d="M422.507 179.916C422.35 179.916 422.196 179.854 422.081 179.728C413.598 170.491 409.522 160.945 409.483 160.848C409.36 160.552 409.496 160.215 409.791 160.089C410.087 159.963 410.425 160.102 410.55 160.398C410.589 160.492 414.595 169.86 422.934 178.943C423.151 179.178 423.135 179.545 422.9 179.762C422.79 179.864 422.649 179.916 422.507 179.916Z" fill="black"/>
<path d="M419.37 198.118C419.368 198.118 419.365 198.118 419.363 198.118C419.043 198.113 418.787 197.849 418.792 197.529L418.855 193.347C418.858 193.203 418.803 193.072 418.698 192.975C418.598 192.881 418.468 192.836 418.332 192.847L412.481 193.331C411.921 193.378 411.387 193.14 411.045 192.695C410.699 192.245 410.608 191.658 410.799 191.124L411.084 190.331C411.176 190.075 411.047 189.892 410.987 189.826C410.93 189.761 410.767 189.619 410.514 189.682C409.752 189.871 409.006 189.525 408.653 188.826C408.295 188.117 408.467 187.3 409.08 186.795L410.221 185.853C410.477 185.641 410.401 185.366 410.372 185.287C410.343 185.212 410.231 184.968 409.92 184.968C409.917 184.968 409.914 184.968 409.912 184.968L403.8 185.049C403.797 185.049 403.794 185.049 403.792 185.049C403.475 185.049 403.216 184.795 403.214 184.479C403.208 184.159 403.465 183.895 403.784 183.892L409.896 183.811C409.904 183.811 409.912 183.811 409.92 183.811C410.616 183.811 411.217 184.233 411.461 184.89C411.707 185.562 411.51 186.29 410.958 186.748L409.82 187.69C409.53 187.929 409.648 188.224 409.689 188.308C409.731 188.389 409.888 188.646 410.236 188.559C410.822 188.413 411.44 188.601 411.848 189.051C412.256 189.504 412.384 190.146 412.178 190.724L411.892 191.517C411.809 191.75 411.916 191.928 411.966 191.993C412.013 192.056 412.146 192.2 412.387 192.182L418.237 191.698C418.695 191.661 419.153 191.818 419.491 192.135C419.831 192.452 420.022 192.902 420.014 193.37L419.951 197.553C419.943 197.865 419.687 198.118 419.37 198.118Z" fill="black"/>
<path d="M409.833 71.097C411.678 72.5314 413.57 73.903 415.508 75.2065L416.715 76.0179C418.086 77.1748 418.253 79.2269 417.091 80.5906L410.132 88.8017L414.606 92.173C416.613 94.0236 416.293 97.2823 413.965 98.7089L412.259 99.4077C404.312 102.667 396.984 107.265 390.592 113.006C388.985 113.987 386.934 113.848 385.474 112.655L376.122 106.606C367.857 101.261 360.204 95.0208 353.304 88.0007L346.991 81.5774C345.68 80.5173 345.478 78.6092 346.504 77.3004L351.371 70.194C357.773 60.6271 365.311 51.8716 373.823 44.1212C374.966 42.7261 377.03 42.5376 378.407 43.6998L386.136 51.5418C389.257 54.7089 392.583 57.6667 396.091 60.3967L409.833 71.097Z" fill="white"/>
<path d="M388.281 114.236C387.161 114.236 386.047 113.862 385.134 113.126L375.806 107.095C367.519 101.737 359.809 95.4501 352.891 88.4091L346.601 82.0093C345.08 80.7582 344.832 78.494 346.051 76.9471L350.894 69.8694C357.305 60.2894 364.879 51.4894 373.404 43.7233C374.055 42.9486 374.966 42.4722 375.976 42.378C376.999 42.2837 377.996 42.5978 378.783 43.26L386.552 51.1387C389.642 54.2744 392.973 57.2374 396.45 59.9413L410.192 70.6363C412.018 72.0576 413.915 73.4318 415.833 74.7222L417.039 75.5336C417.055 75.5441 417.073 75.5572 417.089 75.5703C417.871 76.2299 418.347 77.1539 418.431 78.1747C418.515 79.1955 418.196 80.1849 417.531 80.9623L410.969 88.7048L414.954 91.7071C416.089 92.7515 416.633 94.1754 416.487 95.6543C416.34 97.1332 415.532 98.4236 414.266 99.1983C414.239 99.214 414.211 99.2271 414.182 99.2402L412.476 99.9391C404.569 103.182 397.337 107.721 390.976 113.432C390.95 113.456 390.921 113.477 390.892 113.495C390.089 113.995 389.181 114.236 388.281 114.236ZM376.332 43.5218C376.248 43.5218 376.164 43.5244 376.081 43.5323C375.369 43.5977 374.725 43.938 374.273 44.4929C374.254 44.5138 374.236 44.5348 374.215 44.5531C365.748 52.2642 358.223 60.9987 351.855 70.5185L346.985 77.6303C346.127 78.7217 346.305 80.2792 347.357 81.1272C347.375 81.1403 347.391 81.156 347.406 81.1717L353.717 87.595C360.575 94.5732 368.221 100.805 376.436 106.119L385.79 112.168C385.809 112.178 385.827 112.192 385.843 112.207C387.096 113.231 388.859 113.362 390.246 112.537C396.696 106.755 404.027 102.156 412.039 98.8712L413.7 98.1906C414.632 97.6043 415.228 96.6437 415.336 95.5443C415.446 94.4319 415.035 93.3587 414.213 92.5997L409.781 89.265C409.653 89.1681 409.572 89.0242 409.553 88.8671C409.535 88.7075 409.585 88.5504 409.687 88.4274L416.647 80.2163C417.11 79.6719 417.332 78.9835 417.275 78.2742C417.217 77.5753 416.892 76.9392 416.361 76.4812L415.184 75.6881C413.245 74.382 411.325 72.9921 409.477 71.5551L395.736 60.86C392.219 58.1221 388.852 55.1277 385.725 51.9553L377.996 44.1133C377.548 43.7364 376.954 43.5218 376.332 43.5218Z" fill="black"/>
<path d="M410.131 89.3828C410.011 89.3828 409.888 89.3461 409.783 89.265L404.796 85.5063C397.821 80.253 391.455 74.183 385.871 67.4692L382.297 63.1713C381.3 62.2682 380.188 62.14 378.21 62.6923L373.982 64.0691C367.37 66.2206 361.096 69.2831 355.334 73.1753L346.37 79.7138C346.111 79.9022 345.75 79.8447 345.562 79.5881C345.373 79.329 345.431 78.9678 345.687 78.7793L354.67 72.2304C360.539 68.2675 366.91 65.1553 373.624 62.9723L377.875 61.5903C379.644 61.0956 381.484 60.8522 383.111 62.352C383.129 62.3703 383.148 62.3886 383.163 62.407L386.764 66.7363C392.29 73.3821 398.593 79.3866 405.495 84.5875L410.482 88.3462C410.738 88.5399 410.788 88.9012 410.597 89.1577C410.479 89.3016 410.307 89.3828 410.131 89.3828Z" fill="black"/>
<path d="M419.357 40.8991L412.994 35.4285C411.448 34.1015 409.15 34.1538 407.669 35.5542L404.462 38.5852C399.694 43.0925 395.66 48.317 392.509 54.0729L388.572 61.2631C388.163 62.0091 388.307 62.9357 388.925 63.5194C391.8 66.2311 399.472 75.1018 406.361 79.1536C407.533 79.842 409.043 79.4232 409.723 78.2454L414.286 70.3275C416.961 65.684 420.218 61.4018 423.981 57.5855L428.211 53.2929C429.923 51.5575 429.674 48.7044 427.693 47.2857L425.605 45.7938C423.447 44.2573 421.364 42.624 419.357 40.8991Z" fill="white"/>
<path d="M407.578 80.0698C407.049 80.0698 406.531 79.931 406.065 79.6562C400.681 76.489 394.951 70.5447 391.157 66.6133C390.092 65.5087 389.171 64.5533 388.525 63.9434C387.716 63.1791 387.525 61.9646 388.059 60.9857L391.997 53.7954C395.181 47.9794 399.239 42.7208 404.061 38.1664L407.269 35.1354C408.972 33.5256 411.594 33.4654 413.368 34.9914L419.734 40.4619C421.72 42.1685 423.805 43.8045 425.935 45.3279L428.023 46.8198C429.106 47.5946 429.792 48.7986 429.907 50.1231C430.022 51.4502 429.551 52.7537 428.617 53.7038L424.386 57.9965C420.663 61.7761 417.432 66.0243 414.784 70.6206L410.22 78.5385C409.81 79.2505 409.148 79.7583 408.352 79.9677C408.098 80.0357 407.837 80.0698 407.578 80.0698ZM410.398 35.0464C409.558 35.0464 408.719 35.3578 408.064 35.9782L404.857 39.0092C400.126 43.4825 396.141 48.6442 393.014 54.3529L389.077 61.5432C388.794 62.0588 388.893 62.7001 389.32 63.1006C389.987 63.7288 390.916 64.692 391.991 65.8097C395.738 69.6967 401.403 75.5703 406.652 78.6589C407.078 78.9102 407.575 78.9756 408.059 78.85C408.551 78.7191 408.965 78.405 409.218 77.9627L413.781 70.0448C416.479 65.3621 419.771 61.0354 423.565 57.1851L427.795 52.8924C428.491 52.1857 428.842 51.2146 428.756 50.2252C428.669 49.2384 428.159 48.3406 427.353 47.7647L425.265 46.2728C423.107 44.7311 420.993 43.0716 418.983 41.344L412.617 35.8735C411.974 35.3186 411.186 35.0464 410.398 35.0464Z" fill="black"/>
<path d="M423.975 58.1666C423.855 58.1666 423.732 58.13 423.627 58.0514L418.69 54.3477C417.732 53.6279 417.123 52.5783 416.974 51.3899C416.825 50.2016 417.159 49.0342 417.91 48.0998L421.545 43.5977C421.746 43.349 422.11 43.3098 422.358 43.5113C422.607 43.7129 422.646 44.0767 422.445 44.3254L418.81 48.8274C418.258 49.5132 418.012 50.3717 418.122 51.246C418.232 52.1202 418.68 52.8924 419.383 53.4211L424.321 57.1249C424.577 57.3159 424.63 57.6798 424.436 57.9363C424.326 58.0881 424.151 58.1666 423.975 58.1666Z" fill="black"/>
<path d="M416.756 58.4493C416.647 58.4493 416.534 58.4179 416.435 58.3525C411.356 54.9497 404.2 46.3801 403.896 46.0189C403.692 45.7728 403.724 45.409 403.972 45.2022C404.218 44.9981 404.582 45.0321 404.789 45.2781C404.862 45.3645 412.141 54.0807 417.081 57.3919C417.348 57.5698 417.418 57.9311 417.24 58.1954C417.125 58.3603 416.942 58.4493 416.756 58.4493Z" fill="black"/>
<path d="M412.201 63.3597C412.078 63.3597 411.955 63.3205 411.848 63.2393C403.611 56.9128 400.003 51.9108 399.854 51.7014C399.668 51.4423 399.728 51.0785 399.99 50.8926C400.249 50.7068 400.613 50.767 400.799 51.0261C400.835 51.0759 404.469 56.1067 412.554 62.318C412.808 62.5117 412.855 62.8755 412.662 63.1294C412.549 63.2812 412.376 63.3597 412.201 63.3597Z" fill="black"/>
<path d="M27.7452 187.502C21.3584 187.502 15.5315 185.646 10.8584 182.039C0.418646 173.985 -2.7787 158.754 2.51707 142.29C2.61649 141.986 2.94094 141.819 3.24707 141.916C3.55058 142.013 3.71803 142.34 3.62122 142.643C-1.52017 158.628 1.52542 173.373 11.5675 181.12C17.8471 185.965 26.3323 187.507 35.4534 185.458C44.5431 183.416 53.6641 177.974 61.1394 170.135C62.6125 168.591 70.5326 171.376 75.2789 173.242C72.4845 168.962 68.0836 161.767 68.9444 160.12C68.9496 160.107 68.9758 160.065 68.981 160.055C81.1817 140.638 80.4648 118.35 67.3143 108.205C60.7286 103.125 51.8169 101.688 42.2196 104.158C32.6145 106.632 23.1899 112.775 15.6832 121.457C15.4739 121.701 15.1076 121.727 14.8669 121.518C14.6262 121.308 14.5974 120.942 14.8067 120.701C22.4652 111.841 32.0964 105.569 41.9292 103.038C51.8797 100.476 61.1447 101.986 68.0208 107.289C81.6474 117.801 82.4821 140.748 69.9622 160.67C69.6064 161.714 73.4709 168.486 77.2648 174.15C77.4061 174.362 77.393 174.642 77.2334 174.838C77.0712 175.035 76.8017 175.105 76.5662 175.009C69.3814 172.067 62.6989 170.2 61.9767 170.936C54.347 178.94 45.0166 184.497 35.7072 186.588C32.986 187.201 30.3198 187.502 27.7452 187.502Z" fill="black"/>
<path d="M28.8807 155.228L24.7729 158.291C24.1999 158.717 23.3861 158.613 22.9335 158.05L0.829402 130.6C0.353201 130.009 0.457861 129.142 1.06227 128.69L7.29735 124.041C7.90176 123.591 8.7652 123.737 9.19692 124.365L29.1738 153.399C29.582 153.993 29.4538 154.802 28.8807 155.228Z" fill="black"/>
<path d="M34.8039 169.814C36.7329 168.628 37.2538 165.969 35.9673 163.875C34.6808 161.782 32.0741 161.046 30.145 162.233C28.216 163.419 27.6951 166.078 28.9817 168.171C30.2682 170.265 32.8749 171 34.8039 169.814Z" fill="black"/>
<path d="M45.901 147.666L45.1527 145.892C43.4703 142.246 43.342 137.702 45.4221 132.357C47.3165 127.616 48.1459 124.313 47.0941 121.162C45.8983 117.589 42.8371 116.537 38.4204 117.903C35.9112 118.725 33.6689 121.041 32.3737 122.944L28.9958 117.916C30.7332 115.482 34.3335 113.061 38.028 111.849C46.0449 109.223 51.3328 113.011 53.112 118.335C54.7054 123.099 53.2036 127.399 51.1915 132.488C49.3416 137.134 49.2579 140.583 50.6603 144.086L51.338 145.884L45.901 147.666ZM47.6488 157.977C46.7827 155.385 47.9157 152.993 50.3542 152.195C52.7928 151.396 55.077 152.668 55.943 155.262C56.762 157.715 55.7913 160.131 53.214 160.976C50.7729 161.772 48.4677 160.429 47.6488 157.977Z" fill="black"/>
<path d="M139.264 75.7834C157.502 70.8993 168.306 52.0649 163.396 33.7156C158.485 15.3662 139.72 4.45053 121.483 9.33464C103.245 14.2187 92.4413 33.0532 97.3515 51.4025C102.262 69.7518 121.027 80.6675 139.264 75.7834Z" fill="black"/>
<path d="M134.822 76.6117C153.059 71.7276 163.863 52.8932 158.953 34.5438C154.043 16.1945 135.278 5.27881 117.04 10.1629C98.8024 15.047 87.9985 33.8814 92.9088 52.2308C97.819 70.5801 116.584 81.4958 134.822 76.6117Z" fill="white"/>
<path d="M126.052 78.3684C122.185 78.3684 118.304 77.7114 114.544 76.3922C105.732 73.3009 98.6519 66.9405 94.6016 58.486C86.2733 41.098 93.5498 20.1817 110.824 11.8581C119.16 7.84023 128.569 7.31935 137.313 10.3897C146.123 13.4835 153.206 19.844 157.256 28.2985C165.584 45.6865 158.308 66.6028 141.034 74.9264C136.28 77.2141 131.177 78.3684 126.052 78.3684ZM125.806 9.573C120.85 9.573 115.921 10.6881 111.326 12.9024C94.6278 20.9486 87.592 41.1739 95.6456 57.986C99.5598 66.1604 106.41 72.3115 114.926 75.3007C123.38 78.2689 132.47 77.7638 140.529 73.882C157.227 65.8359 164.263 45.6106 156.209 28.7984C152.295 20.624 145.445 14.4729 136.928 11.4838C133.297 10.2064 129.545 9.573 125.806 9.573Z" fill="black"/>
<path d="M143.588 55.7062C143.478 55.7062 143.365 55.6748 143.268 55.6093L125.61 43.8725C125.487 43.7914 125.4 43.6658 125.366 43.5218L121.648 27.7253C121.575 27.4138 121.769 27.1023 122.08 27.029C122.389 26.9557 122.703 27.1494 122.776 27.4609L126.442 43.0349L143.909 54.6435C144.176 54.8215 144.25 55.1801 144.072 55.4471C143.959 55.6146 143.776 55.7062 143.588 55.7062Z" fill="black"/>
<path d="M115.923 17.873C116.447 18.9672 115.991 20.2785 114.906 20.802C113.82 21.3255 112.514 20.8622 111.991 19.7707C111.468 18.6766 111.923 17.3652 113.009 16.8418C114.095 16.3183 115.398 16.7789 115.923 17.873Z" fill="black"/>
<path d="M104.586 26.2856C105.583 26.9714 105.839 28.3378 105.162 29.3376C104.484 30.3375 103.124 30.594 102.127 29.9082C101.13 29.2225 100.873 27.8561 101.551 26.8563C102.231 25.8538 103.589 25.5999 104.586 26.2856Z" fill="black"/>
<path d="M99.6115 43.3537C100.776 43.0419 101.465 41.8394 101.152 40.6677C100.838 39.4961 99.6403 38.7991 98.4761 39.1109C97.3119 39.4226 96.6223 40.6252 96.9359 41.7968C97.2494 42.9684 98.4473 43.6654 99.6115 43.3537Z" fill="black"/>
<path d="M100.575 53.3766C101.661 52.8531 102.967 53.3164 103.49 54.4079C104.013 55.502 103.558 56.8134 102.472 57.3369C101.386 57.8604 100.081 57.3971 99.5573 56.3056C99.0314 55.2115 99.4893 53.9001 100.575 53.3766Z" fill="black"/>
<path d="M109.209 64.5611C109.887 63.5613 111.248 63.3048 112.245 63.9905C113.241 64.6763 113.498 66.0426 112.82 67.0425C112.143 68.0424 110.782 68.2989 109.785 67.6131C108.788 66.93 108.532 65.5636 109.209 64.5611Z" fill="black"/>
<path d="M122.153 70.2463C122.242 69.037 123.291 68.134 124.492 68.2256C125.693 68.3172 126.599 69.3747 126.507 70.584C126.418 71.7933 125.369 72.6963 124.168 72.6047C122.967 72.5131 122.064 71.4556 122.153 70.2463Z" fill="black"/>
<path d="M136.17 68.6732C135.646 67.5791 136.102 66.2677 137.188 65.7442C138.273 65.2208 139.579 65.684 140.102 66.7755C140.626 67.8696 140.17 69.181 139.084 69.7045C137.999 70.228 136.693 69.7673 136.17 68.6732Z" fill="black"/>
<path d="M149.306 60.5779C150.47 60.2662 151.16 59.0636 150.846 57.892C150.533 56.7204 149.335 56.0234 148.171 56.3351C147.007 56.6469 146.317 57.8494 146.631 59.0211C146.944 60.1927 148.142 60.8897 149.306 60.5779Z" fill="black"/>
<path d="M153.626 47.4327C154.79 47.1208 155.479 45.9181 155.166 44.7465C154.852 43.5749 153.654 42.8779 152.49 43.1898C151.326 43.5017 150.636 44.7044 150.95 45.876C151.263 47.0476 152.461 47.7446 153.626 47.4327Z" fill="black"/>
<path d="M150.902 33.542C152.067 33.2303 152.756 32.0277 152.443 30.8561C152.129 29.6845 150.931 28.9875 149.767 29.2992C148.603 29.611 147.913 30.8135 148.227 31.9852C148.54 33.1568 149.738 33.8538 150.902 33.542Z" fill="black"/>
<path d="M141.642 22.86C142.806 22.548 143.495 21.3454 143.181 20.1739C142.867 19.0024 141.669 18.3056 140.505 18.6177C139.341 18.9297 138.652 20.1323 138.966 21.3038C139.279 22.4753 140.478 23.172 141.642 22.86Z" fill="black"/>
<path d="M129.94 16.2973C129.851 17.5066 128.802 18.4096 127.601 18.318C126.397 18.2238 125.495 17.1689 125.586 15.9597C125.675 14.7504 126.724 13.8473 127.925 13.939C129.126 14.0332 130.029 15.088 129.94 16.2973Z" fill="black"/>
<path d="M322.249 450.996C322.105 450.996 321.961 450.944 321.849 450.837C321.618 450.614 321.611 450.248 321.83 450.017L324.565 447.159C324.784 446.929 325.151 446.921 325.383 447.141C325.614 447.363 325.622 447.73 325.402 447.96L322.668 450.818C322.555 450.936 322.403 450.996 322.249 450.996Z" fill="black"/>
<path d="M312.68 461C312.537 461 312.393 460.948 312.28 460.841C312.05 460.618 312.042 460.252 312.262 460.021L314.996 457.163C315.218 456.933 315.585 456.925 315.815 457.145C316.045 457.367 316.053 457.734 315.833 457.964L313.099 460.822C312.987 460.943 312.832 461 312.68 461Z" fill="black"/>
<path d="M315.362 451.151C315.216 451.151 315.069 451.096 314.957 450.983L312.181 448.248C311.953 448.023 311.95 447.656 312.175 447.429C312.4 447.201 312.767 447.198 312.994 447.423L315.77 450.159C315.998 450.384 316.001 450.75 315.776 450.978C315.663 451.093 315.514 451.151 315.362 451.151Z" fill="black"/>
<path d="M325.077 460.726C324.931 460.726 324.784 460.671 324.672 460.558L321.896 457.823C321.668 457.598 321.665 457.231 321.89 457.003C322.115 456.776 322.482 456.773 322.709 456.998L325.485 459.734C325.713 459.959 325.716 460.325 325.491 460.553C325.376 460.668 325.226 460.726 325.077 460.726Z" fill="black"/>
<path d="M42.0286 39.0616C41.7146 39.0616 41.4556 38.8103 41.4503 38.4962L41.3614 34.5412C41.3535 34.2219 41.6073 33.9575 41.9265 33.9497C42.2353 33.9444 42.5126 34.1957 42.5179 34.515L42.6042 38.4701C42.6121 38.7894 42.3583 39.0537 42.0391 39.0616C42.0364 39.0616 42.0338 39.0616 42.0286 39.0616Z" fill="black"/>
<path d="M42.3347 52.9029C42.0207 52.9029 41.7617 52.6516 41.7564 52.3375L41.6701 48.3825C41.6622 48.0631 41.916 47.7988 42.2353 47.7909C42.5571 47.7857 42.8187 48.037 42.8266 48.3563L42.9155 52.3113C42.9234 52.6307 42.6696 52.895 42.3504 52.9029C42.3425 52.9029 42.3373 52.9029 42.3347 52.9029Z" fill="black"/>
<path d="M33.3706 44.0688C33.054 44.0688 32.795 43.8123 32.7924 43.493C32.7898 43.1737 33.0462 42.9119 33.368 42.9093L37.264 42.8805C37.5753 42.8727 37.8448 43.1344 37.8474 43.4564C37.85 43.7757 37.5936 44.0374 37.2718 44.0401L33.3759 44.0688C33.3732 44.0688 33.3732 44.0688 33.3706 44.0688Z" fill="black"/>
<path d="M47.0077 43.9694C46.6911 43.9694 46.4321 43.7129 46.4295 43.3935C46.4268 43.0742 46.6833 42.8125 47.0051 42.8098L50.901 42.7811C50.9037 42.7811 50.9037 42.7811 50.9063 42.7811C51.2229 42.7811 51.4819 43.0376 51.4845 43.3569C51.4871 43.6762 51.2307 43.938 50.9089 43.9406L47.0129 43.9694C47.0103 43.9694 47.0103 43.9694 47.0077 43.9694Z" fill="black"/>
<path d="M362.961 442.288C360.146 442.288 357.854 439.995 357.854 437.179C357.854 434.362 360.146 432.069 362.961 432.069C365.777 432.069 368.069 434.362 368.069 437.179C368.069 439.995 365.777 442.288 362.961 442.288ZM362.961 433.229C360.784 433.229 359.013 435.001 359.013 437.179C359.013 439.356 360.784 441.128 362.961 441.128C365.138 441.128 366.91 439.356 366.91 437.179C366.91 435.001 365.138 433.229 362.961 433.229Z" fill="black"/>
<path d="M452.772 114.241C449.957 114.241 447.665 111.948 447.665 109.132C447.665 106.315 449.957 104.022 452.772 104.022C455.588 104.022 457.88 106.315 457.88 109.132C457.88 111.951 455.588 114.241 452.772 114.241ZM452.772 105.182C450.595 105.182 448.824 106.954 448.824 109.132C448.824 111.309 450.595 113.082 452.772 113.082C454.949 113.082 456.721 111.309 456.721 109.132C456.721 106.954 454.949 105.182 452.772 105.182Z" fill="black"/>
<path d="M454.722 79.7591C456.218 78.2626 456.218 75.8363 454.722 74.3398C453.226 72.8434 450.801 72.8434 449.305 74.3398C447.809 75.8363 447.809 78.2626 449.305 79.759C450.801 81.2555 453.226 81.2555 454.722 79.7591Z" fill="black"/>
</svg>
