<svg width="129" height="158" viewBox="0 0 129 158" fill="none" xmlns="http://www.w3.org/2000/svg">
<path d="M58.4412 117.532C90.2987 117.532 116.124 91.5203 116.124 59.4337C116.124 27.3471 90.2987 1.33578 58.4412 1.33578C26.5838 1.33578 0.758179 27.3471 0.758179 59.4337C0.758179 91.5203 26.5838 117.532 58.4412 117.532Z" fill="white"/>
<path d="M43.1871 6.01322C42.949 6.36397 43.6555 7.54184 45.0553 7.54184C46.4577 7.54184 47.1563 7.30627 47.7398 8.83488C48.3233 10.3635 47.507 15.5383 48.3233 17.4202C49.1396 19.3022 50.5421 20.4774 51.5939 19.42C52.6457 18.3625 52.528 15.5383 53.8127 14.8342C55.0974 14.1274 59.7678 11.3058 60.0007 8.95528C60.2335 6.60216 58.5982 4.83797 54.5139 4.36944C50.427 3.89567 44.9376 3.42453 43.1871 6.01322Z" fill="black"/>
<path d="M28.098 58.7034C27.5511 59.0097 27.224 59.5986 27.2528 60.2268C27.3365 62.2004 26.5935 67.1134 25.034 68.6839C23.0481 70.6837 23.7807 74.2853 23.7493 75.7406C23.6865 78.6932 23.9691 80.0071 27.122 81.4206C30.2749 82.8314 31.5098 82.9125 31.7427 85.7342C31.9756 88.5558 32.3393 99.4603 33.2733 102.282C34.2074 105.104 36.1934 109.692 37.2426 110.75C38.2944 111.807 40.746 112.396 39.2285 108.396C37.7109 104.397 36.7768 102.518 38.5273 100.282C40.2777 98.0469 43.1977 92.8721 43.4306 90.8749C43.6634 88.8752 44.7153 87.6999 45.6493 87.4644C46.5834 87.2288 48.5693 86.5247 49.1528 85.818C49.7363 85.1112 48.5693 83.1141 48.2187 81.3499C47.8681 79.5857 47.8681 78.5283 50.7881 77.1174C53.7081 75.7066 52.3057 71.7071 48.3365 70.6496C44.3673 69.5921 41.9156 67.3568 42.3813 65.1215C42.8497 62.8861 39.6968 63.1217 37.8287 62.0643C35.9605 61.0068 36.0154 59.3447 33.9379 58.5516C31.1252 57.4784 29.1524 58.1119 28.098 58.7034Z" fill="black"/>
<path d="M100.441 56.2377C99.4573 54.751 99.5803 52.3979 102.04 49.1757C103.971 46.6446 101.2 44.1161 99.9204 43.1476C99.6849 42.9697 99.7922 42.6006 100.083 42.5666C101.668 42.386 105.342 42.9225 106.959 51.1572C109.049 61.8104 109.91 58.0935 111.017 56.8555C112.124 55.6174 110.054 53.3035 112.124 50.9085C113.429 49.4008 114.091 47.1995 114.429 45.4039C110.269 28.5054 98.7692 14.5279 83.5308 7.1021C83.5543 8.9579 83.1095 15.4179 75.5949 12.7533C75.5949 12.7533 70.9219 10.5232 72.0287 19.5666C73.1354 28.6101 76.9477 18.9463 77.6855 18.5746C78.4234 18.2029 80.391 17.7082 79.5301 23.7782C79.5301 23.7782 79.4072 25.8853 75.5949 25.5136C71.7827 25.1419 71.0449 27.0003 71.0449 27.9923C71.0449 28.9844 71.4138 31.5835 69.3232 33.442C67.2327 35.3004 67.8475 40.1323 70.676 38.5199C73.5044 36.9101 75.472 31.8296 78.0544 31.3349C80.6369 30.8402 82.9734 34.1853 85.4329 33.3163C87.8924 32.4499 86.7857 28.2384 88.0154 28.2384C89.2452 28.2384 91.8276 30.7171 91.4587 32.5729C91.0898 34.4314 87.2776 35.2978 88.2614 37.5279C89.2452 39.758 91.3357 39.0146 91.9506 40.5014C92.5655 41.9881 88.8762 43.7209 85.9248 41.8651C82.9734 40.0066 82.4815 42.7315 81.0058 41.4934C79.5301 40.2553 79.4072 37.6535 77.3166 38.5199C75.226 39.3863 73.9963 41.1217 71.2908 42.3598C68.5854 43.5978 66.3718 45.2102 66.3718 46.943C66.3718 48.6784 67.3556 50.5342 66.8637 53.2616C66.3718 55.9865 65.511 63.4202 74.3652 61.9334C83.222 60.4467 82.1126 65.0299 82.1126 65.5246C82.1126 66.0193 81.9896 72.461 82.8504 73.576C83.7113 74.6911 85.6789 77.9106 82.8504 82.1222C80.022 86.3337 81.1288 95.7488 83.7113 94.5108C86.2938 93.2727 88.8762 88.4408 92.0736 85.9646C95.2709 83.4859 99.7006 72.7096 97.8534 69.3645C96.0088 66.0193 100.436 63.2945 101.051 61.0644C101.671 58.8395 101.425 57.7245 100.441 56.2377Z" fill="black"/>
<path d="M16.7947 19.2368C16.8418 21.2994 16.4781 23.5452 15.2797 25.6496C11.6611 31.9996 11.7763 35.1746 11.4257 41.5247C11.075 47.8747 19.0423 59.0697 21.0282 60.2449C23.0141 61.4202 23.3202 58.6247 23.3202 56.3894C23.3202 54.154 22.4725 51.4737 21.3055 48.8877C20.1385 46.3016 20.1386 44.6526 20.4892 43.5951C20.8398 42.5376 22.2396 42.1843 23.1737 43.2417C24.1078 44.2992 26.3527 45.2389 27.4307 44.5766C28.7573 43.7626 28.2418 40.5798 28.7076 39.5223C29.1759 38.4648 31.7427 37.7581 32.7945 35.5228C33.8463 33.2874 35.5968 32.3478 37.6978 31.2903C39.7988 30.2328 41.667 29.7617 42.0176 29.055C42.3682 28.3483 41.8999 26.7018 42.4834 24.8199C43.0668 22.9379 44.4693 20.7026 43.8858 19.7629C43.3023 18.8232 41.5493 17.2946 38.2813 19.6451C35.0107 21.9982 34.1943 21.9982 33.2602 20.234C32.3262 18.4699 34.3121 13.884 38.399 13.884C42.486 13.884 43.3023 12.4732 43.42 11.4157C43.5378 10.3583 42.2531 9.18039 40.8507 8.94482C39.4482 8.70925 39.2153 9.53375 33.378 11.8843C29.482 13.4547 26.0544 13.0857 24.2072 12.6669C21.5541 14.6483 19.0736 16.8444 16.7947 19.2368Z" fill="black"/>
<path d="M105.951 85.894C105.855 88.5272 103.434 91.0635 101.982 91.9404C100.53 92.8172 98.3034 94.1836 98.3034 96.4268C98.3034 97.8716 98.2642 99.7169 98.5991 101.138C106.286 93.6287 107.806 92.176 112.207 80.8501C111.98 79.4105 106.048 83.2608 105.951 85.894Z" fill="black"/>
<path d="M58.4413 118.11C26.3161 118.11 0.177368 91.7886 0.177368 59.4337C0.177368 27.0789 26.3135 0.757324 58.4413 0.757324C90.5691 0.757324 116.705 27.0789 116.705 59.4337C116.705 91.7886 90.5691 118.11 58.4413 118.11ZM58.4413 1.91687C26.9545 1.91687 1.33649 27.7201 1.33649 59.4337C1.33649 91.1473 26.9545 116.951 58.4413 116.951C89.9281 116.951 115.546 91.1473 115.546 59.4337C115.546 27.7201 89.9307 1.91687 58.4413 1.91687Z" fill="black"/>
<path d="M20.7796 114.613C19.4871 116.513 20.0522 119.11 22.0146 120.306C32.648 126.774 45.1129 130.496 58.4413 130.496C97.4086 130.496 129 98.6804 129 59.4337C129 36.5437 118.254 16.1796 101.566 3.18373C99.7477 1.76767 97.1129 2.176 95.8021 4.07369C94.5933 5.82479 94.9648 8.20932 96.6446 9.51545C111.47 21.0403 121.017 39.1141 121.017 59.4337C121.017 94.2412 93.0025 122.458 58.4413 122.458C46.6357 122.458 35.5968 119.165 26.1748 113.443C24.3511 112.333 21.9806 112.846 20.7796 114.613Z" fill="black"/>
<path d="M62.4785 126.185H54.5532V152.826H62.4785V126.185Z" fill="black"/>
<path d="M58.4884 157.98C71.9433 157.98 82.8505 154.724 82.8505 150.708C82.8505 146.693 71.9433 143.437 58.4884 143.437C45.0336 143.437 34.1263 146.693 34.1263 150.708C34.1263 154.724 45.0336 157.98 58.4884 157.98Z" fill="black"/>
</svg>
