<svg width="98" height="77" viewBox="0 0 98 77" fill="none" xmlns="http://www.w3.org/2000/svg">
<path d="M1.22765 24.4021C1.94457 29.3256 7.76364 60.7334 41.1997 75.3784C41.3201 75.4308 41.4535 75.4439 41.5817 75.4072C44.3997 74.6455 76.9226 64.9947 96.9989 20.8134C97.1559 20.4705 96.9544 20.0674 96.5881 19.9968C91.9752 19.1016 66.4069 13.644 55.8573 0.865243C55.6087 0.564227 55.1482 0.57993 54.931 0.904504C52.4166 4.67113 38.298 23.0383 1.79544 23.7372C1.44483 23.7425 1.17794 24.0539 1.22765 24.4021Z" fill="white"/>
<path d="M41.4352 76.0067C41.2756 76.0067 41.116 75.9727 40.9669 75.9098C7.59099 61.2909 1.5286 30.5088 0.654695 24.4885C0.607598 24.1586 0.701792 23.8262 0.916344 23.5723C1.13351 23.3184 1.45009 23.1666 1.785 23.1614C38.0207 22.4677 52.0111 4.234 54.4496 0.585168C54.6537 0.278917 54.9808 0.0930692 55.3471 0.0747465C55.716 0.0590413 56.0666 0.210857 56.3047 0.498785C66.6843 13.0708 91.7764 18.476 96.7006 19.4314C97.0486 19.4994 97.3417 19.7193 97.5039 20.036C97.6688 20.358 97.6792 20.7297 97.5275 21.0595C77.4773 65.1858 45.3312 74.9989 41.7335 75.9726C41.6341 75.9936 41.5347 76.0067 41.4352 76.0067ZM55.4099 1.2317C52.919 4.95644 38.6173 23.6116 1.80596 24.3157L1.80072 24.3183C2.16441 26.8233 3.79447 35.7857 9.4487 45.9627C16.7016 59.011 27.4606 68.7273 41.4326 74.8471C44.9753 73.8891 76.64 64.2147 96.473 20.5726C91.486 19.5937 66.0407 14.1073 55.4099 1.2317Z" fill="black"/>
<path d="M84.8506 25.3204C84.8087 25.3204 84.7668 25.3152 84.725 25.3073C68.8508 21.7973 54.2246 10.796 54.0781 10.6834C53.8243 10.4897 53.772 10.1259 53.9656 9.872C54.1592 9.6181 54.5203 9.56576 54.7767 9.75945C54.9206 9.86938 69.3505 20.7215 84.9736 24.1739C85.2849 24.242 85.4838 24.5535 85.4131 24.865C85.3555 25.1372 85.1149 25.3204 84.8506 25.3204Z" fill="black"/>
<path d="M80.8553 34.0367C80.8056 34.0367 80.7584 34.0315 80.7087 34.0184C73.3381 32.0998 66.0198 28.5007 58.9553 23.3207C58.6962 23.1323 58.6413 22.7685 58.8297 22.5119C59.0181 22.2528 59.3817 22.1978 59.6382 22.3863C66.5849 27.4799 73.7724 31.0162 80.9992 32.8981C81.3079 32.9793 81.4937 33.296 81.4126 33.6048C81.3472 33.864 81.1117 34.0367 80.8553 34.0367Z" fill="black"/>
<path d="M54.5464 19.6562C54.413 19.6562 54.2796 19.6091 54.1697 19.5148C50.9514 16.7455 49.1643 14.7484 49.0884 14.6646C48.8765 14.4264 48.8974 14.06 49.1355 13.848C49.3736 13.6359 49.74 13.6543 49.9545 13.8951C49.9728 13.916 51.7703 15.921 54.9258 18.638C55.1692 18.8474 55.1953 19.2112 54.986 19.4546C54.8709 19.5881 54.7086 19.6562 54.5464 19.6562Z" fill="black"/>
<path d="M73.8666 42.1747C73.7907 42.1747 73.7122 42.159 73.6363 42.1276C53.6725 33.5082 43.6802 18.9785 43.5808 18.832C43.4002 18.5676 43.4709 18.2064 43.7352 18.0284C44.002 17.8478 44.3605 17.9185 44.5384 18.1828C44.6352 18.3268 54.4549 32.5868 74.0942 41.0649C74.3873 41.1905 74.5233 41.5334 74.3951 41.8266C74.3035 42.0438 74.089 42.1747 73.8666 42.1747Z" fill="black"/>
<path d="M67.4641 49.4825C67.3725 49.4825 67.2783 49.4616 67.192 49.4145C46.4773 38.387 37.4687 21.9465 37.3797 21.7816C37.228 21.499 37.3326 21.1482 37.6152 20.9964C37.8952 20.8446 38.2484 20.9493 38.4002 21.232C38.4865 21.3943 47.3459 37.5363 67.7362 48.391C68.0188 48.5402 68.1261 48.891 67.9743 49.1736C67.8723 49.37 67.6708 49.4825 67.4641 49.4825Z" fill="black"/>
<path d="M59.2326 56.2279C59.141 56.2279 59.0495 56.2069 58.9657 56.1624C55.2582 54.2255 51.671 51.7572 48.3009 48.823C48.0602 48.6136 48.0341 48.2471 48.2434 48.0063C48.4527 47.7655 48.819 47.7394 49.0597 47.9488C52.3617 50.8228 55.873 53.2413 59.4995 55.1338C59.7821 55.2829 59.892 55.6311 59.7454 55.9164C59.6434 56.1153 59.4419 56.2279 59.2326 56.2279Z" fill="black"/>
<path d="M43.5075 43.9177C43.3505 43.9177 43.1961 43.8549 43.081 43.7293C34.5983 34.4922 30.5218 24.9462 30.4826 24.8494C30.3596 24.5536 30.4957 24.2159 30.7913 24.0903C31.087 23.9646 31.4245 24.1034 31.5501 24.3991C31.5894 24.4934 35.5952 33.8614 43.934 42.944C44.1511 43.1796 44.1354 43.5461 43.8999 43.7633C43.7901 43.8654 43.6488 43.9177 43.5075 43.9177Z" fill="black"/>
<path d="M40.3704 62.1198C40.3678 62.1198 40.3651 62.1198 40.3625 62.1198C40.0433 62.1146 39.7869 61.8502 39.7921 61.5309L39.8549 57.3482C39.8575 57.2042 39.8026 57.0733 39.6979 56.9765C39.5985 56.8822 39.4677 56.8378 39.3316 56.8482L33.4812 57.3324C32.9212 57.3796 32.3875 57.1414 32.0447 56.6964C31.6993 56.2462 31.6078 55.6599 31.7988 55.1259L32.084 54.3328C32.1755 54.0763 32.0473 53.8931 31.9871 53.8276C31.9296 53.7622 31.7673 53.6209 31.5135 53.6837C30.7522 53.8721 30.0065 53.5266 29.6532 52.8277C29.2948 52.1184 29.4675 51.3018 30.0797 50.7966L31.2205 49.8543C31.4769 49.6423 31.4011 49.3674 31.3723 49.2889C31.3435 49.213 31.231 48.9696 30.9196 48.9696C30.917 48.9696 30.9144 48.9696 30.9118 48.9696L24.7997 49.0507C24.7971 49.0507 24.7944 49.0507 24.7918 49.0507C24.4752 49.0507 24.2162 48.7968 24.2136 48.4801C24.2083 48.1608 24.4647 47.8964 24.784 47.8938L30.8961 47.8127C30.9039 47.8127 30.9118 47.8127 30.9196 47.8127C31.6156 47.8127 32.2174 48.2341 32.4607 48.8911C32.7067 49.5637 32.5104 50.2914 31.9584 50.7495L30.8202 51.6918C30.5298 51.93 30.6475 52.2257 30.6894 52.3095C30.7312 52.3906 30.8882 52.6472 31.2362 52.5608C31.8223 52.4142 32.4398 52.6027 32.848 53.0529C33.2562 53.5057 33.3844 54.147 33.1777 54.7254L32.8924 55.5185C32.8087 55.7515 32.916 55.9295 32.9657 55.9949C33.0128 56.0577 33.1462 56.2017 33.387 56.1834L39.2374 55.6991C39.6953 55.6625 40.1532 55.8195 40.4907 56.1363C40.8309 56.453 41.0219 56.9032 41.014 57.3717L40.9512 61.5545C40.9434 61.8659 40.687 62.1198 40.3704 62.1198Z" fill="black"/>
</svg>
