<svg width="385" height="396" viewBox="0 0 385 396" fill="none" xmlns="http://www.w3.org/2000/svg">
<path d="M275.949 184.577L207.604 174.361C207.162 174.361 207.015 174.772 207.015 175.167V233.338C207.015 238.908 168.184 253.378 167.804 252.642L167.757 258.799C167.755 259.945 168.762 260.961 170.047 260.961H170.9C170.905 260.961 170.91 260.961 170.918 260.961L228.222 271.606C230.88 271.606 233.507 271.012 235.914 270.002L267.419 256.731C273.092 254.341 276.669 249.211 276.669 243.615V185.386C276.669 184.99 276.391 184.577 275.949 184.577Z" fill="black"/>
<path d="M200.094 170.974V229.155C200.094 234.89 196.405 240.118 190.607 242.594L169.353 251.669C167.964 252.26 168.438 254.124 169.976 254.124L228.371 264.769C230.998 264.769 233.591 264.251 235.964 263.251L259.512 253.333C265.352 250.873 269.078 245.627 269.078 239.861V181.619C269.078 181.381 268.861 181.187 268.594 181.187L200.573 170.542C200.309 170.542 200.094 170.736 200.094 170.974Z" fill="white"/>
<path d="M228.373 265.348C228.339 265.348 228.303 265.345 228.269 265.337L169.921 254.702C168.958 254.679 168.168 254.058 167.988 253.179C167.812 252.323 168.27 251.504 169.126 251.137L190.379 242.062C195.929 239.694 199.516 234.629 199.516 229.158V170.974C199.516 170.416 199.992 169.963 200.579 169.963C200.607 169.963 200.639 169.966 200.668 169.971L268.652 180.609C269.212 180.635 269.662 181.077 269.662 181.619V239.861C269.662 245.829 265.768 251.328 259.74 253.865L236.192 263.782C233.761 264.806 231.058 265.348 228.373 265.348ZM200.673 171.144V229.155C200.673 235.089 196.811 240.573 190.835 243.125L169.581 252.2C169.23 252.349 169.058 252.629 169.123 252.943C169.181 253.221 169.437 253.543 169.979 253.543C170.013 253.543 170.049 253.545 170.083 253.553L228.428 264.188C230.943 264.18 233.473 263.672 235.747 262.714L259.295 252.797C264.892 250.438 268.508 245.36 268.508 239.861V181.761L200.673 171.144Z" fill="black"/>
<path d="M382.194 231.202L374.569 238.322L91.8608 189.38L94.8907 6.30189L104.038 1.38885C105.718 0.493665 107.649 0.190033 109.522 0.52769L377.853 48.9566C381.88 49.6843 384.808 53.1917 384.808 57.2855L384.865 225.025C384.868 227.368 383.9 229.603 382.194 231.202Z" fill="black"/>
<path d="M368.02 239.332L97.4052 190.451C94.0404 189.843 91.594 186.914 91.594 183.493V13.2906C91.594 8.88272 95.5815 5.55066 99.917 6.33329L370.532 55.215C373.897 55.8223 376.344 58.7513 376.344 62.1723V232.372C376.341 236.78 372.356 240.115 368.02 239.332Z" fill="white"/>
<path d="M369.282 240.023C368.826 240.023 368.371 239.984 367.916 239.9L97.3032 191.019C93.661 190.362 91.0157 187.194 91.0157 183.491V13.2906C91.0157 11.0186 92.0152 8.8775 93.7578 7.42217C95.5004 5.96422 97.782 5.35958 100.019 5.76529L370.634 54.647C374.276 55.304 376.922 58.4712 376.922 62.1749V232.378C376.922 234.65 375.922 236.791 374.18 238.246C372.79 239.403 371.058 240.023 369.282 240.023ZM368.122 238.762C370.019 239.105 371.956 238.592 373.434 237.356C374.912 236.121 375.763 234.304 375.763 232.375V62.1723C375.763 59.0313 373.52 56.3432 370.428 55.7856L99.8124 6.9039C97.9154 6.56101 95.9792 7.07404 94.5009 8.30949C93.0226 9.54495 92.1722 11.3615 92.1722 13.2906V183.493C92.1722 186.634 94.4146 189.322 97.5072 189.88L368.122 238.762Z" fill="black"/>
<path d="M324.956 200.677L138.089 166.925C136.969 166.723 136.155 165.747 136.155 164.608V45.2188C136.155 43.753 137.482 42.6432 138.926 42.9023L325.793 76.6576C326.913 76.8591 327.727 77.8354 327.727 78.974V198.363C327.727 199.829 326.4 200.939 324.956 200.677Z" fill="white"/>
<path d="M325.377 201.295C325.202 201.295 325.026 201.279 324.854 201.248L137.987 167.495C136.59 167.244 135.577 166.029 135.577 164.608V45.2188C135.577 44.3472 135.962 43.5279 136.629 42.9678C137.296 42.4102 138.17 42.1773 139.028 42.3317L325.895 76.087C327.292 76.3382 328.305 77.5527 328.305 78.974V198.363C328.305 199.235 327.92 200.054 327.253 200.614C326.722 201.057 326.057 201.295 325.377 201.295ZM325.06 200.109C325.581 200.203 326.11 200.062 326.513 199.724C326.918 199.387 327.148 198.889 327.148 198.363V78.9714C327.148 78.1129 326.536 77.3774 325.691 77.2256L138.824 43.4729C138.306 43.3787 137.778 43.5201 137.372 43.8577C136.967 44.1954 136.736 44.6927 136.736 45.2188V164.608C136.736 165.467 137.349 166.202 138.194 166.354L325.06 200.109Z" fill="black"/>
<path d="M312.077 103.694C312.043 103.694 312.009 103.691 311.973 103.683L151.344 74.6709C151.03 74.6133 150.821 74.3123 150.878 73.9982C150.936 73.6841 151.234 73.4747 151.551 73.5323L312.179 102.547C312.493 102.605 312.703 102.906 312.648 103.22C312.595 103.497 312.352 103.694 312.077 103.694Z" fill="black"/>
<path d="M291.766 111.572C291.732 111.572 291.698 111.57 291.661 111.562L151.344 86.2166C151.03 86.159 150.821 85.858 150.878 85.5439C150.936 85.2298 151.234 85.0204 151.551 85.078L291.868 110.423C292.182 110.481 292.391 110.782 292.336 111.096C292.284 111.376 292.04 111.572 291.766 111.572Z" fill="black"/>
<path d="M312.077 126.79C312.043 126.79 312.009 126.788 311.973 126.78L151.81 97.909C151.496 97.8514 151.286 97.5504 151.341 97.2363C151.399 96.9222 151.697 96.7128 152.014 96.7678L312.177 125.639C312.491 125.696 312.7 125.997 312.645 126.311C312.595 126.594 312.352 126.79 312.077 126.79Z" fill="black"/>
<path d="M312.077 138.339C312.043 138.339 312.009 138.336 311.973 138.328L266.618 130.136C266.304 130.078 266.095 129.777 266.15 129.463C266.208 129.149 266.503 128.939 266.823 128.997L312.177 137.19C312.491 137.247 312.7 137.548 312.645 137.862C312.595 138.143 312.352 138.339 312.077 138.339Z" fill="black"/>
<path d="M216.696 121.11C216.662 121.11 216.628 121.108 216.591 121.1L151.344 109.313C151.03 109.256 150.821 108.955 150.878 108.641C150.936 108.327 151.234 108.117 151.551 108.175L216.798 119.961C217.112 120.019 217.321 120.32 217.264 120.634C217.214 120.914 216.971 121.11 216.696 121.11Z" fill="black"/>
<path d="M312.077 149.887C312.043 149.887 312.009 149.885 311.973 149.877L280.054 144.11C279.74 144.053 279.531 143.752 279.586 143.438C279.643 143.124 279.939 142.914 280.258 142.972L312.177 148.738C312.491 148.796 312.7 149.097 312.645 149.411C312.595 149.691 312.352 149.887 312.077 149.887Z" fill="black"/>
<path d="M250.862 138.828C250.828 138.828 250.794 138.826 250.757 138.818L151.344 120.862C151.03 120.804 150.821 120.503 150.878 120.189C150.936 119.875 151.234 119.666 151.551 119.723L250.964 137.679C251.278 137.737 251.487 138.038 251.432 138.352C251.38 138.632 251.137 138.828 250.862 138.828Z" fill="black"/>
<path d="M312.077 161.433C312.043 161.433 312.009 161.43 311.973 161.422L150.774 132.167C150.46 132.109 150.25 131.808 150.308 131.494C150.365 131.18 150.664 130.971 150.98 131.028L312.179 160.286C312.493 160.344 312.703 160.645 312.645 160.959C312.595 161.239 312.352 161.433 312.077 161.433Z" fill="black"/>
<path d="M278.173 166.859C278.139 166.859 278.105 166.856 278.068 166.849L151.341 143.959C151.027 143.901 150.818 143.6 150.876 143.286C150.933 142.972 151.231 142.762 151.548 142.82L278.275 165.71C278.589 165.768 278.798 166.069 278.743 166.383C278.694 166.663 278.45 166.859 278.173 166.859Z" fill="black"/>
<path d="M315.885 299.102C328.83 295.645 337.689 286.711 335.671 279.148C333.653 271.584 321.522 268.255 308.577 271.712C295.631 275.169 286.773 284.103 288.791 291.666C290.809 299.229 302.939 302.558 315.885 299.102Z" fill="white"/>
<path d="M305.895 301.003C296.944 301.003 289.78 297.569 288.236 291.784C287.205 287.918 288.778 283.631 292.666 279.71C296.473 275.87 302.072 272.818 308.43 271.122C321.662 267.588 334.134 271.106 336.233 278.966C338.329 286.827 329.27 296.095 316.039 299.629C312.546 300.563 309.105 301.003 305.895 301.003ZM318.674 270.891C315.539 270.891 312.164 271.326 308.728 272.242C302.567 273.888 297.153 276.831 293.487 280.529C289.903 284.146 288.435 288.039 289.356 291.488C291.289 298.731 303.126 301.88 315.741 298.511C328.357 295.142 337.047 286.51 335.116 279.267C333.708 273.996 327.054 270.891 318.674 270.891Z" fill="black"/>
<path d="M294.17 293.81C295.649 292.653 297.415 291.91 299.283 291.667C305.034 290.921 305.95 290.308 317.481 284.584C326.11 280.299 336.092 285.484 341.178 278.199C344.135 273.967 330.66 257.503 309.615 262.267C297.637 264.979 299.333 271.046 283.61 280.359C283.61 280.359 218.8 320.849 205.244 307.586C190.202 292.868 176.941 269.8 176.941 269.8L137.775 317.211C137.775 317.211 187.287 351.12 216.916 349.861C234.253 349.123 294.17 293.81 294.17 293.81Z" fill="white"/>
<path d="M215.304 350.471C185.667 350.471 137.935 318.019 137.448 317.687C137.315 317.595 137.226 317.451 137.202 317.289C137.179 317.127 137.226 316.965 137.33 316.839L176.496 269.428C176.617 269.282 176.803 269.203 176.991 269.219C177.179 269.235 177.349 269.342 177.444 269.507C177.577 269.737 190.84 292.674 205.649 307.167C218.724 319.962 282.66 280.267 283.304 279.864C290.403 275.661 293.932 272.114 296.768 269.266C300.267 265.753 302.794 263.214 309.49 261.699C325.929 257.977 336.884 266.834 340.38 272.035C342.164 274.689 342.641 277.116 341.654 278.529C338.588 282.921 333.875 283.029 328.886 283.141C325.173 283.225 321.335 283.314 317.737 285.099L315.518 286.201C306.031 290.923 304.812 291.53 299.356 292.237C297.606 292.465 295.942 293.158 294.544 294.247C291.847 296.737 234.25 349.699 216.937 350.435C216.401 350.461 215.854 350.471 215.304 350.471ZM138.628 317.085C143.924 320.626 187.69 349.312 215.286 349.314C215.827 349.314 216.359 349.304 216.89 349.28C233.821 348.56 293.179 293.936 293.778 293.384C293.788 293.373 293.801 293.363 293.814 293.352C295.379 292.127 297.245 291.347 299.21 291.091C304.471 290.407 305.468 289.913 315.005 285.167L317.224 284.063C321.052 282.162 325.021 282.071 328.86 281.984C333.75 281.872 337.973 281.778 340.704 277.867C341.385 276.893 340.88 274.86 339.417 272.684C336.076 267.709 325.571 259.246 309.744 262.83C303.378 264.272 300.95 266.709 297.587 270.085C294.704 272.98 291.117 276.585 283.903 280.856C281.643 282.27 235.663 310.808 213.692 310.811C209.914 310.811 206.85 309.968 204.836 307.997C191.395 294.847 179.241 274.828 176.858 270.802L138.628 317.085Z" fill="black"/>
<path d="M112.126 197.544C89.7966 190.312 53.2391 184.902 38.5998 186.708C22.3436 188.713 3.96803 206.857 16.0405 279.566C18.4058 293.813 20.1641 306.675 22.6681 318.077C37.7704 340.02 57.8048 358.774 84.3779 372.406C96.1259 378.431 144.217 392.359 201.398 396C175.913 369.278 167.959 347.618 165.939 340.776C165.654 339.808 166.572 338.923 167.53 339.24L170.353 340.177C172.708 340.959 175.296 340.054 176.643 337.967C183.595 327.207 202.96 294.048 193.739 271.386C190.864 264.324 150.708 210.04 112.126 197.544Z" fill="black"/>
<path d="M113.157 115.747C113.157 115.747 118.507 123.77 118.834 130.4C118.921 132.154 119.651 137.758 123.965 143.885C124.381 144.477 124.29 145.28 123.743 145.767L119.619 149.445C119.334 149.699 119.172 150.052 119.169 150.429C119.156 152.769 119.083 161.417 118.803 163.03C118.476 164.899 116.977 166.548 116.231 166.951C114.263 168.013 105.736 166.927 105.736 166.927C105.736 166.927 103.449 167.144 98.9648 179.287C94.1217 192.401 104.166 197.356 104.166 197.356C107.939 199.326 108.01 201.232 103.928 202.533C89.8542 207.019 60.7563 210.299 46.0647 193.801C45.2274 192.859 45.6461 191.351 46.8732 190.99C84.2052 179.975 66.4131 148.233 67.2033 148.024C69.2206 147.49 80.8169 135.266 87.6119 131.79C92.243 129.418 97.8606 132.85 101.628 129.261L113.157 115.747Z" fill="white"/>
<path d="M79.6839 206.75C67.3576 206.75 54.16 203.768 45.6303 194.188C45.1018 193.594 44.916 192.785 45.1358 192.018C45.353 191.252 45.9417 190.66 46.7083 190.435C57.2135 187.336 64.2858 182.274 67.7291 175.39C72.8444 165.163 68.5193 153.533 67.1012 149.709C66.6041 148.374 66.502 148.097 66.6695 147.772C66.7453 147.628 66.8945 147.505 67.0541 147.463C67.7501 147.28 70.5026 144.812 73.1636 142.425C77.6692 138.383 83.2789 133.355 87.3475 131.272C89.5873 130.125 91.9787 130.248 94.2891 130.366C96.882 130.499 99.3311 130.625 101.207 128.858L112.72 115.368C112.837 115.229 113.007 115.153 113.193 115.166C113.374 115.177 113.539 115.271 113.641 115.423C113.863 115.755 119.083 123.655 119.415 130.369C119.47 131.455 119.962 137.19 124.441 143.55C125.028 144.38 124.894 145.521 124.13 146.199L120.007 149.877C119.842 150.023 119.75 150.22 119.75 150.432C119.734 152.994 119.661 161.483 119.373 163.127C119.028 165.105 117.458 166.943 116.506 167.456C114.515 168.532 107.162 167.684 105.799 167.516C105.414 167.715 103.292 169.233 99.5064 179.483C94.9092 191.929 104.03 196.638 104.423 196.832C106.644 197.992 107.667 199.13 107.565 200.316C107.466 201.465 106.333 202.371 104.104 203.083C98.1746 204.975 89.1896 206.75 79.6839 206.75ZM67.8443 148.369C67.928 148.618 68.0588 148.966 68.1844 149.309C69.6496 153.248 74.1029 165.234 68.7627 175.91C65.1702 183.093 57.8598 188.354 47.0327 191.547C46.6429 191.662 46.3577 191.95 46.2478 192.338C46.1379 192.72 46.2321 193.123 46.4937 193.419C61.2089 209.94 90.3801 206.245 103.75 201.983C106.076 201.243 106.385 200.504 106.409 200.222C106.435 199.923 106.241 199.096 103.897 197.871C103.803 197.824 93.4544 192.534 98.4205 179.088C102.698 167.503 105.059 166.412 105.681 166.351C105.723 166.346 105.768 166.349 105.809 166.354C109.036 166.765 114.643 167.152 115.956 166.44C116.597 166.095 117.945 164.582 118.233 162.93C118.45 161.695 118.56 155.661 118.591 150.426C118.594 149.892 118.829 149.377 119.235 149.016L123.358 145.338C123.685 145.045 123.743 144.576 123.492 144.22C118.829 137.598 118.314 131.57 118.256 130.429C117.992 125.107 114.334 118.747 113.086 116.721L102.063 129.638C102.05 129.654 102.036 129.667 102.021 129.683C99.7811 131.813 96.9553 131.667 94.2237 131.528C92.0651 131.418 89.8306 131.303 87.8682 132.308C83.933 134.321 78.3887 139.294 73.9302 143.291C70.8035 146.097 68.9118 147.775 67.8443 148.369Z" fill="black"/>
<path d="M123.607 143.493C123.306 143.493 123.052 143.26 123.029 142.956C123.005 142.637 123.246 142.359 123.565 142.336C124.839 142.244 125.815 141.731 126.548 140.765C128.704 137.923 127.992 132.146 127.704 130.35L98.4834 134.939C98.1694 134.988 97.8711 134.774 97.8214 134.457C97.7717 134.14 97.9889 133.845 98.3029 133.795L128.086 129.117C128.395 129.068 128.683 129.272 128.743 129.575C128.811 129.905 130.347 137.674 127.471 141.467C126.54 142.694 125.253 143.377 123.649 143.493C123.633 143.49 123.62 143.493 123.607 143.493Z" fill="black"/>
<path d="M98.2845 146.987C95.825 146.987 91.9631 146.081 89.8699 140.933C88.5826 137.773 89.0039 134.968 90.995 133.434C93.0646 131.837 96.2489 132.031 98.7424 133.902C99.6765 134.604 100.904 136.562 101.042 136.784C101.21 137.056 101.126 137.412 100.854 137.582C100.582 137.753 100.226 137.666 100.056 137.397C99.7158 136.847 98.6901 135.316 98.0464 134.831C95.9689 133.271 93.3603 133.075 91.7041 134.355C90.1263 135.572 89.849 137.813 90.9427 140.501C93.758 147.419 99.9539 145.689 100.216 145.613C100.524 145.524 100.843 145.699 100.935 146.005C101.027 146.312 100.851 146.634 100.545 146.725C100.519 146.728 99.6032 146.987 98.2845 146.987Z" fill="black"/>
<path d="M124.141 95.8806C121.404 91.2894 118.46 87.3474 109.465 85.5754C103.306 84.3608 93.2609 88.9101 88.3183 94.1583C87.9049 94.5954 87.2482 94.6111 86.9054 94.1766C85.8431 92.8364 83.3208 89.8053 81.0864 89.5383C74.6184 88.7688 67.9935 97.1527 65.6386 101.464C63.9196 104.613 61.0205 111.732 59.5579 120.006C59.4663 120.525 58.9954 120.907 58.4851 120.86C56.5359 120.674 52.6295 120.682 49.16 123.249C42.9746 127.828 43.6444 134.536 43.7177 135.356C44.5576 144.912 54.2674 151.972 61.6276 155.801C66.6224 158.4 68.4984 158.772 71.4368 159.453C71.6068 159.492 71.7847 159.479 71.9522 159.424C74.553 159.806 78.9696 160.002 83.8886 158.296C91.7067 155.581 91.1153 142.606 91.1153 142.606L90.1315 140.159C89.535 138.677 89.4513 137.005 90.0557 135.526C91.9003 131.013 98.7084 134.403 98.9622 134.35C111.772 131.688 116.296 127.937 118.622 125.383C126.959 116.227 130.766 106.997 124.141 95.8806Z" fill="black"/>
<path d="M125.747 293.415C125.716 293.41 125.684 293.407 125.653 293.402L97.7612 291.203C72.1955 289.188 47.5351 280.812 26.0538 266.811C25.8863 266.704 25.7215 266.594 25.5514 266.486C22.184 264.314 18.0657 263.633 14.1776 264.61L10.3889 265.562C8.00004 266.162 5.79172 267.347 3.99943 269.036C3.58341 269.426 3.31653 269.724 3.31653 269.826L6.9142 290.567C22.8931 324.328 47.2552 353.366 84.3779 372.411C92.0416 376.343 115.182 383.637 146.224 389.247C146.171 381.748 146.098 371.409 146.098 371.395V318.273C146.098 306.196 137.581 295.8 125.747 293.415Z" fill="black"/>
<path d="M146.224 389.823C146.19 389.823 146.156 389.82 146.122 389.812C116.65 384.488 92.6198 377.285 84.1136 372.921C66.3006 363.784 50.5493 351.83 37.2916 337.394C25.172 324.197 14.7767 308.523 6.39089 290.811C6.36735 290.764 6.35165 290.714 6.3438 290.661L2.74613 269.92C2.7409 269.889 2.73828 269.855 2.73828 269.824C2.73828 269.549 2.86126 269.308 3.60434 268.609C5.44634 266.874 7.74623 265.625 10.2502 264.994L14.0389 264.041C18.0657 263.031 22.375 263.74 25.8654 265.994L26.3678 266.321C47.6817 280.215 72.3839 288.617 97.8031 290.622L125.823 292.839C125.836 292.842 125.847 292.842 125.86 292.844C137.922 295.276 146.676 305.966 146.676 318.266V371.39L146.802 389.236C146.802 389.409 146.729 389.574 146.595 389.684C146.491 389.776 146.357 389.823 146.224 389.823ZM7.4715 290.387C24.879 327.128 50.845 354.552 84.6421 371.89C91.411 375.364 113.206 382.64 145.64 388.545L145.543 374.783C145.528 372.728 145.52 371.393 145.52 371.39V318.266C145.52 306.521 137.165 296.313 125.65 293.983L125.574 293.973L97.7167 291.776C72.1066 289.756 47.2159 281.291 25.7398 267.29L25.2401 266.965C22.0192 264.887 18.0395 264.23 14.3215 265.162L10.5328 266.115C8.2172 266.696 6.09785 267.85 4.39713 269.449C4.1381 269.693 3.99681 269.844 3.92355 269.928L7.4715 290.387Z" fill="white"/>
<path d="M87.3763 388.54C45.0076 380.093 26.9904 369.938 14.0127 362.321C5.73148 357.46 0.650269 348.574 0.650269 338.975V275.807C0.650269 269.14 7.8456 264.955 13.6437 268.248C15.7814 269.462 17.8223 270.727 19.7977 272.02C41.1665 285.987 65.7327 294.297 91.1859 296.305L119.297 298.522C131.158 300.888 139.696 311.295 139.696 323.385C139.696 323.385 139.476 392.893 138.625 393.461C134.756 396.042 87.3763 388.54 87.3763 388.54Z" fill="white"/>
<path d="M119.823 384.263C119.779 384.263 119.732 384.258 119.687 384.247C111.519 382.263 103.797 380.114 97.3608 378.028C91.5025 376.131 86.9236 374.366 84.1135 372.924C79.5373 370.576 75.0474 368.019 70.7721 365.32C43.3042 347.992 21.6868 323.016 6.51901 291.088C6.38295 290.8 6.50331 290.455 6.79374 290.316C7.08417 290.18 7.42693 290.3 7.56561 290.591C22.6366 322.317 44.1101 347.131 71.3922 364.339C75.6387 367.016 80.0972 369.558 84.6447 371.89C87.3606 373.283 92.0022 375.07 97.7192 376.924C104.13 378.999 111.819 381.143 119.962 383.119C120.273 383.195 120.464 383.507 120.388 383.818C120.32 384.085 120.082 384.263 119.823 384.263Z" fill="black"/>
</svg>
