<svg width="406" height="177" viewBox="0 0 406 177" fill="none" xmlns="http://www.w3.org/2000/svg">
<path d="M5.86741 154.842C5.15369 154.842 4.43997 154.697 3.76193 154.411C2.43899 153.847 1.41428 152.803 0.87644 151.469C-0.234931 148.713 1.10076 145.566 3.85369 144.456C6.60408 143.343 9.74701 144.681 10.8584 147.437C11.9698 150.193 10.6341 153.339 7.88114 154.449C7.23114 154.71 6.548 154.842 5.86741 154.842ZM5.85977 145.199C5.33212 145.199 4.79683 145.298 4.27683 145.507C2.10507 146.385 1.05232 148.868 1.92918 151.042C2.35487 152.096 3.16291 152.921 4.20546 153.365C5.25055 153.809 6.40271 153.819 7.45545 153.395C9.62721 152.517 10.68 150.034 9.80309 147.86C9.1378 146.204 7.54212 145.199 5.85977 145.199Z" fill="black"/>
<path d="M402.583 166.798C402.443 166.798 402.301 166.747 402.191 166.64C401.964 166.423 401.956 166.063 402.173 165.836L404.834 163.052C405.051 162.825 405.41 162.817 405.637 163.034C405.864 163.251 405.872 163.611 405.655 163.838L402.994 166.622C402.882 166.739 402.731 166.798 402.583 166.798Z" fill="black"/>
<path d="M393.269 176.541C393.129 176.541 392.986 176.49 392.877 176.383C392.65 176.166 392.642 175.806 392.859 175.579L395.52 172.795C395.737 172.568 396.096 172.56 396.323 172.777C396.55 172.994 396.558 173.354 396.341 173.581L393.68 176.365C393.57 176.482 393.42 176.541 393.269 176.541Z" fill="black"/>
<path d="M395.882 166.946C395.739 166.946 395.594 166.892 395.484 166.783L392.785 164.119C392.561 163.899 392.558 163.539 392.78 163.315C392.999 163.09 393.359 163.088 393.583 163.31L396.285 165.974C396.509 166.193 396.512 166.553 396.29 166.778C396.175 166.89 396.027 166.946 395.882 166.946Z" fill="black"/>
<path d="M405.334 176.273C405.191 176.273 405.046 176.22 404.936 176.11L402.237 173.446C402.012 173.226 402.01 172.866 402.232 172.642C402.451 172.417 402.81 172.415 403.035 172.637L405.734 175.301C405.958 175.52 405.961 175.88 405.739 176.105C405.627 176.217 405.479 176.273 405.334 176.273Z" fill="black"/>
<path d="M209.814 4.28202C209.674 4.28202 209.531 4.23098 209.422 4.1238C209.195 3.90689 209.187 3.54707 209.404 3.31995L212.065 0.535811C212.282 0.308691 212.641 0.301035 212.868 0.517947C213.095 0.73486 213.102 1.09468 212.886 1.3218L210.225 4.10594C210.112 4.22333 209.962 4.28202 209.814 4.28202Z" fill="black"/>
<path d="M200.5 14.0252C200.36 14.0252 200.217 13.9742 200.108 13.867C199.881 13.6501 199.873 13.2903 200.09 13.0632L202.751 10.279C202.968 10.0519 203.327 10.0443 203.554 10.2612C203.781 10.4781 203.788 10.8379 203.572 11.065L200.91 13.8492C200.801 13.9665 200.65 14.0252 200.5 14.0252Z" fill="black"/>
<path d="M203.113 4.43001C202.97 4.43001 202.825 4.37642 202.715 4.26668L200.016 1.60249C199.791 1.38302 199.789 1.0232 200.011 0.798634C200.23 0.574066 200.589 0.571515 200.814 0.793531L203.513 3.45773C203.737 3.67719 203.74 4.03701 203.518 4.26158C203.406 4.37386 203.258 4.43001 203.113 4.43001Z" fill="black"/>
<path d="M212.565 13.7573C212.422 13.7573 212.277 13.7037 212.167 13.594L209.465 10.9298C209.241 10.7103 209.238 10.3505 209.46 10.1259C209.679 9.90134 210.038 9.89878 210.263 10.1208L212.965 12.785C213.189 13.0045 213.192 13.3643 212.97 13.5889C212.858 13.7011 212.71 13.7573 212.565 13.7573Z" fill="black"/>
</svg>
