<svg width="467" height="422" viewBox="0 0 467 422" fill="none" xmlns="http://www.w3.org/2000/svg">
<path d="M192.563 335.904L194.131 350.858L204.23 352.042V334.314L192.563 335.904Z" fill="white"/>
<path d="M204.23 352.611C204.207 352.611 204.186 352.611 204.163 352.606L194.064 351.422C193.799 351.391 193.593 351.182 193.565 350.917L191.997 335.963C191.964 335.656 192.181 335.381 192.484 335.34L204.151 333.747C204.314 333.725 204.477 333.776 204.602 333.883C204.724 333.99 204.796 334.146 204.796 334.311V352.042C204.796 352.205 204.727 352.359 204.604 352.466C204.502 352.56 204.367 352.611 204.23 352.611ZM194.648 350.345L203.661 351.404V334.965L193.185 336.394L194.648 350.345Z" fill="black"/>
<path d="M205.82 378.074C201.612 378.666 194.709 379.189 186.608 378.066C183.952 377.699 182.193 375.119 182.833 372.514C184.618 365.253 187.692 351.483 192.966 345.103L194.276 348.564L196.086 345.305C196.333 344.858 196.779 344.557 197.286 344.494L201.25 343.991C202.078 343.886 202.848 344.435 203.019 345.251L203.649 348.255L205.03 344.312L209.641 373.014C209.97 375.466 208.267 377.73 205.82 378.074Z" fill="white"/>
<path d="M196.272 379.297C193.32 379.297 190.037 379.115 186.529 378.628C185.099 378.429 183.817 377.633 183.009 376.438C182.204 375.252 181.939 373.769 182.283 372.376L182.665 370.809C184.485 363.319 187.531 350.787 192.53 344.739C192.66 344.583 192.861 344.509 193.06 344.54C193.259 344.573 193.427 344.711 193.498 344.899L194.375 347.216L195.591 345.027C195.925 344.425 196.532 344.014 197.215 343.927L201.179 343.424C202.285 343.284 203.345 344.034 203.575 345.134L203.786 346.147L204.495 344.124C204.581 343.879 204.826 343.723 205.081 343.746C205.339 343.769 205.55 343.965 205.591 344.221L210.202 372.922C210.567 375.693 208.634 378.25 205.894 378.636L205.815 378.072L205.894 378.636C203.424 378.985 200.131 379.297 196.272 379.297ZM192.795 346.249C188.316 352.361 185.487 364 183.769 371.079L183.386 372.649C183.116 373.746 183.318 374.866 183.952 375.8C184.579 376.727 185.579 377.347 186.69 377.503C194.653 378.605 201.449 378.115 205.746 377.51C207.872 377.212 209.371 375.226 209.088 373.088L204.834 346.614L204.191 348.444C204.107 348.684 203.87 348.839 203.618 348.822C203.363 348.806 203.151 348.62 203.101 348.372L202.471 345.369C202.361 344.846 201.862 344.486 201.326 344.555L197.363 345.058C197.036 345.098 196.748 345.295 196.588 345.583L194.778 348.842C194.671 349.036 194.462 349.148 194.24 349.133C194.021 349.118 193.83 348.975 193.751 348.768L192.795 346.249Z" fill="black"/>
<path d="M194.123 374.486C191.431 374.486 188.518 374.246 185.614 373.585C185.308 373.516 185.117 373.21 185.186 372.904C185.257 372.598 185.561 372.406 185.867 372.475C195.762 374.734 206.126 371.83 206.231 371.802C206.531 371.715 206.845 371.891 206.932 372.192C207.018 372.493 206.842 372.81 206.542 372.894C206.231 372.983 200.873 374.486 194.123 374.486Z" fill="black"/>
<path d="M191.712 363.367C191.406 363.367 191.156 363.125 191.146 362.819C191.135 362.505 191.38 362.242 191.694 362.232L201.161 361.918C201.472 361.915 201.737 362.153 201.747 362.467C201.757 362.781 201.512 363.043 201.199 363.054L191.732 363.367C191.724 363.367 191.717 363.367 191.712 363.367Z" fill="black"/>
<path d="M239.865 327.942L241.379 349.763H253.53L254.096 327.942H239.865Z" fill="white"/>
<path d="M253.53 350.332H241.379C241.081 350.332 240.834 350.1 240.813 349.804L239.299 327.983C239.289 327.825 239.342 327.671 239.449 327.557C239.557 327.442 239.707 327.375 239.865 327.375H254.096C254.249 327.375 254.397 327.437 254.504 327.546C254.611 327.656 254.67 327.804 254.665 327.957L254.099 349.779C254.091 350.087 253.839 350.332 253.53 350.332ZM241.909 349.197H252.977L253.512 328.514H240.474L241.909 349.197Z" fill="black"/>
<path d="M238.206 362.084C238.175 364.148 239.585 365.96 241.593 366.427C248.58 368.055 264.318 371.679 268.806 372.348C274.633 373.215 281.794 371.429 284.873 368.017C287.952 364.605 277.98 356.46 273.247 353.494C266.217 349.092 259.462 340.388 256.63 339.997C253.798 339.607 248.511 347.832 248.511 347.832L239.87 344.198C239.865 344.2 238.358 351.613 238.206 362.084Z" fill="white"/>
<path d="M271.853 373.136C270.795 373.136 269.742 373.062 268.72 372.912C264.185 372.236 248.147 368.54 241.463 366.981C239.212 366.455 237.604 364.393 237.637 362.074C237.793 351.672 239.294 344.159 239.309 344.085C239.342 343.919 239.449 343.777 239.6 343.695C239.75 343.616 239.929 343.608 240.084 343.674L248.289 347.125C249.628 345.101 253.892 339.045 256.704 339.436C258.305 339.658 260.599 341.837 263.772 344.851C266.732 347.661 270.084 350.848 273.543 353.012C277.343 355.393 285.383 361.688 285.979 365.96C286.114 366.922 285.88 367.742 285.291 368.395C282.693 371.279 277.193 373.136 271.853 373.136ZM240.296 344.996C239.931 347.058 238.899 353.594 238.771 362.092C238.746 363.878 239.985 365.47 241.718 365.874C248.389 367.428 264.392 371.115 268.885 371.786C274.728 372.657 281.562 370.834 284.445 367.637C284.804 367.236 284.939 366.741 284.853 366.121C284.348 362.497 276.844 356.424 272.938 353.979C269.383 351.754 265.987 348.526 262.99 345.678C260.313 343.136 257.785 340.735 256.546 340.564C254.749 340.314 250.951 345.081 248.983 348.143C248.832 348.375 248.539 348.467 248.287 348.36L240.296 344.996ZM238.206 362.084H238.211H238.206Z" fill="black"/>
<path d="M271.73 369.137C259.1 369.137 242.121 362.27 241.165 361.877C240.874 361.757 240.737 361.425 240.854 361.137C240.971 360.846 241.305 360.708 241.593 360.826C241.904 360.953 272.681 373.404 281.74 365.213C281.975 365.003 282.332 365.021 282.543 365.253C282.752 365.486 282.734 365.845 282.502 366.057C280.022 368.3 276.14 369.137 271.73 369.137Z" fill="black"/>
<path d="M258.261 355.913C258.106 355.913 257.953 355.85 257.838 355.725C257.629 355.492 257.647 355.133 257.879 354.923L264.06 349.342C264.295 349.133 264.652 349.151 264.863 349.383C265.072 349.615 265.054 349.975 264.822 350.184L258.641 355.765C258.534 355.865 258.396 355.913 258.261 355.913Z" fill="black"/>
<path d="M189.117 185.688C189.117 185.688 185.352 253.903 183.381 277.452C181.411 301.001 187.99 338.854 187.99 338.854L206.748 337.866C206.748 337.866 208.033 291.843 209.427 279.06C209.427 279.06 217.349 261.733 219.7 246.281C222.047 230.829 230.046 206.42 230.046 206.42C230.046 206.42 236.541 328.246 237.168 337.818C237.168 337.818 251.878 338.474 257.15 335.151C257.15 335.151 266.494 290.73 265.151 266.561C263.81 242.392 265.284 182.345 265.284 182.345L189.117 185.688Z" fill="black"/>
<path d="M205.971 279.627H200.238C199.924 279.627 199.669 279.371 199.669 279.057C199.669 278.744 199.924 278.488 200.238 278.488H205.971C206.284 278.488 206.539 278.744 206.539 279.057C206.539 279.371 206.284 279.627 205.971 279.627Z" fill="white"/>
<path d="M246.816 315.057C246.814 315.057 246.808 315.057 246.806 315.057C246.492 315.052 246.243 314.792 246.248 314.478C246.454 303.219 258.799 283.031 259.324 282.178C259.487 281.911 259.839 281.829 260.104 281.992C260.372 282.156 260.453 282.508 260.29 282.773C260.163 282.98 247.583 303.551 247.382 314.498C247.377 314.81 247.125 315.057 246.816 315.057Z" fill="white"/>
<path d="M271.22 76.5888C272.587 76.4816 279.288 90.2236 300.264 89.6469C321.24 89.0702 338.068 65.5722 338.068 65.5722C338.068 65.5722 345.313 53.3434 350.811 48.9209C356.309 44.501 357.171 43.9166 357.171 43.9166C357.171 43.9166 358.894 46.2159 357.171 48.9209C355.448 51.626 350.689 56.6889 350.689 56.6889C350.689 56.6889 355.932 59.5701 353.566 65.5722C350.847 72.4751 343.184 71.9213 343.184 71.9213C343.184 71.9213 327.633 140.854 263.359 108.097L271.22 76.5888Z" fill="white"/>
<path d="M295.232 117.498C285.472 117.498 274.728 114.531 263.102 108.605C262.867 108.485 262.745 108.217 262.809 107.962L270.67 76.451C270.728 76.2137 270.932 76.0401 271.177 76.0223C271.74 75.9789 272.184 76.4739 273.257 77.6708C276.436 81.2205 283.876 89.5321 300.251 89.0804C320.71 88.519 337.444 65.4752 337.609 65.243C337.88 64.7811 344.943 52.9147 350.457 48.482C355.909 44.0953 356.819 43.4726 356.855 43.4496C357.104 43.2812 357.446 43.3374 357.627 43.5798C357.706 43.687 359.564 46.2287 357.652 49.2323C356.217 51.4856 352.802 55.2497 351.56 56.5945C352.944 57.6281 356.11 60.6776 354.099 65.784C351.665 71.9622 345.42 72.4802 343.633 72.4981C342.654 76.3259 335.045 103.376 313.373 113.558C307.778 116.187 301.722 117.498 295.232 117.498ZM264.019 107.796C282.877 117.31 299.313 118.905 312.881 112.532C335.603 101.858 342.565 72.0974 342.631 71.7963C342.692 71.5232 342.947 71.3369 343.225 71.3548C343.521 71.3752 350.51 71.7861 353.039 65.3655C355.185 59.9171 350.609 57.2963 350.413 57.1891C350.26 57.1049 350.153 56.9518 350.128 56.7783C350.1 56.6048 350.156 56.4287 350.276 56.3011C350.321 56.25 355.017 51.2483 356.691 48.6173C357.744 46.9662 357.334 45.4912 356.995 44.7537C356.296 45.2845 354.688 46.5324 351.165 49.365C345.81 53.6726 338.629 65.7406 338.555 65.8605C338.359 66.1387 321.293 89.6367 300.279 90.2135C299.838 90.2262 299.4 90.2313 298.972 90.2313C282.979 90.2313 275.607 81.9963 272.408 78.4262C272.113 78.097 271.814 77.7627 271.572 77.5151L264.019 107.796Z" fill="black"/>
<path d="M167.261 108.1C167.261 108.1 173.555 67.4248 195.795 57.4188C218.033 47.4102 248.119 48.8035 256.416 53.8002C264.713 58.7968 286.336 81.394 286.336 81.394L267.229 108.1C267.229 108.1 271.595 179.992 268.144 198.971C268.144 198.971 246.887 201.454 237.872 197.899C228.856 194.344 199.211 189.363 185.041 195.88L187.615 104.861L167.261 108.1Z" fill="white"/>
<path d="M253.14 200.392C247.494 200.392 241.522 199.948 237.66 198.427C228.784 194.929 199.438 189.883 185.275 196.398C185.097 196.48 184.89 196.465 184.725 196.355C184.562 196.248 184.465 196.062 184.47 195.865L187.026 105.53L167.351 108.661C167.172 108.689 166.989 108.631 166.861 108.503C166.734 108.375 166.673 108.192 166.701 108.013C166.961 106.339 173.297 66.9195 195.561 56.9007C217.477 47.0376 247.762 47.9257 256.706 53.3127C264.973 58.2915 285.859 80.0747 286.744 81.001C286.933 81.1975 286.955 81.5037 286.795 81.7257L267.805 108.268C268.057 112.509 272.034 180.74 268.699 199.073C268.654 199.318 268.455 199.507 268.207 199.535C267.705 199.593 260.718 200.392 253.14 200.392ZM204.301 192.132C217.742 192.132 232.256 195.074 238.078 197.368C246.169 200.558 264.636 198.772 267.657 198.45C270.922 179.137 266.704 108.845 266.663 108.133C266.655 108.003 266.691 107.873 266.767 107.768L285.602 81.445C282.862 78.6022 263.708 58.8529 256.125 54.285C248.317 49.5818 218.28 47.9205 196.03 57.9343C175.999 66.9476 168.972 101.766 167.955 107.413L187.523 104.3C187.692 104.274 187.86 104.323 187.987 104.435C188.115 104.547 188.184 104.708 188.181 104.879L185.632 195.005C190.659 192.923 197.337 192.132 204.301 192.132Z" fill="black"/>
<path d="M204.571 177.691C204.301 177.691 204.061 177.497 204.013 177.221C203.96 176.912 204.163 176.616 204.474 176.563C238.274 170.583 248.142 147.152 248.236 146.917C248.353 146.626 248.685 146.486 248.975 146.603C249.266 146.72 249.406 147.052 249.289 147.343C249.192 147.586 239.118 171.586 204.671 177.68C204.638 177.688 204.604 177.691 204.571 177.691Z" fill="black"/>
<path d="M265.618 136.528H222.343L235.896 88.1362H279.171L265.618 136.528Z" fill="black"/>
<path d="M171.077 108.256L192.978 98.4536C192.978 98.4536 189.894 135.604 234.204 118.45C234.204 118.45 232.57 113.676 232.802 108.1C233.034 102.524 236.365 107.919 236.832 112.451C237.298 116.983 247.701 115.143 253.953 113.357C260.206 111.57 268.411 112.739 253.953 120.724C239.495 128.709 236.327 125.147 236.327 125.147C236.327 125.147 217.864 151.013 194.89 145.516C166.634 138.759 171.077 108.256 171.077 108.256Z" fill="white"/>
<path d="M201.301 146.843C199.167 146.843 196.985 146.603 194.76 146.07C179.897 142.515 174.095 132.381 171.842 124.509C169.415 116.018 170.468 108.49 170.514 108.174C170.542 107.982 170.667 107.817 170.845 107.737L192.746 97.9356C192.93 97.8539 193.142 97.8743 193.307 97.9917C193.47 98.1091 193.562 98.303 193.544 98.5021C193.534 98.6373 192.532 112.127 201.362 118.734C208.191 123.845 219.004 123.636 233.503 118.111C233.085 116.707 232.042 112.688 232.233 108.077C232.264 107.365 232.353 105.196 233.671 105.157C233.681 105.157 233.691 105.157 233.701 105.157C235.414 105.157 237.092 109.463 237.395 112.395C237.459 113.01 237.752 113.487 238.292 113.854C240.89 115.613 248.267 114.393 253.795 112.813C256.696 111.984 261.611 111.433 262.454 113.484C263.176 115.238 260.484 117.769 254.226 121.227C242.378 127.767 237.877 126.742 236.444 125.94C234.066 129.046 219.639 146.843 201.301 146.843ZM171.6 108.643C171.432 110.141 170.843 116.912 172.943 124.233C176.101 135.242 183.532 142.216 195.023 144.965C197.159 145.475 199.262 145.707 201.314 145.707C220.707 145.71 235.7 125.047 235.866 124.817C235.965 124.677 236.126 124.59 236.296 124.58C236.477 124.57 236.635 124.641 236.75 124.769C236.77 124.787 240.015 127.77 253.678 120.227C261.855 115.71 261.476 114.084 261.407 113.913C261.057 113.063 257.723 112.869 254.109 113.903C251.178 114.74 241.328 117.279 237.658 114.791C236.834 114.232 236.365 113.464 236.268 112.507C235.929 109.212 234.262 106.385 233.707 106.291C233.717 106.311 233.434 106.615 233.37 108.12C233.146 113.518 234.726 118.216 234.744 118.264C234.843 118.552 234.696 118.869 234.413 118.979C219.271 124.84 207.921 125.062 200.679 119.64C192.642 113.62 192.282 102.649 192.369 99.3493L171.6 108.643Z" fill="black"/>
<path d="M229.536 38.8791C227.645 40.6144 223.946 42.73 221.051 41.2703C218.894 40.1832 217.691 37.3684 217.768 34.1428C216.771 34.2244 215.461 34.153 214.528 33.3287C213.09 32.0579 213.36 29.7178 213.416 28.179C213.676 21.0821 209.557 19.9924 210.564 15.177C211.357 11.3925 214.326 9.1366 214.882 8.71553C217.686 6.58724 219.585 7.2737 224.298 6.03602C232.231 3.95621 232.483 0.534099 237.708 0.516235C238.012 0.516235 245.124 0.592793 247.537 5.51288C249.5 9.51428 247.209 14.3757 244.836 16.9301C241.767 20.2374 239.562 18.6042 236.48 21.3781C231.073 26.2523 235.157 33.7294 229.536 38.8791Z" fill="black"/>
<path d="M245.366 26.2166L245.052 25.9461C243.482 24.591 241.848 23.0191 241.433 20.9877C239.661 12.3495 231.757 9.21322 231.392 17.1446C231.3 19.1453 223.997 19.0432 224.864 21.1434C227.122 26.6224 227.173 25.1474 223.985 27.1659C223.623 27.1812 223.266 27.2604 222.927 27.4186C221.293 28.1816 220.714 30.4043 221.634 32.382C222.193 33.584 223.179 34.4083 224.229 34.7094V43.3655C224.229 46.609 222.269 49.5309 219.269 50.7609L216.35 51.9552C216.35 51.9552 229.962 60.8486 243.778 51.085L241.935 50.2582C238.687 48.8011 236.556 45.6137 236.444 42.0538L236.429 40.3619C237.357 40.4435 238.257 40.3823 239.088 40.1399C242.952 39.0145 244.237 34.5563 243.579 29.0161L245.152 28.1688C245.888 27.7707 245.998 26.7602 245.366 26.2166Z" fill="white"/>
<path d="M229.809 56.199C221.948 56.199 216.131 52.4885 216.039 52.4298C215.863 52.315 215.764 52.1108 215.784 51.899C215.805 51.6898 215.94 51.506 216.134 51.4269L219.052 50.2326C221.851 49.0868 223.658 46.392 223.658 43.3654V35.1151C222.572 34.6787 221.66 33.7907 221.117 32.6219C220.064 30.3634 220.768 27.7962 222.685 26.903C223.031 26.7397 223.406 26.6427 223.804 26.607C224.331 26.2778 224.765 26.0482 225.116 25.8593C225.519 25.645 225.899 25.4408 225.909 25.3387C225.935 25.081 225.618 24.3537 225.183 23.3457C224.951 22.8098 224.668 22.159 224.339 21.3603C224.181 20.9801 224.186 20.5973 224.354 20.2528C224.793 19.3519 226.205 18.9564 227.836 18.497C229.016 18.1653 230.798 17.6651 230.824 17.119C231.025 12.7501 233.306 12.102 234.277 12.0254C237.069 11.8085 240.808 15.126 241.986 20.8729C242.371 22.7536 243.961 24.2567 245.422 25.5148L245.735 25.7853C246.174 26.163 246.398 26.7321 246.334 27.3088C246.271 27.8855 245.929 28.3908 245.419 28.6664L244.183 29.3299C244.818 35.452 243.028 39.5784 239.246 40.6808C238.552 40.8824 237.795 40.9743 237 40.959L237.01 42.0461C237.115 45.3534 239.138 48.3774 242.164 49.7376L244.007 50.5644C244.193 50.6486 244.321 50.8247 244.338 51.0288C244.359 51.233 244.267 51.4295 244.101 51.5469C239.131 55.0634 234.158 56.199 229.809 56.199ZM217.648 52.0368C220.895 53.7415 231.665 58.3247 242.618 51.1845L241.703 50.7736C238.282 49.2374 235.996 45.8204 235.878 42.0691L235.863 40.3644C235.86 40.2036 235.927 40.0505 236.047 39.9408C236.164 39.831 236.322 39.7774 236.482 39.7928C237.375 39.8719 238.2 39.8055 238.935 39.5912C242.21 38.6367 243.699 34.8063 243.021 29.0798C242.993 28.8476 243.11 28.623 243.316 28.5133L244.889 27.6661C245.073 27.5665 245.19 27.393 245.213 27.1863C245.236 26.9796 245.159 26.7831 245.001 26.6479L244.688 26.3773C243.087 24.9968 241.338 23.3329 240.882 21.1026C239.862 16.1263 236.689 12.9773 234.374 13.1584C232.955 13.2707 232.078 14.733 231.966 17.1726C231.902 18.5404 230.079 19.0534 228.15 19.5944C227.071 19.8955 225.596 20.3115 225.381 20.7529C225.369 20.7785 225.348 20.8193 225.394 20.929C225.72 21.7201 226.001 22.3657 226.23 22.8965C227.298 25.3566 227.52 25.8695 225.657 26.8673C225.295 27.0613 224.844 27.3037 224.293 27.6508C224.209 27.7043 224.112 27.735 224.013 27.7375C223.709 27.7503 223.426 27.8166 223.171 27.9366C221.823 28.5669 221.367 30.4528 222.152 32.1447C222.616 33.1425 223.454 33.8978 224.387 34.1658C224.632 34.2347 224.8 34.4593 224.8 34.7119V43.3654C224.8 46.8564 222.715 49.9647 219.488 51.2866L217.648 52.0368Z" fill="black"/>
<path d="M236.431 40.9258C236.403 40.9258 236.373 40.9232 236.345 40.9181C230.775 40.0632 228.272 35.8066 228.168 35.628C228.012 35.3575 228.104 35.0104 228.377 34.8522C228.647 34.6965 228.993 34.7884 229.151 35.0589C229.174 35.0972 231.502 39.0246 236.516 39.7953C236.827 39.8438 237.038 40.1321 236.99 40.4434C236.946 40.7242 236.707 40.9258 236.431 40.9258Z" fill="black"/>
<path d="M173.964 322.832L165.343 411.204L159.192 410.947L162.249 318.044L173.964 322.832Z" fill="white"/>
<path d="M165.343 411.774C165.335 411.774 165.328 411.774 165.32 411.774L159.169 411.516C158.858 411.503 158.616 411.24 158.626 410.929L161.683 318.027C161.688 317.84 161.785 317.669 161.94 317.567C162.096 317.465 162.292 317.447 162.463 317.519L174.178 322.309C174.41 322.403 174.553 322.64 174.527 322.89L165.906 411.263C165.881 411.552 165.634 411.774 165.343 411.774ZM159.779 410.403L164.831 410.615L173.357 323.199L162.786 318.879L159.779 410.403Z" fill="black"/>
<path d="M58.3303 319.652L66.7446 411.424L73.1044 410.947L70.0481 314.691L58.3303 319.652Z" fill="white"/>
<path d="M66.7446 411.993C66.454 411.993 66.2068 411.771 66.1787 411.477L57.767 319.706C57.744 319.458 57.8842 319.226 58.1111 319.131L69.8264 314.17C69.9997 314.096 70.196 314.114 70.354 314.216C70.5121 314.318 70.6089 314.489 70.6166 314.678L73.6728 410.934C73.683 411.238 73.4511 411.495 73.1477 411.518L66.7879 411.995C66.7726 411.993 66.7574 411.993 66.7446 411.993ZM58.9344 320.014L67.257 410.817L72.5181 410.421L69.5052 315.538L58.9344 320.014Z" fill="black"/>
<path d="M29.0472 298.058L31.5223 394.426L36.4878 393.349L41.0429 293.477L29.0472 298.058Z" fill="white"/>
<path d="M31.5223 394.995C31.3974 394.995 31.2725 394.954 31.1706 394.872C31.038 394.768 30.959 394.609 30.9539 394.441L28.4788 298.073C28.4712 297.833 28.619 297.614 28.8433 297.527L40.839 292.944C41.0174 292.875 41.2188 292.903 41.3743 293.015C41.5298 293.127 41.6164 293.311 41.6088 293.503L37.0537 393.374C37.0409 393.632 36.8574 393.849 36.6076 393.902L31.6421 394.979C31.6013 394.99 31.5606 394.995 31.5223 394.995ZM29.6259 298.446L32.0729 393.724L35.9423 392.884L40.4362 294.314L29.6259 298.446Z" fill="black"/>
<path d="M126.086 295.904L128.561 392.269L133.723 392.297L138.081 291.321L126.086 295.904Z" fill="white"/>
<path d="M101.154 220.64V243.064C101.154 264.993 118.428 282.772 139.741 282.772C161.051 282.772 178.328 300.548 178.328 322.48C178.328 324.434 176.747 326.017 174.8 326.017H72.6583C40.7115 326.017 14.811 299.367 14.811 266.491V218.647C14.811 205.571 25.1115 194.971 37.8184 194.971H76.2066C89.984 194.971 101.154 206.465 101.154 220.64Z" fill="white"/>
<path d="M174.8 326.583H72.6584C40.449 326.583 14.2451 299.625 14.2451 266.488V218.645C14.2451 205.278 24.821 194.402 37.821 194.402H76.2091C90.2772 194.402 101.725 206.174 101.725 220.64V243.064C101.725 264.646 118.78 282.203 139.743 282.203C161.334 282.203 178.899 300.27 178.899 322.477C178.896 324.741 177.058 326.583 174.8 326.583ZM37.8184 195.54C25.4455 195.54 15.3794 205.906 15.3794 218.647V266.491C15.3794 298.999 41.0761 325.447 72.6584 325.447H174.8C176.431 325.447 177.759 324.115 177.759 322.477C177.759 300.895 160.704 283.338 139.741 283.338C118.151 283.338 100.585 265.271 100.585 243.064V220.64C100.585 206.799 89.6501 195.537 76.2066 195.537H37.8184V195.54Z" fill="black"/>
<path d="M4.91824 178.804C3.35315 178.156 1.97413 177.026 1.10746 175.477C-0.17724 173.182 -0.862925 169.51 2.02256 164.264C8.54039 152.415 19.4272 158.016 23.5923 156.644C32.9243 153.568 30.7168 148.516 34.5098 143.608C37.3468 139.936 47.1427 133.008 62.0213 145.913C62.0213 145.913 68.7022 155.041 76.2754 151.568C85.5793 147.301 104.274 156.955 98.3677 171.309C96.6649 175.449 93.5959 178.631 89.8565 180.358C89.1785 180.672 88.4367 180.973 87.6312 181.252C85.2989 182.055 83.4967 184.138 82.913 186.822C81.0114 195.565 73.8105 212.441 47.0866 195.458C45.0703 194.177 42.6794 194.016 40.5943 194.983C38.0325 196.175 35.2541 200.789 22.9015 198.842C14.9665 197.592 12.4455 188.346 10.3502 184.138C8.68314 180.79 6.28706 179.371 4.91824 178.804Z" fill="black"/>
<path d="M142.333 243.324C131.824 246.614 111.691 237.486 108.258 222.174C105.536 210.035 101.281 203.874 99.6346 201.841C98.8469 200.496 97.812 199.232 96.4432 198.028C86.655 189.415 69.7015 192.204 62.3654 193.412C54.0429 194.779 47.1478 195.915 42.4602 201.2C41.2137 202.604 40.3317 204.073 39.7251 205.638V205.633C30.7678 222.519 38.0274 239.953 42.5061 248.007C43.2453 280.302 32.5776 275.226 35.4657 289.565C39.5314 309.766 72.0262 302.215 83.846 299.635C87.9932 298.729 109.706 305.185 115.013 288.414C118.11 278.628 112.224 274.108 107.027 257.457C133.651 274.024 153.426 245.772 153.426 245.772L155.478 235.868C155.476 235.868 150.105 240.89 142.333 243.324Z" fill="white"/>
<path d="M58.5087 303.751C52.2101 303.751 46.1333 302.758 41.6419 299.821C38.058 297.479 35.7919 294.067 34.9074 289.675C33.6125 283.244 34.9635 280.6 36.8294 276.941C39.1541 272.388 42.3352 266.156 41.9401 248.16C37.0639 239.341 30.3141 222.169 39.2178 205.375C39.8703 203.714 40.7905 202.223 42.0345 200.822C46.8572 195.387 54.0021 194.21 62.2736 192.85C69.6224 191.64 86.8283 188.81 96.8179 197.602C98.1867 198.804 99.2598 200.085 100.101 201.516C101.834 203.665 106.086 209.905 108.811 222.049C110.289 228.643 115.265 234.811 122.461 238.968C129.267 242.901 137.001 244.396 142.162 242.781C149.713 240.418 155.035 235.5 155.088 235.452C155.269 235.283 155.54 235.25 155.754 235.373C155.968 235.495 156.082 235.74 156.032 235.983L153.98 245.886C153.964 245.963 153.934 246.035 153.888 246.098C153.837 246.17 148.78 253.318 140.5 258.314C133.055 262.806 121.467 266.419 108.023 258.715C109.678 263.763 111.393 267.69 112.795 270.898C115.711 277.576 117.638 281.986 115.551 288.585C111.233 302.228 96.4381 300.99 88.4877 300.326C86.4867 300.161 84.761 300.015 83.9632 300.189L83.224 300.349C77.3434 301.638 67.6928 303.751 58.5087 303.751ZM40.1941 205.959C31.5402 222.343 38.2339 239.16 43.0005 247.732C43.0464 247.813 43.0694 247.903 43.0719 247.994C43.4925 266.386 40.2272 272.786 37.8413 277.459C36.0137 281.042 34.8029 283.41 36.0213 289.453C36.8421 293.533 38.9425 296.703 42.2613 298.872C52.906 305.828 73.2191 301.378 82.9818 299.242L83.7236 299.079C84.6871 298.869 86.321 299.005 88.5846 299.193C96.7542 299.875 110.427 301.018 114.472 288.241C116.43 282.05 114.671 278.023 111.758 271.352C110.216 267.82 108.296 263.428 106.484 257.625C106.412 257.398 106.491 257.151 106.677 257.005C106.866 256.86 107.124 256.847 107.325 256.972C118.161 263.714 129.114 263.844 139.886 257.357C147.462 252.795 152.279 246.382 152.894 245.537L154.586 237.368C152.537 239.004 148.173 242.092 142.501 243.865C137.049 245.573 128.961 244.036 121.893 239.953C114.421 235.638 109.249 229.202 107.702 222.299C105.018 210.326 100.856 204.255 99.191 202.2C99.1732 202.177 99.1579 202.154 99.1426 202.129C98.36 200.789 97.3532 199.59 96.0685 198.457C86.4816 190.023 69.6479 192.791 62.4572 193.973C54.0658 195.354 47.4384 196.443 42.8833 201.578C41.7158 202.892 40.8568 204.288 40.2527 205.844C40.2374 205.885 40.217 205.924 40.1941 205.959ZM142.333 243.324H142.338H142.333Z" fill="black"/>
<path d="M95.8748 240.683C95.8748 240.683 115.046 233.686 121.031 220.896L133.371 209.384C133.371 209.384 133.197 214.95 129.532 217.272C129.532 217.272 132.677 223.613 128.036 227.99C128.036 227.99 124.554 230.761 122.479 230.81C122.479 230.81 116.402 250.794 99.994 256.745C99.9965 256.747 95.3879 249.735 95.8748 240.683Z" fill="white"/>
<path d="M99.9965 257.314C99.8104 257.314 99.6295 257.222 99.5224 257.059C99.3312 256.765 94.8169 249.786 95.3089 240.653C95.3216 240.425 95.4669 240.226 95.681 240.15C95.8697 240.081 114.702 233.084 120.519 220.656C120.549 220.589 120.593 220.531 120.646 220.482L132.986 208.971C133.154 208.815 133.399 208.774 133.608 208.868C133.817 208.963 133.947 209.175 133.942 209.404C133.934 209.634 133.728 214.901 130.241 217.479C130.873 219.074 132.578 224.491 128.428 228.406C128.255 228.546 125.14 231.009 122.907 231.343C121.966 234.112 115.444 251.751 100.193 257.281C100.127 257.304 100.063 257.314 99.9965 257.314ZM96.4253 241.084C96.1424 248.487 99.3363 254.507 100.239 256.051C115.869 250.069 121.88 230.84 121.938 230.646C122.01 230.412 122.224 230.251 122.469 230.243C124.013 230.205 126.759 228.283 127.686 227.546C131.923 223.547 129.147 217.767 129.027 217.525C128.9 217.264 128.986 216.948 129.231 216.792C131.469 215.373 132.31 212.587 132.624 210.861L121.5 221.24C115.816 233.221 99.1579 240.035 96.4253 241.084Z" fill="black"/>
<path d="M78.595 263.097C62.6203 263.097 53.4515 255.173 53.3291 255.063C53.0946 254.854 53.0742 254.497 53.2807 254.262C53.4897 254.027 53.8466 254.004 54.0811 254.213C54.2417 254.356 70.5605 268.405 97.7177 258.317C98.0108 258.207 98.3371 258.358 98.4467 258.651C98.5563 258.945 98.4059 259.271 98.1128 259.381C90.815 262.094 84.2716 263.097 78.595 263.097Z" fill="black"/>
<path d="M88.3985 241.456C74.4809 241.456 66.3776 233.522 61.9397 226.528C56.7193 218.3 55.3301 209.56 55.3174 209.471C55.269 209.159 55.4831 208.871 55.7915 208.823C56.105 208.774 56.3905 208.988 56.439 209.297C56.4517 209.381 57.8129 217.92 62.916 225.946C69.7142 236.638 79.584 241.408 92.2501 240.117C92.5585 240.083 92.8414 240.313 92.872 240.624C92.9026 240.936 92.6757 241.216 92.3648 241.247C90.9959 241.39 89.673 241.456 88.3985 241.456Z" fill="black"/>
<path d="M99.1936 231.379C99.1655 231.379 99.1375 231.376 99.1094 231.374C98.7985 231.328 98.5843 231.039 98.6302 230.728C101.133 213.595 93.3028 203.902 93.2238 203.805C93.0249 203.563 93.0581 203.206 93.2977 203.004C93.5398 202.803 93.8967 202.836 94.0955 203.078C94.432 203.484 102.334 213.23 99.7518 230.891C99.7136 231.177 99.4689 231.379 99.1936 231.379Z" fill="black"/>
<path d="M95.6556 183.232C95.1228 179.664 95.9768 170.194 95.8213 170.424C94.2944 172.664 89.2677 170.013 84.7432 169.834C80.2162 169.656 81.7405 176.462 81.7405 176.462C81.7405 176.462 80.415 171.843 77.5907 174.734C75.9517 176.413 77.7589 178.577 79.4413 179.994C78.9799 180.522 70.8256 189.318 65.8321 194.55L76.9076 202.966L82.4517 197.78L81.3225 195.976C80.517 194.69 80.4431 193.075 81.1313 191.722L83.8434 187.121C84.4654 187.874 85.253 188.736 85.977 189.244C87.4223 190.252 89.2168 190.097 90.4913 188.879C92.2373 187.21 93.4609 185.335 94.014 183.513L95.6556 183.232Z" fill="white"/>
<path d="M76.9075 203.532C76.7877 203.532 76.6654 203.494 76.5634 203.418L65.488 195.001C65.358 194.904 65.2789 194.754 65.2662 194.593C65.2534 194.432 65.3095 194.272 65.4217 194.154C69.9844 189.374 76.905 181.92 78.6332 180.037C77.5601 179.054 76.4487 177.717 76.3824 176.349C76.3468 175.597 76.617 174.918 77.1854 174.336C78.0877 173.412 78.9824 173.055 79.8517 173.274C80.2697 173.379 80.6266 173.611 80.9299 173.9C80.9503 172.69 81.1797 171.33 81.9571 170.396C82.6199 169.597 83.563 169.219 84.7662 169.265C86.474 169.332 88.2634 169.745 89.8438 170.107C92.3979 170.694 94.6028 171.202 95.3548 170.102C95.4975 169.891 95.7703 169.799 96.0124 169.88C96.4585 170.031 96.4585 170.031 96.3183 172.529C96.1577 175.395 95.8595 180.731 96.2214 183.148C96.2673 183.454 96.0608 183.74 95.755 183.791L94.4524 184.013C93.8228 185.837 92.5967 187.654 90.8863 189.288C89.413 190.696 87.3101 190.865 85.6558 189.706C85.1511 189.354 84.5724 188.81 83.9326 188.091L81.6258 192.008C81.0497 193.146 81.1109 194.56 81.8067 195.67L82.936 197.474C83.0813 197.704 83.0405 198.005 82.8416 198.191L77.2975 203.377C77.1854 203.481 77.0477 203.532 76.9075 203.532ZM66.6809 194.481L76.8693 202.223L81.7226 197.686L80.8407 196.28C79.9332 194.833 79.8517 192.988 80.6266 191.467L83.354 186.835C83.4483 186.674 83.614 186.572 83.7975 186.557C83.9811 186.542 84.162 186.618 84.2793 186.761C85.0669 187.713 85.7475 188.392 86.3007 188.78C87.5191 189.632 89.0103 189.51 90.0987 188.471C91.7709 186.871 92.9383 185.1 93.471 183.349C93.5348 183.143 93.7081 182.99 93.9197 182.954L95.0259 182.765C94.7557 180.062 95.0285 175.178 95.1814 172.468C95.1967 172.175 95.2146 171.884 95.2273 171.621C93.8687 172.203 91.8448 171.738 89.5863 171.218C87.9805 170.848 86.3211 170.467 84.7177 170.403C83.8816 170.37 83.2571 170.608 82.8264 171.126C81.7277 172.448 82.0667 175.336 82.2911 176.339C82.3573 176.638 82.1764 176.936 81.8781 177.013C81.5824 177.089 81.2766 176.916 81.1924 176.62C81.0446 176.107 80.4252 174.594 79.5687 174.379C79.1226 174.267 78.5924 174.52 77.9934 175.135C77.6493 175.487 77.4913 175.867 77.5117 176.298C77.555 177.197 78.3707 178.355 79.8032 179.562C79.9205 179.662 79.9918 179.802 80.0046 179.955C80.0173 180.108 79.9664 180.259 79.8644 180.374C79.4387 180.856 71.8019 189.104 66.6809 194.481Z" fill="black"/>
<path d="M82.9768 185.911L83.8435 187.121L82.9768 185.911Z" fill="white"/>
<path d="M83.8434 187.69C83.6676 187.69 83.4917 187.609 83.3821 187.453L82.5154 186.243C82.3319 185.988 82.3905 185.633 82.6454 185.45C82.9003 185.266 83.2546 185.325 83.4382 185.58L84.3048 186.789C84.4883 187.045 84.4297 187.399 84.1748 187.583C84.0729 187.657 83.9582 187.69 83.8434 187.69Z" fill="black"/>
<path d="M179.279 365.694C179.169 366.145 184.476 390.452 184.476 390.452L172.282 388.408L168.608 367.858L179.279 365.694Z" fill="white"/>
<path d="M184.476 391.021C184.445 391.021 184.415 391.019 184.382 391.014L172.187 388.97C171.95 388.929 171.764 388.745 171.723 388.51L168.05 367.96C167.997 367.656 168.193 367.363 168.496 367.301L179.169 365.137C179.36 365.099 179.556 365.16 179.692 365.301C179.801 365.416 179.857 365.569 179.85 365.724C179.931 366.732 182.987 380.959 185.034 390.335C185.075 390.519 185.021 390.713 184.891 390.848C184.779 390.958 184.629 391.021 184.476 391.021ZM172.768 387.913L183.742 389.753C180.117 373.138 179.092 368.006 178.815 366.367L169.261 368.304L172.768 387.913Z" fill="black"/>
<path d="M177.999 382.48C178.746 381.852 179.811 381.24 181.17 381.181C183.214 381.095 185.078 382.376 185.924 384.256C188.04 388.962 193.614 402.071 195.192 412.784C195.75 416.571 192.895 419.651 188.447 417.168C181.16 413.103 171.05 403.768 165.756 389.98C165.149 388.398 165.366 386.609 166.363 385.241C167.178 384.126 168.282 382.776 169.567 381.623C170.793 380.523 172.638 380.508 173.91 381.554L175.055 382.498C175.916 383.208 177.148 383.197 177.999 382.48Z" fill="white"/>
<path d="M191.45 418.633C190.555 418.633 189.462 418.386 188.17 417.663C180.545 413.409 170.512 403.957 165.226 390.184C164.54 388.401 164.795 386.425 165.904 384.907C166.974 383.442 168.078 382.194 169.187 381.202C170.625 379.913 172.761 379.875 174.27 381.117L175.417 382.062C176.059 382.593 176.992 382.585 177.634 382.044C178.685 381.161 179.898 380.666 181.144 380.612C183.347 380.518 185.48 381.888 186.441 384.022C188.718 389.085 194.18 402.015 195.753 412.7C196.074 414.884 195.35 416.88 193.864 417.908C193.375 418.245 192.569 418.633 191.45 418.633ZM171.769 381.35C171.114 381.35 170.467 381.584 169.947 382.049C168.896 382.991 167.846 384.177 166.822 385.578C165.94 386.785 165.741 388.355 166.286 389.776C171.466 403.266 181.272 412.514 188.723 416.671C190.481 417.653 192.077 417.758 193.217 416.972C194.346 416.191 194.886 414.619 194.629 412.866C193.079 402.324 187.662 389.508 185.406 384.489C184.637 382.774 182.947 381.671 181.195 381.748C180.186 381.791 179.235 382.184 178.366 382.914C177.306 383.807 175.763 383.817 174.695 382.94L173.548 381.995C173.026 381.564 172.394 381.35 171.769 381.35Z" fill="black"/>
<path d="M192.416 414.366C191.455 414.366 181.172 413.764 168.703 389.092C168.56 388.811 168.672 388.47 168.952 388.329C169.233 388.186 169.574 388.299 169.715 388.579C182.212 413.307 192.327 413.233 192.434 413.231C192.763 413.218 193.01 413.465 193.023 413.779C193.033 414.093 192.788 414.356 192.475 414.366C192.462 414.366 192.442 414.366 192.416 414.366Z" fill="black"/>
<path d="M184.611 400.785C184.384 400.785 184.17 400.65 184.083 400.425C183.969 400.134 184.111 399.803 184.402 399.688L190.183 397.404C190.476 397.289 190.805 397.432 190.92 397.723C191.035 398.014 190.892 398.345 190.601 398.46L184.82 400.744C184.751 400.772 184.68 400.785 184.611 400.785Z" fill="black"/>
<path d="M182.585 396.35C182.358 396.35 182.144 396.212 182.054 395.987C181.94 395.694 182.085 395.365 182.378 395.253L189.159 392.611C189.452 392.496 189.78 392.642 189.893 392.935C190.007 393.229 189.862 393.558 189.569 393.67L182.789 396.312C182.722 396.337 182.653 396.35 182.585 396.35Z" fill="black"/>
<path d="M126.799 367.901C126.511 368.266 121.12 392.555 121.12 392.555L110.911 385.568L116.206 365.375L126.799 367.901Z" fill="white"/>
<path d="M121.12 393.122C121.008 393.122 120.896 393.088 120.799 393.022L110.59 386.035C110.391 385.9 110.3 385.655 110.361 385.422L115.655 365.229C115.734 364.931 116.035 364.749 116.336 364.821L126.929 367.347C127.118 367.393 127.271 367.531 127.335 367.715C127.386 367.865 127.373 368.026 127.302 368.164C126.952 369.113 123.753 383.307 121.673 392.678C121.633 392.861 121.503 393.014 121.327 393.083C121.263 393.109 121.192 393.122 121.12 393.122ZM111.564 385.323L120.748 391.611C124.437 375.011 125.66 369.922 126.096 368.317L116.614 366.056L111.564 385.323Z" fill="black"/>
<path d="M118.592 382.595C119.532 382.34 120.758 382.233 122.012 382.751C123.904 383.532 125.056 385.479 125.036 387.543C124.979 392.703 124.536 406.943 121.467 417.329C120.384 420.999 116.501 422.594 113.506 418.47C108.599 411.715 103.346 398.989 104.332 384.254C104.445 382.562 105.393 381.031 106.871 380.212C108.079 379.543 109.65 378.782 111.296 378.277C112.872 377.795 114.551 378.558 115.268 380.043L115.913 381.38C116.394 382.378 117.518 382.886 118.592 382.595Z" fill="white"/>
<path d="M117.437 421.473C116.31 421.473 114.646 421.004 113.047 418.802C107.914 411.733 102.78 398.935 103.767 384.213C103.894 382.304 104.952 380.622 106.598 379.711C108.184 378.834 109.708 378.167 111.133 377.731C112.979 377.167 114.934 378.032 115.78 379.793L116.425 381.13C116.787 381.881 117.636 382.268 118.444 382.049C119.767 381.689 121.077 381.75 122.232 382.228C124.276 383.07 125.632 385.211 125.606 387.551C125.545 393.104 125.074 407.137 122.015 417.49C121.39 419.608 119.894 421.114 118.112 421.42C117.919 421.45 117.692 421.473 117.437 421.473ZM112.267 378.693C112.002 378.693 111.73 378.731 111.465 378.813C110.116 379.226 108.663 379.862 107.149 380.702C105.841 381.426 105.003 382.766 104.901 384.287C103.937 398.705 108.954 411.225 113.968 418.13C115.15 419.761 116.552 420.529 117.919 420.294C119.27 420.062 120.422 418.86 120.924 417.163C123.942 406.945 124.408 393.037 124.47 387.533C124.49 385.652 123.417 383.94 121.798 383.274C120.863 382.889 119.836 382.845 118.742 383.141C117.404 383.506 116.002 382.866 115.403 381.62L114.758 380.283C114.279 379.288 113.305 378.693 112.267 378.693Z" fill="black"/>
<path d="M118.558 417.661C118.485 417.661 118.411 417.646 118.339 417.617C117.931 417.446 108.362 413.095 107.381 384.682C107.371 384.369 107.616 384.106 107.929 384.096C108.235 384.088 108.505 384.33 108.515 384.644C109.474 412.338 118.686 416.533 118.78 416.571C119.068 416.694 119.206 417.025 119.084 417.316C118.992 417.531 118.78 417.661 118.558 417.661Z" fill="black"/>
<path d="M123.351 402.398C123.34 402.398 123.328 402.398 123.317 402.398L117.113 402.038C116.8 402.02 116.56 401.752 116.58 401.438C116.598 401.124 116.861 400.887 117.179 400.905L123.384 401.265C123.697 401.283 123.937 401.551 123.917 401.865C123.899 402.166 123.649 402.398 123.351 402.398Z" fill="black"/>
<path d="M124.431 397.618C124.419 397.618 124.408 397.618 124.396 397.618L117.134 397.161C116.82 397.141 116.583 396.873 116.603 396.559C116.624 396.245 116.897 396.008 117.205 396.028L124.467 396.485C124.781 396.506 125.018 396.773 124.997 397.087C124.977 397.386 124.727 397.618 124.431 397.618Z" fill="black"/>
<path d="M69.7576 272.166C69.7576 272.166 144.021 268.94 152.139 276.486C163.151 286.725 182.07 371.956 182.07 371.956L163.803 377.083C163.803 377.083 136.279 307.135 129.461 307.135C122.642 307.135 58.3431 304.838 58.3431 304.838L69.7576 272.166Z" fill="black"/>
<path d="M64.8482 270.306C58.9778 270.005 53.7319 273.929 52.3503 279.651C50.2092 288.511 48.3586 300.628 53.1482 303.853C60.9431 309.102 117.123 308.656 115.173 308C113.226 307.344 110.149 355.134 110.149 373.51L127.837 374.194C127.837 374.194 156.026 300.288 152.988 292.035C147.551 277.272 105.706 273.889 92.3164 271.916C90.5193 271.651 75.2481 270.839 64.8482 270.306Z" fill="black"/>
<path d="M143.648 332.7C143.59 332.7 143.534 332.692 143.475 332.672C143.177 332.575 143.011 332.256 143.108 331.957C143.745 329.969 144.377 328.015 144.994 326.098C149.944 310.784 154.219 297.56 152.45 292.211C148.693 280.858 120.59 276.504 111.355 275.075C111.044 275.027 110.832 274.736 110.881 274.427C110.929 274.116 111.22 273.904 111.528 273.952C127.85 276.481 149.962 281.085 153.526 291.854C155.412 297.555 151.29 310.304 146.073 326.448C145.453 328.362 144.821 330.317 144.186 332.302C144.112 332.547 143.888 332.7 143.648 332.7Z" fill="white"/>
<path d="M306.316 309.717L314.937 398.09L321.091 397.832L318.034 304.927L306.316 309.717Z" fill="white"/>
<path d="M314.937 398.659C314.647 398.659 314.402 398.437 314.371 398.146L305.751 309.774C305.725 309.524 305.868 309.286 306.1 309.192L317.815 304.402C317.986 304.33 318.182 304.351 318.338 304.45C318.493 304.552 318.59 304.723 318.595 304.91L321.651 397.812C321.662 398.123 321.419 398.386 321.108 398.399L314.958 398.657C314.952 398.659 314.945 398.659 314.937 398.659ZM306.923 310.082L315.45 397.498L320.502 397.286L317.491 305.762L306.923 310.082Z" fill="black"/>
<path d="M421.95 306.538L413.538 398.31L407.178 397.832L410.235 301.577L421.95 306.538Z" fill="white"/>
<path d="M413.538 398.879C413.523 398.879 413.51 398.879 413.495 398.876L407.135 398.399C406.832 398.376 406.6 398.118 406.61 397.815L409.666 301.559C409.671 301.373 409.771 301.199 409.929 301.097C410.087 300.995 410.283 300.98 410.456 301.051L422.172 306.012C422.399 306.109 422.539 306.341 422.516 306.586L414.104 398.358C414.076 398.657 413.829 398.879 413.538 398.879ZM407.762 397.304L413.023 397.7L421.346 306.898L410.775 302.422L407.762 397.304Z" fill="black"/>
<path d="M451.236 284.944L448.76 381.309L443.792 380.232L439.24 280.36L451.236 284.944Z" fill="white"/>
<path d="M448.761 381.878C448.72 381.878 448.679 381.873 448.641 381.865L443.675 380.788C443.423 380.735 443.239 380.515 443.229 380.26L438.674 280.388C438.666 280.197 438.753 280.013 438.909 279.901C439.064 279.789 439.265 279.763 439.444 279.83L451.44 284.413C451.664 284.5 451.812 284.716 451.804 284.959L449.329 381.327C449.324 381.495 449.245 381.653 449.112 381.758C449.01 381.837 448.885 381.878 448.761 381.878ZM444.341 379.77L448.21 380.61L450.657 285.331L439.847 281.202L444.341 379.77Z" fill="black"/>
<path d="M354.195 282.787L351.719 379.155L346.56 379.183L342.199 278.206L354.195 282.787Z" fill="white"/>
<path d="M346.56 379.752C346.257 379.752 346.007 379.512 345.994 379.209L341.633 278.232C341.625 278.041 341.712 277.859 341.868 277.747C342.023 277.635 342.224 277.609 342.403 277.678L354.398 282.261C354.623 282.348 354.771 282.565 354.763 282.808L352.288 379.175C352.28 379.482 352.03 379.727 351.725 379.729L346.565 379.757C346.563 379.752 346.56 379.752 346.56 379.752ZM342.803 279.043L347.103 378.611L351.166 378.588L353.616 283.175L342.803 279.043Z" fill="black"/>
<path d="M379.127 207.526V229.95C379.127 251.878 361.849 269.658 340.54 269.658C319.23 269.658 301.953 287.434 301.953 309.365C301.953 311.32 303.533 312.902 305.48 312.902H407.622C439.569 312.902 465.469 286.253 465.469 253.376V205.531C465.469 192.455 455.169 181.854 442.462 181.854H404.074C390.296 181.854 379.127 193.348 379.127 207.526Z" fill="white"/>
<path d="M407.624 313.469H305.483C303.224 313.469 301.389 311.626 301.389 309.363C301.389 287.156 318.954 269.088 340.545 269.088C361.508 269.088 378.563 251.531 378.563 229.95V207.526C378.563 193.057 390.008 181.287 404.076 181.287H442.464C455.464 181.287 466.04 192.164 466.04 205.531V253.374C466.038 286.51 439.834 313.469 407.624 313.469ZM404.074 182.423C390.63 182.423 379.695 193.685 379.695 207.526V229.95C379.695 252.157 362.13 270.224 340.539 270.224C319.576 270.224 302.521 287.781 302.521 309.363C302.521 311.001 303.849 312.333 305.48 312.333H407.622C439.207 312.333 464.901 285.885 464.901 253.376V205.531C464.901 192.789 454.835 182.423 442.462 182.423H404.074Z" fill="black"/>
<path d="M371.836 208.583C371.836 208.583 366.269 259.253 328.88 262.571L371.836 263.183C371.836 263.183 387.742 230.881 388.387 218.303C389.032 205.722 371.836 208.583 371.836 208.583Z" fill="white"/>
<path d="M371.836 263.75C371.834 263.75 371.831 263.75 371.829 263.75L328.873 263.137C328.569 263.132 328.325 262.892 328.314 262.591C328.304 262.29 328.531 262.03 328.832 262.004C347.865 260.318 358.383 245.91 363.853 234.12C369.817 221.271 371.26 208.646 371.273 208.519C371.301 208.266 371.495 208.062 371.745 208.021C372.135 207.957 381.354 206.482 386.169 210.788C388.183 212.587 389.119 215.126 388.955 218.331C388.311 230.881 372.999 262.109 372.346 263.433C372.249 263.627 372.053 263.75 371.836 263.75ZM335.143 262.091L371.485 262.609C373.139 259.205 387.222 229.924 387.821 218.272C387.966 215.427 387.158 213.194 385.412 211.635C381.546 208.177 374.171 208.853 372.346 209.085C372.033 211.446 370.299 222.917 364.895 234.571C357.97 249.505 347.766 258.906 335.143 262.091Z" fill="black"/>
<path d="M425.047 176.377C417.795 174.668 414.769 174.645 388.405 175.602C381.961 175.836 374.296 183.941 373.539 190.359C375.589 196.515 385.04 226.91 368.538 250.659C366.195 254.027 363.014 257.722 358.643 261.267C361.097 263.257 364.913 265.848 370.037 267.371C378.543 269.903 382.82 267.167 389.674 267.371C407.808 267.912 414.456 288.154 426.169 285.612C429.296 284.933 433.441 282.489 437.326 274.287C439.528 267.486 441.488 259.501 442.579 250.477C445.539 226.015 440.698 205.645 436.372 192.863C435.088 188.828 433.599 178.393 425.047 176.377Z" fill="black"/>
<path d="M366.924 214.261C366.924 214.261 371.189 179.996 383.475 177.072L380.653 222.144L366.924 214.261Z" fill="black"/>
<path d="M429.37 205.115C434.983 207.496 441.575 210.303 447.379 212.798C447.381 212.872 447.381 212.941 447.384 213.015L429.375 205.235L429.37 205.115Z" fill="white"/>
<path d="M447.384 213.584C447.308 213.584 447.231 213.569 447.16 213.538L429.153 205.758C428.955 205.671 428.822 205.479 428.812 205.263L428.807 205.14C428.797 204.944 428.888 204.757 429.049 204.648C429.21 204.535 429.416 204.515 429.594 204.591C436.451 207.501 442.679 210.157 447.606 212.278C447.81 212.365 447.942 212.564 447.95 212.786L447.955 213.005C447.958 213.199 447.863 213.38 447.703 213.487C447.606 213.551 447.494 213.584 447.384 213.584Z" fill="black"/>
<path d="M450.527 220.541C450.527 220.541 449.326 200.187 447.57 192.322C443.879 175.778 422.485 175.604 422.485 175.604L426.222 217.713L450.527 220.541Z" fill="black"/>
<path d="M404.069 172.797L403.345 162.503C402.853 162.47 402.514 162.447 402.414 162.447C399.549 162.413 398.619 161.482 398.372 159.124C398.216 157.649 398.163 155.457 398.881 152.716C398.958 152.423 398.94 152.111 398.823 151.833L398.333 150.682C398.231 150.305 398.361 149.899 398.665 149.651L398.925 149.437C399.86 148.669 400.635 147.725 401.26 146.676C401.833 145.711 402.807 143.904 403.475 143.583C405.358 142.682 412.995 138.676 417.267 145.675C420.596 151.131 415.157 158.644 413.179 161.104C412.702 161.699 416.406 173.364 416.406 173.364L421.198 174.525C421.198 174.525 417.502 181.106 406.274 178.383C398.277 176.446 399.547 173.463 399.547 173.463L404.069 172.797Z" fill="white"/>
<path d="M411.448 179.621C409.893 179.621 408.129 179.419 406.136 178.937C402.343 178.018 400.008 176.73 399.197 175.112C398.688 174.094 398.986 173.325 399.022 173.241C399.098 173.06 399.266 172.93 399.46 172.902L403.464 172.31L402.812 163.034C402.605 163.021 402.465 163.013 402.407 163.011C399.343 162.975 398.094 161.936 397.806 159.18C397.574 156.965 397.747 154.801 398.331 152.568C398.377 152.392 398.366 152.208 398.298 152.053L397.808 150.902C397.798 150.876 397.79 150.853 397.783 150.828C397.622 150.233 397.826 149.598 398.3 149.207L398.56 148.993C399.409 148.296 400.151 147.416 400.768 146.38L401.023 145.943C401.856 144.512 402.547 143.391 403.225 143.065L403.426 142.968C410.01 139.78 414.828 140.589 417.747 145.374C421.132 150.925 416.113 158.325 413.696 161.357C413.694 162.339 415.254 167.849 416.844 172.884L421.325 173.968C421.499 174.009 421.642 174.132 421.713 174.295C421.784 174.458 421.774 174.645 421.687 174.8C421.557 175.04 418.881 179.621 411.448 179.621ZM400.039 173.966C400.044 174.134 400.09 174.372 400.24 174.652C400.627 175.377 401.945 176.75 406.404 177.832C414.976 179.909 418.975 176.385 420.237 174.88L416.271 173.92C416.077 173.874 415.924 173.729 415.863 173.54C412.065 161.584 412.516 161.023 412.733 160.752C414.966 157.973 419.827 150.971 416.778 145.974C412.916 139.643 406.146 142.922 403.921 143.999L403.717 144.098C403.299 144.3 402.424 145.8 402.004 146.523L401.744 146.969C401.061 148.118 400.232 149.098 399.282 149.878L399.022 150.093C398.902 150.192 398.843 150.356 398.871 150.506L399.343 151.611C399.508 151.999 399.539 152.441 399.429 152.859C398.881 154.957 398.718 156.988 398.935 159.063C399.136 160.982 399.687 161.844 402.419 161.875C402.524 161.878 402.873 161.898 403.38 161.934C403.663 161.954 403.888 162.179 403.908 162.462L404.632 172.756C404.652 173.052 404.443 173.315 404.148 173.359L400.039 173.966Z" fill="black"/>
<path d="M414.91 136.777C412.84 136.33 410.459 136.649 409.455 136.279C407.833 135.682 407.79 133.738 405.547 133.189C402.832 132.528 401.701 133.689 400.64 135.307C400.464 135.578 400.309 135.879 400.181 136.221C398.476 140.806 400.63 143.044 401.588 143.772C401.588 143.772 407.693 146.934 408.738 147.837C409.717 148.682 410.844 150.682 410.135 153.558C410.044 153.928 410.204 154.314 410.518 154.505C410.885 154.727 411.359 154.622 411.611 154.255C412.404 153.101 414.14 150.869 415.374 151.399C416.923 152.063 416.442 156.72 413.021 157.259C411.971 157.424 411.117 158.501 411.221 159.604C411.29 160.323 411.965 161.196 412.97 161.426C413.584 161.566 414.188 161.319 414.729 160.972C416.962 159.543 423.258 153.487 424.04 148.056C424.983 141.513 417.665 137.372 414.91 136.777Z" fill="black"/>
<path d="M402.572 162.967C402.269 162.967 402.017 162.727 402.006 162.421C401.994 162.107 402.238 161.844 402.552 161.832C402.575 161.832 404.762 161.73 406.256 160.459C406.495 160.255 406.852 160.285 407.056 160.522C407.26 160.762 407.229 161.12 406.992 161.324C405.195 162.855 402.702 162.962 402.598 162.967C402.585 162.967 402.58 162.967 402.572 162.967Z" fill="black"/>
<path d="M353.611 369.532C352.566 368.473 346.53 349.647 346.53 349.647L334.6 358.178L347.679 375.797L353.611 369.532Z" fill="white"/>
<path d="M347.677 376.366C347.667 376.366 347.654 376.366 347.644 376.366C347.475 376.356 347.322 376.271 347.22 376.136L334.141 358.518C334.05 358.395 334.014 358.242 334.037 358.092C334.06 357.941 334.144 357.806 334.269 357.716L346.198 349.185C346.346 349.081 346.535 349.05 346.706 349.109C346.879 349.165 347.011 349.303 347.068 349.474C349.357 356.614 353.269 368.263 354.019 369.136C354.207 369.358 354.223 369.71 354.021 369.922L348.087 376.19C347.983 376.302 347.832 376.366 347.677 376.366ZM335.398 358.303L347.73 374.914L352.902 369.45C351.488 366.745 347.521 354.572 346.226 350.558L335.398 358.303Z" fill="black"/>
<path d="M332.112 393.333L340.048 393.288C345.296 393.257 350.18 390.583 353.042 386.173L360.888 373.725C363.055 370.285 361.844 365.727 358.258 363.816C354.982 362.073 351.554 360.373 350.748 360.45C349.117 360.605 348.457 368.345 348.457 368.345L341.388 368.618C341.388 368.618 337.896 383.172 334.825 384.825C332.587 386.03 331.024 387.801 329.971 389.416C328.868 391.106 330.096 393.344 332.112 393.333Z" fill="black"/>
<path d="M332.908 390.797C332.632 390.797 332.39 390.595 332.347 390.312C332.301 390.001 332.513 389.712 332.824 389.666L343.677 388.028C345.951 387.684 347.934 386.354 349.114 384.374L358.704 368.317C358.864 368.047 359.214 367.96 359.481 368.121C359.751 368.281 359.838 368.631 359.678 368.899L350.088 384.956C348.732 387.227 346.456 388.755 343.846 389.148L332.992 390.787C332.966 390.794 332.936 390.797 332.908 390.797Z" fill="white"/>
<path d="M346.305 378.721C346.257 378.721 346.206 378.714 346.155 378.701L340.109 377.05C339.805 376.968 339.627 376.654 339.711 376.353C339.793 376.049 340.104 375.871 340.407 375.955L346.453 377.606C346.757 377.688 346.935 378.002 346.851 378.303C346.782 378.555 346.555 378.721 346.305 378.721Z" fill="white"/>
<path d="M343.155 381.832C343.109 381.832 343.066 381.827 343.02 381.817L338.967 380.821C338.661 380.747 338.475 380.439 338.551 380.135C338.625 379.829 338.936 379.642 339.237 379.719L343.29 380.714C343.596 380.788 343.782 381.097 343.705 381.401C343.644 381.658 343.412 381.832 343.155 381.832Z" fill="white"/>
<path d="M312.903 365.939L299.052 379.887L291.711 377.185L304.479 359.339L312.903 365.939Z" fill="white"/>
<path d="M299.052 380.456C298.985 380.456 298.919 380.446 298.855 380.421L291.512 377.718C291.346 377.657 291.219 377.522 291.165 377.351C291.114 377.182 291.142 376.996 291.247 376.853L304.015 359.008C304.104 358.883 304.242 358.798 304.394 358.775C304.547 358.752 304.703 358.796 304.825 358.89L313.25 365.49C313.377 365.589 313.456 365.74 313.466 365.903C313.477 366.066 313.418 366.224 313.303 366.339L299.452 380.288C299.347 380.398 299.2 380.456 299.052 380.456ZM292.605 376.909L298.906 379.229L312.049 365.992L304.593 360.153L292.605 376.909Z" fill="black"/>
<path d="M386.22 262.964C386.22 262.964 322.918 255.186 304.094 272.386C285.269 289.583 333.808 363.537 333.808 363.537L349.158 351.523L334.598 299.252L393.113 281.713L386.22 262.964Z" fill="white"/>
<path d="M333.808 364.106C333.777 364.106 333.746 364.104 333.716 364.099C333.56 364.073 333.42 363.984 333.333 363.851C331.34 360.814 284.749 289.292 303.711 271.967C322.513 254.79 383.694 262.083 386.289 262.402C386.501 262.428 386.679 262.571 386.753 262.77L393.648 281.519C393.702 281.667 393.694 281.83 393.623 281.971C393.551 282.111 393.429 282.216 393.279 282.261L335.296 299.64L349.706 351.375C349.767 351.597 349.69 351.834 349.51 351.975L334.159 363.989C334.057 364.066 333.935 364.106 333.808 364.106ZM355.01 261.81C336.265 261.81 314.206 263.918 304.479 272.807C287.038 288.741 329.688 356.091 333.948 362.71L348.51 351.314L334.052 299.408C333.968 299.109 334.139 298.8 334.437 298.711L392.374 281.345L385.808 263.492C383.534 263.229 370.386 261.81 355.01 261.81Z" fill="black"/>
<path d="M421.058 297.004C411.863 300.084 395.41 304.065 372.415 303.736C365.882 303.641 359.848 307.451 356.881 313.596C350.07 327.696 335.327 353.08 311.312 369.532L299.844 363.009L329.117 293.459C331.791 287.11 336.787 282.175 342.969 279.781L400.984 257.327C400.984 257.327 418.973 252.019 427.792 268.968C429.368 271.995 432.291 266.585 432.99 269.027C435.378 277.403 428.955 294.357 421.058 297.004Z" fill="white"/>
<path d="M311.312 370.098C311.216 370.098 311.119 370.073 311.032 370.024L299.564 363.502C299.314 363.359 299.21 363.052 299.322 362.787L328.595 293.24C331.312 286.783 336.476 281.687 342.765 279.253L400.78 256.798C401.007 256.73 419.365 251.544 428.297 268.708C428.483 269.068 428.687 269.277 428.906 269.331C429.362 269.448 430.053 268.984 430.66 268.576C431.386 268.088 432.072 267.626 432.74 267.871C433.12 268.009 433.387 268.346 433.538 268.872C435.967 277.387 429.49 294.779 421.241 297.54L421.06 297.001L421.241 297.54C411.496 300.804 395.114 304.629 372.41 304.3C372.331 304.3 372.254 304.297 372.175 304.297C365.895 304.297 360.246 307.936 357.396 313.839C350.705 327.688 335.865 353.399 311.639 369.996C311.537 370.065 311.425 370.098 311.312 370.098ZM300.563 362.764L311.284 368.861C335.12 352.406 349.754 327.037 356.369 313.346C359.405 307.066 365.703 303.072 372.423 303.167C394.966 303.493 411.216 299.701 420.877 296.465C428.498 293.911 434.703 277.112 432.442 269.185C432.383 268.981 432.327 268.933 432.327 268.93C432.169 268.912 431.621 269.298 431.29 269.52C430.484 270.061 429.572 270.673 428.621 270.433C428.078 270.296 427.629 269.89 427.288 269.234C418.792 252.907 401.859 257.664 401.142 257.875L343.173 280.314C337.17 282.637 332.237 287.511 329.64 293.681L300.563 362.764Z" fill="black"/>
<path d="M303.428 377.705C303.428 377.705 304.099 383.639 302.962 388.883C302.358 391.677 299.844 393.642 296.992 393.642H262.998C260.569 393.642 259.468 390.603 261.329 389.039C267.373 383.963 278.491 376.213 292.162 373.939L295.975 379.288L303.428 377.705Z" fill="black"/>
<path d="M299.844 389.526H264.615C264.301 389.526 264.046 389.271 264.046 388.957C264.046 388.643 264.301 388.388 264.615 388.388H299.844C300.158 388.388 300.413 388.643 300.413 388.957C300.413 389.271 300.158 389.526 299.844 389.526Z" fill="white"/>
<path d="M284.273 383.253C284.048 383.253 283.837 383.121 283.747 382.901L281.882 378.366C281.762 378.076 281.899 377.744 282.19 377.624C282.478 377.504 282.812 377.642 282.932 377.933L284.798 382.467C284.917 382.758 284.78 383.09 284.489 383.21C284.418 383.241 284.344 383.253 284.273 383.253Z" fill="white"/>
<path d="M278.14 384.445C277.9 384.445 277.678 384.295 277.599 384.055L276.251 379.964C276.151 379.665 276.315 379.344 276.613 379.247C276.911 379.147 277.232 379.311 277.329 379.609L278.677 383.7C278.774 383.998 278.614 384.32 278.315 384.417C278.259 384.437 278.198 384.445 278.14 384.445Z" fill="white"/>
<path d="M432.526 216.598C426.355 239.111 408.017 253.476 381.428 261.037L385.484 268.624C422.434 267.323 441.812 251.246 449.558 220.39L432.526 216.598Z" fill="white"/>
<path d="M385.484 269.193C385.275 269.193 385.081 269.078 384.984 268.892L380.929 261.305C380.847 261.155 380.839 260.973 380.906 260.815C380.972 260.657 381.107 260.537 381.273 260.491C409.075 252.583 426.135 237.766 431.978 216.448C432.057 216.154 432.352 215.978 432.648 216.044L449.681 219.839C449.831 219.872 449.961 219.964 450.04 220.094C450.122 220.225 450.145 220.383 450.106 220.531C442.09 252.46 421.562 267.925 385.502 269.193C385.496 269.193 385.491 269.193 385.484 269.193ZM382.262 261.389L385.818 268.045C420.864 266.715 440.915 251.697 448.865 220.819L432.929 217.269C426.89 238.545 409.85 253.384 382.262 261.389Z" fill="black"/>
<path d="M387.74 260.415C387.362 259.677 386.733 259.095 385.955 258.814C385.4 258.615 384.852 258.35 384.329 258.072L377.092 254.229C375.736 253.565 373.799 255.114 372.392 255.576C368.145 256.972 359.354 260.261 360.078 263.352C360.86 266.685 368.415 265.108 371.097 264.436C371.711 264.283 377.261 266.297 379.017 266.429C381.441 266.613 382.002 265.996 383.187 265.373C383.727 265.09 384.329 264.96 384.984 264.957C385.983 264.949 386.934 264.531 387.559 263.75L387.574 263.732C388.262 262.869 388.384 261.683 387.882 260.698L387.74 260.415Z" fill="white"/>
<path d="M379.812 267.027C379.557 267.027 379.279 267.016 378.976 266.993C378.007 266.919 376.113 266.358 374.286 265.814C373.047 265.444 371.5 264.977 371.186 264.995C368.385 265.702 363.236 266.68 360.812 265.202C360.131 264.786 359.7 264.209 359.53 263.482C358.762 260.205 366.007 257.082 372.219 255.038C372.598 254.913 373.044 254.688 373.516 254.451C374.747 253.831 376.142 253.129 377.347 253.718L384.599 257.569C385.201 257.888 385.695 258.115 386.152 258.279C387.051 258.603 387.798 259.269 388.249 260.154L388.392 260.432C388.996 261.614 388.851 263.046 388.022 264.079C387.291 264.993 386.192 265.511 384.994 265.518C384.403 265.524 383.901 265.638 383.46 265.871C383.279 265.965 383.113 266.062 382.95 266.154C382.165 266.6 381.423 267.027 379.812 267.027ZM371.184 263.857C371.63 263.857 372.466 264.087 374.607 264.722C376.297 265.225 378.211 265.794 379.06 265.858C380.926 265.998 381.535 265.651 382.379 265.166C382.552 265.067 382.728 264.965 382.924 264.863C383.523 264.549 384.214 264.385 384.982 264.38C385.838 264.375 386.615 264.013 387.118 263.385C387.681 262.681 387.778 261.731 387.378 260.948L387.235 260.67C386.914 260.042 386.391 259.572 385.764 259.345C385.254 259.162 384.714 258.917 384.064 258.57L376.827 254.726C376.147 254.392 375.017 254.961 374.023 255.461C373.513 255.717 373.032 255.959 372.57 256.112C364.781 258.674 360.205 261.397 360.633 263.217C360.733 263.64 360.983 263.969 361.401 264.225C362.892 265.136 366.465 265.005 370.962 263.878C371.026 263.867 371.097 263.857 371.184 263.857Z" fill="black"/>
<path d="M117.488 270.574H401.772C407.069 270.574 411.185 274.062 410.584 278.043L390.954 408.428H376.779L389.068 286.059C389.284 283.902 387.028 282.062 384.171 282.062H140.138C135.861 282.062 132.489 284.816 132.813 288.042L144.979 409.194H130.804L110.837 276.208C110.389 273.205 113.494 270.574 117.488 270.574Z" fill="white"/>
<path d="M144.979 409.76H130.804C130.524 409.76 130.284 409.553 130.243 409.275L110.277 276.29C110.078 274.958 110.491 273.616 111.442 272.508C112.79 270.941 115.048 270.005 117.485 270.005H401.769C404.948 270.005 407.89 271.222 409.643 273.261C410.869 274.687 411.402 276.415 411.145 278.127L391.512 408.512C391.471 408.79 391.232 408.995 390.951 408.995H376.776C376.616 408.995 376.463 408.926 376.356 408.808C376.249 408.688 376.195 408.53 376.213 408.369L388.502 286C388.588 285.132 388.17 284.469 387.806 284.063C386.995 283.165 385.634 282.629 384.168 282.629H140.138C137.867 282.629 135.757 283.466 134.49 284.867C133.651 285.796 133.266 286.873 133.378 287.98L145.545 409.132C145.56 409.293 145.509 409.451 145.402 409.571C145.293 409.694 145.14 409.76 144.979 409.76ZM131.293 408.625H144.352L132.249 288.098C132.106 286.681 132.604 285.263 133.649 284.107C135.127 282.471 137.554 281.493 140.141 281.493H384.174C385.955 281.493 387.627 282.17 388.652 283.303C389.386 284.117 389.735 285.115 389.636 286.115L377.411 407.859H390.47L410.028 277.959C410.24 276.561 409.809 275.193 408.789 274.003C407.25 272.212 404.629 271.143 401.777 271.143H117.488C115.377 271.143 113.44 271.931 112.303 273.251C111.559 274.116 111.248 275.108 111.398 276.122L131.293 408.625Z" fill="black"/>
<path d="M353.453 266.401L338.176 221.327C337.261 219.913 335.666 219.058 333.95 219.058H293.23C291.382 219.058 290.194 220.855 290.795 222.442C291.035 223.072 291.295 223.695 291.504 224.338L305.312 266.486H305.317C305.36 268.951 307.364 270.933 309.834 270.933H384.979C387.474 270.933 389.498 268.905 389.498 266.404H353.453V266.401Z" fill="white"/>
<path d="M384.976 271.5H309.831C307.114 271.5 304.856 269.31 304.751 266.6L290.964 224.514C290.818 224.07 290.642 223.618 290.472 223.182L290.263 222.644C289.911 221.722 290.043 220.676 290.614 219.849C291.208 218.987 292.162 218.492 293.23 218.492H333.95C335.87 218.492 337.626 219.436 338.653 221.021C338.679 221.059 338.699 221.102 338.714 221.148L353.861 265.837H389.498C389.812 265.837 390.067 266.093 390.067 266.406C390.064 269.214 387.78 271.5 384.976 271.5ZM305.827 266.241C305.86 266.312 305.88 266.389 305.88 266.473C305.919 268.619 307.69 270.364 309.829 270.364H384.974C386.96 270.364 388.611 268.887 388.887 266.97H353.45C353.208 266.97 352.991 266.815 352.912 266.585L337.659 221.58C336.838 220.355 335.454 219.627 333.945 219.627H293.225C292.536 219.627 291.925 219.944 291.545 220.495C291.185 221.016 291.104 221.669 291.321 222.24L291.524 222.769C291.7 223.22 291.881 223.685 292.037 224.16L305.827 266.241Z" fill="black"/>
<path d="M323.186 242.161C323.759 244.069 322.882 246.024 321.226 246.524C319.569 247.025 317.761 245.884 317.188 243.975C316.614 242.066 317.491 240.111 319.148 239.611C320.802 239.111 322.612 240.252 323.186 242.161Z" fill="black"/>
<path d="M187.277 271.579H112.137C110.086 271.579 108.421 269.913 108.421 267.858V267.141H190.996V267.858C190.994 269.913 189.329 271.579 187.277 271.579Z" fill="white"/>
<path d="M187.277 272.148H112.137C109.775 272.148 107.853 270.224 107.853 267.858V267.141C107.853 266.827 108.108 266.572 108.421 266.572H190.996C191.31 266.572 191.565 266.827 191.565 267.141V267.858C191.562 270.224 189.64 272.148 187.277 272.148ZM108.987 267.708V267.858C108.987 269.596 110.399 271.01 112.135 271.01H187.277C189.013 271.01 190.425 269.596 190.425 267.858V267.708H108.987Z" fill="black"/>
<path d="M190.996 267.22H143.745L158.756 222.981C159.654 221.597 161.219 220.758 162.901 220.758H202.842C204.654 220.758 205.821 222.519 205.23 224.073C204.996 224.69 204.741 225.303 204.534 225.931L190.996 267.22Z" fill="white"/>
<path d="M190.996 267.79H143.748C143.564 267.79 143.394 267.7 143.286 267.552C143.179 267.404 143.151 267.213 143.21 267.039L158.221 222.799C158.236 222.756 158.257 222.713 158.282 222.672C159.292 221.118 161.02 220.189 162.904 220.189H202.847C203.897 220.189 204.835 220.676 205.421 221.526C205.982 222.34 206.109 223.368 205.765 224.274L205.561 224.803C205.396 225.229 205.222 225.67 205.08 226.107L191.537 267.399C191.458 267.631 191.241 267.79 190.996 267.79ZM144.538 266.651H190.583L203.999 225.752C204.152 225.287 204.33 224.831 204.501 224.389L204.702 223.869C204.914 223.312 204.832 222.677 204.486 222.169C204.116 221.631 203.52 221.324 202.847 221.324H162.904C161.428 221.324 160.074 222.036 159.271 223.231L144.538 266.651Z" fill="black"/>
<path d="M173.462 243.391C172.898 245.261 173.76 247.175 175.384 247.665C177.007 248.155 178.781 247.037 179.345 245.167C179.908 243.296 179.047 241.382 177.423 240.892C175.797 240.402 174.025 241.52 173.462 243.391Z" fill="black"/>
<path d="M450.55 411.304H373.177C368.533 411.304 365.058 407.037 365.994 402.482L377.732 345.355C378.719 340.55 382.942 337.102 387.842 337.102H454.208L450.55 411.304Z" fill="white"/>
<path d="M450.55 411.871H373.177C370.791 411.871 368.558 410.809 367.052 408.959C365.545 407.109 364.956 404.705 365.436 402.367L377.174 345.24C378.211 340.195 382.695 336.536 387.839 336.536H454.205C454.361 336.536 454.508 336.599 454.615 336.712C454.723 336.824 454.779 336.977 454.771 337.133L451.111 411.335C451.103 411.633 450.853 411.871 450.55 411.871ZM387.841 337.671C383.233 337.671 379.216 340.95 378.288 345.47L366.55 402.597C366.139 404.6 366.641 406.657 367.934 408.242C369.223 409.826 371.135 410.735 373.18 410.735H450.012L453.616 337.671H387.841V337.671Z" fill="black"/>
<path d="M460.455 411.304H445.442C440.797 411.304 437.323 407.037 438.258 402.482L451.187 339.56C451.48 338.128 452.739 337.102 454.197 337.102H458.059C459.66 337.102 460.993 338.332 461.123 339.93L466.412 404.835C466.695 408.318 463.947 411.304 460.455 411.304Z" fill="white"/>
<path d="M460.455 411.871H445.442C443.056 411.871 440.825 410.809 439.316 408.959C437.81 407.109 437.221 404.705 437.7 402.367L450.629 339.445C450.975 337.758 452.474 336.533 454.195 336.533H458.057C459.938 336.533 461.534 338.005 461.686 339.881L466.976 404.786C467.124 406.603 466.502 408.418 465.265 409.758C464.032 411.102 462.278 411.871 460.455 411.871ZM454.197 337.671C453.015 337.671 451.98 338.513 451.743 339.674L438.814 402.597C438.404 404.6 438.906 406.657 440.198 408.242C441.488 409.826 443.4 410.735 445.442 410.735H460.455C461.982 410.735 463.394 410.115 464.432 408.989C465.467 407.864 465.969 406.404 465.844 404.881L460.555 339.975C460.45 338.684 459.352 337.671 458.057 337.671H454.197Z" fill="black"/>
<path d="M440.007 367.659H379.427C379.114 367.659 378.859 367.403 378.859 367.09C378.859 366.776 379.114 366.52 379.427 366.52H440.007C441.547 366.52 442.87 365.474 443.224 363.974L448.564 341.405C448.636 341.098 448.941 340.909 449.247 340.983C449.553 341.055 449.742 341.361 449.668 341.667L444.328 364.236C443.854 366.25 442.077 367.659 440.007 367.659Z" fill="black"/>
<path d="M416.625 367.09L414.927 373.941C414.652 375.1 413.62 375.919 412.429 375.919H400.431C399.126 375.919 398.178 374.671 398.53 373.413L400.286 367.09H416.625Z" fill="white"/>
<path d="M412.432 376.488H400.434C399.633 376.488 398.894 376.121 398.41 375.483C397.925 374.845 397.77 374.033 397.984 373.26L399.74 366.936C399.809 366.691 400.033 366.521 400.288 366.521H416.628C416.803 366.521 416.967 366.602 417.074 366.737C417.181 366.875 417.219 367.054 417.178 367.225L415.481 374.077C415.144 375.496 413.89 376.488 412.432 376.488ZM400.719 367.659L399.078 373.566C398.958 373.995 399.044 374.442 399.312 374.796C399.58 375.151 399.988 375.353 400.431 375.353H412.429C413.36 375.353 414.16 374.72 414.377 373.811L415.901 367.659H400.719V367.659Z" fill="black"/>
<path d="M434.478 406.131H370.121C369.807 406.131 369.552 405.876 369.552 405.562C369.552 405.248 369.807 404.993 370.121 404.993H434.478C434.792 404.993 435.047 405.248 435.047 405.562C435.047 405.879 434.792 406.131 434.478 406.131Z" fill="black"/>
<path d="M403.131 334.509H398.106C396.75 334.509 395.649 335.612 395.649 336.969H405.588C405.588 335.612 404.487 334.509 403.131 334.509Z" fill="black"/>
<path d="M405.588 337.538H395.649C395.336 337.538 395.081 337.283 395.081 336.969C395.081 335.3 396.437 333.94 398.106 333.94H403.13C404.798 333.94 406.156 335.298 406.156 336.969C406.156 337.283 405.901 337.538 405.588 337.538ZM396.304 336.4H404.933C404.69 335.635 403.974 335.076 403.13 335.076H398.106C397.263 335.078 396.546 335.635 396.304 336.4Z" fill="black"/>
<path d="M443.392 334.509H438.368C437.012 334.509 435.911 335.612 435.911 336.969H445.849C445.849 335.612 444.748 334.509 443.392 334.509Z" fill="black"/>
<path d="M445.849 337.538H435.911C435.597 337.538 435.342 337.283 435.342 336.969C435.342 335.3 436.698 333.94 438.368 333.94H443.392C445.059 333.94 446.418 335.298 446.418 336.969C446.418 337.283 446.163 337.538 445.849 337.538ZM436.566 336.4H445.194C444.952 335.635 444.236 335.076 443.392 335.076H438.368C437.524 335.078 436.808 335.635 436.566 336.4Z" fill="black"/>
<path d="M442.079 334.377L442.89 329.564C443.464 326.149 441.164 323.383 437.754 323.383H407.629C404.219 323.383 400.989 326.152 400.416 329.564L399.605 334.377H401.909L402.539 330.63C402.985 327.974 405.498 325.82 408.155 325.82H436.405C439.059 325.82 440.848 327.974 440.402 330.63L439.773 334.377H442.079Z" fill="white"/>
<path d="M442.079 334.946H439.775C439.607 334.946 439.449 334.872 439.342 334.744C439.235 334.616 439.189 334.448 439.214 334.282L439.844 330.536C440.035 329.405 439.775 328.354 439.115 327.571C438.47 326.808 437.509 326.387 436.408 326.387H408.157C405.771 326.387 403.505 328.331 403.102 330.725L402.473 334.471C402.427 334.744 402.19 334.946 401.912 334.946H399.605C399.437 334.946 399.279 334.872 399.172 334.744C399.065 334.616 399.019 334.448 399.044 334.282L399.855 329.469C400.472 325.8 403.959 322.814 407.63 322.814H437.754C439.556 322.814 441.144 323.518 442.222 324.794C443.321 326.096 443.757 327.823 443.448 329.658L442.638 334.471C442.594 334.744 442.357 334.946 442.079 334.946ZM440.446 333.807H441.6L442.329 329.467C442.582 327.966 442.235 326.568 441.356 325.527C440.497 324.508 439.217 323.947 437.754 323.947H407.63C404.489 323.947 401.504 326.506 400.977 329.656L400.278 333.807H401.433L401.983 330.536C402.473 327.622 405.244 325.251 408.157 325.251H436.408C437.848 325.251 439.117 325.815 439.982 326.838C440.861 327.879 441.21 329.26 440.963 330.725L440.446 333.807Z" fill="black"/>
<path d="M436.257 321.387H409.796C408.731 321.387 407.719 322.252 407.54 323.319L407.15 325.634C406.972 326.7 407.691 327.568 408.756 327.568H435.217C436.283 327.568 437.295 326.703 437.473 325.634L437.863 323.319C438.044 322.252 437.326 321.387 436.257 321.387Z" fill="black"/>
<path d="M435.22 328.137H408.759C408.078 328.137 407.477 327.869 407.064 327.379C406.646 326.884 406.477 326.231 406.595 325.542L406.985 323.227C407.211 321.877 408.448 320.821 409.801 320.821H436.263C436.943 320.821 437.545 321.089 437.958 321.579C438.376 322.074 438.544 322.727 438.427 323.416L438.037 325.731C437.807 327.078 436.571 328.137 435.22 328.137ZM409.796 321.956C409.009 321.956 408.234 322.625 408.101 323.416L407.711 325.731C407.652 326.085 407.729 326.41 407.928 326.647C408.121 326.877 408.415 327.002 408.756 327.002H435.218C436.005 327.002 436.78 326.333 436.913 325.542L437.303 323.227C437.361 322.873 437.285 322.548 437.086 322.311C436.892 322.081 436.599 321.956 436.257 321.956H409.796Z" fill="black"/>
<path d="M445.299 406.131C445.103 406.131 444.909 406.029 444.804 405.843C444.649 405.57 444.743 405.223 445.016 405.067L455.102 399.315V341.535C455.102 341.221 455.357 340.966 455.671 340.966C455.984 340.966 456.239 341.221 456.239 341.535V399.647C456.239 399.851 456.13 400.04 455.954 400.142L445.582 406.057C445.493 406.108 445.396 406.131 445.299 406.131Z" fill="black"/>
</svg>
