<svg width="467" height="467" viewBox="0 0 467 467" fill="none" xmlns="http://www.w3.org/2000/svg">
<path d="M157.134 49.1319L158.793 55.009L165.446 54.6517C166.073 55.943 166.797 57.1679 167.616 58.3112L164.139 63.9917L168.513 68.2509L174.098 64.6118C175.273 65.4055 176.512 66.0996 177.804 66.6865L177.628 73.3572L183.542 74.8578L186.555 68.9169C187.957 69.0139 189.377 68.9935 190.804 68.8505L193.983 74.7123L199.853 73.051L199.496 66.3905C200.786 65.7627 202.009 65.0354 203.151 64.2188L208.826 67.6996L213.08 63.3206L209.442 57.7293C210.235 56.5529 210.928 55.3127 211.515 54.0188L218.178 54.1949L219.677 48.2745L213.743 45.2581C213.842 43.8546 213.819 42.4332 213.676 41.0041L219.531 37.8218L217.872 31.9448L211.219 32.3021C210.592 31.0108 209.868 29.7859 209.05 28.6426L212.527 22.9621L208.153 18.7029L202.568 22.3445C201.393 21.5509 200.154 20.8567 198.861 20.2698L199.037 13.5991L193.124 12.0986L190.111 18.0394C188.709 17.9399 187.289 17.9629 185.861 18.1058L182.683 12.244L176.812 13.9053L177.169 20.5658C175.88 21.1936 174.656 21.9183 173.514 22.7375L167.84 19.2567L163.586 23.6358L167.223 29.227C166.43 30.4034 165.737 31.6437 165.151 32.9375L158.488 32.7614L156.989 38.6818L162.923 41.6982C162.823 43.1018 162.846 44.5232 162.989 45.9522L157.134 49.1319ZM184.064 28.344C192.412 25.981 201.092 30.8398 203.45 39.1973C205.81 47.5548 200.957 56.2441 192.609 58.6046C184.261 60.9677 175.581 56.1089 173.223 47.7513C170.863 39.3964 175.716 30.7071 184.064 28.344Z" fill="white"/>
<path d="M183.544 75.4243C183.499 75.4243 183.453 75.4192 183.404 75.4064L177.491 73.9059C177.233 73.8396 177.055 73.6048 177.062 73.3394L177.228 67.0413C176.147 66.5309 175.097 65.9414 174.098 65.2881L168.824 68.7255C168.6 68.871 168.309 68.8429 168.118 68.6566L163.744 64.3975C163.553 64.2112 163.517 63.9203 163.654 63.6932L166.938 58.3316C166.265 57.3568 165.65 56.3207 165.105 55.2387L158.824 55.5755C158.564 55.5883 158.319 55.4173 158.248 55.1621L156.589 49.2851C156.517 49.0299 156.632 48.7568 156.864 48.6318L162.393 45.6282C162.291 44.4211 162.273 43.2141 162.337 42.0325L156.736 39.1846C156.499 39.0646 156.377 38.7967 156.443 38.539L157.942 32.6185C158.008 32.3608 158.261 32.1847 158.508 32.1898L164.799 32.3557C165.309 31.2737 165.898 30.2223 166.55 29.2219L163.112 23.9395C162.966 23.7174 162.994 23.424 163.18 23.2326L167.435 18.8535C167.621 18.6621 167.911 18.6264 168.138 18.7642L173.494 22.051C174.465 21.3773 175.502 20.7623 176.583 20.2162L176.247 13.9283C176.231 13.6629 176.405 13.423 176.66 13.3516L182.53 11.6903C182.785 11.6188 183.058 11.7337 183.182 11.9659L186.183 17.501C187.388 17.3989 188.594 17.381 189.774 17.4448L192.619 11.8383C192.739 11.601 193.006 11.4785 193.264 11.5448L199.178 13.0453C199.435 13.1117 199.613 13.3465 199.606 13.6119L199.445 19.9049C200.526 20.4153 201.576 21.0048 202.575 21.6581L207.849 18.2206C208.074 18.0752 208.364 18.1032 208.555 18.2895L212.929 22.5487C213.121 22.735 213.156 23.0259 213.019 23.253L209.736 28.6146C210.409 29.5868 211.023 30.6255 211.568 31.7075L217.849 31.3706C218.109 31.3553 218.354 31.5288 218.425 31.784L220.085 37.6611C220.156 37.9163 220.041 38.1893 219.809 38.3144L214.28 41.318C214.382 42.5276 214.4 43.7321 214.337 44.9136L219.937 47.7616C220.174 47.8815 220.296 48.1495 220.23 48.4072L218.731 54.3276C218.665 54.5854 218.415 54.7615 218.165 54.7564L211.874 54.5905C211.364 55.6725 210.776 56.7239 210.123 57.7242L213.557 63.0041C213.702 63.2262 213.674 63.5196 213.488 63.711L209.233 68.0901C209.047 68.2815 208.757 68.3172 208.53 68.1794L203.174 64.8925C202.201 65.5663 201.163 66.1838 200.085 66.7274L200.421 73.0153C200.437 73.2807 200.263 73.5206 200.009 73.592L194.138 75.2533C193.883 75.3248 193.61 75.2099 193.486 74.9777L190.485 69.4426C189.28 69.5447 188.074 69.5625 186.894 69.4988L184.049 75.1053C183.952 75.3069 183.753 75.4243 183.544 75.4243ZM178.209 72.9158L183.244 74.1917L186.053 68.6566C186.157 68.4525 186.374 68.33 186.598 68.3478C187.959 68.4423 189.356 68.4218 190.753 68.284C190.977 68.2611 191.199 68.3785 191.309 68.5775L194.271 74.0412L199.267 72.6274L198.933 66.4186C198.92 66.1915 199.045 65.9771 199.251 65.8776C200.513 65.2626 201.716 64.5506 202.825 63.7544C203.011 63.6217 203.259 63.614 203.452 63.7314L208.739 66.9749L212.361 63.2491L208.971 58.0381C208.846 57.8467 208.849 57.5992 208.976 57.4103C209.748 56.262 210.431 55.0422 211.002 53.7841C211.097 53.5774 211.311 53.4447 211.535 53.4523L217.745 53.6157L219.019 48.5756L213.49 45.7634C213.286 45.6588 213.164 45.4444 213.182 45.2173C213.276 43.8571 213.256 42.4587 213.118 41.0577C213.095 40.8306 213.212 40.6111 213.411 40.5014L218.869 37.536L217.457 32.5318L211.255 32.866C211.025 32.8763 210.814 32.7538 210.714 32.5471C210.1 31.2839 209.386 30.0794 208.594 28.9693C208.461 28.783 208.453 28.5355 208.571 28.3415L211.81 23.0488L208.089 19.4226L202.884 22.8166C202.693 22.9417 202.445 22.9391 202.257 22.8115C201.11 22.0383 199.891 21.3569 198.632 20.7827C198.426 20.6883 198.293 20.4791 198.301 20.2494L198.464 14.0329L193.43 12.757L190.621 18.2921C190.516 18.4962 190.302 18.6162 190.075 18.6009C188.716 18.5064 187.317 18.5269 185.92 18.6647C185.693 18.6876 185.474 18.5702 185.364 18.3712L182.402 12.9075L177.404 14.3213L177.738 20.5301C177.751 20.7572 177.626 20.9716 177.419 21.0711C176.155 21.6861 174.954 22.4007 173.845 23.1943C173.659 23.327 173.412 23.3372 173.218 23.2173L167.932 19.9738L164.31 23.6996L167.7 28.9106C167.825 29.102 167.822 29.3495 167.695 29.5384C166.922 30.6867 166.242 31.9065 165.668 33.1646C165.574 33.3713 165.365 33.5015 165.135 33.4964L158.926 33.333L157.652 38.3731L163.18 41.1853C163.384 41.2899 163.507 41.5043 163.489 41.7314C163.394 43.0941 163.415 44.4926 163.553 45.891C163.575 46.1181 163.458 46.3376 163.259 46.4473L157.802 49.4127L159.214 54.417L165.416 54.0826C165.645 54.0699 165.857 54.1949 165.956 54.4016C166.571 55.6648 167.284 56.8693 168.077 57.9794C168.21 58.1657 168.217 58.4132 168.1 58.6072L164.86 63.8999L168.582 67.5261L173.787 64.1321C173.978 64.007 174.225 64.0096 174.414 64.1372C175.558 64.9104 176.779 65.5918 178.039 66.166C178.245 66.2604 178.378 66.4696 178.37 66.6993L178.209 72.9158ZM188.311 59.7734C185.566 59.7734 182.854 59.0716 180.391 57.6936C176.598 55.5704 173.856 52.0947 172.675 47.907C171.493 43.7193 172.01 39.3224 174.131 35.5226C176.252 31.7253 179.723 28.9795 183.906 27.798C188.089 26.6139 192.481 27.1319 196.277 29.2551C200.07 31.3783 202.812 34.854 203.995 39.0417C205.178 43.2294 204.66 47.6263 202.54 51.4261C200.419 55.2234 196.947 57.9692 192.762 59.1533C191.293 59.5693 189.8 59.7734 188.311 59.7734ZM184.217 28.8902C180.325 29.9926 177.095 32.5445 175.122 36.0764C173.15 39.6108 172.668 43.7015 173.769 47.5957C174.87 51.4899 177.419 54.7257 180.947 56.7009C184.477 58.6761 188.563 59.1584 192.453 58.056C196.346 56.9536 199.575 54.4016 201.548 50.8698C203.521 47.3354 204.003 43.2447 202.902 39.3505C201.8 35.4537 199.251 32.2204 195.724 30.2452C192.196 28.2701 188.11 27.7903 184.217 28.8902ZM184.064 28.3441H184.07H184.064Z" fill="black"/>
<path d="M60.0778 110.96L62.9174 121.017L74.3038 120.404C75.377 122.614 76.6183 124.709 78.0152 126.667L72.0632 136.387L79.5472 143.675L89.106 137.443C91.1171 138.801 93.2379 139.988 95.4479 140.993L95.1497 152.408L105.269 154.975L110.426 144.808C112.825 144.977 115.254 144.938 117.698 144.696L123.138 154.727L133.184 151.885L132.572 140.485C134.779 139.411 136.872 138.168 138.827 136.77L148.539 142.728L155.819 135.236L149.594 125.666C150.95 123.653 152.135 121.53 153.14 119.32L164.542 119.618L167.106 109.487L156.951 104.325C157.119 101.923 157.081 99.4888 156.838 97.044L166.859 91.5983L164.019 81.5412L152.633 82.1536C151.559 79.9437 150.318 77.8486 148.921 75.8913L154.873 66.171L147.389 58.8828L137.83 65.1145C135.819 63.7569 133.698 62.5703 131.491 61.5648L131.789 50.1501L121.67 47.5829L116.513 57.7497C114.114 57.5813 111.683 57.6196 109.241 57.862L103.801 47.8304L93.7554 50.6733L94.3671 62.0726C92.1597 63.147 90.0669 64.3898 88.1119 65.7882L78.4026 59.8295L71.1227 67.3219L77.3474 76.889C75.9913 78.9025 74.806 81.0257 73.8017 83.2382L62.3974 82.9371L59.8331 93.0682L69.9883 98.2307C69.8201 100.632 69.8584 103.064 70.1005 105.511L60.0778 110.96ZM106.159 75.3885C120.441 71.3463 135.294 79.6604 139.332 93.9613C143.369 108.26 135.065 123.13 120.78 127.172C106.498 131.214 91.6448 122.9 87.6071 108.599C83.5695 94.3007 91.8767 79.4308 106.159 75.3885Z" fill="white"/>
<path d="M105.269 155.547C105.223 155.547 105.177 155.542 105.129 155.529L95.0095 152.962C94.752 152.895 94.5736 152.66 94.5812 152.395L94.8693 141.355C92.8734 140.427 90.9387 139.342 89.1008 138.127L79.8581 144.155C79.6338 144.3 79.3432 144.272 79.152 144.086L71.6681 136.798C71.477 136.611 71.4413 136.321 71.5789 136.093L77.3346 126.692C76.0856 124.908 74.9513 122.994 73.9571 120.994L62.9454 121.586C62.6828 121.601 62.4407 121.428 62.3693 121.172L59.5297 111.115C59.4583 110.86 59.573 110.587 59.805 110.462L69.4964 105.195C69.295 102.97 69.2619 100.744 69.3944 98.5701L59.5731 93.576C59.336 93.4561 59.2136 93.1881 59.2799 92.9304L61.8442 82.7993C61.9079 82.5416 62.1348 82.3604 62.4101 82.3706L73.4371 82.6589C74.365 80.6608 75.4483 78.7213 76.6616 76.884L70.6409 67.6307C70.4956 67.4087 70.5236 67.1152 70.7097 66.9239L77.9897 59.4314C78.1758 59.24 78.4664 59.2043 78.6932 59.3421L88.0838 65.1043C89.863 63.8539 91.7748 62.7183 93.7757 61.7231L93.1844 50.6988C93.1691 50.4334 93.3424 50.1935 93.5973 50.1221L103.643 47.2792C103.898 47.2078 104.171 47.3226 104.296 47.5548L109.557 57.2572C111.779 57.0556 114.002 57.0224 116.174 57.1551L121.162 47.3226C121.282 47.0853 121.55 46.9628 121.807 47.0291L131.927 49.5964C132.184 49.6627 132.363 49.8975 132.355 50.1629L132.067 61.2025C134.063 62.1314 136 63.2159 137.833 64.4306L147.076 58.403C147.3 58.2576 147.591 58.2856 147.782 58.4719L155.266 65.7602C155.457 65.9465 155.492 66.2374 155.355 66.4645L149.599 75.8658C150.848 77.647 151.983 79.5609 152.977 81.5642L163.988 80.9721C164.251 80.9568 164.493 81.1304 164.564 81.3855L167.404 91.4426C167.475 91.6978 167.361 91.9709 167.129 92.0959L157.437 97.3631C157.639 99.5883 157.672 101.814 157.539 103.988L167.358 108.982C167.595 109.102 167.718 109.37 167.651 109.628L165.087 119.759C165.021 120.016 164.781 120.198 164.521 120.187L153.494 119.899C152.566 121.895 151.483 123.834 150.27 125.674L156.29 134.927C156.436 135.149 156.408 135.443 156.222 135.634L148.942 143.127C148.755 143.318 148.465 143.354 148.238 143.216L138.847 137.454C137.066 138.707 135.154 139.84 133.155 140.835L133.747 151.859C133.762 152.125 133.589 152.364 133.334 152.436L123.288 155.279C123.033 155.35 122.761 155.235 122.636 155.003L117.375 145.301C115.152 145.502 112.932 145.536 110.757 145.403L105.769 155.235C105.677 155.429 105.478 155.547 105.269 155.547ZM95.7283 151.971L104.968 154.314L109.921 144.553C110.026 144.349 110.24 144.229 110.467 144.244C112.817 144.41 115.233 144.372 117.645 144.132C117.869 144.109 118.091 144.226 118.2 144.425L123.423 154.059L132.597 151.464L132.011 140.518C131.998 140.291 132.123 140.077 132.33 139.977C134.509 138.916 136.586 137.683 138.503 136.31C138.689 136.178 138.937 136.17 139.13 136.287L148.455 142.009L155.102 135.17L149.125 125.983C149 125.791 149.003 125.544 149.13 125.355C150.466 123.372 151.643 121.262 152.63 119.09C152.724 118.883 152.936 118.751 153.163 118.758L164.111 119.047L166.451 109.796L156.701 104.838C156.497 104.736 156.374 104.519 156.392 104.292C156.558 101.939 156.52 99.522 156.283 97.1053C156.26 96.8782 156.377 96.6587 156.576 96.549L166.198 91.3201L163.606 82.1358L152.673 82.7227C152.444 82.7355 152.232 82.6105 152.133 82.4038C151.073 80.2193 149.839 78.1395 148.47 76.223C148.337 76.0367 148.33 75.7892 148.447 75.5953L154.162 66.2604L147.331 59.605L138.154 65.5892C137.963 65.7142 137.716 65.7117 137.527 65.5841C135.546 64.2494 133.441 63.0705 131.269 62.0803C131.063 61.9859 130.93 61.7766 130.938 61.547L131.226 50.5865L121.986 48.2439L117.033 58.0049C116.931 58.2091 116.717 58.3316 116.487 58.3137C114.137 58.1478 111.723 58.1861 109.309 58.4234C109.085 58.4464 108.863 58.329 108.754 58.13L103.528 48.4965L94.3544 51.0918L94.9406 62.0369C94.9534 62.2641 94.8285 62.4784 94.622 62.5779C92.4401 63.6395 90.3626 64.8747 88.4483 66.245C88.2622 66.3777 88.015 66.3879 87.8212 66.268L78.4969 60.5466L71.8491 67.3857L77.8266 76.5726C77.9515 76.764 77.9489 77.0116 77.8214 77.2004C76.4883 79.1807 75.3107 81.2886 74.3217 83.4654C74.2273 83.6721 74.0234 83.8048 73.7889 83.7971L62.8409 83.5087L60.5009 92.7594L70.2509 97.7178C70.4548 97.8224 70.5771 98.0368 70.5593 98.2639C70.3936 100.614 70.4319 103.033 70.6689 105.45C70.6919 105.677 70.5746 105.897 70.3758 106.006L60.7532 111.235L63.3456 120.42L74.2783 119.833C74.5128 119.82 74.7193 119.947 74.8187 120.152C75.8791 122.334 77.1103 124.413 78.4817 126.332C78.6142 126.519 78.6218 126.766 78.5046 126.96L72.7897 136.295L79.6211 142.95L88.7975 136.966C88.9887 136.841 89.2359 136.844 89.4246 136.971C91.4052 138.306 93.5106 139.485 95.6824 140.475C95.8889 140.569 96.0214 140.779 96.0138 141.008L95.7283 151.971ZM113.48 128.757C101.507 128.757 90.4748 120.843 87.0616 108.752C82.945 94.1732 91.4434 78.9612 106.003 74.8399L106.159 75.386L106.003 74.8399C113.056 72.8443 120.466 73.717 126.865 77.2974C133.263 80.8803 137.884 86.742 139.88 93.8031C141.873 100.864 141.001 108.283 137.425 114.688C133.846 121.093 127.991 125.72 120.938 127.718C118.45 128.422 115.945 128.757 113.48 128.757ZM113.51 74.9292C111.106 74.9292 108.69 75.2609 106.314 75.9347C92.3559 79.885 84.2093 94.4692 88.1552 108.446C92.101 122.42 106.669 130.576 120.63 126.626C127.392 124.712 133.005 120.277 136.434 114.137C139.862 107.997 140.698 100.887 138.786 94.117C136.874 87.3468 132.444 81.7275 126.311 78.2952C122.332 76.0648 117.946 74.9292 113.51 74.9292Z" fill="black"/>
<path d="M440.641 0.569092H323.202C318.619 0.569092 314.905 4.28723 314.905 8.87557V138.594C314.905 143.183 318.619 146.901 323.202 146.901H440.641C445.224 146.901 448.938 143.183 448.938 138.594V8.87557C448.938 4.28723 445.224 0.569092 440.641 0.569092Z" fill="white"/>
<path d="M440.641 147.47H323.202C318.313 147.47 314.337 143.489 314.337 138.594V8.87555C314.337 3.98098 318.313 0 323.202 0H440.641C445.53 0 449.506 3.98098 449.506 8.87555V138.594C449.506 143.489 445.53 147.47 440.641 147.47ZM323.202 1.1356C318.94 1.1356 315.474 4.6062 315.474 8.873V138.594C315.474 142.861 318.94 146.332 323.202 146.332H440.641C444.903 146.332 448.369 142.861 448.369 138.594V8.87555C448.369 4.60875 444.903 1.13815 440.641 1.13815H323.202V1.1356Z" fill="black"/>
<path d="M442.45 14.768H321.502C321.189 14.768 320.934 14.5128 320.934 14.1989C320.934 13.885 321.189 13.6298 321.502 13.6298H442.45C442.764 13.6298 443.019 13.885 443.019 14.1989C443.019 14.5128 442.764 14.768 442.45 14.768Z" fill="black"/>
<path d="M323.628 9.08994C324.804 9.08994 325.756 8.13593 325.756 6.95909C325.756 5.78226 324.804 4.82825 323.628 4.82825C322.453 4.82825 321.5 5.78226 321.5 6.95909C321.5 8.13593 322.453 9.08994 323.628 9.08994Z" fill="black"/>
<path d="M332.139 9.08994C333.315 9.08994 334.268 8.13593 334.268 6.95909C334.268 5.78226 333.315 4.82825 332.139 4.82825C330.964 4.82825 330.011 5.78226 330.011 6.95909C330.011 8.13593 330.964 9.08994 332.139 9.08994Z" fill="black"/>
<path d="M340.648 9.08994C341.823 9.08994 342.776 8.13593 342.776 6.95909C342.776 5.78226 341.823 4.82825 340.648 4.82825C339.472 4.82825 338.519 5.78226 338.519 6.95909C338.519 8.13593 339.472 9.08994 340.648 9.08994Z" fill="black"/>
<path d="M442.45 7.5256H430.465C430.151 7.5256 429.897 7.27041 429.897 6.95653C429.897 6.64264 430.151 6.38745 430.465 6.38745H442.45C442.764 6.38745 443.019 6.64264 443.019 6.95653C443.019 7.27041 442.764 7.5256 442.45 7.5256Z" fill="black"/>
<path d="M425.074 7.5256H375.432C375.118 7.5256 374.863 7.27041 374.863 6.95653C374.863 6.64264 375.118 6.38745 375.432 6.38745H425.074C425.387 6.38745 425.642 6.64264 425.642 6.95653C425.642 7.27041 425.387 7.5256 425.074 7.5256Z" fill="black"/>
<path d="M362.383 7.5256H351.818C351.504 7.5256 351.249 7.27041 351.249 6.95653C351.249 6.64264 351.504 6.38745 351.818 6.38745H362.383C362.697 6.38745 362.952 6.64264 362.952 6.95653C362.952 7.27041 362.697 7.5256 362.383 7.5256Z" fill="black"/>
<path d="M361.585 69.976C365.452 63.2033 372.648 58.4184 381.009 57.5533L381.59 24.4423C357.573 24.5239 336.378 38.0695 326.725 58.0918L361.585 69.976Z" fill="white"/>
<path d="M361.585 70.5451C361.524 70.5451 361.463 70.5349 361.402 70.5145L326.542 58.6277C326.389 58.5741 326.264 58.4592 326.2 58.3087C326.136 58.1581 326.141 57.9897 326.213 57.8417C336.123 37.2835 357.859 23.9497 381.588 23.8706C381.756 23.8783 381.886 23.9319 381.993 24.039C382.1 24.1488 382.159 24.2942 382.156 24.4473L381.575 57.5584C381.57 57.8468 381.351 58.0841 381.065 58.1147C373.041 58.9466 365.942 63.4839 362.075 70.2542C361.975 70.4379 361.787 70.5451 361.585 70.5451ZM327.52 57.76L361.331 69.287C365.343 62.5627 372.429 58.0254 380.451 57.0429L381.012 25.0139C358.167 25.3022 337.286 38.0873 327.52 57.76Z" fill="black"/>
<path d="M359.946 34.0093C359.722 34.0093 359.511 33.8741 359.419 33.6546C359.302 33.3637 359.442 33.032 359.732 32.9146C365.154 30.7174 370.866 29.347 376.711 28.8417C377.025 28.8162 377.298 29.0459 377.326 29.3598C377.354 29.6736 377.122 29.9467 376.808 29.9748C371.075 30.4724 365.473 31.8147 360.155 33.9711C360.089 33.9966 360.015 34.0093 359.946 34.0093Z" fill="black"/>
<path d="M340.811 46.7791C340.668 46.7791 340.525 46.7256 340.413 46.6158C340.189 46.3964 340.186 46.0365 340.406 45.812C344.497 41.6294 349.246 38.1026 354.517 35.3313C354.795 35.1858 355.136 35.293 355.284 35.5711C355.43 35.8493 355.322 36.1938 355.045 36.3393C349.878 39.0545 345.226 42.5098 341.216 46.6082C341.107 46.7205 340.959 46.7791 340.811 46.7791Z" fill="black"/>
<path d="M407.916 84.6495C405.949 95.5283 396.048 104.082 383.92 104.46C380.303 104.572 376.849 103.947 373.714 102.725L354.782 132.069C363.581 136.045 373.522 137.995 383.92 137.395C414.159 135.657 437.931 112.866 440.572 85.433L407.916 84.6495Z" fill="white"/>
<path d="M380.293 138.069C371.366 138.069 362.536 136.196 354.55 132.587C354.4 132.518 354.285 132.388 354.239 132.23C354.193 132.072 354.216 131.901 354.308 131.76L373.24 102.416C373.385 102.189 373.67 102.097 373.923 102.194C377.086 103.429 380.443 103.998 383.905 103.891C395.533 103.529 405.398 95.3931 407.361 84.5475C407.412 84.2719 407.664 84.0779 407.932 84.0805L440.587 84.8639C440.745 84.8665 440.893 84.9379 440.997 85.0553C441.102 85.1727 441.153 85.3309 441.138 85.4866C438.423 113.683 413.84 136.244 383.953 137.962C382.732 138.033 381.511 138.069 380.293 138.069ZM355.621 131.819C364.377 135.657 374.137 137.39 383.889 136.828C413.007 135.154 436.996 113.348 439.947 85.9867L408.385 85.2288C406.127 96.3603 395.928 104.654 383.94 105.027C380.481 105.134 377.122 104.593 373.943 103.416L355.621 131.819Z" fill="black"/>
<path d="M380.234 133.322C373.854 133.322 367.627 132.312 361.726 130.316C361.427 130.216 361.269 129.892 361.369 129.596C361.468 129.298 361.789 129.14 362.088 129.239C367.871 131.194 373.976 132.184 380.232 132.184C381.356 132.184 382.495 132.151 383.614 132.087C383.925 132.067 384.195 132.309 384.213 132.62C384.231 132.934 383.991 133.202 383.678 133.22C382.538 133.289 381.379 133.322 380.234 133.322Z" fill="black"/>
<path d="M395.605 131.273C395.355 131.273 395.125 131.107 395.057 130.854C394.975 130.551 395.153 130.239 395.454 130.155C415.319 124.732 430.659 108.946 434.536 89.937C434.599 89.6282 434.898 89.4317 435.206 89.493C435.512 89.5568 435.711 89.8554 435.65 90.1641C431.686 109.589 416.027 125.717 395.755 131.252C395.704 131.265 395.653 131.273 395.605 131.273Z" fill="black"/>
<path d="M348.858 128.981L367.963 99.5502C362.248 95.314 358.575 88.7224 358.575 81.2453C358.575 79.4386 358.792 77.6778 359.2 75.9833L324.207 64.2394C322.328 69.7541 321.314 75.6235 321.314 81.7047C321.311 101.837 332.346 119.169 348.858 128.981Z" fill="white"/>
<path d="M348.858 129.55C348.759 129.55 348.659 129.525 348.57 129.471C331.148 119.118 320.745 101.262 320.745 81.7046C320.745 75.6898 321.729 69.7515 323.669 64.0556C323.768 63.7596 324.089 63.6014 324.388 63.7009L359.381 75.4448C359.661 75.5392 359.822 75.8301 359.753 76.1159C359.35 77.7951 359.143 79.5202 359.143 81.2453C359.143 88.2733 362.48 94.7781 368.302 99.0934C368.544 99.272 368.603 99.6089 368.44 99.8589L349.335 129.29C349.225 129.459 349.044 129.55 348.858 129.55ZM324.564 64.959C322.782 70.3716 321.879 76.0037 321.879 81.7046C321.879 100.681 331.887 118.026 348.68 128.213L367.198 99.6854C361.351 95.1558 358.007 88.4672 358.007 81.2478C358.007 79.607 358.183 77.9661 358.529 76.3609L324.564 64.959Z" fill="black"/>
<path d="M391.86 56.3003C402.905 57.9463 411.396 66.5131 412.405 77.1035L465.804 78.6525C465.804 78.6295 465.804 78.6066 465.804 78.5836C465.804 39.3658 434.592 5.80049 392.816 1.4801L391.86 56.3003Z" fill="white"/>
<path d="M465.799 79.2216C465.797 79.2216 465.792 79.2216 465.789 79.2216L412.39 77.6726C412.104 77.6649 411.867 77.4429 411.842 77.1596C410.858 66.8244 402.607 58.4771 391.778 56.8643C391.496 56.8234 391.289 56.5785 391.294 56.2926L392.25 1.475C392.253 1.31678 392.321 1.16622 392.441 1.05904C392.561 0.954412 392.717 0.903374 392.877 0.918686C413.147 3.01381 431.798 12.1216 445.392 26.5578C458.922 40.9276 466.375 59.406 466.375 78.5862C466.375 78.7393 466.314 78.9204 466.202 79.0276C466.092 79.1323 465.95 79.2216 465.799 79.2216ZM412.917 76.5497L465.236 78.0681C464.966 39.131 434.207 6.62731 393.372 2.11298L392.434 55.8154C403.364 57.6554 411.686 66.0818 412.917 76.5497Z" fill="black"/>
<path d="M331.989 64.4639H262.097C258.654 64.4639 255.86 67.2582 255.86 70.7084V163.68C255.86 167.127 258.651 169.924 262.097 169.924H331.989C335.433 169.924 338.226 167.13 338.226 163.68V70.7084C338.224 67.2608 335.433 64.4639 331.989 64.4639Z" fill="white"/>
<path d="M331.989 170.491H262.097C258.345 170.491 255.294 167.436 255.294 163.68V70.7084C255.294 66.952 258.345 63.8973 262.097 63.8973H331.989C335.741 63.8973 338.792 66.952 338.792 70.7084V163.68C338.792 167.436 335.741 170.491 331.989 170.491ZM262.095 65.0329C258.97 65.0329 256.426 67.5797 256.426 70.7084V163.68C256.426 166.808 258.97 169.355 262.095 169.355H331.986C335.111 169.355 337.655 166.808 337.655 163.68V70.7084C337.655 67.5797 335.111 65.0329 331.986 65.0329H262.095V65.0329Z" fill="black"/>
<path d="M283.593 94.6019H265.651V153.63H283.593V94.6019Z" fill="white"/>
<path d="M283.593 154.199H265.651C265.337 154.199 265.082 153.944 265.082 153.63V94.6019C265.082 94.288 265.337 94.0328 265.651 94.0328H283.593C283.907 94.0328 284.162 94.288 284.162 94.6019V153.63C284.162 153.944 283.907 154.199 283.593 154.199ZM266.219 153.061H283.025V95.171H266.219V153.061Z" fill="black"/>
<path d="M306.014 78.3131H288.072V153.63H306.014V78.3131Z" fill="white"/>
<path d="M306.012 154.199H288.069C287.756 154.199 287.501 153.944 287.501 153.63V78.3131C287.501 77.9992 287.756 77.744 288.069 77.744H306.012C306.325 77.744 306.58 77.9992 306.58 78.3131V153.63C306.58 153.944 306.325 154.199 306.012 154.199ZM288.638 153.061H305.443V78.8822H288.638V153.061Z" fill="black"/>
<path d="M328.433 118.439H310.49V153.63H328.433V118.439Z" fill="white"/>
<path d="M328.433 154.199H310.49C310.177 154.199 309.922 153.944 309.922 153.63V118.439C309.922 118.126 310.177 117.87 310.49 117.87H328.433C328.746 117.87 329.001 118.126 329.001 118.439V153.63C329.001 153.944 328.746 154.199 328.433 154.199ZM311.059 153.061H327.865V119.009H311.059V153.061Z" fill="black"/>
<path d="M192.563 381.904L194.131 396.858L204.23 398.042V380.314L192.563 381.904Z" fill="white"/>
<path d="M204.23 398.611C204.207 398.611 204.186 398.611 204.163 398.606L194.064 397.422C193.799 397.391 193.593 397.182 193.565 396.917L191.997 381.963C191.964 381.656 192.181 381.381 192.484 381.34L204.151 379.747C204.314 379.725 204.477 379.776 204.602 379.883C204.724 379.99 204.796 380.146 204.796 380.311V398.042C204.796 398.205 204.727 398.359 204.604 398.466C204.502 398.56 204.367 398.611 204.23 398.611ZM194.648 396.345L203.661 397.404V380.965L193.185 382.394L194.648 396.345Z" fill="black"/>
<path d="M205.82 424.074C201.612 424.666 194.709 425.189 186.608 424.066C183.952 423.699 182.193 421.119 182.833 418.514C184.618 411.253 187.692 397.483 192.966 391.103L194.276 394.564L196.086 391.305C196.333 390.858 196.779 390.557 197.286 390.494L201.25 389.991C202.078 389.886 202.848 390.435 203.019 391.251L203.649 394.255L205.03 390.312L209.641 419.014C209.97 421.466 208.267 423.73 205.82 424.074Z" fill="white"/>
<path d="M196.272 425.297C193.32 425.297 190.037 425.115 186.529 424.628C185.099 424.429 183.817 423.633 183.009 422.438C182.204 421.252 181.939 419.769 182.283 418.376L182.665 416.809C184.485 409.319 187.531 396.787 192.53 390.739C192.66 390.583 192.861 390.509 193.06 390.54C193.259 390.573 193.427 390.711 193.498 390.899L194.375 393.216L195.591 391.027C195.925 390.425 196.532 390.014 197.215 389.927L201.179 389.424C202.285 389.284 203.345 390.034 203.575 391.134L203.786 392.147L204.495 390.124C204.581 389.879 204.826 389.723 205.081 389.746C205.339 389.769 205.55 389.965 205.591 390.221L210.202 418.922C210.567 421.693 208.634 424.25 205.894 424.636L205.815 424.072L205.894 424.636C203.424 424.985 200.131 425.297 196.272 425.297ZM192.795 392.249C188.316 398.361 185.487 410 183.769 417.079L183.386 418.649C183.116 419.746 183.318 420.866 183.952 421.8C184.579 422.727 185.579 423.347 186.69 423.503C194.653 424.605 201.449 424.115 205.746 423.51C207.872 423.212 209.371 421.226 209.088 419.088L204.834 392.614L204.191 394.444C204.107 394.684 203.87 394.839 203.618 394.822C203.363 394.806 203.151 394.62 203.101 394.372L202.471 391.369C202.361 390.846 201.862 390.486 201.326 390.555L197.363 391.058C197.036 391.098 196.748 391.295 196.588 391.583L194.778 394.842C194.671 395.036 194.462 395.148 194.24 395.133C194.021 395.118 193.83 394.975 193.751 394.768L192.795 392.249Z" fill="black"/>
<path d="M194.123 420.486C191.431 420.486 188.518 420.246 185.614 419.585C185.308 419.516 185.117 419.21 185.186 418.904C185.257 418.598 185.561 418.406 185.867 418.475C195.762 420.734 206.126 417.83 206.231 417.802C206.531 417.715 206.845 417.891 206.932 418.192C207.018 418.493 206.842 418.81 206.542 418.894C206.231 418.983 200.873 420.486 194.123 420.486Z" fill="black"/>
<path d="M191.712 409.367C191.406 409.367 191.156 409.125 191.146 408.819C191.135 408.505 191.38 408.242 191.694 408.232L201.161 407.918C201.472 407.915 201.737 408.153 201.747 408.467C201.757 408.781 201.512 409.043 201.199 409.054L191.732 409.367C191.724 409.367 191.717 409.367 191.712 409.367Z" fill="black"/>
<path d="M239.865 373.942L241.379 395.763H253.53L254.096 373.942H239.865Z" fill="white"/>
<path d="M253.53 396.332H241.379C241.081 396.332 240.834 396.1 240.813 395.804L239.299 373.983C239.289 373.825 239.342 373.671 239.449 373.557C239.557 373.442 239.707 373.375 239.865 373.375H254.096C254.249 373.375 254.397 373.437 254.504 373.546C254.611 373.656 254.67 373.804 254.665 373.957L254.099 395.779C254.091 396.087 253.839 396.332 253.53 396.332ZM241.909 395.197H252.977L253.512 374.514H240.474L241.909 395.197Z" fill="black"/>
<path d="M238.206 408.084C238.175 410.148 239.585 411.96 241.593 412.427C248.58 414.055 264.318 417.679 268.806 418.348C274.633 419.215 281.794 417.429 284.873 414.017C287.952 410.605 277.98 402.46 273.247 399.494C266.217 395.092 259.462 386.388 256.63 385.997C253.798 385.607 248.511 393.832 248.511 393.832L239.87 390.198C239.865 390.2 238.358 397.613 238.206 408.084Z" fill="white"/>
<path d="M271.853 419.136C270.795 419.136 269.742 419.062 268.72 418.912C264.185 418.236 248.147 414.54 241.463 412.981C239.212 412.455 237.604 410.393 237.637 408.074C237.793 397.672 239.294 390.159 239.309 390.085C239.342 389.919 239.449 389.777 239.6 389.695C239.75 389.616 239.929 389.608 240.084 389.674L248.289 393.125C249.628 391.101 253.892 385.045 256.704 385.436C258.305 385.658 260.599 387.837 263.772 390.851C266.732 393.661 270.084 396.848 273.543 399.012C277.343 401.393 285.383 407.688 285.979 411.96C286.114 412.922 285.88 413.742 285.291 414.395C282.693 417.279 277.193 419.136 271.853 419.136ZM240.296 390.996C239.931 393.058 238.899 399.594 238.771 408.092C238.746 409.878 239.985 411.47 241.718 411.874C248.389 413.428 264.392 417.115 268.885 417.786C274.728 418.657 281.562 416.834 284.445 413.637C284.804 413.236 284.939 412.741 284.853 412.121C284.348 408.497 276.844 402.424 272.938 399.979C269.383 397.754 265.987 394.526 262.99 391.678C260.313 389.136 257.785 386.735 256.546 386.564C254.749 386.314 250.951 391.081 248.983 394.143C248.832 394.375 248.539 394.467 248.287 394.36L240.296 390.996ZM238.206 408.084H238.211H238.206Z" fill="black"/>
<path d="M271.73 415.137C259.1 415.137 242.121 408.27 241.165 407.877C240.874 407.757 240.737 407.425 240.854 407.137C240.971 406.846 241.305 406.708 241.593 406.826C241.904 406.953 272.681 419.404 281.74 411.213C281.975 411.003 282.332 411.021 282.543 411.253C282.752 411.486 282.734 411.845 282.502 412.057C280.022 414.3 276.14 415.137 271.73 415.137Z" fill="black"/>
<path d="M258.261 401.913C258.106 401.913 257.953 401.85 257.838 401.725C257.629 401.492 257.647 401.133 257.879 400.923L264.06 395.342C264.295 395.133 264.652 395.151 264.863 395.383C265.072 395.615 265.054 395.975 264.822 396.184L258.641 401.765C258.534 401.865 258.396 401.913 258.261 401.913Z" fill="black"/>
<path d="M189.117 231.688C189.117 231.688 185.352 299.903 183.381 323.452C181.411 347.001 187.99 384.854 187.99 384.854L206.748 383.866C206.748 383.866 208.033 337.843 209.427 325.06C209.427 325.06 217.349 307.733 219.7 292.281C222.047 276.829 230.046 252.42 230.046 252.42C230.046 252.42 236.541 374.246 237.168 383.818C237.168 383.818 251.878 384.474 257.15 381.151C257.15 381.151 266.494 336.73 265.151 312.561C263.81 288.392 265.284 228.345 265.284 228.345L189.117 231.688Z" fill="black"/>
<path d="M205.971 325.627H200.238C199.924 325.627 199.669 325.371 199.669 325.057C199.669 324.744 199.924 324.488 200.238 324.488H205.971C206.284 324.488 206.539 324.744 206.539 325.057C206.539 325.371 206.284 325.627 205.971 325.627Z" fill="white"/>
<path d="M246.816 361.057C246.814 361.057 246.808 361.057 246.806 361.057C246.492 361.052 246.243 360.792 246.248 360.478C246.454 349.219 258.799 329.031 259.324 328.178C259.487 327.911 259.839 327.829 260.104 327.992C260.372 328.156 260.453 328.508 260.29 328.773C260.163 328.98 247.583 349.551 247.382 360.498C247.377 360.81 247.125 361.057 246.816 361.057Z" fill="white"/>
<path d="M271.22 122.589C272.587 122.482 279.288 136.224 300.264 135.647C321.24 135.07 338.068 111.572 338.068 111.572C338.068 111.572 345.313 99.3434 350.811 94.9209C356.309 90.501 357.171 89.9166 357.171 89.9166C357.171 89.9166 358.894 92.2159 357.171 94.9209C355.448 97.626 350.689 102.689 350.689 102.689C350.689 102.689 355.932 105.57 353.566 111.572C350.847 118.475 343.184 117.921 343.184 117.921C343.184 117.921 327.633 186.854 263.359 154.097L271.22 122.589Z" fill="white"/>
<path d="M295.232 163.498C285.472 163.498 274.728 160.531 263.102 154.605C262.867 154.485 262.745 154.217 262.809 153.962L270.67 122.451C270.728 122.214 270.932 122.04 271.177 122.022C271.74 121.979 272.184 122.474 273.257 123.671C276.436 127.221 283.876 135.532 300.251 135.08C320.71 134.519 337.444 111.475 337.609 111.243C337.88 110.781 344.943 98.9147 350.457 94.482C355.909 90.0953 356.819 89.4726 356.855 89.4496C357.104 89.2812 357.446 89.3374 357.627 89.5798C357.706 89.687 359.564 92.2287 357.652 95.2323C356.217 97.4856 352.802 101.25 351.56 102.595C352.944 103.628 356.11 106.678 354.099 111.784C351.665 117.962 345.42 118.48 343.633 118.498C342.654 122.326 335.045 149.376 313.373 159.558C307.778 162.187 301.722 163.498 295.232 163.498ZM264.019 153.796C282.877 163.31 299.313 164.905 312.881 158.532C335.603 147.858 342.565 118.097 342.631 117.796C342.692 117.523 342.947 117.337 343.225 117.355C343.521 117.375 350.51 117.786 353.039 111.365C355.185 105.917 350.609 103.296 350.413 103.189C350.26 103.105 350.153 102.952 350.128 102.778C350.1 102.605 350.156 102.429 350.276 102.301C350.321 102.25 355.017 97.2483 356.691 94.6173C357.744 92.9662 357.334 91.4912 356.995 90.7537C356.296 91.2845 354.688 92.5324 351.165 95.365C345.81 99.6726 338.629 111.741 338.555 111.861C338.359 112.139 321.293 135.637 300.279 136.213C299.838 136.226 299.4 136.231 298.972 136.231C282.979 136.231 275.607 127.996 272.408 124.426C272.113 124.097 271.814 123.763 271.572 123.515L264.019 153.796Z" fill="black"/>
<path d="M167.261 154.1C167.261 154.1 173.555 113.425 195.795 103.419C218.033 93.4102 248.119 94.8035 256.416 99.8002C264.713 104.797 286.336 127.394 286.336 127.394L267.229 154.1C267.229 154.1 271.595 225.992 268.144 244.971C268.144 244.971 246.887 247.454 237.872 243.899C228.856 240.344 199.211 235.363 185.041 241.88L187.615 150.861L167.261 154.1Z" fill="white"/>
<path d="M253.14 246.392C247.494 246.392 241.522 245.948 237.66 244.427C228.784 240.929 199.438 235.883 185.275 242.398C185.097 242.48 184.89 242.465 184.725 242.355C184.562 242.248 184.465 242.062 184.47 241.865L187.026 151.53L167.351 154.661C167.172 154.689 166.989 154.631 166.861 154.503C166.734 154.375 166.673 154.192 166.701 154.013C166.961 152.339 173.297 112.92 195.561 102.901C217.477 93.0376 247.762 93.9257 256.706 99.3127C264.973 104.292 285.859 126.075 286.744 127.001C286.933 127.197 286.955 127.504 286.795 127.726L267.805 154.268C268.057 158.509 272.034 226.74 268.699 245.073C268.654 245.318 268.455 245.507 268.207 245.535C267.705 245.593 260.718 246.392 253.14 246.392ZM204.301 238.132C217.742 238.132 232.256 241.074 238.078 243.368C246.169 246.558 264.636 244.772 267.657 244.45C270.922 225.137 266.704 154.845 266.663 154.133C266.655 154.003 266.691 153.873 266.767 153.768L285.602 127.445C282.862 124.602 263.708 104.853 256.125 100.285C248.317 95.5818 218.28 93.9205 196.03 103.934C175.999 112.948 168.972 147.766 167.955 153.413L187.523 150.3C187.692 150.274 187.86 150.323 187.987 150.435C188.115 150.547 188.184 150.708 188.181 150.879L185.632 241.005C190.659 238.923 197.337 238.132 204.301 238.132Z" fill="black"/>
<path d="M204.571 223.691C204.301 223.691 204.061 223.497 204.013 223.221C203.96 222.912 204.163 222.616 204.474 222.563C238.274 216.583 248.142 193.152 248.236 192.917C248.353 192.626 248.685 192.486 248.975 192.603C249.266 192.72 249.406 193.052 249.289 193.343C249.192 193.586 239.118 217.586 204.671 223.68C204.638 223.688 204.604 223.691 204.571 223.691Z" fill="black"/>
<path d="M265.618 182.528H222.343L235.896 134.136H279.171L265.618 182.528Z" fill="black"/>
<path d="M171.077 154.256L192.978 144.454C192.978 144.454 189.894 181.604 234.204 164.45C234.204 164.45 232.57 159.676 232.802 154.1C233.034 148.524 236.365 153.919 236.832 158.451C237.298 162.983 247.701 161.143 253.953 159.357C260.206 157.57 268.411 158.739 253.953 166.724C239.495 174.709 236.327 171.147 236.327 171.147C236.327 171.147 217.864 197.013 194.89 191.516C166.634 184.759 171.077 154.256 171.077 154.256Z" fill="white"/>
<path d="M201.301 192.843C199.167 192.843 196.985 192.603 194.76 192.07C179.897 188.515 174.095 178.381 171.842 170.509C169.415 162.018 170.468 154.49 170.514 154.174C170.542 153.982 170.667 153.817 170.845 153.737L192.746 143.936C192.93 143.854 193.142 143.874 193.307 143.992C193.47 144.109 193.562 144.303 193.544 144.502C193.534 144.637 192.532 158.127 201.362 164.734C208.191 169.845 219.004 169.636 233.503 164.111C233.085 162.707 232.042 158.688 232.233 154.077C232.264 153.365 232.353 151.196 233.671 151.157C233.681 151.157 233.691 151.157 233.701 151.157C235.414 151.157 237.092 155.463 237.395 158.395C237.459 159.01 237.752 159.487 238.292 159.854C240.89 161.613 248.267 160.393 253.795 158.813C256.696 157.984 261.611 157.433 262.454 159.484C263.176 161.238 260.484 163.769 254.226 167.227C242.378 173.767 237.877 172.742 236.444 171.94C234.066 175.046 219.639 192.843 201.301 192.843ZM171.6 154.643C171.432 156.141 170.843 162.912 172.943 170.233C176.101 181.242 183.532 188.216 195.023 190.965C197.159 191.475 199.262 191.707 201.314 191.707C220.707 191.71 235.7 171.047 235.866 170.817C235.965 170.677 236.126 170.59 236.296 170.58C236.477 170.57 236.635 170.641 236.75 170.769C236.77 170.787 240.015 173.77 253.678 166.227C261.855 161.71 261.476 160.084 261.407 159.913C261.057 159.063 257.723 158.869 254.109 159.903C251.178 160.74 241.328 163.279 237.658 160.791C236.834 160.232 236.365 159.464 236.268 158.507C235.929 155.212 234.262 152.385 233.707 152.291C233.717 152.311 233.434 152.615 233.37 154.12C233.146 159.518 234.726 164.216 234.744 164.264C234.843 164.552 234.696 164.869 234.413 164.979C219.271 170.84 207.921 171.062 200.679 165.64C192.642 159.62 192.282 148.649 192.369 145.349L171.6 154.643Z" fill="black"/>
<path d="M229.536 84.8791C227.645 86.6144 223.946 88.73 221.051 87.2703C218.894 86.1832 217.691 83.3684 217.768 80.1428C216.771 80.2244 215.461 80.153 214.528 79.3287C213.09 78.0579 213.36 75.7178 213.416 74.179C213.676 67.0821 209.557 65.9924 210.564 61.177C211.357 57.3925 214.326 55.1366 214.882 54.7155C217.686 52.5872 219.585 53.2737 224.298 52.036C232.231 49.9562 232.483 46.5341 237.708 46.5162C238.012 46.5162 245.124 46.5928 247.537 51.5129C249.5 55.5143 247.209 60.3757 244.836 62.9301C241.767 66.2374 239.562 64.6042 236.48 67.3781C231.073 72.2523 235.157 79.7294 229.536 84.8791Z" fill="black"/>
<path d="M245.366 72.2166L245.052 71.9461C243.482 70.591 241.848 69.0191 241.433 66.9877C239.661 58.3495 231.757 55.2132 231.392 63.1446C231.3 65.1453 223.997 65.0432 224.864 67.1434C227.122 72.6224 227.173 71.1474 223.985 73.1659C223.623 73.1812 223.266 73.2604 222.927 73.4186C221.293 74.1816 220.714 76.4043 221.634 78.382C222.193 79.584 223.179 80.4083 224.229 80.7094V89.3655C224.229 92.609 222.269 95.5309 219.269 96.7609L216.35 97.9552C216.35 97.9552 229.962 106.849 243.778 97.085L241.935 96.2582C238.687 94.8011 236.556 91.6137 236.444 88.0538L236.429 86.3619C237.357 86.4435 238.257 86.3823 239.088 86.1399C242.952 85.0145 244.237 80.5563 243.579 75.0161L245.152 74.1688C245.888 73.7707 245.998 72.7602 245.366 72.2166Z" fill="white"/>
<path d="M229.809 102.199C221.948 102.199 216.131 98.4885 216.039 98.4298C215.863 98.315 215.764 98.1108 215.784 97.899C215.805 97.6898 215.94 97.506 216.134 97.4269L219.052 96.2326C221.851 95.0868 223.658 92.392 223.658 89.3654V81.1151C222.572 80.6787 221.66 79.7907 221.117 78.6219C220.064 76.3634 220.768 73.7962 222.685 72.903C223.031 72.7397 223.406 72.6427 223.804 72.607C224.331 72.2778 224.765 72.0482 225.116 71.8593C225.519 71.645 225.899 71.4408 225.909 71.3387C225.935 71.081 225.618 70.3537 225.183 69.3457C224.951 68.8098 224.668 68.159 224.339 67.3603C224.181 66.9801 224.186 66.5973 224.354 66.2528C224.793 65.3519 226.205 64.9564 227.836 64.497C229.016 64.1653 230.798 63.6651 230.824 63.119C231.025 58.7501 233.306 58.102 234.277 58.0254C237.069 57.8085 240.808 61.126 241.986 66.8729C242.371 68.7536 243.961 70.2567 245.422 71.5148L245.735 71.7853C246.174 72.163 246.398 72.7321 246.334 73.3088C246.271 73.8855 245.929 74.3908 245.419 74.6664L244.183 75.3299C244.818 81.452 243.028 85.5784 239.246 86.6808C238.552 86.8824 237.795 86.9743 237 86.959L237.01 88.0461C237.115 91.3534 239.138 94.3774 242.164 95.7376L244.007 96.5644C244.193 96.6486 244.321 96.8247 244.338 97.0288C244.359 97.233 244.267 97.4295 244.101 97.5469C239.131 101.063 234.158 102.199 229.809 102.199ZM217.648 98.0368C220.895 99.7415 231.665 104.325 242.618 97.1845L241.703 96.7736C238.282 95.2374 235.996 91.8204 235.878 88.0691L235.863 86.3644C235.86 86.2036 235.927 86.0505 236.047 85.9408C236.164 85.831 236.322 85.7774 236.482 85.7928C237.375 85.8719 238.2 85.8055 238.935 85.5912C242.21 84.6367 243.699 80.8063 243.021 75.0798C242.993 74.8476 243.11 74.623 243.316 74.5133L244.889 73.6661C245.073 73.5665 245.19 73.393 245.213 73.1863C245.236 72.9796 245.159 72.7831 245.001 72.6479L244.688 72.3773C243.087 70.9968 241.338 69.3329 240.882 67.1026C239.862 62.1263 236.689 58.9773 234.374 59.1584C232.955 59.2707 232.078 60.733 231.966 63.1726C231.902 64.5404 230.079 65.0534 228.15 65.5944C227.071 65.8955 225.596 66.3115 225.381 66.7529C225.369 66.7785 225.348 66.8193 225.394 66.929C225.72 67.7201 226.001 68.3657 226.23 68.8965C227.298 71.3566 227.52 71.8695 225.657 72.8673C225.295 73.0613 224.844 73.3037 224.293 73.6508C224.209 73.7043 224.112 73.735 224.013 73.7375C223.709 73.7503 223.426 73.8166 223.171 73.9366C221.823 74.5669 221.367 76.4528 222.152 78.1447C222.616 79.1425 223.454 79.8978 224.387 80.1658C224.632 80.2347 224.8 80.4593 224.8 80.7119V89.3654C224.8 92.8564 222.715 95.9647 219.488 97.2866L217.648 98.0368Z" fill="black"/>
<path d="M236.431 86.9258C236.403 86.9258 236.373 86.9232 236.345 86.9181C230.775 86.0632 228.272 81.8066 228.168 81.628C228.012 81.3575 228.104 81.0104 228.377 80.8522C228.647 80.6965 228.993 80.7884 229.151 81.0589C229.174 81.0972 231.502 85.0246 236.516 85.7953C236.827 85.8438 237.038 86.1321 236.99 86.4434C236.946 86.7242 236.707 86.9258 236.431 86.9258Z" fill="black"/>
<path d="M51.8674 161.842C51.1536 161.842 50.4399 161.697 49.7619 161.411C48.4389 160.847 47.4142 159.803 46.8764 158.469C45.765 155.713 47.1007 152.566 49.8536 151.456C52.604 150.343 55.747 151.681 56.8583 154.437C57.9697 157.193 56.634 160.339 53.8811 161.449C53.2311 161.71 52.5479 161.842 51.8674 161.842ZM51.8597 152.199C51.3321 152.199 50.7968 152.298 50.2768 152.507C48.105 153.385 47.0523 155.868 47.9291 158.042C48.3548 159.096 49.1628 159.921 50.2054 160.365C51.2505 160.809 52.4026 160.819 53.4554 160.395C55.6272 159.517 56.6799 157.034 55.803 154.86C55.1377 153.204 53.5421 152.199 51.8597 152.199Z" fill="black"/>
<path d="M448.583 173.798C448.443 173.798 448.3 173.747 448.191 173.64C447.964 173.423 447.956 173.063 448.173 172.836L450.834 170.052C451.051 169.825 451.41 169.817 451.637 170.034C451.864 170.251 451.872 170.611 451.655 170.838L448.994 173.622C448.882 173.739 448.731 173.798 448.583 173.798Z" fill="black"/>
<path d="M439.269 183.541C439.129 183.541 438.986 183.49 438.877 183.383C438.65 183.166 438.642 182.806 438.859 182.579L441.52 179.795C441.737 179.568 442.096 179.56 442.323 179.777C442.55 179.994 442.557 180.354 442.341 180.581L439.68 183.365C439.57 183.482 439.42 183.541 439.269 183.541Z" fill="black"/>
<path d="M441.882 173.946C441.739 173.946 441.594 173.892 441.484 173.783L438.785 171.119C438.561 170.899 438.558 170.539 438.78 170.315C438.999 170.09 439.358 170.088 439.583 170.31L442.285 172.974C442.509 173.193 442.512 173.553 442.29 173.778C442.175 173.89 442.027 173.946 441.882 173.946Z" fill="black"/>
<path d="M451.334 183.273C451.191 183.273 451.046 183.22 450.936 183.11L448.237 180.446C448.012 180.226 448.01 179.866 448.232 179.642C448.451 179.417 448.81 179.415 449.035 179.637L451.734 182.301C451.958 182.52 451.961 182.88 451.739 183.105C451.627 183.217 451.479 183.273 451.334 183.273Z" fill="black"/>
<path d="M255.814 11.282C255.674 11.282 255.531 11.231 255.422 11.1238C255.195 10.9069 255.187 10.5471 255.404 10.3199L258.065 7.53581C258.282 7.30869 258.641 7.30103 258.868 7.51795C259.095 7.73486 259.102 8.09468 258.886 8.3218L256.224 11.1059C256.112 11.2233 255.962 11.282 255.814 11.282Z" fill="black"/>
<path d="M246.5 21.0252C246.36 21.0252 246.217 20.9742 246.107 20.867C245.881 20.6501 245.873 20.2903 246.09 20.0632L248.751 17.279C248.967 17.0519 249.327 17.0443 249.554 17.2612C249.781 17.4781 249.788 17.8379 249.572 18.065L246.91 20.8492C246.801 20.9665 246.65 21.0252 246.5 21.0252Z" fill="black"/>
<path d="M249.113 11.43C248.97 11.43 248.825 11.3764 248.715 11.2667L246.016 8.60249C245.791 8.38302 245.789 8.0232 246.011 7.79863C246.23 7.57407 246.589 7.57151 246.814 7.79353L249.513 10.4577C249.737 10.6772 249.74 11.037 249.518 11.2616C249.406 11.3739 249.258 11.43 249.113 11.43Z" fill="black"/>
<path d="M258.564 20.7573C258.422 20.7573 258.276 20.7037 258.167 20.594L255.465 17.9298C255.241 17.7103 255.238 17.3505 255.46 17.1259C255.679 16.9013 256.038 16.8988 256.263 17.1208L258.965 19.785C259.189 20.0045 259.192 20.3643 258.97 20.5889C258.858 20.7011 258.71 20.7573 258.564 20.7573Z" fill="black"/>
<path d="M173.965 368.358L165.345 456.731L159.194 456.473L162.25 363.571L173.965 368.358Z" fill="white"/>
<path d="M165.345 457.3C165.337 457.3 165.329 457.3 165.322 457.3L159.171 457.042C158.86 457.03 158.618 456.767 158.628 456.456L161.684 363.553C161.689 363.367 161.786 363.196 161.942 363.094C162.097 362.992 162.293 362.974 162.464 363.045L174.179 367.835C174.411 367.93 174.554 368.167 174.529 368.417L165.908 456.79C165.882 457.078 165.635 457.3 165.345 457.3ZM159.78 455.93L164.832 456.142L173.359 368.726L162.788 364.405L159.78 455.93Z" fill="black"/>
<path d="M58.3318 365.179L66.7461 456.95L73.1059 456.473L70.0496 360.218L58.3318 365.179Z" fill="white"/>
<path d="M66.7461 457.52C66.4555 457.52 66.2082 457.298 66.1802 457.004L57.7684 365.232C57.7455 364.985 57.8857 364.752 58.1126 364.658L69.8278 359.697C70.0012 359.623 70.1974 359.641 70.3555 359.743C70.5135 359.845 70.6104 360.016 70.618 360.205L73.6743 456.46C73.6845 456.764 73.4525 457.022 73.1492 457.045L66.7894 457.522C66.7741 457.52 66.7588 457.52 66.7461 457.52ZM58.9359 365.541L67.2584 456.343L72.5196 455.948L69.5066 361.065L58.9359 365.541Z" fill="black"/>
<path d="M29.0486 343.584L31.5237 439.952L36.4892 438.875L41.0443 339.004L29.0486 343.584Z" fill="white"/>
<path d="M31.5237 440.521C31.3988 440.521 31.2739 440.48 31.172 440.399C31.0394 440.294 30.9604 440.136 30.9553 439.968L28.4802 343.6C28.4726 343.36 28.6204 343.14 28.8447 343.054L40.8404 338.47C41.0188 338.401 41.2202 338.429 41.3757 338.542C41.5312 338.654 41.6178 338.838 41.6102 339.029L37.0551 438.901C37.0423 439.159 36.8588 439.375 36.609 439.429L31.6435 440.506C31.6027 440.516 31.562 440.521 31.5237 440.521ZM29.6273 343.972L32.0743 439.25L35.9437 438.411L40.4376 339.841L29.6273 343.972Z" fill="black"/>
<path d="M126.087 341.431L128.562 437.796L133.724 437.824L138.083 336.847L126.087 341.431Z" fill="white"/>
<path d="M101.155 266.167V288.591C101.155 310.519 118.43 328.298 139.742 328.298C161.052 328.298 178.329 346.075 178.329 368.006C178.329 369.961 176.749 371.543 174.801 371.543H72.6597C40.7129 371.543 14.8124 344.894 14.8124 312.017V264.174C14.8124 251.098 25.1129 240.497 37.8198 240.497H76.208C89.9854 240.497 101.155 251.991 101.155 266.167Z" fill="white"/>
<path d="M174.801 372.11H72.6598C40.4504 372.11 14.2465 345.151 14.2465 312.015V264.171C14.2465 250.804 24.8224 239.928 37.8224 239.928H76.2105C90.2786 239.928 101.726 251.7 101.726 266.167V288.591C101.726 310.172 118.782 327.729 139.745 327.729C161.335 327.729 178.9 345.797 178.9 368.004C178.898 370.267 177.06 372.11 174.801 372.11ZM37.8198 241.066C25.4469 241.066 15.3808 251.432 15.3808 264.174V312.017C15.3808 344.526 41.0775 370.974 72.6598 370.974H174.801C176.433 370.974 177.761 369.642 177.761 368.004C177.761 346.422 160.705 328.865 139.742 328.865C118.152 328.865 100.587 310.797 100.587 288.591V266.167C100.587 252.325 89.6515 241.064 76.208 241.064H37.8198V241.066Z" fill="black"/>
<path d="M4.91965 224.331C3.35455 223.683 1.97553 222.552 1.10887 221.003C-0.175836 218.709 -0.861521 215.037 2.02396 209.79C8.5418 197.942 19.4286 203.543 23.5937 202.17C32.9257 199.095 30.7182 194.042 34.5112 189.135C37.3482 185.463 47.1441 178.534 62.0227 191.439C62.0227 191.439 68.7036 200.568 76.2768 197.094C85.5807 192.828 104.275 202.481 98.3691 216.836C96.6664 220.975 93.5973 224.157 89.8579 225.885C89.1799 226.199 88.4381 226.5 87.6326 226.778C85.3003 227.582 83.4981 229.664 82.9144 232.349C81.0128 241.092 73.8119 257.968 47.088 240.985C45.0717 239.704 42.6808 239.543 40.5957 240.51C38.0339 241.702 35.2555 246.316 22.9029 244.369C14.9679 243.118 12.4469 233.873 10.3516 229.664C8.68454 226.316 6.28847 224.897 4.91965 224.331Z" fill="black"/>
<path d="M142.335 288.851C131.825 292.14 111.693 283.012 108.259 267.701C105.537 255.561 101.283 249.401 99.636 247.367C98.8483 246.022 97.8134 244.759 96.4446 243.555C86.6564 234.942 69.7029 237.731 62.3668 238.938C54.0443 240.306 47.1492 241.442 42.4616 246.727C41.2151 248.13 40.3331 249.6 39.7265 251.164V251.159C30.7692 268.045 38.0288 285.48 42.5075 293.534C43.2467 325.828 32.579 320.752 35.4671 335.092C39.5328 355.293 72.0276 347.742 83.8474 345.162C87.9946 344.256 109.707 350.712 115.014 333.941C118.111 324.154 112.226 319.635 107.028 302.984C133.653 319.551 153.428 291.298 153.428 291.298L155.48 281.394C155.477 281.394 150.107 286.417 142.335 288.851Z" fill="white"/>
<path d="M58.5101 349.278C52.2115 349.278 46.1347 348.285 41.6433 345.348C38.0594 343.005 35.7933 339.593 34.9088 335.201C33.6139 328.771 34.9649 326.127 36.8308 322.467C39.1555 317.915 42.3366 311.683 41.9415 293.687C37.0653 284.867 30.3155 267.696 39.2192 250.902C39.8717 249.24 40.7919 247.75 42.0359 246.349C46.8586 240.913 54.0035 239.737 62.275 238.377C69.6238 237.167 86.8297 234.337 96.8193 243.128C98.1881 244.33 99.2613 245.611 100.102 247.043C101.836 249.192 106.088 255.431 108.812 267.576C110.291 274.17 115.267 280.338 122.462 284.495C129.268 288.427 137.002 289.923 142.164 288.307C149.714 285.944 155.036 281.027 155.09 280.978C155.271 280.81 155.541 280.777 155.755 280.899C155.969 281.022 156.084 281.267 156.033 281.509L153.981 291.413C153.966 291.49 153.935 291.561 153.889 291.625C153.838 291.696 148.781 298.844 140.502 303.841C133.056 308.332 121.468 311.946 108.025 304.242C109.679 309.289 111.395 313.217 112.797 316.424C115.713 323.103 117.64 327.512 115.552 334.112C111.234 347.754 96.4395 346.517 88.4891 345.853C86.4881 345.687 84.7625 345.542 83.9646 345.715L83.2254 345.876C77.3448 347.165 67.6942 349.278 58.5101 349.278ZM40.1955 251.486C31.5416 267.869 38.2353 284.686 43.0019 293.258C43.0478 293.34 43.0708 293.429 43.0733 293.521C43.4939 311.913 40.2286 318.313 37.8427 322.985C36.0151 326.568 34.8043 328.936 36.0227 334.979C36.8435 339.06 38.9439 342.229 42.2627 344.398C52.9074 351.355 73.2205 346.904 82.9832 344.769L83.725 344.605C84.6885 344.396 86.3225 344.531 88.586 344.72C96.7556 345.401 110.428 346.545 114.474 333.767C116.431 327.576 114.673 323.549 111.759 316.879C110.217 313.347 108.298 308.955 106.485 303.152C106.414 302.925 106.493 302.677 106.679 302.532C106.868 302.386 107.125 302.374 107.326 302.499C118.162 309.241 129.115 309.371 139.887 302.884C147.463 298.321 152.281 291.908 152.895 291.063L154.588 282.895C152.538 284.531 148.174 287.618 142.503 289.392C137.05 291.099 128.962 289.563 121.894 285.48C114.423 281.165 109.251 274.729 107.704 267.826C105.019 255.852 100.857 249.781 99.1924 247.727C99.1746 247.704 99.1593 247.681 99.144 247.655C98.3615 246.316 97.3546 245.116 96.0699 243.983C86.483 235.549 69.6493 238.318 62.4586 239.5C54.0672 240.88 47.4398 241.97 42.8847 247.104C41.7172 248.418 40.8582 249.814 40.2541 251.371C40.2388 251.412 40.2184 251.45 40.1955 251.486ZM142.335 288.851H142.34H142.335Z" fill="black"/>
<path d="M95.8762 286.21C95.8762 286.21 115.047 279.212 121.032 266.422L133.372 254.911C133.372 254.911 133.199 260.476 129.533 262.798C129.533 262.798 132.679 269.14 128.037 273.517C128.037 273.517 124.555 276.288 122.48 276.336C122.48 276.336 116.403 296.32 99.9954 302.271C99.9979 302.274 95.3893 295.261 95.8762 286.21Z" fill="white"/>
<path d="M99.9979 302.841C99.8118 302.841 99.6309 302.749 99.5238 302.585C99.3326 302.292 94.8183 295.312 95.3103 286.179C95.323 285.952 95.4683 285.753 95.6824 285.676C95.8711 285.607 114.703 278.61 120.52 266.182C120.551 266.116 120.594 266.057 120.647 266.009L132.987 254.497C133.155 254.341 133.4 254.301 133.609 254.395C133.818 254.489 133.948 254.701 133.943 254.931C133.935 255.161 133.729 260.428 130.242 263.005C130.874 264.6 132.579 270.018 128.43 273.932C128.256 274.073 125.141 276.535 122.908 276.87C121.968 279.639 115.445 297.277 100.194 302.807C100.128 302.83 100.064 302.841 99.9979 302.841ZM96.4267 286.61C96.1438 294.014 99.3377 300.033 100.24 301.577C115.871 295.596 121.881 276.367 121.94 276.173C122.011 275.938 122.225 275.778 122.47 275.77C124.015 275.732 126.76 273.81 127.688 273.072C131.924 269.074 129.148 263.294 129.029 263.051C128.901 262.791 128.988 262.474 129.233 262.319C131.471 260.9 132.312 258.113 132.625 256.388L121.501 266.767C115.817 278.748 99.1593 285.562 96.4267 286.61Z" fill="black"/>
<path d="M78.5964 308.623C62.6217 308.623 53.4529 300.7 53.3305 300.59C53.096 300.381 53.0756 300.023 53.2821 299.789C53.4911 299.554 53.848 299.531 54.0825 299.74C54.2431 299.883 70.5619 313.931 97.7191 303.844C98.0122 303.734 98.3385 303.884 98.4481 304.178C98.5577 304.471 98.4073 304.798 98.1142 304.908C90.8164 307.62 84.273 308.623 78.5964 308.623Z" fill="black"/>
<path d="M88.3999 286.983C74.4823 286.983 66.379 279.049 61.9411 272.054C56.7207 263.827 55.3315 255.087 55.3188 254.997C55.2704 254.686 55.4845 254.398 55.7929 254.349C56.1064 254.301 56.3919 254.515 56.4404 254.824C56.4531 254.908 57.8143 263.447 62.9174 271.472C69.7156 282.165 79.5854 286.934 92.2515 285.643C92.5599 285.61 92.8428 285.84 92.8734 286.151C92.904 286.462 92.6771 286.743 92.3662 286.774C90.9973 286.917 89.6744 286.983 88.3999 286.983Z" fill="black"/>
<path d="M99.195 276.905C99.1669 276.905 99.1389 276.903 99.1108 276.9C98.7999 276.854 98.5858 276.566 98.6316 276.255C101.135 259.121 93.3042 249.429 93.2252 249.332C93.0264 249.09 93.0595 248.732 93.2991 248.531C93.5412 248.329 93.8981 248.362 94.0969 248.605C94.4334 249.01 102.335 258.756 99.7532 276.418C99.715 276.704 99.4703 276.905 99.195 276.905Z" fill="black"/>
<path d="M95.657 228.759C95.1242 225.191 95.9782 215.721 95.8227 215.95C94.2958 218.191 89.2691 215.54 84.7446 215.361C80.2176 215.182 81.7419 221.988 81.7419 221.988C81.7419 221.988 80.4164 217.369 77.5921 220.261C75.9531 221.94 77.7603 224.104 79.4427 225.52C78.9813 226.048 70.827 234.845 65.8335 240.076L76.909 248.492L82.4531 243.307L81.3239 241.503C80.5184 240.217 80.4445 238.601 81.1327 237.249L83.8448 232.648C84.4668 233.4 85.2544 234.263 85.9784 234.771C87.4237 235.779 89.2182 235.623 90.4927 234.406C92.2388 232.737 93.4623 230.861 94.0154 229.039L95.657 228.759Z" fill="white"/>
<path d="M76.9089 249.059C76.7891 249.059 76.6668 249.021 76.5648 248.944L65.4894 240.528C65.3594 240.431 65.2803 240.28 65.2676 240.12C65.2548 239.959 65.3109 239.798 65.4231 239.681C69.9858 234.901 76.9064 227.447 78.6346 225.564C77.5615 224.581 76.4501 223.244 76.3838 221.876C76.3482 221.123 76.6184 220.444 77.1868 219.863C78.0891 218.939 78.9838 218.582 79.8531 218.801C80.2711 218.906 80.628 219.138 80.9313 219.426C80.9517 218.217 81.1811 216.856 81.9585 215.922C82.6213 215.124 83.5644 214.746 84.7676 214.792C86.4754 214.858 88.2648 215.272 89.8452 215.634C92.3993 216.221 94.6042 216.729 95.3562 215.629C95.4989 215.417 95.7717 215.325 96.0138 215.407C96.4599 215.558 96.4599 215.558 96.3197 218.056C96.1591 220.922 95.8609 226.258 96.2228 228.674C96.2687 228.981 96.0622 229.266 95.7564 229.317L94.4538 229.539C93.8242 231.364 92.5981 233.181 90.8877 234.814C89.4144 236.223 87.3115 236.391 85.6572 235.233C85.1525 234.881 84.5738 234.337 83.934 233.617L81.6272 237.535C81.0511 238.673 81.1123 240.086 81.8082 241.197L82.9374 243.001C83.0827 243.23 83.0419 243.532 82.8431 243.718L77.2989 248.903C77.1868 249.008 77.0491 249.059 76.9089 249.059ZM66.6823 240.007L76.8707 247.75L81.724 243.213L80.8421 241.806C79.9346 240.36 79.8531 238.515 80.628 236.994L83.3554 232.362C83.4497 232.201 83.6154 232.099 83.7989 232.084C83.9825 232.068 84.1634 232.145 84.2807 232.288C85.0683 233.24 85.7489 233.919 86.3021 234.306C87.5205 235.159 89.0117 235.036 90.1001 233.998C91.7723 232.398 92.9397 230.627 93.4725 228.876C93.5362 228.669 93.7095 228.516 93.9211 228.48L95.0273 228.292C94.7571 225.589 95.0299 220.705 95.1828 217.995C95.1981 217.701 95.216 217.41 95.2287 217.147C93.8701 217.729 91.8462 217.265 89.5877 216.744C87.9819 216.374 86.3225 215.994 84.7191 215.93C83.883 215.897 83.2585 216.134 82.8278 216.652C81.7291 217.974 82.0682 220.863 82.2925 221.866C82.3587 222.164 82.1778 222.463 81.8795 222.54C81.5838 222.616 81.278 222.443 81.1938 222.147C81.046 221.634 80.4266 220.12 79.5701 219.906C79.124 219.794 78.5938 220.046 77.9948 220.661C77.6507 221.014 77.4927 221.394 77.5131 221.825C77.5564 222.723 78.3721 223.882 79.8046 225.089C79.9219 225.188 79.9933 225.329 80.006 225.482C80.0187 225.635 79.9678 225.786 79.8658 225.9C79.4401 226.383 71.8033 234.631 66.6823 240.007Z" fill="black"/>
<path d="M82.9782 231.438L83.8449 232.648L82.9782 231.438Z" fill="white"/>
<path d="M83.8448 233.217C83.669 233.217 83.4931 233.135 83.3835 232.979L82.5168 231.77C82.3333 231.515 82.3919 231.16 82.6468 230.976C82.9017 230.792 83.256 230.851 83.4396 231.106L84.3062 232.316C84.4897 232.571 84.4311 232.926 84.1762 233.11C84.0743 233.184 83.9596 233.217 83.8448 233.217Z" fill="black"/>
<path d="M179.28 411.22C179.17 411.672 184.477 435.979 184.477 435.979L172.283 433.935L168.61 413.384L179.28 411.22Z" fill="white"/>
<path d="M184.477 436.548C184.447 436.548 184.416 436.546 184.383 436.54L172.189 434.496C171.952 434.456 171.765 434.272 171.725 434.037L168.052 413.486C167.998 413.183 168.194 412.889 168.498 412.828L179.17 410.664C179.362 410.626 179.558 410.687 179.693 410.827C179.803 410.942 179.859 411.095 179.851 411.251C179.933 412.259 182.989 426.486 185.036 435.862C185.076 436.045 185.023 436.239 184.893 436.375C184.781 436.484 184.63 436.548 184.477 436.548ZM172.77 433.44L183.743 435.28C180.119 418.664 179.094 413.532 178.816 411.894L169.262 413.831L172.77 433.44Z" fill="black"/>
<path d="M178 428.007C178.747 427.379 179.813 426.767 181.171 426.708C183.216 426.621 185.079 427.902 185.925 429.783C188.041 434.489 193.616 447.598 195.193 458.311C195.752 462.098 192.897 465.178 188.449 462.695C181.161 458.63 171.052 449.295 165.757 435.507C165.151 433.925 165.367 432.136 166.364 430.768C167.18 429.653 168.284 428.303 169.568 427.149C170.794 426.05 172.64 426.034 173.912 427.08L175.056 428.025C175.918 428.734 177.149 428.724 178 428.007Z" fill="white"/>
<path d="M191.452 464.16C190.557 464.16 189.463 463.912 188.171 463.19C180.547 458.936 170.514 449.484 165.227 435.711C164.542 433.927 164.796 431.952 165.905 430.434C166.976 428.969 168.08 427.721 169.188 426.728C170.626 425.44 172.762 425.401 174.271 426.644L175.418 427.588C176.061 428.119 176.993 428.111 177.636 427.57C178.686 426.687 179.899 426.192 181.146 426.139C183.348 426.044 185.482 427.415 186.443 429.548C188.719 434.611 194.181 447.542 195.754 458.227C196.075 460.411 195.351 462.407 193.865 463.435C193.376 463.772 192.571 464.16 191.452 464.16ZM171.771 426.876C171.115 426.876 170.468 427.111 169.948 427.576C168.898 428.517 167.848 429.704 166.823 431.105C165.941 432.312 165.742 433.881 166.288 435.303C171.467 448.792 181.273 458.04 188.724 462.197C190.483 463.18 192.079 463.284 193.218 462.498C194.347 461.718 194.888 460.146 194.63 458.392C193.08 447.85 187.664 435.035 185.408 430.015C184.638 428.3 182.948 427.198 181.197 427.274C180.187 427.318 179.237 427.711 178.367 428.441C177.307 429.334 175.765 429.344 174.697 428.466L173.55 427.522C173.027 427.091 172.395 426.876 171.771 426.876Z" fill="black"/>
<path d="M192.418 459.893C191.457 459.893 181.174 459.291 168.704 434.619C168.561 434.338 168.674 433.996 168.954 433.856C169.234 433.713 169.576 433.825 169.716 434.106C182.214 458.834 192.328 458.76 192.435 458.757C192.764 458.745 193.011 458.992 193.024 459.306C193.034 459.62 192.79 459.883 192.476 459.893C192.463 459.893 192.443 459.893 192.418 459.893Z" fill="black"/>
<path d="M184.613 446.312C184.386 446.312 184.172 446.176 184.085 445.952C183.97 445.661 184.113 445.329 184.403 445.214L190.185 442.93C190.478 442.816 190.807 442.959 190.921 443.249C191.036 443.54 190.893 443.872 190.603 443.987L184.822 446.271C184.753 446.299 184.681 446.312 184.613 446.312Z" fill="black"/>
<path d="M182.586 441.876C182.359 441.876 182.145 441.739 182.056 441.514C181.941 441.221 182.086 440.891 182.38 440.779L189.16 438.138C189.453 438.023 189.782 438.169 189.894 438.462C190.009 438.755 189.863 439.085 189.57 439.197L182.79 441.838C182.724 441.864 182.655 441.876 182.586 441.876Z" fill="black"/>
<path d="M126.801 413.428C126.513 413.793 121.122 438.082 121.122 438.082L110.913 431.095L116.207 410.901L126.801 413.428Z" fill="white"/>
<path d="M121.122 438.648C121.009 438.648 120.897 438.615 120.8 438.549L110.592 431.562C110.393 431.426 110.301 431.181 110.362 430.949L115.657 410.756C115.736 410.457 116.036 410.276 116.337 410.347L126.931 412.874C127.119 412.92 127.272 413.058 127.336 413.241C127.387 413.392 127.374 413.553 127.303 413.69C126.954 414.64 123.755 428.834 121.675 438.204C121.634 438.388 121.504 438.541 121.328 438.61C121.264 438.635 121.193 438.648 121.122 438.648ZM111.565 430.85L120.749 437.137C124.438 420.537 125.661 415.449 126.097 413.844L116.615 411.583L111.565 430.85Z" fill="black"/>
<path d="M118.593 428.122C119.534 427.866 120.76 427.759 122.014 428.277C123.905 429.058 125.057 431.005 125.037 433.07C124.981 438.23 124.537 452.469 121.468 462.856C120.385 466.525 116.503 468.12 113.508 463.996C108.601 457.242 103.347 444.515 104.334 429.78C104.446 428.088 105.394 426.557 106.873 425.738C108.081 425.07 109.651 424.309 111.298 423.804C112.873 423.322 114.553 424.085 115.269 425.57L115.914 426.907C116.396 427.905 117.52 428.413 118.593 428.122Z" fill="white"/>
<path d="M117.438 467C116.312 467 114.647 466.53 113.049 464.328C107.915 457.259 102.781 444.462 103.768 429.74C103.895 427.831 104.953 426.149 106.6 425.238C108.185 424.36 109.71 423.694 111.135 423.258C112.98 422.694 114.935 423.559 115.781 425.32L116.426 426.657C116.788 427.407 117.637 427.795 118.445 427.576C119.768 427.216 121.078 427.277 122.233 427.754C124.277 428.596 125.633 430.737 125.608 433.077C125.547 438.63 125.075 452.663 122.016 463.017C121.392 465.135 119.896 466.64 118.114 466.946C117.92 466.977 117.693 467 117.438 467ZM112.269 424.22C112.004 424.22 111.731 424.258 111.466 424.34C110.118 424.753 108.665 425.389 107.15 426.228C105.843 426.953 105.004 428.293 104.902 429.814C103.939 444.232 108.955 456.752 113.969 463.657C115.152 465.288 116.554 466.056 117.92 465.821C119.271 465.589 120.423 464.387 120.925 462.69C123.943 452.472 124.41 438.564 124.471 433.06C124.491 431.179 123.418 429.467 121.8 428.8C120.864 428.415 119.837 428.372 118.743 428.668C117.405 429.033 116.003 428.392 115.404 427.147L114.759 425.81C114.28 424.814 113.306 424.22 112.269 424.22Z" fill="black"/>
<path d="M118.56 463.187C118.486 463.187 118.412 463.172 118.341 463.144C117.933 462.973 108.364 458.622 107.382 430.209C107.372 429.895 107.617 429.632 107.93 429.622C108.236 429.614 108.507 429.857 108.517 430.171C109.475 457.864 118.687 462.059 118.782 462.098C119.07 462.22 119.207 462.552 119.085 462.843C118.993 463.057 118.782 463.187 118.56 463.187Z" fill="black"/>
<path d="M123.352 447.924C123.342 447.924 123.329 447.924 123.319 447.924L117.115 447.565C116.801 447.547 116.561 447.279 116.582 446.965C116.6 446.651 116.862 446.414 117.181 446.432L123.385 446.791C123.699 446.809 123.938 447.077 123.918 447.391C123.9 447.692 123.65 447.924 123.352 447.924Z" fill="black"/>
<path d="M124.433 443.145C124.42 443.145 124.41 443.145 124.397 443.145L117.135 442.688C116.821 442.668 116.584 442.4 116.605 442.086C116.625 441.772 116.898 441.535 117.206 441.555L124.469 442.012C124.782 442.032 125.019 442.3 124.999 442.614C124.978 442.913 124.729 443.145 124.433 443.145Z" fill="black"/>
<path d="M69.759 317.693C69.759 317.693 144.022 314.467 152.141 322.013C163.152 332.251 182.071 417.483 182.071 417.483L163.805 422.609C163.805 422.609 136.281 352.661 129.462 352.661C122.643 352.661 58.3445 350.365 58.3445 350.365L69.759 317.693Z" fill="black"/>
<path d="M64.8496 315.832C58.9792 315.531 53.7333 319.456 52.3517 325.177C50.2106 334.038 48.36 346.154 53.1496 349.38C60.9445 354.629 117.125 354.183 115.175 353.527C113.227 352.871 110.151 400.661 110.151 419.037L127.838 419.721C127.838 419.721 156.028 345.815 152.989 337.562C147.552 322.799 105.708 319.415 92.3178 317.443C90.5207 317.177 75.2495 316.366 64.8496 315.832Z" fill="black"/>
<path d="M143.65 378.227C143.591 378.227 143.535 378.219 143.476 378.199C143.178 378.102 143.013 377.783 143.109 377.484C143.747 375.496 144.379 373.541 144.996 371.625C149.946 356.311 154.221 343.087 152.452 337.738C148.694 326.385 120.591 322.031 111.356 320.602C111.045 320.553 110.834 320.263 110.882 319.954C110.931 319.642 111.221 319.431 111.53 319.479C127.851 322.008 149.964 326.612 153.527 337.381C155.414 343.082 151.292 355.831 146.074 371.974C145.455 373.888 144.822 375.843 144.188 377.829C144.114 378.074 143.889 378.227 143.65 378.227Z" fill="white"/>
<path d="M306.318 355.244L314.939 443.617L321.092 443.359L318.036 350.454L306.318 355.244Z" fill="white"/>
<path d="M314.939 444.186C314.648 444.186 314.403 443.964 314.373 443.673L305.752 355.3C305.726 355.05 305.869 354.813 306.101 354.718L317.816 349.928C317.987 349.857 318.183 349.877 318.339 349.977C318.494 350.079 318.591 350.25 318.596 350.436L321.653 443.339C321.663 443.65 321.421 443.913 321.11 443.926L314.959 444.183C314.954 444.186 314.946 444.186 314.939 444.186ZM306.924 355.609L315.451 443.025L320.503 442.813L317.493 351.289L306.924 355.609Z" fill="black"/>
<path d="M421.951 352.064L413.54 443.836L407.18 443.359L410.236 347.104L421.951 352.064Z" fill="white"/>
<path d="M413.54 444.405C413.524 444.405 413.512 444.405 413.496 444.403L407.136 443.926C406.833 443.903 406.601 443.645 406.611 443.341L409.668 347.086C409.673 346.899 409.772 346.726 409.93 346.624C410.088 346.522 410.284 346.506 410.458 346.578L422.173 351.539C422.4 351.636 422.54 351.868 422.517 352.113L414.105 443.885C414.077 444.183 413.83 444.405 413.54 444.405ZM407.763 442.831L413.025 443.226L421.347 352.424L410.776 347.948L407.763 442.831Z" fill="black"/>
<path d="M451.237 330.47L448.762 426.836L443.794 425.759L439.241 325.887L451.237 330.47Z" fill="white"/>
<path d="M448.762 427.405C448.721 427.405 448.68 427.399 448.642 427.392L443.677 426.315C443.424 426.261 443.241 426.042 443.23 425.787L438.675 325.915C438.668 325.724 438.754 325.54 438.91 325.428C439.065 325.315 439.267 325.29 439.445 325.356L451.441 329.939C451.665 330.026 451.813 330.243 451.805 330.485L449.33 426.853C449.325 427.022 449.246 427.18 449.114 427.285C449.012 427.364 448.887 427.405 448.762 427.405ZM444.342 425.297L448.211 426.136L450.658 330.858L439.848 326.729L444.342 425.297Z" fill="black"/>
<path d="M354.196 328.314L351.721 424.682L346.562 424.71L342.2 323.733L354.196 328.314Z" fill="white"/>
<path d="M346.562 425.279C346.258 425.279 346.008 425.039 345.996 424.735L341.634 323.759C341.627 323.567 341.713 323.386 341.869 323.274C342.024 323.161 342.226 323.136 342.404 323.205L354.4 327.788C354.624 327.875 354.772 328.092 354.764 328.334L352.289 424.702C352.282 425.008 352.032 425.253 351.726 425.256L346.567 425.284C346.564 425.279 346.562 425.279 346.562 425.279ZM342.804 324.57L347.105 424.138L351.168 424.115L353.617 328.702L342.804 324.57Z" fill="black"/>
<path d="M379.128 253.053V275.476C379.128 297.405 361.851 315.184 340.541 315.184C319.231 315.184 301.954 332.961 301.954 354.892C301.954 356.847 303.534 358.429 305.482 358.429H407.623C439.57 358.429 465.471 331.779 465.471 298.903V251.057C465.471 237.981 455.17 227.38 442.463 227.38H404.075C390.298 227.38 379.128 238.874 379.128 253.053Z" fill="white"/>
<path d="M407.626 358.995H305.484C303.226 358.995 301.391 357.153 301.391 354.889C301.391 332.683 318.956 314.615 340.546 314.615C361.509 314.615 378.564 297.058 378.564 275.476V253.053C378.564 238.583 390.01 226.814 404.078 226.814H442.466C455.466 226.814 466.042 237.69 466.042 251.057V298.9C466.039 332.037 439.835 358.995 407.626 358.995ZM404.075 227.95C390.632 227.95 379.696 239.211 379.696 253.053V275.476C379.696 297.683 362.131 315.751 340.541 315.751C319.578 315.751 302.522 333.308 302.522 354.889C302.522 356.528 303.85 357.86 305.482 357.86H407.623C439.208 357.86 464.902 331.412 464.902 298.903V251.057C464.902 238.315 454.836 227.95 442.463 227.95H404.075Z" fill="black"/>
<path d="M371.838 254.109C371.838 254.109 366.271 304.78 328.882 308.098L371.838 308.71C371.838 308.71 387.744 276.408 388.388 263.829C389.033 251.249 371.838 254.109 371.838 254.109Z" fill="white"/>
<path d="M371.838 309.277C371.835 309.277 371.833 309.277 371.83 309.277L328.874 308.664C328.571 308.659 328.326 308.419 328.316 308.118C328.306 307.817 328.532 307.557 328.833 307.531C347.867 305.844 358.384 291.436 363.854 279.646C369.819 266.797 371.262 254.173 371.274 254.046C371.302 253.793 371.496 253.589 371.746 253.548C372.136 253.484 381.356 252.009 386.171 256.314C388.184 258.113 389.12 260.652 388.957 263.858C388.312 276.408 373 307.636 372.347 308.96C372.251 309.154 372.054 309.277 371.838 309.277ZM335.145 307.618L371.486 308.136C373.14 304.732 387.223 275.451 387.823 263.799C387.968 260.954 387.16 258.721 385.414 257.161C381.547 253.704 374.173 254.38 372.347 254.612C372.034 256.973 370.301 268.443 364.897 280.098C357.971 295.032 347.767 304.433 335.145 307.618Z" fill="black"/>
<path d="M425.048 221.904C417.796 220.194 414.771 220.171 388.406 221.128C381.962 221.363 374.298 229.468 373.54 235.886C375.59 242.041 385.042 272.437 368.539 296.185C366.197 299.554 363.016 303.249 358.644 306.793C361.099 308.784 364.915 311.374 370.038 312.898C378.544 315.429 382.821 312.693 389.676 312.898C407.809 313.439 414.457 333.68 426.17 331.139C429.298 330.46 433.442 328.015 437.327 319.813C439.529 313.012 441.49 305.028 442.581 296.004C445.54 271.541 440.699 251.172 436.374 238.389C435.089 234.355 433.6 223.92 425.048 221.904Z" fill="black"/>
<path d="M366.926 259.787C366.926 259.787 371.19 225.523 383.476 222.598L380.655 267.67L366.926 259.787Z" fill="black"/>
<path d="M429.371 250.641C434.984 253.022 441.576 255.829 447.38 258.325C447.383 258.399 447.383 258.468 447.385 258.542L429.377 250.761L429.371 250.641Z" fill="white"/>
<path d="M447.385 259.111C447.309 259.111 447.232 259.096 447.161 259.065L429.155 251.284C428.956 251.197 428.823 251.006 428.813 250.789L428.808 250.667C428.798 250.47 428.89 250.284 429.05 250.174C429.211 250.062 429.417 250.041 429.596 250.118C436.453 253.027 442.68 255.684 447.607 257.804C447.811 257.891 447.944 258.09 447.951 258.312L447.956 258.532C447.959 258.726 447.865 258.907 447.704 259.014C447.607 259.078 447.495 259.111 447.385 259.111Z" fill="black"/>
<path d="M450.528 266.067C450.528 266.067 449.328 245.713 447.571 237.848C443.88 221.304 422.487 221.131 422.487 221.131L426.223 263.24L450.528 266.067Z" fill="black"/>
<path d="M404.07 218.324L403.346 208.029C402.854 207.996 402.515 207.973 402.416 207.973C399.551 207.94 398.62 207.009 398.373 204.651C398.217 203.176 398.164 200.984 398.883 198.243C398.959 197.949 398.941 197.638 398.824 197.36L398.335 196.209C398.233 195.831 398.363 195.425 398.666 195.178L398.926 194.964C399.862 194.195 400.636 193.251 401.261 192.202C401.835 191.238 402.808 189.431 403.476 189.109C405.36 188.209 412.997 184.202 417.269 191.202C420.598 196.658 415.158 204.171 413.18 206.631C412.703 207.225 416.407 218.89 416.407 218.89L421.199 220.051C421.199 220.051 417.503 226.633 406.275 223.91C398.279 221.973 399.548 218.99 399.548 218.99L404.07 218.324Z" fill="white"/>
<path d="M411.449 225.148C409.894 225.148 408.131 224.946 406.137 224.464C402.344 223.545 400.009 222.256 399.199 220.638C398.689 219.62 398.987 218.852 399.023 218.768C399.099 218.587 399.268 218.456 399.461 218.428L403.466 217.836L402.813 208.56C402.607 208.547 402.467 208.54 402.408 208.537C399.344 208.501 398.095 207.463 397.807 204.707C397.575 202.492 397.748 200.328 398.332 198.095C398.378 197.919 398.368 197.735 398.299 197.579L397.81 196.428C397.799 196.403 397.792 196.38 397.784 196.354C397.624 195.76 397.827 195.124 398.302 194.734L398.562 194.52C399.41 193.823 400.152 192.942 400.769 191.906L401.024 191.47C401.857 190.038 402.548 188.918 403.226 188.591L403.428 188.494C410.012 185.307 414.829 186.116 417.748 190.901C421.133 196.451 416.114 203.852 413.698 206.884C413.695 207.866 415.255 213.376 416.846 218.411L421.327 219.495C421.5 219.536 421.643 219.658 421.714 219.822C421.786 219.985 421.775 220.171 421.689 220.327C421.559 220.567 418.882 225.148 411.449 225.148ZM400.04 219.493C400.045 219.661 400.091 219.898 400.241 220.179C400.629 220.904 401.947 222.277 406.405 223.359C414.977 225.436 418.977 221.912 420.238 220.406L416.272 219.447C416.078 219.401 415.925 219.255 415.864 219.066C412.066 207.111 412.517 206.549 412.734 206.279C414.967 203.5 419.828 196.497 416.779 191.501C412.918 185.169 406.147 188.449 403.922 189.525L403.718 189.625C403.3 189.827 402.426 191.327 402.005 192.049L401.745 192.496C401.062 193.644 400.234 194.624 399.283 195.405L399.023 195.619C398.903 195.719 398.844 195.882 398.873 196.033L399.344 197.138C399.51 197.526 399.54 197.967 399.431 198.386C398.883 200.483 398.72 202.515 398.936 204.589C399.138 206.508 399.688 207.371 402.421 207.402C402.525 207.404 402.874 207.425 403.382 207.46C403.665 207.481 403.889 207.705 403.909 207.989L404.633 218.283C404.654 218.579 404.445 218.842 404.149 218.885L400.04 219.493Z" fill="black"/>
<path d="M414.911 182.304C412.841 181.857 410.46 182.176 409.456 181.806C407.835 181.209 407.792 179.264 405.548 178.716C402.834 178.055 401.702 179.216 400.642 180.834C400.466 181.104 400.31 181.405 400.183 181.747C398.477 186.333 400.631 188.571 401.59 189.298C401.59 189.298 407.695 192.46 408.74 193.364C409.719 194.208 410.845 196.209 410.137 199.085C410.045 199.455 410.205 199.84 410.519 200.032C410.886 200.254 411.36 200.149 411.613 199.782C412.405 198.628 414.141 196.395 415.375 196.926C416.925 197.589 416.443 202.247 413.022 202.785C411.972 202.951 411.118 204.028 411.222 205.13C411.291 205.85 411.967 206.723 412.971 206.952C413.585 207.093 414.19 206.845 414.73 206.498C416.963 205.069 423.259 199.013 424.042 193.583C424.985 187.04 417.666 182.898 414.911 182.304Z" fill="black"/>
<path d="M402.574 208.494C402.27 208.494 402.018 208.254 402.008 207.948C401.995 207.634 402.24 207.371 402.553 207.358C402.576 207.358 404.763 207.256 406.257 205.985C406.497 205.781 406.853 205.812 407.057 206.049C407.261 206.289 407.231 206.646 406.994 206.85C405.197 208.382 402.704 208.489 402.599 208.494C402.586 208.494 402.581 208.494 402.574 208.494Z" fill="black"/>
<path d="M353.612 415.058C352.567 413.999 346.531 395.174 346.531 395.174L334.602 403.705L347.681 421.323L353.612 415.058Z" fill="white"/>
<path d="M347.678 421.892C347.668 421.892 347.655 421.892 347.645 421.892C347.477 421.882 347.324 421.798 347.222 421.663L334.143 404.044C334.051 403.922 334.015 403.769 334.038 403.618C334.061 403.468 334.145 403.332 334.27 403.243L346.2 394.712C346.348 394.607 346.536 394.577 346.707 394.635C346.88 394.692 347.013 394.829 347.069 395C349.358 402.141 353.271 413.79 354.02 414.663C354.209 414.885 354.224 415.237 354.023 415.449L348.088 421.716C347.984 421.829 347.834 421.892 347.678 421.892ZM335.4 403.83L347.732 420.44L352.904 414.977C351.489 412.272 347.523 400.099 346.228 396.085L335.4 403.83Z" fill="black"/>
<path d="M332.114 438.86L340.049 438.814C345.297 438.784 350.181 436.109 353.044 431.699L360.89 419.251C363.056 415.811 361.845 411.253 358.259 409.342C354.984 407.599 351.555 405.9 350.75 405.976C349.118 406.132 348.458 413.872 348.458 413.872L341.39 414.145C341.39 414.145 337.898 428.698 334.826 430.352C332.588 431.557 331.025 433.328 329.973 434.943C328.869 436.632 330.098 438.87 332.114 438.86Z" fill="black"/>
<path d="M332.909 436.323C332.634 436.323 332.392 436.122 332.348 435.839C332.302 435.527 332.514 435.239 332.825 435.193L343.679 433.555C345.952 433.21 347.936 431.881 349.116 429.9L358.705 413.844C358.866 413.573 359.215 413.486 359.483 413.647C359.753 413.808 359.839 414.158 359.679 414.425L350.089 430.482C348.733 432.753 346.457 434.282 343.847 434.675L332.993 436.313C332.968 436.321 332.937 436.323 332.909 436.323Z" fill="white"/>
<path d="M346.307 424.248C346.258 424.248 346.207 424.24 346.156 424.227L340.11 422.576C339.807 422.495 339.628 422.181 339.712 421.88C339.794 421.576 340.105 421.397 340.408 421.482L346.455 423.133C346.758 423.214 346.936 423.528 346.852 423.829C346.783 424.082 346.557 424.248 346.307 424.248Z" fill="white"/>
<path d="M343.156 427.359C343.11 427.359 343.067 427.353 343.021 427.343L338.968 426.348C338.662 426.274 338.476 425.965 338.553 425.662C338.626 425.355 338.937 425.169 339.238 425.246L343.291 426.241C343.597 426.315 343.783 426.624 343.707 426.927C343.645 427.185 343.414 427.359 343.156 427.359Z" fill="white"/>
<path d="M312.904 411.465L299.053 425.414L291.712 422.712L304.48 404.866L312.904 411.465Z" fill="white"/>
<path d="M299.053 425.983C298.987 425.983 298.921 425.973 298.857 425.947L291.513 423.245C291.347 423.184 291.22 423.048 291.166 422.877C291.115 422.709 291.143 422.523 291.248 422.38L304.016 404.534C304.105 404.409 304.243 404.325 304.396 404.302C304.549 404.279 304.704 404.322 304.827 404.417L313.251 411.016C313.379 411.116 313.458 411.266 313.468 411.43C313.478 411.593 313.419 411.751 313.305 411.866L299.453 425.815C299.349 425.924 299.201 425.983 299.053 425.983ZM292.607 422.436L298.908 424.756L312.05 411.519L304.595 405.68L292.607 422.436Z" fill="black"/>
<path d="M386.222 308.491C386.222 308.491 322.92 300.712 304.095 317.912C285.271 335.11 333.809 409.064 333.809 409.064L349.159 397.05L334.599 344.779L393.114 327.239L386.222 308.491Z" fill="white"/>
<path d="M333.809 409.633C333.778 409.633 333.748 409.63 333.717 409.625C333.562 409.6 333.421 409.51 333.335 409.378C331.341 406.341 284.751 334.819 303.713 317.494C322.514 300.317 383.696 307.61 386.291 307.929C386.502 307.955 386.681 308.098 386.755 308.297L393.65 327.045C393.703 327.193 393.695 327.357 393.624 327.497C393.553 327.637 393.43 327.742 393.28 327.788L335.298 345.167L349.707 396.902C349.768 397.124 349.692 397.361 349.511 397.501L334.161 409.516C334.059 409.592 333.936 409.633 333.809 409.633ZM355.012 307.337C336.266 307.337 314.207 309.445 304.48 318.333C287.04 334.267 329.69 401.617 333.949 408.237L348.512 396.84L334.054 344.934C333.97 344.636 334.14 344.327 334.439 344.238L392.375 326.872L385.809 309.019C383.535 308.756 370.387 307.337 355.012 307.337Z" fill="black"/>
<path d="M421.059 342.53C411.865 345.611 395.411 349.592 372.416 349.262C365.883 349.168 359.85 352.978 356.883 359.123C350.072 373.222 335.328 398.606 311.314 415.058L299.846 408.536L329.119 338.986C331.793 332.637 336.789 327.701 342.97 325.308L400.986 302.853C400.986 302.853 418.974 297.545 427.794 314.495C429.369 317.522 432.293 312.112 432.991 314.554C435.379 322.929 428.956 339.884 421.059 342.53Z" fill="white"/>
<path d="M311.314 415.625C311.217 415.625 311.12 415.599 311.033 415.551L299.565 409.028C299.316 408.885 299.211 408.579 299.323 408.314L328.596 338.766C331.313 332.31 336.478 327.214 342.766 324.779L400.782 302.325C401.009 302.256 419.367 297.071 428.298 314.235C428.484 314.595 428.688 314.804 428.908 314.858C429.364 314.975 430.055 314.51 430.661 314.102C431.388 313.615 432.073 313.153 432.741 313.398C433.121 313.536 433.389 313.872 433.539 314.398C435.968 322.914 429.491 340.305 421.243 343.066L421.062 342.528L421.243 343.066C411.498 346.33 395.115 350.156 372.411 349.826C372.332 349.826 372.256 349.824 372.177 349.824C365.896 349.824 360.247 353.463 357.397 359.365C350.706 373.215 335.866 398.925 311.64 415.523C311.538 415.592 311.426 415.625 311.314 415.625ZM300.565 408.291L311.286 414.387C335.122 397.932 349.756 372.564 356.37 358.873C359.406 352.593 365.705 348.599 372.424 348.693C394.967 349.02 411.217 345.228 420.878 341.992C428.5 339.438 434.704 322.638 432.443 314.712C432.384 314.508 432.328 314.459 432.328 314.457C432.17 314.439 431.622 314.824 431.291 315.046C430.485 315.587 429.573 316.2 428.622 315.96C428.079 315.822 427.631 315.416 427.289 314.761C418.793 298.433 401.86 303.19 401.144 303.402L343.174 325.841C337.171 328.163 332.239 333.037 329.641 339.208L300.565 408.291Z" fill="black"/>
<path d="M303.43 423.232C303.43 423.232 304.1 429.165 302.963 434.409C302.359 437.204 299.846 439.169 296.993 439.169H263C260.571 439.169 259.469 436.129 261.33 434.565C267.374 429.489 278.493 421.739 292.163 419.465L295.976 424.814L303.43 423.232Z" fill="black"/>
<path d="M299.846 435.053H264.616C264.302 435.053 264.047 434.797 264.047 434.484C264.047 434.17 264.302 433.914 264.616 433.914H299.846C300.159 433.914 300.414 434.17 300.414 434.484C300.414 434.797 300.159 435.053 299.846 435.053Z" fill="white"/>
<path d="M284.274 428.78C284.05 428.78 283.838 428.647 283.749 428.428L281.883 423.893C281.763 423.602 281.901 423.27 282.191 423.15C282.479 423.031 282.813 423.168 282.933 423.459L284.799 427.994C284.919 428.285 284.781 428.617 284.491 428.737C284.419 428.767 284.345 428.78 284.274 428.78Z" fill="white"/>
<path d="M278.141 429.972C277.901 429.972 277.68 429.821 277.601 429.581L276.252 425.491C276.153 425.192 276.316 424.87 276.614 424.773C276.912 424.674 277.233 424.837 277.33 425.136L278.679 429.227C278.776 429.525 278.615 429.847 278.317 429.944C278.261 429.964 278.2 429.972 278.141 429.972Z" fill="white"/>
<path d="M432.527 262.125C426.356 284.638 408.018 299.003 381.43 306.564L385.485 314.151C422.436 312.849 441.813 296.772 449.56 265.917L432.527 262.125Z" fill="white"/>
<path d="M385.485 314.72C385.276 314.72 385.082 314.605 384.985 314.419L380.93 306.832C380.848 306.681 380.841 306.5 380.907 306.342C380.973 306.184 381.108 306.064 381.274 306.018C409.076 298.109 426.137 283.293 431.979 261.974C432.058 261.681 432.354 261.505 432.65 261.571L449.682 265.366C449.832 265.399 449.962 265.491 450.041 265.621C450.123 265.751 450.146 265.909 450.108 266.057C442.091 297.987 421.564 313.451 385.503 314.72C385.498 314.72 385.493 314.72 385.485 314.72ZM382.263 306.916L385.819 313.571C420.865 312.242 440.916 297.224 448.866 266.346L432.93 262.796C426.891 284.071 409.851 298.911 382.263 306.916Z" fill="black"/>
<path d="M387.741 305.941C387.364 305.204 386.734 304.622 385.957 304.341C385.401 304.142 384.853 303.877 384.33 303.598L377.094 299.755C375.738 299.092 373.8 300.641 372.393 301.103C368.147 302.499 359.355 305.788 360.079 308.878C360.862 312.211 368.417 310.634 371.098 309.963C371.713 309.81 377.262 311.823 379.018 311.956C381.442 312.14 382.003 311.522 383.188 310.9C383.729 310.616 384.33 310.486 384.985 310.484C385.985 310.476 386.935 310.057 387.56 309.276L387.575 309.259C388.264 308.396 388.386 307.209 387.884 306.224L387.741 305.941Z" fill="white"/>
<path d="M379.814 312.553C379.559 312.553 379.281 312.543 378.977 312.52C378.009 312.446 376.115 311.885 374.287 311.341C373.048 310.971 371.501 310.504 371.188 310.522C368.386 311.229 363.237 312.206 360.813 310.729C360.133 310.313 359.702 309.736 359.531 309.009C358.764 305.732 366.008 302.608 372.22 300.564C372.6 300.439 373.046 300.215 373.517 299.977C374.749 299.357 376.143 298.655 377.349 299.245L384.601 303.096C385.202 303.415 385.697 303.642 386.153 303.805C387.053 304.129 387.8 304.795 388.251 305.681L388.393 305.959C388.998 307.141 388.852 308.572 388.024 309.606C387.292 310.519 386.194 311.037 384.996 311.045C384.404 311.05 383.902 311.165 383.461 311.397C383.28 311.492 383.114 311.589 382.951 311.68C382.166 312.127 381.425 312.553 379.814 312.553ZM371.185 309.384C371.631 309.384 372.467 309.613 374.608 310.249C376.298 310.752 378.213 311.321 379.062 311.384C380.927 311.525 381.537 311.178 382.38 310.693C382.554 310.593 382.73 310.491 382.926 310.389C383.525 310.075 384.216 309.912 384.983 309.907C385.839 309.902 386.617 309.539 387.119 308.912C387.682 308.207 387.779 307.258 387.379 306.475L387.236 306.196C386.915 305.569 386.393 305.099 385.765 304.872C385.256 304.688 384.715 304.443 384.065 304.096L376.829 300.253C376.148 299.919 375.019 300.488 374.025 300.988C373.515 301.243 373.033 301.486 372.572 301.639C364.782 304.201 360.207 306.924 360.635 308.743C360.734 309.167 360.984 309.496 361.402 309.751C362.893 310.662 366.467 310.532 370.963 309.404C371.027 309.394 371.098 309.384 371.185 309.384Z" fill="black"/>
<path d="M117.489 316.1H401.773C407.07 316.1 411.187 319.589 410.585 323.57L390.955 453.955H376.78L389.069 331.585C389.286 329.429 387.03 327.589 384.172 327.589H140.14C135.863 327.589 132.49 330.343 132.814 333.568L144.98 454.72H130.805L110.839 321.735C110.39 318.731 113.495 316.1 117.489 316.1Z" fill="white"/>
<path d="M144.98 455.287H130.805C130.525 455.287 130.285 455.08 130.245 454.802L110.278 321.817C110.079 320.485 110.492 319.142 111.443 318.035C112.791 316.468 115.05 315.531 117.487 315.531H401.771C404.949 315.531 407.891 316.749 409.645 318.787C410.871 320.214 411.403 321.942 411.146 323.654L391.514 454.039C391.473 454.317 391.233 454.521 390.953 454.521H376.778C376.617 454.521 376.464 454.452 376.357 454.335C376.25 454.215 376.197 454.057 376.214 453.896L388.503 331.527C388.59 330.659 388.172 329.996 387.807 329.59C386.997 328.691 385.636 328.156 384.17 328.156H140.14C137.869 328.156 135.758 328.993 134.491 330.394C133.653 331.322 133.268 332.399 133.38 333.507L145.546 454.659C145.562 454.82 145.511 454.978 145.404 455.098C145.294 455.22 145.141 455.287 144.98 455.287ZM131.295 454.151H144.353L132.251 333.624C132.108 332.208 132.605 330.789 133.65 329.633C135.128 327.997 137.555 327.02 140.142 327.02H384.175C385.957 327.02 387.629 327.696 388.654 328.829C389.388 329.643 389.737 330.641 389.637 331.641L377.412 453.386H390.471L410.03 323.486C410.241 322.087 409.81 320.719 408.791 319.53C407.251 317.739 404.631 316.669 401.778 316.669H117.489C115.379 316.669 113.441 317.458 112.305 318.777C111.56 319.642 111.249 320.635 111.4 321.648L131.295 454.151Z" fill="black"/>
<path d="M353.454 311.928L338.178 266.853C337.263 265.44 335.667 264.585 333.952 264.585H293.231C291.383 264.585 290.195 266.381 290.797 267.969C291.036 268.599 291.296 269.222 291.505 269.865L305.313 312.012H305.319C305.362 314.477 307.365 316.46 309.835 316.46H384.98C387.476 316.46 389.5 314.431 389.5 311.93H353.454V311.928Z" fill="white"/>
<path d="M384.978 317.027H309.833C307.116 317.027 304.857 314.837 304.753 312.127L290.965 270.041C290.82 269.597 290.644 269.145 290.473 268.709L290.264 268.17C289.912 267.249 290.045 266.203 290.616 265.376C291.21 264.513 292.163 264.018 293.231 264.018H333.952C335.871 264.018 337.627 264.963 338.655 266.547C338.68 266.586 338.7 266.629 338.716 266.675L353.862 311.364H389.5C389.813 311.364 390.068 311.619 390.068 311.933C390.066 314.74 387.782 317.027 384.978 317.027ZM305.828 311.767C305.862 311.839 305.882 311.915 305.882 311.999C305.92 314.146 307.692 315.891 309.83 315.891H384.975C386.961 315.891 388.613 314.413 388.888 312.497H353.452C353.209 312.497 352.993 312.341 352.914 312.112L337.66 267.106C336.84 265.881 335.456 265.154 333.947 265.154H293.226C292.538 265.154 291.926 265.47 291.546 266.022C291.187 266.542 291.105 267.195 291.322 267.767L291.526 268.295C291.702 268.747 291.883 269.211 292.038 269.686L305.828 311.767Z" fill="black"/>
<path d="M323.187 287.687C323.761 289.596 322.884 291.551 321.227 292.051C319.57 292.551 317.763 291.411 317.189 289.502C316.616 287.593 317.493 285.638 319.15 285.138C320.804 284.638 322.614 285.778 323.187 287.687Z" fill="black"/>
<path d="M187.279 317.106H112.139C110.087 317.106 108.422 315.439 108.422 313.385V312.668H190.998V313.385C190.995 315.439 189.331 317.106 187.279 317.106Z" fill="white"/>
<path d="M187.279 317.675H112.139C109.776 317.675 107.854 315.751 107.854 313.385V312.668C107.854 312.354 108.109 312.099 108.422 312.099H190.998C191.311 312.099 191.566 312.354 191.566 312.668V313.385C191.564 315.751 189.642 317.675 187.279 317.675ZM108.988 313.234V313.385C108.988 315.123 110.4 316.537 112.136 316.537H187.279C189.015 316.537 190.427 315.123 190.427 313.385V313.234H108.988Z" fill="black"/>
<path d="M190.998 312.747H143.747L158.758 268.507C159.655 267.124 161.22 266.284 162.902 266.284H202.843C204.655 266.284 205.823 268.045 205.231 269.599C204.997 270.217 204.742 270.829 204.536 271.457L190.998 312.747Z" fill="white"/>
<path d="M190.998 313.316H143.749C143.566 313.316 143.395 313.227 143.288 313.079C143.181 312.931 143.153 312.739 143.211 312.566L158.223 268.326C158.238 268.283 158.258 268.239 158.284 268.198C159.293 266.644 161.021 265.715 162.905 265.715H202.848C203.898 265.715 204.836 266.203 205.423 267.053C205.983 267.867 206.111 268.895 205.767 269.801L205.563 270.329C205.397 270.755 205.224 271.197 205.081 271.633L191.538 312.926C191.459 313.158 191.242 313.316 190.998 313.316ZM144.539 312.178H190.585L204 271.279C204.153 270.814 204.332 270.357 204.502 269.916L204.704 269.395C204.915 268.839 204.834 268.203 204.487 267.696C204.118 267.157 203.521 266.851 202.848 266.851H162.905C161.429 266.851 160.076 267.563 159.273 268.757L144.539 312.178Z" fill="black"/>
<path d="M173.463 288.917C172.9 290.788 173.761 292.702 175.385 293.192C177.009 293.682 178.783 292.564 179.346 290.693C179.91 288.823 179.048 286.909 177.424 286.419C175.798 285.929 174.026 287.047 173.463 288.917Z" fill="black"/>
<path d="M450.551 456.831H373.178C368.534 456.831 365.06 452.564 365.995 448.009L377.734 390.882C378.72 386.076 382.944 382.629 387.843 382.629H454.209L450.551 456.831Z" fill="white"/>
<path d="M450.551 457.397H373.178C370.793 457.397 368.56 456.336 367.053 454.485C365.547 452.635 364.958 450.231 365.437 447.894L377.175 390.767C378.213 385.722 382.696 382.062 387.84 382.062H454.207C454.362 382.062 454.51 382.126 454.617 382.238C454.724 382.35 454.78 382.504 454.772 382.659L451.112 456.861C451.104 457.16 450.855 457.397 450.551 457.397ZM387.843 383.198C383.234 383.198 379.217 386.477 378.289 390.996L366.551 448.123C366.141 450.127 366.643 452.184 367.935 453.768C369.225 455.353 371.137 456.262 373.181 456.262H450.013L453.618 383.198H387.843V383.198Z" fill="black"/>
<path d="M460.457 456.831H445.443C440.799 456.831 437.324 452.564 438.26 448.009L451.189 385.086C451.482 383.655 452.741 382.629 454.199 382.629H458.061C459.661 382.629 460.995 383.859 461.125 385.456L466.414 450.362C466.697 453.845 463.949 456.831 460.457 456.831Z" fill="white"/>
<path d="M460.457 457.397H445.443C443.057 457.397 440.827 456.336 439.318 454.485C437.811 452.635 437.222 450.231 437.702 447.894L450.63 384.971C450.977 383.284 452.476 382.06 454.196 382.06H458.058C459.939 382.06 461.535 383.532 461.688 385.408L466.977 450.313C467.125 452.13 466.503 453.944 465.267 455.284C464.033 456.629 462.279 457.397 460.457 457.397ZM454.199 383.198C453.016 383.198 451.981 384.04 451.744 385.201L438.816 448.123C438.405 450.127 438.907 452.184 440.2 453.768C441.489 455.353 443.401 456.262 445.443 456.262H460.457C461.984 456.262 463.396 455.641 464.433 454.516C465.468 453.391 465.97 451.931 465.845 450.407L460.556 385.502C460.452 384.211 459.353 383.198 458.058 383.198H454.199Z" fill="black"/>
<path d="M440.009 413.185H379.429C379.115 413.185 378.86 412.93 378.86 412.616C378.86 412.302 379.115 412.047 379.429 412.047H440.009C441.548 412.047 442.871 411.001 443.225 409.5L448.566 386.931C448.637 386.625 448.943 386.436 449.249 386.51C449.555 386.582 449.743 386.888 449.669 387.194L444.329 409.763C443.855 411.777 442.078 413.185 440.009 413.185Z" fill="black"/>
<path d="M416.626 412.616L414.929 419.468C414.653 420.627 413.621 421.446 412.431 421.446H400.433C399.127 421.446 398.179 420.198 398.531 418.94L400.287 412.616H416.626Z" fill="white"/>
<path d="M412.433 422.015H400.435C399.635 422.015 398.895 421.647 398.411 421.009C397.927 420.371 397.771 419.56 397.985 418.787L399.742 412.463C399.811 412.218 400.035 412.047 400.29 412.047H416.629C416.805 412.047 416.968 412.129 417.075 412.264C417.182 412.402 417.22 412.58 417.18 412.751L415.482 419.603C415.145 421.022 413.891 422.015 412.433 422.015ZM400.721 413.185L399.079 419.093C398.959 419.522 399.046 419.968 399.314 420.323C399.581 420.678 399.989 420.879 400.433 420.879H412.431C413.361 420.879 414.162 420.246 414.378 419.338L415.903 413.185H400.721V413.185Z" fill="black"/>
<path d="M434.48 451.658H370.122C369.809 451.658 369.554 451.403 369.554 451.089C369.554 450.775 369.809 450.52 370.122 450.52H434.48C434.793 450.52 435.048 450.775 435.048 451.089C435.048 451.405 434.793 451.658 434.48 451.658Z" fill="black"/>
<path d="M403.132 380.036H398.108C396.752 380.036 395.651 381.138 395.651 382.496H405.589C405.589 381.138 404.488 380.036 403.132 380.036Z" fill="black"/>
<path d="M405.589 383.065H395.651C395.337 383.065 395.082 382.81 395.082 382.496C395.082 380.827 396.438 379.467 398.108 379.467H403.132C404.799 379.467 406.158 380.824 406.158 382.496C406.158 382.81 405.903 383.065 405.589 383.065ZM396.306 381.927H404.934C404.692 381.161 403.976 380.602 403.132 380.602H398.108C397.264 380.605 396.548 381.161 396.306 381.927Z" fill="black"/>
<path d="M443.394 380.036H438.369C437.013 380.036 435.912 381.138 435.912 382.496H445.851C445.851 381.138 444.75 380.036 443.394 380.036Z" fill="black"/>
<path d="M445.851 383.065H435.912C435.599 383.065 435.344 382.81 435.344 382.496C435.344 380.827 436.7 379.467 438.369 379.467H443.394C445.061 379.467 446.419 380.824 446.419 382.496C446.419 382.81 446.164 383.065 445.851 383.065ZM436.567 381.927H445.196C444.954 381.161 444.237 380.602 443.394 380.602H438.369C437.526 380.605 436.809 381.161 436.567 381.927Z" fill="black"/>
<path d="M442.081 379.903L442.891 375.09C443.465 371.676 441.166 368.91 437.755 368.91H407.631C404.22 368.91 400.991 371.678 400.417 375.09L399.607 379.903H401.911L402.54 376.157C402.987 373.5 405.5 371.347 408.156 371.347H436.407C439.06 371.347 440.85 373.5 440.404 376.157L439.774 379.903H442.081Z" fill="white"/>
<path d="M442.081 380.472H439.777C439.608 380.472 439.45 380.398 439.343 380.271C439.236 380.143 439.19 379.975 439.216 379.809L439.845 376.063C440.037 374.932 439.777 373.881 439.116 373.097C438.471 372.334 437.51 371.913 436.409 371.913H408.159C405.773 371.913 403.507 373.858 403.104 376.251L402.474 379.998C402.428 380.271 402.191 380.472 401.913 380.472H399.607C399.438 380.472 399.28 380.398 399.173 380.271C399.066 380.143 399.02 379.975 399.046 379.809L399.856 374.996C400.473 371.326 403.96 368.34 407.631 368.34H437.755C439.557 368.34 441.145 369.045 442.224 370.321C443.322 371.622 443.758 373.35 443.45 375.185L442.639 379.998C442.596 380.271 442.359 380.472 442.081 380.472ZM440.447 379.334H441.602L442.331 374.993C442.583 373.493 442.236 372.094 441.357 371.053C440.498 370.035 439.218 369.473 437.755 369.473H407.631C404.491 369.473 401.506 372.033 400.978 375.182L400.28 379.334H401.434L401.985 376.063C402.474 373.148 405.245 370.778 408.159 370.778H436.409C437.849 370.778 439.119 371.342 439.983 372.365C440.862 373.406 441.212 374.787 440.964 376.251L440.447 379.334Z" fill="black"/>
<path d="M436.259 366.914H409.798C408.732 366.914 407.72 367.779 407.542 368.846L407.152 371.16C406.973 372.227 407.692 373.095 408.758 373.095H435.219C436.284 373.095 437.296 372.23 437.475 371.16L437.865 368.846C438.046 367.779 437.327 366.914 436.259 366.914Z" fill="black"/>
<path d="M435.221 373.664H408.76C408.08 373.664 407.478 373.396 407.065 372.906C406.647 372.411 406.479 371.757 406.596 371.068L406.986 368.754C407.213 367.404 408.449 366.347 409.803 366.347H436.264C436.945 366.347 437.546 366.615 437.959 367.105C438.377 367.6 438.545 368.254 438.428 368.943L438.038 371.257C437.809 372.605 436.572 373.664 435.221 373.664ZM409.798 367.483C409.01 367.483 408.235 368.152 408.102 368.943L407.712 371.257C407.654 371.612 407.73 371.936 407.929 372.173C408.123 372.403 408.416 372.528 408.758 372.528H435.219C436.007 372.528 436.781 371.86 436.914 371.068L437.304 368.754C437.363 368.399 437.286 368.075 437.087 367.838C436.894 367.608 436.6 367.483 436.259 367.483H409.798Z" fill="black"/>
<path d="M445.3 451.658C445.104 451.658 444.91 451.556 444.806 451.369C444.65 451.096 444.745 450.749 445.017 450.594L455.104 444.842V387.061C455.104 386.747 455.359 386.492 455.672 386.492C455.986 386.492 456.241 386.747 456.241 387.061V445.173C456.241 445.378 456.131 445.566 455.955 445.668L445.583 451.584C445.494 451.635 445.397 451.658 445.3 451.658Z" fill="black"/>
</svg>
