<svg width="212" height="171" viewBox="0 0 212 171" fill="none" xmlns="http://www.w3.org/2000/svg">
<path d="M185.641 0.569092H68.2024C63.6192 0.569092 59.9053 4.28723 59.9053 8.87557V138.594C59.9053 143.183 63.6192 146.901 68.2024 146.901H185.641C190.224 146.901 193.938 143.183 193.938 138.594V8.87557C193.938 4.28723 190.224 0.569092 185.641 0.569092Z" fill="white"/>
<path d="M185.641 147.47H68.2024C63.3134 147.47 59.3369 143.489 59.3369 138.594V8.87555C59.3369 3.98098 63.3134 0 68.2024 0H185.641C190.53 0 194.506 3.98098 194.506 8.87555V138.594C194.506 143.489 190.53 147.47 185.641 147.47ZM68.2024 1.1356C63.9404 1.1356 60.4738 4.6062 60.4738 8.873V138.594C60.4738 142.861 63.9404 146.332 68.2024 146.332H185.641C189.903 146.332 193.369 142.861 193.369 138.594V8.87555C193.369 4.60875 189.903 1.13815 185.641 1.13815H68.2024V1.1356Z" fill="black"/>
<path d="M187.45 14.768H66.5022C66.1887 14.768 65.9338 14.5128 65.9338 14.1989C65.9338 13.885 66.1887 13.6298 66.5022 13.6298H187.45C187.764 13.6298 188.019 13.885 188.019 14.1989C188.019 14.5128 187.764 14.768 187.45 14.768Z" fill="black"/>
<path d="M68.6281 9.08994C69.8036 9.08994 70.7565 8.13593 70.7565 6.95909C70.7565 5.78226 69.8036 4.82825 68.6281 4.82825C67.4526 4.82825 66.4996 5.78226 66.4996 6.95909C66.4996 8.13593 67.4526 9.08994 68.6281 9.08994Z" fill="black"/>
<path d="M77.1392 9.08994C78.3147 9.08994 79.2676 8.13593 79.2676 6.95909C79.2676 5.78226 78.3147 4.82825 77.1392 4.82825C75.9637 4.82825 75.0108 5.78226 75.0108 6.95909C75.0108 8.13593 75.9637 9.08994 77.1392 9.08994Z" fill="black"/>
<path d="M85.6478 9.08994C86.8233 9.08994 87.7763 8.13593 87.7763 6.95909C87.7763 5.78226 86.8233 4.82825 85.6478 4.82825C84.4723 4.82825 83.5194 5.78226 83.5194 6.95909C83.5194 8.13593 84.4723 9.08994 85.6478 9.08994Z" fill="black"/>
<path d="M187.45 7.5256H175.465C175.151 7.5256 174.897 7.27041 174.897 6.95653C174.897 6.64264 175.151 6.38745 175.465 6.38745H187.45C187.764 6.38745 188.019 6.64264 188.019 6.95653C188.019 7.27041 187.764 7.5256 187.45 7.5256Z" fill="black"/>
<path d="M170.074 7.5256H120.432C120.118 7.5256 119.863 7.27041 119.863 6.95653C119.863 6.64264 120.118 6.38745 120.432 6.38745H170.074C170.387 6.38745 170.642 6.64264 170.642 6.95653C170.642 7.27041 170.387 7.5256 170.074 7.5256Z" fill="black"/>
<path d="M107.383 7.5256H96.8176C96.5041 7.5256 96.2492 7.27041 96.2492 6.95653C96.2492 6.64264 96.5041 6.38745 96.8176 6.38745H107.383C107.697 6.38745 107.952 6.64264 107.952 6.95653C107.952 7.27041 107.697 7.5256 107.383 7.5256Z" fill="black"/>
<path d="M106.585 69.976C110.452 63.2033 117.648 58.4184 126.009 57.5533L126.59 24.4423C102.573 24.5239 81.3782 38.0695 71.7251 58.0918L106.585 69.976Z" fill="white"/>
<path d="M106.585 70.5451C106.524 70.5451 106.463 70.5349 106.402 70.5145L71.5416 58.6277C71.3887 58.5741 71.2637 58.4592 71.2 58.3087C71.1363 58.1581 71.1414 57.9897 71.2128 57.8417C81.1234 37.2835 102.859 23.9497 126.588 23.8706C126.756 23.8783 126.886 23.9319 126.993 24.039C127.1 24.1488 127.159 24.2942 127.156 24.4473L126.575 57.5584C126.57 57.8468 126.351 58.0841 126.065 58.1147C118.041 58.9466 110.942 63.4839 107.075 70.2542C106.975 70.4379 106.787 70.5451 106.585 70.5451ZM72.5204 57.76L106.331 69.287C110.343 62.5627 117.429 58.0254 125.451 57.0429L126.012 25.0139C103.167 25.3022 82.2857 38.0873 72.5204 57.76Z" fill="black"/>
<path d="M104.946 34.0093C104.722 34.0093 104.511 33.8741 104.419 33.6546C104.302 33.3637 104.442 33.032 104.732 32.9146C110.154 30.7174 115.866 29.347 121.711 28.8417C122.025 28.8162 122.298 29.0459 122.326 29.3598C122.354 29.6736 122.122 29.9467 121.808 29.9748C116.075 30.4724 110.473 31.8147 105.155 33.9711C105.089 33.9966 105.015 34.0093 104.946 34.0093Z" fill="black"/>
<path d="M85.8109 46.7791C85.6682 46.7791 85.5254 46.7256 85.4133 46.6158C85.189 46.3964 85.1864 46.0365 85.4056 45.812C89.4968 41.6294 94.2456 38.1026 99.517 35.3313C99.7948 35.1858 100.136 35.293 100.284 35.5711C100.43 35.8493 100.322 36.1938 100.045 36.3393C94.8778 39.0545 90.2258 42.5098 86.2162 46.6082C86.1066 46.7205 85.9588 46.7791 85.8109 46.7791Z" fill="black"/>
<path d="M152.916 84.6495C150.949 95.5283 141.048 104.082 128.92 104.46C125.303 104.572 121.849 103.947 118.714 102.725L99.7821 132.069C108.581 136.045 118.522 137.995 128.92 137.395C159.159 135.657 182.931 112.866 185.572 85.433L152.916 84.6495Z" fill="white"/>
<path d="M125.293 138.069C116.366 138.069 107.536 136.196 99.5502 132.587C99.3998 132.518 99.2851 132.388 99.2392 132.23C99.1933 132.072 99.2163 131.901 99.308 131.76L118.24 102.416C118.385 102.189 118.67 102.097 118.923 102.194C122.086 103.429 125.443 103.998 128.905 103.891C140.533 103.529 150.398 95.3931 152.361 84.5475C152.412 84.2719 152.664 84.0779 152.932 84.0805L185.587 84.8639C185.745 84.8665 185.893 84.9379 185.997 85.0553C186.102 85.1727 186.153 85.3309 186.138 85.4866C183.423 113.683 158.84 136.244 128.953 137.962C127.732 138.033 126.511 138.069 125.293 138.069ZM100.621 131.819C109.377 135.657 119.137 137.39 128.889 136.828C158.007 135.154 181.996 113.348 184.947 85.9867L153.385 85.2288C151.127 96.3603 140.928 104.654 128.94 105.027C125.481 105.134 122.122 104.593 118.943 103.416L100.621 131.819Z" fill="black"/>
<path d="M125.234 133.322C118.854 133.322 112.627 132.312 106.726 130.316C106.427 130.216 106.269 129.892 106.369 129.596C106.468 129.298 106.789 129.14 107.088 129.239C112.871 131.194 118.976 132.184 125.232 132.184C126.356 132.184 127.495 132.151 128.614 132.087C128.925 132.067 129.195 132.309 129.213 132.62C129.231 132.934 128.991 133.202 128.678 133.22C127.538 133.289 126.379 133.322 125.234 133.322Z" fill="black"/>
<path d="M140.605 131.273C140.355 131.273 140.125 131.107 140.057 130.854C139.975 130.551 140.153 130.239 140.454 130.155C160.319 124.732 175.659 108.946 179.536 89.937C179.599 89.6282 179.898 89.4317 180.206 89.493C180.512 89.5568 180.711 89.8554 180.65 90.1641C176.686 109.589 161.027 125.717 140.755 131.252C140.704 131.265 140.653 131.273 140.605 131.273Z" fill="black"/>
<path d="M93.8582 128.981L112.963 99.5502C107.248 95.314 103.575 88.7224 103.575 81.2453C103.575 79.4386 103.792 77.6778 104.2 75.9833L69.2067 64.2394C67.328 69.7541 66.3135 75.6235 66.3135 81.7047C66.311 101.837 77.3457 119.169 93.8582 128.981Z" fill="white"/>
<path d="M93.8582 129.55C93.7588 129.55 93.6594 129.525 93.5701 129.471C76.1476 119.118 65.7451 101.263 65.7451 81.7046C65.7451 75.6898 66.729 69.7515 68.6688 64.0556C68.7682 63.7596 69.0894 63.6014 69.3876 63.7009L104.381 75.4448C104.661 75.5392 104.822 75.8301 104.753 76.1159C104.35 77.7951 104.143 79.5202 104.143 81.2453C104.143 88.2733 107.48 94.7781 113.302 99.0934C113.544 99.272 113.603 99.6089 113.44 99.8589L94.3349 129.29C94.2252 129.459 94.0443 129.55 93.8582 129.55ZM69.5635 64.959C67.7818 70.3716 66.8794 76.0037 66.8794 81.7046C66.8794 100.681 76.8869 118.026 93.6798 128.213L112.198 99.6854C106.351 95.1558 103.007 88.4672 103.007 81.2478C103.007 79.607 103.183 77.9661 103.529 76.3609L69.5635 64.959Z" fill="black"/>
<path d="M136.86 56.3003C147.905 57.9463 156.396 66.5131 157.405 77.1035L210.804 78.6525C210.804 78.6295 210.804 78.6066 210.804 78.5836C210.804 39.3658 179.592 5.80049 137.816 1.4801L136.86 56.3003Z" fill="white"/>
<path d="M210.799 79.2216C210.797 79.2216 210.792 79.2216 210.789 79.2216L157.39 77.6726C157.104 77.6649 156.867 77.4429 156.842 77.1596C155.858 66.8244 147.607 58.4771 136.778 56.8643C136.496 56.8234 136.289 56.5785 136.294 56.2926L137.25 1.475C137.253 1.31678 137.321 1.16622 137.441 1.05904C137.561 0.954412 137.717 0.903374 137.877 0.918686C158.147 3.01381 176.798 12.1216 190.392 26.5578C203.922 40.9276 211.375 59.406 211.375 78.5862C211.375 78.7393 211.314 78.9204 211.202 79.0276C211.092 79.1323 210.95 79.2216 210.799 79.2216ZM157.917 76.5497L210.236 78.0681C209.966 39.131 179.207 6.62731 138.372 2.11298L137.434 55.8154C148.364 57.6554 156.686 66.0818 157.917 76.5497Z" fill="black"/>
<path d="M76.9889 64.4639H7.09742C3.6537 64.4639 0.859985 67.2582 0.859985 70.7084V163.68C0.859985 167.127 3.65115 169.924 7.09742 169.924H76.9889C80.4326 169.924 83.2263 167.13 83.2263 163.68V70.7084C83.2238 67.2608 80.4326 64.4639 76.9889 64.4639Z" fill="white"/>
<path d="M76.9889 170.491H7.09739C3.34524 170.491 0.294067 167.436 0.294067 163.68V70.7084C0.294067 66.952 3.34524 63.8973 7.09739 63.8973H76.9889C80.741 63.8973 83.7922 66.952 83.7922 70.7084V163.68C83.7922 167.436 80.741 170.491 76.9889 170.491ZM7.09484 65.0329C3.96975 65.0329 1.42583 67.5797 1.42583 70.7084V163.68C1.42583 166.808 3.96975 169.355 7.09484 169.355H76.9863C80.1114 169.355 82.6553 166.808 82.6553 163.68V70.7084C82.6553 67.5797 80.1114 65.0329 76.9863 65.0329H7.09484Z" fill="black"/>
<path d="M28.5933 94.6019H10.6508V153.63H28.5933V94.6019Z" fill="white"/>
<path d="M28.5933 154.199H10.6507C10.3372 154.199 10.0823 153.944 10.0823 153.63V94.6019C10.0823 94.288 10.3372 94.0328 10.6507 94.0328H28.5933C28.9068 94.0328 29.1617 94.288 29.1617 94.6019V153.63C29.1617 153.944 28.9068 154.199 28.5933 154.199ZM11.2192 153.061H28.0248V95.171H11.2192V153.061Z" fill="black"/>
<path d="M51.0144 78.3131H33.0718V153.63H51.0144V78.3131Z" fill="white"/>
<path d="M51.0118 154.199H33.0693C32.7558 154.199 32.5009 153.944 32.5009 153.63V78.3131C32.5009 77.9992 32.7558 77.744 33.0693 77.744H51.0118C51.3253 77.744 51.5802 77.9992 51.5802 78.3131V153.63C51.5802 153.944 51.3253 154.199 51.0118 154.199ZM33.6377 153.061H50.4434V78.8822H33.6377V153.061Z" fill="black"/>
<path d="M73.4329 118.439H55.4904V153.63H73.4329V118.439Z" fill="white"/>
<path d="M73.4329 154.199H55.4904C55.1769 154.199 54.922 153.944 54.922 153.63V118.439C54.922 118.126 55.1769 117.87 55.4904 117.87H73.4329C73.7465 117.87 74.0014 118.126 74.0014 118.439V153.63C74.0014 153.944 73.7465 154.199 73.4329 154.199ZM56.0589 153.061H72.8645V119.009H56.0589V153.061Z" fill="black"/>
</svg>
