<svg width="162" height="145" viewBox="0 0 162 145" fill="none" xmlns="http://www.w3.org/2000/svg">
<path d="M98.1341 38.132L99.7935 44.009L106.446 43.6518C107.073 44.943 107.797 46.168 108.616 47.3112L105.139 52.9918L109.513 57.2509L115.098 53.6119C116.273 54.4055 117.512 55.0997 118.804 55.6866L118.628 62.3573L124.542 63.8578L127.555 57.917C128.957 58.0139 130.377 57.9935 131.804 57.8506L134.983 63.7124L140.853 62.0511L140.496 55.3906C141.786 54.7628 143.009 54.0355 144.151 53.2189L149.826 56.6997L154.08 52.3206L150.442 46.7294C151.235 45.5529 151.928 44.3127 152.515 43.0189L159.178 43.195L160.677 37.2745L154.743 34.2582C154.842 32.8546 154.819 31.4332 154.676 30.0041L160.531 26.8219L158.872 20.9449L152.219 21.3021C151.592 20.0109 150.868 18.7859 150.05 17.6427L153.527 11.9621L149.153 7.70298L143.568 11.3446C142.393 10.5509 141.154 9.8568 139.861 9.26986L140.037 2.59916L134.124 1.09863L131.111 7.03949C129.709 6.93996 128.289 6.96293 126.861 7.10583L123.683 1.24409L117.812 2.90539L118.169 9.56588C116.88 10.1936 115.656 10.9184 114.514 11.7376L108.84 8.25675L104.586 12.6358L108.223 18.2271C107.43 19.4035 106.737 20.6437 106.151 21.9375L99.4876 21.7615L97.9888 27.6819L103.923 30.6983C103.823 32.1018 103.846 33.5232 103.989 34.9523L98.1341 38.132ZM125.064 17.3441C133.412 14.981 142.092 19.8399 144.45 28.1974C146.81 36.5549 141.957 45.2442 133.609 47.6047C125.261 49.9678 116.581 45.1089 114.223 36.7514C111.863 28.3964 116.716 19.7072 125.064 17.3441Z" fill="white"/>
<path d="M124.544 64.4244C124.499 64.4244 124.453 64.4192 124.404 64.4065L118.491 62.906C118.233 62.8396 118.055 62.6048 118.062 62.3394L118.228 56.0413C117.147 55.5309 116.097 54.9414 115.098 54.2882L109.824 57.7256C109.6 57.871 109.309 57.843 109.118 57.6567L104.744 53.3975C104.553 53.2113 104.517 52.9203 104.654 52.6932L107.938 47.3316C107.265 46.3568 106.65 45.3207 106.105 44.2387L99.8241 44.5756C99.5641 44.5883 99.3194 44.4174 99.248 44.1622L97.5886 38.2851C97.5172 38.0299 97.6319 37.7569 97.8639 37.6318L103.393 34.6282C103.291 33.4212 103.273 32.2141 103.337 31.0326L97.7364 28.1846C97.4994 28.0647 97.377 27.7968 97.4433 27.539L98.9421 21.6186C99.0084 21.3608 99.2608 21.1848 99.508 21.1899L105.799 21.3557C106.309 20.2737 106.898 19.2223 107.55 18.222L104.112 12.9395C103.966 12.7175 103.994 12.424 104.18 12.2326L108.435 7.85356C108.621 7.66217 108.911 7.62644 109.138 7.76424L114.494 11.0511C115.465 10.3774 116.502 9.76239 117.583 9.21628L117.247 2.92837C117.231 2.66297 117.405 2.42309 117.66 2.35164L123.53 0.690344C123.785 0.618891 124.058 0.733726 124.182 0.96595L127.183 6.50105C128.388 6.39897 129.594 6.38111 130.774 6.44491L133.619 0.838354C133.739 0.601027 134.006 0.478535 134.264 0.544885L140.178 2.04541C140.435 2.11176 140.613 2.34653 140.606 2.61193L140.445 8.90495C141.526 9.41533 142.576 10.0048 143.575 10.6581L148.849 7.22069C149.074 7.07523 149.364 7.1033 149.555 7.28959L153.929 11.5487C154.121 11.735 154.156 12.0259 154.019 12.2531L150.736 17.6146C151.409 18.5869 152.023 19.6255 152.568 20.7075L158.849 20.3707C159.109 20.3554 159.354 20.5289 159.425 20.7841L161.085 26.6612C161.156 26.9163 161.041 27.1894 160.809 27.3144L155.28 30.318C155.382 31.5277 155.4 32.7322 155.337 33.9137L160.937 36.7616C161.174 36.8816 161.296 37.1495 161.23 37.4073L159.731 43.3277C159.665 43.5854 159.415 43.7615 159.165 43.7564L152.874 43.5905C152.364 44.6726 151.776 45.7239 151.123 46.7243L154.557 52.0042C154.702 52.2262 154.674 52.5197 154.488 52.7111L150.233 57.0902C150.047 57.2816 149.757 57.3173 149.53 57.1795L144.174 53.8926C143.201 54.5663 142.163 55.1839 141.085 55.7274L141.421 62.0153C141.437 62.2807 141.263 62.5206 141.009 62.5921L135.138 64.2534C134.883 64.3248 134.61 64.21 134.486 63.9778L131.485 58.4427C130.28 58.5447 129.074 58.5626 127.894 58.4988L125.049 64.1054C124.952 64.307 124.753 64.4244 124.544 64.4244ZM119.209 61.9158L124.244 63.1918L127.053 57.6567C127.157 57.4525 127.374 57.33 127.598 57.3479C128.959 57.4423 130.356 57.4219 131.753 57.2841C131.977 57.2611 132.199 57.3785 132.309 57.5776L135.271 63.0412L140.267 61.6275L139.933 55.4187C139.92 55.1915 140.045 54.9772 140.251 54.8776C141.513 54.2626 142.716 53.5507 143.825 52.7545C144.011 52.6218 144.259 52.6141 144.452 52.7315L149.739 55.975L153.361 52.2492L149.971 47.0382C149.846 46.8468 149.849 46.5992 149.976 46.4104C150.748 45.262 151.431 44.0422 152.002 42.7841C152.097 42.5774 152.311 42.4447 152.535 42.4524L158.745 42.6157L160.019 37.5757L154.49 34.7635C154.286 34.6588 154.164 34.4445 154.182 34.2174C154.276 32.8572 154.256 31.4587 154.118 30.0578C154.095 29.8306 154.212 29.6112 154.411 29.5014L159.869 26.5361L158.457 21.5318L152.255 21.8661C152.025 21.8763 151.814 21.7538 151.714 21.5471C151.1 20.2839 150.386 19.0794 149.594 17.9693C149.461 17.7831 149.453 17.5355 149.571 17.3416L152.81 12.0489L149.089 8.42264L143.884 11.8167C143.693 11.9417 143.445 11.9392 143.257 11.8116C142.11 11.0383 140.891 10.357 139.632 9.78281C139.426 9.68839 139.293 9.47913 139.301 9.24946L139.464 3.033L134.43 1.75704L131.621 7.29214C131.516 7.49629 131.302 7.61623 131.075 7.60092C129.716 7.5065 128.317 7.52692 126.92 7.66472C126.693 7.68769 126.474 7.5703 126.364 7.37125L123.402 1.90761L118.404 3.32137L118.738 9.53017C118.751 9.75729 118.626 9.97165 118.419 10.0712C117.155 10.6862 115.954 11.4007 114.845 12.1944C114.659 12.3271 114.412 12.3373 114.218 12.2173L108.932 8.97385L105.31 12.6996L108.7 17.9106C108.825 18.102 108.822 18.3496 108.695 18.5384C107.922 19.6868 107.242 20.9066 106.668 22.1647C106.574 22.3714 106.365 22.5015 106.135 22.4964L99.926 22.3331L98.6515 27.3731L104.18 30.1853C104.384 30.29 104.507 30.5043 104.489 30.7315C104.394 32.0942 104.415 33.4926 104.553 34.8911C104.575 35.1182 104.458 35.3377 104.259 35.4474L98.8019 38.4127L100.214 43.417L106.416 43.0827C106.645 43.07 106.857 43.195 106.956 43.4017C107.571 44.6649 108.284 45.8694 109.077 46.9795C109.21 47.1658 109.217 47.4133 109.1 47.6073L105.86 52.8999L109.582 56.5262L114.787 53.1321C114.978 53.0071 115.225 53.0097 115.414 53.1372C116.558 53.9105 117.779 54.5918 119.039 55.166C119.245 55.2604 119.378 55.4697 119.37 55.6994L119.209 61.9158ZM129.311 48.7735C126.566 48.7735 123.854 48.0717 121.391 46.6937C117.598 44.5705 114.856 41.0948 113.675 36.9071C112.493 32.7194 113.01 28.3224 115.131 24.5227C117.252 20.7254 120.723 17.9796 124.906 16.798C129.089 15.6139 133.481 16.132 137.277 18.2552C141.07 20.3783 143.812 23.8541 144.995 28.0417C146.178 32.2294 145.66 36.6264 143.54 40.4262C141.419 44.2234 137.947 46.9693 133.762 48.1534C132.293 48.5693 130.8 48.7735 129.311 48.7735ZM125.217 17.8902C121.325 18.9927 118.095 21.5446 116.122 25.0764C114.15 28.6108 113.668 32.7015 114.769 36.5957C115.87 40.49 118.419 43.7258 121.947 45.701C125.477 47.6762 129.563 48.1585 133.453 47.056C137.346 45.9536 140.575 43.4017 142.548 39.8699C144.521 36.3355 145.003 32.2447 143.902 28.3505C142.8 24.4538 140.251 21.2205 136.724 19.2453C133.196 17.2701 129.11 16.7904 125.217 17.8902ZM125.064 17.3441H125.07H125.064Z" fill="black"/>
<path d="M1.07778 99.9597L3.91738 110.017L15.3038 109.404C16.377 111.614 17.6183 113.709 19.0152 115.667L13.0632 125.387L20.5472 132.675L30.106 126.443C32.1171 127.801 34.2379 128.988 36.4479 129.993L36.1497 141.408L46.2693 143.975L51.4259 133.808C53.8246 133.977 56.2538 133.938 58.6983 133.696L64.1379 143.728L74.1835 140.885L73.5718 129.485C75.7792 128.411 77.872 127.168 79.8271 125.77L89.5388 131.729L96.8188 124.236L90.5941 114.666C91.9502 112.653 93.1355 110.53 94.1398 108.32L105.542 108.618L108.106 98.4873L97.9506 93.3248C98.1188 90.9234 98.0806 88.4889 97.8384 86.0442L107.859 80.5984L105.019 70.5413L93.6325 71.1538C92.5594 68.9438 91.318 66.8487 89.9212 64.8914L95.8731 55.1711L88.3892 47.8829L78.8304 54.1146C76.8192 52.757 74.6984 51.5704 72.491 50.5649L72.7892 39.1502L62.6696 36.583L57.513 46.7498C55.1144 46.5814 52.6826 46.6197 50.2406 46.8621L44.801 36.8305L34.7554 39.6734L35.3671 51.0728C33.1597 52.1471 31.0669 53.3899 29.1119 54.7883L19.4026 48.8296L12.1227 56.322L18.3474 65.8892C16.9913 67.9026 15.806 70.0258 14.8017 72.2383L3.39738 71.9372L0.833069 82.0683L10.9883 87.2308C10.8201 89.6322 10.8584 92.0641 11.1005 94.5114L1.07778 99.9597ZM47.1589 64.3886C61.441 60.3464 76.2941 68.6605 80.3318 82.9615C84.3694 97.2598 76.0647 112.13 61.78 116.172C47.4979 120.214 32.6448 111.9 28.6071 97.5992C24.5695 83.3009 32.8767 68.4309 47.1589 64.3886Z" fill="white"/>
<path d="M46.2693 144.547C46.2234 144.547 46.1775 144.542 46.1291 144.529L36.0095 141.962C35.752 141.895 35.5736 141.661 35.5812 141.395L35.8693 130.356C33.8734 129.427 31.9387 128.342 30.1008 127.127L20.8581 133.155C20.6338 133.301 20.3432 133.272 20.152 133.086L12.6681 125.798C12.477 125.612 12.4413 125.321 12.5789 125.094L18.3346 115.692C17.0856 113.909 15.9513 111.995 14.9571 109.994L3.9454 110.586C3.68285 110.601 3.44069 110.428 3.36932 110.173L0.529713 100.115C0.458341 99.8603 0.573047 99.5872 0.805008 99.4622L10.4964 94.195C10.295 91.9697 10.2619 89.7445 10.3944 87.5702L0.57305 82.5761C0.335992 82.4562 0.213637 82.1883 0.279911 81.9305L2.84422 71.7994C2.90795 71.5417 3.13481 71.3605 3.4101 71.3707L14.4371 71.6591C15.365 69.6609 16.4483 67.7215 17.6616 65.8841L11.6409 56.6308C11.4956 56.4088 11.5236 56.1154 11.7097 55.924L18.9897 48.4316C19.1758 48.2402 19.4664 48.2044 19.6932 48.3422L29.0838 54.1045C30.863 52.854 32.7748 51.7184 34.7757 50.7232L34.1844 39.6989C34.1691 39.4335 34.3424 39.1936 34.5973 39.1222L44.643 36.2794C44.8979 36.2079 45.1706 36.3227 45.2955 36.555L50.5567 46.2573C52.7794 46.0557 55.0022 46.0226 57.1739 46.1553L62.1624 36.3227C62.2822 36.0854 62.5498 35.9629 62.8073 36.0293L72.9268 38.5965C73.1843 38.6628 73.3627 38.8976 73.3551 39.163L73.067 50.2026C75.0629 51.1315 77.0002 52.216 78.8329 53.4308L88.0757 47.4031C88.3 47.2577 88.5906 47.2857 88.7817 47.472L96.2656 54.7603C96.4568 54.9466 96.4925 55.2375 96.3549 55.4646L90.5992 64.8659C91.8482 66.6471 92.9825 68.561 93.9766 70.5643L104.988 69.9722C105.251 69.9569 105.493 70.1305 105.564 70.3857L108.404 80.4427C108.475 80.6979 108.361 80.971 108.129 81.096L98.4374 86.3632C98.6388 88.5885 98.6719 90.8137 98.5394 92.9879L108.358 97.982C108.595 98.102 108.718 98.3699 108.651 98.6277L106.087 108.759C106.021 109.017 105.781 109.198 105.521 109.187L94.4941 108.899C93.5662 110.895 92.4829 112.834 91.2696 114.674L97.2903 123.927C97.4356 124.149 97.4076 124.443 97.2215 124.634L89.9415 132.127C89.7555 132.318 89.4649 132.354 89.238 132.216L79.8474 126.454C78.0657 127.707 76.1539 128.84 74.1555 129.835L74.7468 140.859C74.7621 141.125 74.5888 141.365 74.3339 141.436L64.2882 144.279C64.0333 144.35 63.7606 144.235 63.6357 144.003L58.3745 134.301C56.1518 134.502 53.9316 134.536 51.7573 134.403L46.7689 144.235C46.6771 144.429 46.4783 144.547 46.2693 144.547ZM36.7283 140.972L45.9685 143.314L50.9212 133.553C51.0257 133.349 51.2398 133.229 51.4667 133.244C53.8169 133.41 56.2334 133.372 58.6447 133.132C58.869 133.109 59.0908 133.227 59.2004 133.426L64.4233 143.059L73.5972 140.464L73.011 129.519C72.9982 129.291 73.1231 129.077 73.3296 128.978C75.509 127.916 77.5864 126.683 79.5033 125.31C79.6894 125.178 79.9366 125.17 80.1304 125.288L89.4547 131.009L96.1025 124.17L90.1251 114.983C90.0002 114.791 90.0027 114.544 90.1302 114.355C91.4658 112.372 92.6435 110.262 93.63 108.09C93.7243 107.883 93.9358 107.751 94.1627 107.758L105.111 108.047L107.451 98.7961L97.7007 93.8377C97.4968 93.7357 97.3745 93.5187 97.3923 93.2916C97.558 90.9388 97.5198 88.5221 97.2827 86.1054C97.2598 85.8783 97.377 85.6589 97.5758 85.5491L107.198 80.3203L104.606 71.1359L93.6733 71.7229C93.4439 71.7356 93.2323 71.6106 93.1329 71.4039C92.0725 69.2194 90.8388 67.1396 89.47 65.2231C89.3374 65.0369 89.3298 64.7893 89.447 64.5954L95.1619 55.2605L88.3306 48.6051L79.1541 54.5893C78.9629 54.7144 78.7157 54.7118 78.527 54.5842C76.5465 53.2496 74.441 52.0706 72.2692 51.0804C72.0627 50.986 71.9302 50.7768 71.9378 50.5471L72.2259 39.5866L62.9857 37.244L58.033 47.005C57.931 47.2092 57.7169 47.3317 57.4875 47.3138C55.1373 47.1479 52.7234 47.1862 50.3094 47.4236C50.0851 47.4465 49.8634 47.3291 49.7538 47.1301L44.5283 37.4966L35.3544 40.0919L35.9406 51.0371C35.9534 51.2642 35.8285 51.4785 35.622 51.5781C33.4401 52.6397 31.3626 53.8748 29.4483 55.2452C29.2622 55.3779 29.015 55.3881 28.8212 55.2681L19.4969 49.5467L12.8491 56.3859L18.8266 65.5728C18.9515 65.7641 18.9489 66.0117 18.8214 66.2005C17.4883 68.1808 16.3107 70.2887 15.3217 72.4655C15.2273 72.6722 15.0234 72.8049 14.7889 72.7972L3.84089 72.5089L1.50089 81.7595L11.2509 86.7179C11.4548 86.8225 11.5771 87.0369 11.5593 87.264C11.3936 89.6143 11.4319 92.0335 11.6689 94.4502C11.6919 94.6773 11.5746 94.8968 11.3758 95.0065L1.75324 100.235L4.34559 109.42L15.2783 108.833C15.5128 108.82 15.7193 108.948 15.8187 109.152C16.8791 111.334 18.1103 113.413 19.4817 115.332C19.6142 115.519 19.6218 115.766 19.5046 115.96L13.7897 125.295L20.6211 131.951L29.7975 125.966C29.9887 125.841 30.2359 125.844 30.4246 125.971C32.4052 127.306 34.5106 128.485 36.6824 129.475C36.8889 129.57 37.0214 129.779 37.0138 130.009L36.7283 140.972ZM54.4796 117.757C42.5069 117.757 31.4748 109.843 28.0616 97.7524C23.945 83.1733 32.4434 67.9613 47.0034 63.84L47.1589 64.3861L47.0034 63.84C54.0565 61.8444 61.4665 62.7172 67.8645 66.2975C74.2625 69.8804 78.8839 75.7421 80.8798 82.8033C82.8731 89.8644 82.0014 97.2828 78.4251 103.688C74.8463 110.093 68.9912 114.72 61.9381 116.718C59.4502 117.423 56.9445 117.757 54.4796 117.757ZM54.5102 63.9293C52.1065 63.9293 49.69 64.2611 47.3143 64.9348C33.3559 68.8851 25.2093 83.4693 29.1552 97.4461C33.101 111.42 47.6687 119.576 61.6296 115.626C68.3922 113.712 74.0051 109.277 77.4335 103.137C80.8619 96.997 81.698 89.8874 79.7862 83.1172C77.8745 76.3469 73.4443 70.7276 67.3114 67.2953C63.3324 65.0649 58.9455 63.9293 54.5102 63.9293Z" fill="black"/>
</svg>
